%FSTAX23Y23*%
%MOIN*%
%SFA1B1*%

%IPPOS*%
%AMD107*
4,1,8,-0.035400,0.000000,-0.035400,0.000000,-0.015700,-0.019700,0.015700,-0.019700,0.035400,0.000000,0.035400,0.000000,0.015700,0.019700,-0.015700,0.019700,-0.035400,0.000000,0.0*
1,1,0.039370,-0.015700,0.000000*
1,1,0.039370,-0.015700,0.000000*
1,1,0.039370,0.015700,0.000000*
1,1,0.039370,0.015700,0.000000*
%
%AMD108*
4,1,8,-0.041300,0.000000,-0.041300,0.000000,-0.021700,-0.019700,0.021700,-0.019700,0.041300,0.000000,0.041300,0.000000,0.021700,0.019700,-0.021700,0.019700,-0.041300,0.000000,0.0*
1,1,0.039370,-0.021700,0.000000*
1,1,0.039370,-0.021700,0.000000*
1,1,0.039370,0.021700,0.000000*
1,1,0.039370,0.021700,0.000000*
%
%ADD65R,0.039370X0.039370*%
%ADD95C,0.019685*%
%ADD98C,0.009843*%
%ADD99C,0.007874*%
%ADD100C,0.010000*%
%ADD101C,0.011811*%
%ADD104C,0.015748*%
%ADD105C,0.019685*%
%ADD106C,0.157480*%
G04~CAMADD=107~8~0.0~0.0~393.7~708.7~196.9~0.0~15~0.0~0.0~0.0~0.0~0~0.0~0.0~0.0~0.0~0~0.0~0.0~0.0~90.0~708.0~394.0*
%ADD107D107*%
G04~CAMADD=108~8~0.0~0.0~393.7~826.8~196.9~0.0~15~0.0~0.0~0.0~0.0~0~0.0~0.0~0.0~0.0~0~0.0~0.0~0.0~90.0~827.0~393.0*
%ADD108D108*%
%ADD109C,0.025591*%
%ADD110C,0.019685*%
%ADD111C,0.019685*%
%ADD186C,0.005000*%
%ADD188C,0.010000*%
%LNrelia-1*%
%LPD*%
G54D186*
X02292Y02335D02*
Y02194D01*
X02288Y02193*
X02288Y02192*
X02282Y02198*
X02272Y02203*
Y0218*
Y02156*
X02282Y02161*
X02288Y02167*
X02288Y02166*
X02292Y02165*
Y02147*
X02324*
X02326Y02142*
X02326Y02142*
X02321Y02132*
X02368*
X02363Y02142*
X02363Y02142*
X02365Y02147*
X02487*
Y00212*
X02292*
Y00027*
X01789Y00026*
X01787Y00031*
X01788Y00032*
X01793Y00042*
X01746*
X01751Y00032*
X01752Y0003*
X0175Y00026*
X01664Y00025*
X01662Y0003*
X01663Y00032*
X01668Y00042*
X01621*
X01626Y00032*
X01627Y0003*
X01625Y00025*
X00221Y00022*
X00217Y00026*
Y0007*
Y00227*
X0018*
X00176Y00231*
X00176Y0023*
X00174Y0023*
X00181Y00232*
X00187Y00238*
X0019Y00245*
Y00254*
X00187Y00261*
X00181Y00267*
X00174Y0027*
X00165*
X00158Y00267*
X00152Y00261*
X00149Y00254*
Y00245*
X00152Y00238*
X00158Y00232*
X00165Y0023*
X00163Y0023*
X00163Y00231*
X00159Y00227*
X00041*
X00037Y00231*
Y01638*
X0007*
X00074Y01639*
X00077Y01641*
X0008Y01645*
X0008Y01649*
Y0175*
X0008Y01753*
X00077Y01757*
X00074Y01759*
X0007Y0176*
X00037*
Y02147*
X00247*
X00249*
X00254Y02145*
X00256Y02142*
X00262Y02136*
X00272Y02131*
Y02155*
Y02178*
X00262Y02173*
X00256Y02167*
X00256Y02168*
X00252Y02169*
Y02337*
X02288Y02339*
X02292Y02335*
X0022Y00026D02*
X01625D01*
X01665D02*
X01749D01*
X00218Y00031D02*
X01627D01*
X01663D02*
X01751D01*
X01789D02*
X02291D01*
X00218Y00036D02*
X01624D01*
X01667D02*
X01749D01*
X01792D02*
X02291D01*
X00218Y00041D02*
X01622D01*
X01669D02*
X01747D01*
X01794D02*
X02291D01*
X00218Y00046D02*
X02291D01*
X00218Y00051D02*
X02291D01*
X00218Y00056D02*
X02291D01*
X00218Y00061D02*
X02291D01*
X00218Y00066D02*
X02291D01*
X00218Y00071D02*
X02291D01*
X00218Y00076D02*
X02291D01*
X00218Y00081D02*
X02291D01*
X00218Y00086D02*
X02291D01*
X00218Y00091D02*
X02291D01*
X00218Y00096D02*
X02291D01*
X00218Y00101D02*
X02291D01*
X00218Y00106D02*
X02291D01*
X00218Y00111D02*
X02291D01*
X00218Y00116D02*
X02291D01*
X00218Y00121D02*
X02291D01*
X00218Y00126D02*
X02291D01*
X00218Y00131D02*
X02291D01*
X00218Y00136D02*
X02291D01*
X00218Y00141D02*
X02291D01*
X00218Y00146D02*
X02291D01*
X00218Y00151D02*
X02291D01*
X00218Y00156D02*
X02291D01*
X00218Y00161D02*
X02291D01*
X00218Y00166D02*
X02291D01*
X00218Y00171D02*
X02291D01*
X00218Y00176D02*
X02291D01*
X00218Y00181D02*
X02291D01*
X00218Y00186D02*
X02291D01*
X00218Y00191D02*
X02291D01*
X00218Y00196D02*
X02291D01*
X00218Y00201D02*
X02291D01*
X00218Y00206D02*
X02291D01*
X00218Y00211D02*
X02291D01*
X00218Y00216D02*
X02487D01*
X00218Y00221D02*
X02487D01*
X00218Y00226D02*
X02487D01*
X00038Y00231D02*
X00162D01*
X00178D02*
X02487D01*
X00038Y00236D02*
X00155D01*
X00185D02*
X02487D01*
X00038Y00241D02*
X00152D01*
X00189D02*
X02487D01*
X00038Y00246D02*
X00149D01*
X00191D02*
X02487D01*
X00038Y00251D02*
X00149D01*
X00191D02*
X02487D01*
X00038Y00256D02*
X0015D01*
X00191D02*
X02487D01*
X00038Y00261D02*
X00152D01*
X00188D02*
X02487D01*
X00038Y00266D02*
X00157D01*
X00183D02*
X02487D01*
X00038Y00271D02*
X02487D01*
X00038Y00276D02*
X02487D01*
X00038Y00281D02*
X02487D01*
X00038Y00286D02*
X02487D01*
X00038Y00291D02*
X02487D01*
X00038Y00296D02*
X02487D01*
X00038Y00301D02*
X02487D01*
X00038Y00306D02*
X02487D01*
X00038Y00311D02*
X02487D01*
X00038Y00316D02*
X02487D01*
X00038Y00321D02*
X02487D01*
X00038Y00326D02*
X02487D01*
X00038Y00331D02*
X02487D01*
X00038Y00336D02*
X02487D01*
X00038Y00341D02*
X02487D01*
X00038Y00346D02*
X02487D01*
X00038Y00351D02*
X02487D01*
X00038Y00356D02*
X02487D01*
X00038Y00361D02*
X02487D01*
X00038Y00366D02*
X02487D01*
X00038Y00371D02*
X02487D01*
X00038Y00376D02*
X02487D01*
X00038Y00381D02*
X02487D01*
X00038Y00386D02*
X02487D01*
X00038Y00391D02*
X02487D01*
X00038Y00396D02*
X02487D01*
X00038Y00401D02*
X02487D01*
X00038Y00406D02*
X02487D01*
X00038Y00411D02*
X02487D01*
X00038Y00416D02*
X02487D01*
X00038Y00421D02*
X02487D01*
X00038Y00426D02*
X02487D01*
X00038Y00431D02*
X02487D01*
X00038Y00436D02*
X02487D01*
X00038Y00441D02*
X02487D01*
X00038Y00446D02*
X02487D01*
X00038Y00451D02*
X02487D01*
X00038Y00456D02*
X02487D01*
X00038Y00461D02*
X02487D01*
X00038Y00466D02*
X02487D01*
X00038Y00471D02*
X02487D01*
X00038Y00476D02*
X02487D01*
X00038Y00481D02*
X02487D01*
X00038Y00486D02*
X02487D01*
X00038Y00491D02*
X02487D01*
X00038Y00496D02*
X02487D01*
X00038Y00501D02*
X02487D01*
X00038Y00506D02*
X02487D01*
X00038Y00511D02*
X02487D01*
X00038Y00516D02*
X02487D01*
X00038Y00521D02*
X02487D01*
X00038Y00526D02*
X02487D01*
X00038Y00531D02*
X02487D01*
X00038Y00536D02*
X02487D01*
X00038Y00541D02*
X02487D01*
X00038Y00546D02*
X02487D01*
X00038Y00551D02*
X02487D01*
X00038Y00556D02*
X02487D01*
X00038Y00561D02*
X02487D01*
X00038Y00566D02*
X02487D01*
X00038Y00571D02*
X02487D01*
X00038Y00576D02*
X02487D01*
X00038Y00581D02*
X02487D01*
X00038Y00586D02*
X02487D01*
X00038Y00591D02*
X02487D01*
X00038Y00596D02*
X02487D01*
X00038Y00601D02*
X02487D01*
X00038Y00606D02*
X02487D01*
X00038Y00611D02*
X02487D01*
X00038Y00616D02*
X02487D01*
X00038Y00621D02*
X02487D01*
X00038Y00626D02*
X02487D01*
X00038Y00631D02*
X02487D01*
X00038Y00636D02*
X02487D01*
X00038Y00641D02*
X02487D01*
X00038Y00646D02*
X02487D01*
X00038Y00651D02*
X02487D01*
X00038Y00656D02*
X02487D01*
X00038Y00661D02*
X02487D01*
X00038Y00666D02*
X02487D01*
X00038Y00671D02*
X02487D01*
X00038Y00676D02*
X02487D01*
X00038Y00681D02*
X02487D01*
X00038Y00686D02*
X02487D01*
X00038Y00691D02*
X02487D01*
X00038Y00696D02*
X02487D01*
X00038Y00701D02*
X02487D01*
X00038Y00706D02*
X02487D01*
X00038Y00711D02*
X02487D01*
X00038Y00716D02*
X02487D01*
X00038Y00721D02*
X02487D01*
X00038Y00726D02*
X02487D01*
X00038Y00731D02*
X02487D01*
X00038Y00736D02*
X02487D01*
X00038Y00741D02*
X02487D01*
X00038Y00746D02*
X02487D01*
X00038Y00751D02*
X02487D01*
X00038Y00756D02*
X02487D01*
X00038Y00761D02*
X02487D01*
X00038Y00766D02*
X02487D01*
X00038Y00771D02*
X02487D01*
X00038Y00776D02*
X02487D01*
X00038Y00781D02*
X02487D01*
X00038Y00786D02*
X02487D01*
X00038Y00791D02*
X02487D01*
X00038Y00796D02*
X02487D01*
X00038Y00801D02*
X02487D01*
X00038Y00806D02*
X02487D01*
X00038Y00811D02*
X02487D01*
X00038Y00816D02*
X02487D01*
X00038Y00821D02*
X02487D01*
X00038Y00826D02*
X02487D01*
X00038Y00831D02*
X02487D01*
X00038Y00836D02*
X02487D01*
X00038Y00841D02*
X02487D01*
X00038Y00846D02*
X02487D01*
X00038Y00851D02*
X02487D01*
X00038Y00856D02*
X02487D01*
X00038Y00861D02*
X02487D01*
X00038Y00866D02*
X02487D01*
X00038Y00871D02*
X02487D01*
X00038Y00876D02*
X02487D01*
X00038Y00881D02*
X02487D01*
X00038Y00886D02*
X02487D01*
X00038Y00891D02*
X02487D01*
X00038Y00896D02*
X02487D01*
X00038Y00901D02*
X02487D01*
X00038Y00906D02*
X02487D01*
X00038Y00911D02*
X02487D01*
X00038Y00916D02*
X02487D01*
X00038Y00921D02*
X02487D01*
X00038Y00926D02*
X02487D01*
X00038Y00931D02*
X02487D01*
X00038Y00936D02*
X02487D01*
X00038Y00941D02*
X02487D01*
X00038Y00946D02*
X02487D01*
X00038Y00951D02*
X02487D01*
X00038Y00956D02*
X02487D01*
X00038Y00961D02*
X02487D01*
X00038Y00966D02*
X02487D01*
X00038Y00971D02*
X02487D01*
X00038Y00976D02*
X02487D01*
X00038Y00981D02*
X02487D01*
X00038Y00986D02*
X02487D01*
X00038Y00991D02*
X02487D01*
X00038Y00996D02*
X02487D01*
X00038Y01001D02*
X02487D01*
X00038Y01006D02*
X02487D01*
X00038Y01011D02*
X02487D01*
X00038Y01016D02*
X02487D01*
X00038Y01021D02*
X02487D01*
X00038Y01026D02*
X02487D01*
X00038Y01031D02*
X02487D01*
X00038Y01036D02*
X02487D01*
X00038Y01041D02*
X02487D01*
X00038Y01046D02*
X02487D01*
X00038Y01051D02*
X02487D01*
X00038Y01056D02*
X02487D01*
X00038Y01061D02*
X02487D01*
X00038Y01066D02*
X02487D01*
X00038Y01071D02*
X02487D01*
X00038Y01076D02*
X02487D01*
X00038Y01081D02*
X02487D01*
X00038Y01086D02*
X02487D01*
X00038Y01091D02*
X02487D01*
X00038Y01096D02*
X02487D01*
X00038Y01101D02*
X02487D01*
X00038Y01106D02*
X02487D01*
X00038Y01111D02*
X02487D01*
X00038Y01116D02*
X02487D01*
X00038Y01121D02*
X02487D01*
X00038Y01126D02*
X02487D01*
X00038Y01131D02*
X02487D01*
X00038Y01136D02*
X02487D01*
X00038Y01141D02*
X02487D01*
X00038Y01146D02*
X02487D01*
X00038Y01151D02*
X02487D01*
X00038Y01156D02*
X02487D01*
X00038Y01161D02*
X02487D01*
X00038Y01166D02*
X02487D01*
X00038Y01171D02*
X02487D01*
X00038Y01176D02*
X02487D01*
X00038Y01181D02*
X02487D01*
X00038Y01186D02*
X02487D01*
X00038Y01191D02*
X02487D01*
X00038Y01196D02*
X02487D01*
X00038Y01201D02*
X02487D01*
X00038Y01206D02*
X02487D01*
X00038Y01211D02*
X02487D01*
X00038Y01216D02*
X02487D01*
X00038Y01221D02*
X02487D01*
X00038Y01226D02*
X02487D01*
X00038Y01231D02*
X02487D01*
X00038Y01236D02*
X02487D01*
X00038Y01241D02*
X02487D01*
X00038Y01246D02*
X02487D01*
X00038Y01251D02*
X02487D01*
X00038Y01256D02*
X02487D01*
X00038Y01261D02*
X02487D01*
X00038Y01266D02*
X02487D01*
X00038Y01271D02*
X02487D01*
X00038Y01276D02*
X02487D01*
X00038Y01281D02*
X02487D01*
X00038Y01286D02*
X02487D01*
X00038Y01291D02*
X02487D01*
X00038Y01296D02*
X02487D01*
X00038Y01301D02*
X02487D01*
X00038Y01306D02*
X02487D01*
X00038Y01311D02*
X02487D01*
X00038Y01316D02*
X02487D01*
X00038Y01321D02*
X02487D01*
X00038Y01326D02*
X02487D01*
X00038Y01331D02*
X02487D01*
X00038Y01336D02*
X02487D01*
X00038Y01341D02*
X02487D01*
X00038Y01346D02*
X02487D01*
X00038Y01351D02*
X02487D01*
X00038Y01356D02*
X02487D01*
X00038Y01361D02*
X02487D01*
X00038Y01366D02*
X02487D01*
X00038Y01371D02*
X02487D01*
X00038Y01376D02*
X02487D01*
X00038Y01381D02*
X02487D01*
X00038Y01386D02*
X02487D01*
X00038Y01391D02*
X02487D01*
X00038Y01396D02*
X02487D01*
X00038Y01401D02*
X02487D01*
X00038Y01406D02*
X02487D01*
X00038Y01411D02*
X02487D01*
X00038Y01416D02*
X02487D01*
X00038Y01421D02*
X02487D01*
X00038Y01426D02*
X02487D01*
X00038Y01431D02*
X02487D01*
X00038Y01436D02*
X02487D01*
X00038Y01441D02*
X02487D01*
X00038Y01446D02*
X02487D01*
X00038Y01451D02*
X02487D01*
X00038Y01456D02*
X02487D01*
X00038Y01461D02*
X02487D01*
X00038Y01466D02*
X02487D01*
X00038Y01471D02*
X02487D01*
X00038Y01476D02*
X02487D01*
X00038Y01481D02*
X02487D01*
X00038Y01486D02*
X02487D01*
X00038Y01491D02*
X02487D01*
X00038Y01496D02*
X02487D01*
X00038Y01501D02*
X02487D01*
X00038Y01506D02*
X02487D01*
X00038Y01511D02*
X02487D01*
X00038Y01516D02*
X02487D01*
X00038Y01521D02*
X02487D01*
X00038Y01526D02*
X02487D01*
X00038Y01531D02*
X02487D01*
X00038Y01536D02*
X02487D01*
X00038Y01541D02*
X02487D01*
X00038Y01546D02*
X02487D01*
X00038Y01551D02*
X02487D01*
X00038Y01556D02*
X02487D01*
X00038Y01561D02*
X02487D01*
X00038Y01566D02*
X02487D01*
X00038Y01571D02*
X02487D01*
X00038Y01576D02*
X02487D01*
X00038Y01581D02*
X02487D01*
X00038Y01586D02*
X02487D01*
X00038Y01591D02*
X02487D01*
X00038Y01596D02*
X02487D01*
X00038Y01601D02*
X02487D01*
X00038Y01606D02*
X02487D01*
X00038Y01611D02*
X02487D01*
X00038Y01616D02*
X02487D01*
X00038Y01621D02*
X02487D01*
X00038Y01626D02*
X02487D01*
X00038Y01631D02*
X02487D01*
X00038Y01636D02*
X02487D01*
X00077Y01641D02*
X02487D01*
X00082Y01646D02*
X02487D01*
X00082Y01651D02*
X02487D01*
X00082Y01656D02*
X02487D01*
X00082Y01661D02*
X02487D01*
X00082Y01666D02*
X02487D01*
X00082Y01671D02*
X02487D01*
X00082Y01676D02*
X02487D01*
X00082Y01681D02*
X02487D01*
X00082Y01686D02*
X02487D01*
X00082Y01691D02*
X02487D01*
X00082Y01696D02*
X02487D01*
X00082Y01701D02*
X02487D01*
X00082Y01706D02*
X02487D01*
X00082Y01711D02*
X02487D01*
X00082Y01716D02*
X02487D01*
X00082Y01721D02*
X02487D01*
X00082Y01726D02*
X02487D01*
X00082Y01731D02*
X02487D01*
X00082Y01736D02*
X02487D01*
X00082Y01741D02*
X02487D01*
X00082Y01746D02*
X02487D01*
X00082Y01751D02*
X02487D01*
X0008Y01756D02*
X02487D01*
X00038Y01761D02*
X02487D01*
X00038Y01766D02*
X02487D01*
X00038Y01771D02*
X02487D01*
X00038Y01776D02*
X02487D01*
X00038Y01781D02*
X02487D01*
X00038Y01786D02*
X02487D01*
X00038Y01791D02*
X02487D01*
X00038Y01796D02*
X02487D01*
X00038Y01801D02*
X02487D01*
X00038Y01806D02*
X02487D01*
X00038Y01811D02*
X02487D01*
X00038Y01816D02*
X02487D01*
X00038Y01821D02*
X02487D01*
X00038Y01826D02*
X02487D01*
X00038Y01831D02*
X02487D01*
X00038Y01836D02*
X02487D01*
X00038Y01841D02*
X02487D01*
X00038Y01846D02*
X02487D01*
X00038Y01851D02*
X02487D01*
X00038Y01856D02*
X02487D01*
X00038Y01861D02*
X02487D01*
X00038Y01866D02*
X02487D01*
X00038Y01871D02*
X02487D01*
X00038Y01876D02*
X02487D01*
X00038Y01881D02*
X02487D01*
X00038Y01886D02*
X02487D01*
X00038Y01891D02*
X02487D01*
X00038Y01896D02*
X02487D01*
X00038Y01901D02*
X02487D01*
X00038Y01906D02*
X02487D01*
X00038Y01911D02*
X02487D01*
X00038Y01916D02*
X02487D01*
X00038Y01921D02*
X02487D01*
X00038Y01926D02*
X02487D01*
X00038Y01931D02*
X02487D01*
X00038Y01936D02*
X02487D01*
X00038Y01941D02*
X02487D01*
X00038Y01946D02*
X02487D01*
X00038Y01951D02*
X02487D01*
X00038Y01956D02*
X02487D01*
X00038Y01961D02*
X02487D01*
X00038Y01966D02*
X02487D01*
X00038Y01971D02*
X02487D01*
X00038Y01976D02*
X02487D01*
X00038Y01981D02*
X02487D01*
X00038Y01986D02*
X02487D01*
X00038Y01991D02*
X02487D01*
X00038Y01996D02*
X02487D01*
X00038Y02001D02*
X02487D01*
X00038Y02006D02*
X02487D01*
X00038Y02011D02*
X02487D01*
X00038Y02016D02*
X02487D01*
X00038Y02021D02*
X02487D01*
X00038Y02026D02*
X02487D01*
X00038Y02031D02*
X02487D01*
X00038Y02036D02*
X02487D01*
X00038Y02041D02*
X02487D01*
X00038Y02046D02*
X02487D01*
X00038Y02051D02*
X02487D01*
X00038Y02056D02*
X02487D01*
X00038Y02061D02*
X02487D01*
X00038Y02066D02*
X02487D01*
X00038Y02071D02*
X02487D01*
X00038Y02076D02*
X02487D01*
X00038Y02081D02*
X02487D01*
X00038Y02086D02*
X02487D01*
X00038Y02091D02*
X02487D01*
X00038Y02096D02*
X02487D01*
X00038Y02101D02*
X02487D01*
X00038Y02106D02*
X02487D01*
X00038Y02111D02*
X02487D01*
X00038Y02116D02*
X02487D01*
X00038Y02121D02*
X02487D01*
X00038Y02126D02*
X02487D01*
X00038Y02131D02*
X02487D01*
X00038Y02136D02*
X00261D01*
X00273D02*
X02323D01*
X02368D02*
X02487D01*
X00038Y02141D02*
X00256D01*
X00273D02*
X02325D01*
X02366D02*
X02487D01*
X00038Y02146D02*
X00252D01*
X00273D02*
X02324D01*
X02367D02*
X02487D01*
X00273Y02151D02*
X02291D01*
X00273Y02156D02*
X02291D01*
X00273Y02161D02*
X02271D01*
X02284D02*
X02291D01*
X00273Y02166D02*
X02271D01*
X02289D02*
X02291D01*
X00253Y02171D02*
X00258D01*
X00273D02*
X02271D01*
X00253Y02176D02*
X00266D01*
X00273D02*
X02271D01*
X00253Y02181D02*
X02271D01*
X00253Y02186D02*
X02271D01*
X00253Y02191D02*
X02271D01*
X00253Y02196D02*
X02271D01*
X02287D02*
X02291D01*
X00253Y02201D02*
X02271D01*
X02279D02*
X02291D01*
X00253Y02206D02*
X02291D01*
X00253Y02211D02*
X02291D01*
X00253Y02216D02*
X02291D01*
X00253Y02221D02*
X02291D01*
X00253Y02226D02*
X02291D01*
X00253Y02231D02*
X02291D01*
X00253Y02236D02*
X02291D01*
X00253Y02241D02*
X02291D01*
X00253Y02246D02*
X02291D01*
X00253Y02251D02*
X02291D01*
X00253Y02256D02*
X02291D01*
X00253Y02261D02*
X02291D01*
X00253Y02266D02*
X02291D01*
X00253Y02271D02*
X02291D01*
X00253Y02276D02*
X02291D01*
X00253Y02281D02*
X02291D01*
X00253Y02286D02*
X02291D01*
X00253Y02291D02*
X02291D01*
X00253Y02296D02*
X02291D01*
X00253Y02301D02*
X02291D01*
X00253Y02306D02*
X02291D01*
X00253Y02311D02*
X02291D01*
X00253Y02316D02*
X02291D01*
X00253Y02321D02*
X02291D01*
X00253Y02326D02*
X02291D01*
X00253Y02331D02*
X02291D01*
X00253Y02336D02*
X02291D01*
G54D188*
X00956Y01866D02*
X00954Y01866D01*
Y01632*
X00949Y01629*
Y01612*
X00952Y0161*
X00955Y01628*
X00947Y01634*
Y01702*
X00946Y01709*
X00942Y01715*
X0083Y01827*
Y0183*
X00828Y01834*
X00828Y01835*
X00828Y01834*
X00879*
X0088Y01833*
X00889Y01829*
X009*
X00909Y01833*
X00916Y0184*
X0092Y01849*
Y0186*
X00918Y01864*
X00918Y01865*
X00918Y01864*
X00924*
X00925Y01863*
X00934Y01859*
X00945*
X00954Y01863*
X00956Y01865*
X00956Y01866*
X00833Y01826D02*
Y01833D01*
X00843Y01816D02*
Y01833D01*
X00853Y01806D02*
Y01833D01*
X00863Y01796D02*
Y01833D01*
X00873Y01786D02*
Y01833D01*
X00883Y01776D02*
Y01833D01*
X00893Y01766D02*
Y01829D01*
X00903Y01756D02*
Y01831D01*
X00913Y01746D02*
Y01837D01*
X00923Y01736D02*
Y01863D01*
X00933Y01726D02*
Y01859D01*
X00943Y01716D02*
Y01859D01*
X00953Y01618D02*
Y01629D01*
Y01634D02*
Y01863D01*
X01092Y01827D02*
X01098Y01823D01*
X01105Y01821*
X01106*
X01107Y01821*
X01107Y0182*
X01102Y01815*
X01094Y01797*
X01117*
X0112Y01795*
X01122Y01794*
Y01769*
X01133Y01774*
X01134Y01773*
Y0177*
X01133Y0177*
X01133Y0177*
X01123*
X01113Y01766*
X01106Y01759*
X01102Y0175*
Y01739*
X01102Y01741*
X01101Y01738*
X01095Y01736*
X01094Y01735*
X01094Y01736*
X01107Y0173*
X0109*
Y0174*
X01086Y01749*
X01079Y01756*
X0107Y0176*
X01059*
X0105Y01756*
X01043Y01749*
X01039Y0174*
Y01729*
X01043Y0172*
X0105Y01713*
X01035Y01719*
X01054*
Y01709*
X01058Y017*
X01065Y01693*
X01074Y01689*
X01085*
X01094Y01693*
X01094Y01694*
X01095Y01693*
X01104Y01689*
X01115*
X01124Y01693*
X01131Y017*
X01135Y01709*
Y01715*
X01152Y01731*
X01122Y01723*
X01134Y01714*
Y01653*
X01136Y01654*
X01134Y01656*
X01116Y01664*
Y01633*
Y01602*
X01134Y0161*
X01136Y01612*
X01134Y01613*
Y01614*
X01135Y01607*
X01139Y01601*
X0116Y01581*
X01166Y01577*
X01168Y01576*
X0118Y01564*
X0118Y01566*
X01026*
X01025Y01567*
Y0157*
X01021Y01579*
X01014Y01586*
X01005Y0159*
X01021*
X01006Y01584*
X00995Y01591*
Y01637*
X01002Y01639*
X01026Y01604*
X01029Y01601*
Y01599*
X01033Y0159*
X0104Y01583*
X01049Y01579*
X0106*
X01069Y01583*
X01076Y0159*
X0108Y01599*
Y0161*
X01076Y01619*
X01069Y01626*
X0106Y0163*
X01058*
X01025Y01663*
Y01773*
X01026Y01773*
X01037Y01769*
Y018*
Y0183*
X01026Y01826*
X01025Y01826*
Y01825*
X01027Y01825*
X01035Y01822*
Y01852*
Y01883*
X01027Y0188*
X01025Y0188*
Y01896*
X01023Y01895*
X01092Y01827*
X01001Y01591D02*
Y01638D01*
X01011Y01587D02*
Y01626D01*
X01021Y01581D02*
Y01612D01*
X01031Y01567D02*
Y01596D01*
Y01659D02*
Y0177D01*
Y01825D02*
Y01828D01*
Y01885D02*
Y01888D01*
X01041Y01567D02*
Y01582D01*
Y01649D02*
Y01726D01*
Y01745D02*
Y01878D01*
X01051Y01567D02*
Y01578D01*
Y01639D02*
Y01718D01*
Y01759D02*
Y01868D01*
X01061Y01567D02*
Y0158D01*
Y01631D02*
Y01698D01*
Y01761D02*
Y01858D01*
X01071Y01567D02*
Y01586D01*
Y01625D02*
Y0169D01*
Y01761D02*
Y01848D01*
X01081Y01567D02*
Y01688D01*
Y01755D02*
Y01838D01*
X01091Y01567D02*
Y01692D01*
Y01731D02*
Y01828D01*
X01101Y01567D02*
Y0169D01*
Y01731D02*
Y01732D01*
Y01741D02*
Y01796D01*
Y01815D02*
Y01822D01*
X01111Y01567D02*
Y01688D01*
Y01765D02*
Y01796D01*
X01121Y01567D02*
Y01604D01*
Y01665D02*
Y01692D01*
Y01771D02*
Y01794D01*
X01131Y01567D02*
Y01608D01*
Y01661D02*
Y017D01*
Y01719D02*
Y01724D01*
Y01771D02*
Y01772D01*
X01141Y01567D02*
Y016D01*
Y01723D02*
Y01728D01*
X01151Y01567D02*
Y0159D01*
X01161Y01567D02*
Y0158D01*
X01171Y01567D02*
Y01572D01*
G54D186*
X01509Y0152D02*
Y01519D01*
Y01579D02*
Y01582D01*
X01514Y01513D02*
Y01526D01*
Y01579D02*
Y01582D01*
X01519Y01501D02*
Y0153D01*
Y01558D02*
Y01564D01*
Y01579D02*
Y01582D01*
Y01599D02*
Y01608D01*
X01524Y01496D02*
Y0157D01*
Y01579D02*
Y01582D01*
Y01592D02*
Y01606D01*
X01529Y0149D02*
Y01602D01*
X01534Y01485D02*
Y016D01*
X01539Y01479D02*
Y01598D01*
X01544Y01474D02*
Y01598D01*
X01549Y01468D02*
Y01479D01*
X01554Y01463D02*
Y01474D01*
X01559Y01458D02*
Y01469D01*
X00706Y01134D02*
X00714D01*
X00698Y01139D02*
X00719D01*
X00694Y01144D02*
X00724D01*
X00697Y01149D02*
X00729D01*
X00702Y01154D02*
X0076D01*
X00811D02*
X00886D01*
X00707Y01159D02*
X00891D01*
X00712Y01164D02*
X00896D01*
X00717Y01169D02*
X00901D01*
X00722Y01174D02*
X00906D01*
X00727Y01179D02*
X00911D01*
X00732Y01184D02*
X00916D01*
X00737Y01189D02*
X00921D01*
X00742Y01194D02*
X00926D01*
X00747Y01199D02*
X00931D01*
X00752Y01204D02*
X00936D01*
X00757Y01209D02*
X00941D01*
X00762Y01214D02*
X00941D01*
G54D188*
X00605Y01061D02*
X00605Y01064D01*
X00601Y0106*
X00594Y01042*
X00617*
X0062Y01045*
X006Y01047*
X00597Y01042*
X00531*
X0051Y01063*
X00509Y01061*
X00605*
X00605Y01061*
X00528Y01047D02*
X00595D01*
X00602D02*
X00607D01*
X00518Y01057D02*
X00599D01*
%LNrelia-2*%
%LPC*%
G36*
X0206Y02279D02*
Y02265D01*
X02074*
X02071Y02271*
X02066Y02276*
X0206Y02279*
G37*
G36*
X0205D02*
X02043Y02276D01*
X02038Y02271*
X02035Y02265*
X0205*
Y02279*
G37*
G36*
X0179D02*
Y02265D01*
X01804*
X01801Y02271*
X01796Y02276*
X0179Y02279*
G37*
G36*
X0178D02*
X01773Y02276D01*
X01768Y02271*
X01765Y02265*
X0178*
Y02279*
G37*
G36*
X0122Y02274D02*
Y0226D01*
X01234*
X01231Y02266*
X01226Y02271*
X0122Y02274*
G37*
G36*
X0121D02*
X01203Y02271D01*
X01198Y02266*
X01195Y0226*
X0121*
Y02274*
G37*
G36*
X01588Y02287D02*
X01581D01*
X01574Y02285*
X01569Y0228*
X01567Y02273*
Y02266*
X01569Y02259*
X01574Y02254*
X01581Y02252*
X01588*
X01595Y02254*
X016Y02259*
X01602Y02266*
Y02273*
X016Y0228*
X01595Y02285*
X01588Y02287*
G37*
G36*
X02168Y02282D02*
X02161D01*
X02154Y0228*
X02149Y02275*
X02147Y02268*
Y02261*
X02149Y02254*
X02154Y02249*
X02161Y02247*
X02168*
X02175Y02249*
X0218Y02254*
X02182Y02261*
Y02268*
X0218Y02275*
X02175Y0228*
X02168Y02282*
G37*
G36*
X02074Y02255D02*
X0206D01*
Y0224*
X02066Y02243*
X02071Y02248*
X02074Y02255*
G37*
G36*
X0205D02*
X02035D01*
X02038Y02248*
X02043Y02243*
X0205Y0224*
Y02255*
G37*
G36*
X01804D02*
X0179D01*
Y0224*
X01796Y02243*
X01801Y02248*
X01804Y02255*
G37*
G36*
X0178D02*
X01765D01*
X01768Y02248*
X01773Y02243*
X0178Y0224*
Y02255*
G37*
G36*
X0147Y02254D02*
Y0224D01*
X01484*
X01481Y02246*
X01476Y02251*
X0147Y02254*
G37*
G36*
X0146D02*
X01453Y02251D01*
X01448Y02246*
X01445Y0224*
X0146*
Y02254*
G37*
G36*
X01038Y02272D02*
X01031D01*
X01024Y0227*
X01019Y02265*
X01017Y02258*
Y02251*
X01019Y02244*
X01024Y02239*
X01031Y02237*
X01038*
X01045Y02239*
X0105Y02244*
X01052Y02251*
Y02258*
X0105Y02265*
X01045Y0227*
X01038Y02272*
G37*
G36*
X01234Y0225D02*
X0122D01*
Y02235*
X01226Y02238*
X01231Y02243*
X01234Y0225*
G37*
G36*
X0121D02*
X01195D01*
X01198Y02243*
X01203Y02238*
X0121Y02235*
Y0225*
G37*
G36*
X0176Y02239D02*
Y02225D01*
X01774*
X01771Y02231*
X01766Y02236*
X0176Y02239*
G37*
G36*
X0175D02*
X01743Y02236D01*
X01738Y02231*
X01735Y02225*
X0175*
Y02239*
G37*
G36*
X016D02*
Y02225D01*
X01614*
X01611Y02231*
X01606Y02236*
X016Y02239*
G37*
G36*
X0159D02*
X01583Y02236D01*
X01578Y02231*
X01575Y02225*
X0159*
Y02239*
G37*
G36*
X02155Y02234D02*
Y0222D01*
X02169*
X02166Y02226*
X02161Y02231*
X02155Y02234*
G37*
G36*
X02145D02*
X02138Y02231D01*
X02133Y02226*
X0213Y0222*
X02145*
Y02234*
G37*
G36*
X0203D02*
Y0222D01*
X02044*
X02041Y02226*
X02036Y02231*
X0203Y02234*
G37*
G36*
X0202D02*
X02013Y02231D01*
X02008Y02226*
X02005Y0222*
X0202*
Y02234*
G37*
G36*
X01484Y0223D02*
X0147D01*
Y02215*
X01476Y02218*
X01481Y02223*
X01484Y0223*
G37*
G36*
X0146D02*
X01445D01*
X01448Y02223*
X01453Y02218*
X0146Y02215*
Y0223*
G37*
G36*
X01774Y02215D02*
X0176D01*
Y022*
X01766Y02203*
X01771Y02208*
X01774Y02215*
G37*
G36*
X0175D02*
X01735D01*
X01738Y02208*
X01743Y02203*
X0175Y022*
Y02215*
G37*
G36*
X01614D02*
X016D01*
Y022*
X01606Y02203*
X01611Y02208*
X01614Y02215*
G37*
G36*
X0159D02*
X01575D01*
X01578Y02208*
X01583Y02203*
X0159Y022*
Y02215*
G37*
G36*
X02169Y0221D02*
X02155D01*
Y02195*
X02161Y02198*
X02166Y02203*
X02169Y0221*
G37*
G36*
X02145D02*
X0213D01*
X02133Y02203*
X02138Y02198*
X02145Y02195*
Y0221*
G37*
G36*
X02044D02*
X0203D01*
Y02195*
X02036Y02198*
X02041Y02203*
X02044Y0221*
G37*
G36*
X0202D02*
X02005D01*
X02008Y02203*
X02013Y02198*
X0202Y02195*
Y0221*
G37*
G36*
X0139Y02204D02*
Y0219D01*
X01404*
X01401Y02196*
X01396Y02201*
X0139Y02204*
G37*
G36*
X0138D02*
X01373Y02201D01*
X01368Y02196*
X01365Y0219*
X0138*
Y02204*
G37*
G36*
X02265Y02199D02*
X02258Y02196D01*
X02253Y02191*
X0225Y02185*
X02265*
Y02199*
G37*
G36*
X0046Y02184D02*
Y0217D01*
X00474*
X00471Y02176*
X00466Y02181*
X0046Y02184*
G37*
G36*
X0045D02*
X00443Y02181D01*
X00438Y02176*
X00435Y0217*
X0045*
Y02184*
G37*
G36*
X01404Y0218D02*
X0139D01*
Y02165*
X01396Y02168*
X01401Y02173*
X01404Y0218*
G37*
G36*
X0138D02*
X01365D01*
X01368Y02173*
X01373Y02168*
X0138Y02165*
Y0218*
G37*
G36*
X02265Y02175D02*
X0225D01*
X02253Y02168*
X02258Y02163*
X02265Y0216*
Y02175*
G37*
G36*
X0028Y02174D02*
Y0216D01*
X00294*
X00291Y02166*
X00286Y02171*
X0028Y02174*
G37*
G36*
X02055Y02164D02*
Y0215D01*
X02069*
X02066Y02156*
X02061Y02161*
X02055Y02164*
G37*
G36*
X02045D02*
X02038Y02161D01*
X02033Y02156*
X0203Y0215*
X02045*
Y02164*
G37*
G36*
X00745Y02182D02*
X00738D01*
X00732Y0218*
X00727Y02175*
X00724Y02168*
Y02161*
X00727Y02155*
X00732Y0215*
X00738Y02147*
X00745*
X00752Y0215*
X00757Y02155*
X00759Y02161*
Y02168*
X00757Y02175*
X00752Y0218*
X00745Y02182*
G37*
G36*
X01785Y02154D02*
Y0214D01*
X01799*
X01796Y02146*
X01791Y02151*
X01785Y02154*
G37*
G36*
X01775D02*
X01768Y02151D01*
X01763Y02146*
X0176Y0214*
X01775*
Y02154*
G37*
G36*
X00294Y0215D02*
X0028D01*
Y02135*
X00286Y02138*
X00291Y02143*
X00294Y0215*
G37*
G36*
X01658Y02177D02*
X01651D01*
X01644Y02175*
X01639Y0217*
X01637Y02163*
Y02159*
X01605Y02127*
X01602Y02127*
X01597Y0213*
X01595Y02135*
X0159Y0214*
X01583Y02142*
X01576*
X01569Y0214*
X01564Y02135*
X01562Y02128*
Y02121*
X01564Y02114*
X01569Y02109*
X01574Y02107*
X01577Y02102*
X01577Y02099*
X01486Y02008*
X01483Y02004*
X01482Y02*
Y01999*
Y01694*
X01392Y01604*
X01386*
X01379Y01601*
X01374Y01596*
X01372Y0159*
Y01583*
X01374Y01576*
X01379Y01571*
X01386Y01568*
X01393*
X014Y01571*
X01405Y01576*
X01407Y01583*
Y01585*
X01415Y01593*
X01422Y01589*
X0142Y01584*
Y01577*
X01423Y01571*
X01427Y01566*
X01427Y01564*
X01425Y01558*
X01236*
X01232Y01564*
Y01571*
X0123Y01578*
X01225Y01583*
X01218Y01585*
X01211*
X01207Y01584*
X01186Y01605*
X01182Y01608*
X0118Y01608*
X01168Y01621*
Y01745*
X01171Y01747*
X01175Y01749*
X01181Y01747*
X01188*
X01195Y01749*
X012Y01754*
X01202Y01761*
Y01768*
X012Y01775*
X01195Y0178*
X01188Y01782*
X01181*
X01175Y0178*
X01171Y01782*
X01168Y01784*
Y01802*
X01167Y01807*
X01164Y01811*
X01133Y01842*
X01133Y01844*
X01136Y01851*
X0114Y01854*
X01142Y01861*
Y01868*
X0114Y01875*
X01135Y0188*
X01128Y01882*
X01121*
X01114Y0188*
X01109Y01875*
X01108Y0187*
X01102Y01868*
X01099Y01867*
X00862Y02104*
X00858Y02107*
X00853Y02108*
X00641*
X0064Y0211*
X00638Y02115*
X00638Y02116*
X00639Y02119*
Y02149*
X00638Y02152*
X00636Y02155*
X00634Y02156*
X00631Y02157*
X00503*
X005Y02156*
X00497Y02155*
X00495Y02152*
X00495Y02149*
Y02119*
X00495Y02116*
X00497Y02114*
X005Y02112*
X00503Y02111*
X00575*
X00577Y02108*
X00579Y02104*
X00577Y02098*
Y02091*
X00579Y02084*
X00584Y02079*
X00591Y02077*
X00598*
X00605Y02079*
X00607Y02081*
X0075*
X00752Y02078*
X00754Y02074*
X00752Y02068*
Y02061*
X00752Y0206*
X00747Y02053*
X00582*
X0058Y02055*
X00573Y02057*
X00566*
X00559Y02055*
X00554Y0205*
X00552Y02043*
Y02036*
X00554Y02029*
X00559Y02024*
X00566Y02022*
X00573*
X0058Y02024*
X00582Y02026*
X00878*
X00921Y01983*
X00918Y01975*
X00667*
X00662Y01974*
X00658Y01971*
X00544Y01857*
X00541*
X00534Y01855*
X00529Y0185*
X00527Y01843*
Y01836*
X00529Y01829*
X00534Y01824*
X00535Y01824*
X00537Y01815*
X00467Y01745*
X0046Y01749*
Y02078*
X00459Y02081*
X00457Y02084*
X00455Y02086*
X00452Y02086*
X00408*
Y02106*
X00415Y02111*
X00456*
X00459Y02112*
X00461Y02114*
X00463Y02116*
X00464Y02119*
Y02147*
X00466Y02148*
X00471Y02153*
X00474Y0216*
X00434*
X00432Y02157*
X00314*
X00311Y02156*
X00308Y02155*
X00306Y02152*
X00306Y02149*
Y02119*
X00299Y02114*
X00101*
X00098Y02113*
X00096Y02111*
X00095Y02111*
X00095Y02112*
X00089Y02115*
Y02095*
Y02076*
X00091Y02077*
X00094Y02075*
X00096Y02072*
X00098Y02071*
X00101Y0207*
X00381*
Y01736*
X00381Y01732*
X00383Y0173*
X00386Y01728*
X00389Y01728*
X00439*
X00442Y0172*
X00186Y01465*
X00183Y0146*
X00182Y01455*
Y00699*
X00183Y00694*
X00186Y00689*
X00202Y00674*
Y00671*
X00204Y00664*
X00209Y00659*
X00216Y00657*
X00223*
X0023Y00659*
X00235Y00664*
X00237Y00671*
Y00678*
X00235Y00685*
X0023Y0069*
X00223Y00692*
X0022*
X00208Y00704*
Y00746*
X00216Y00749*
X00222Y00744*
Y00741*
X00224Y00734*
X00229Y00729*
X00236Y00727*
X00243*
X0025Y00729*
X00255Y00734*
X00257Y00741*
Y00748*
X00255Y00755*
X0025Y0076*
X00243Y00762*
X0024*
X00233Y0077*
Y0117*
X00238Y01174*
Y01194*
X00248*
Y01174*
X00255Y01177*
X0026Y01182*
X00263Y0119*
Y01197*
X00283*
X00286Y01197*
X00289Y01199*
X00291Y01201*
X00291Y01205*
X00299*
X00299Y01201*
X00301Y01199*
X00304Y01197*
X00307Y01197*
X00332*
X00335Y01197*
X00338Y01199*
X0034Y01201*
X0034Y01205*
X00348*
X00349Y01201*
X0035Y01199*
X00353Y01197*
X00356Y01197*
X00382*
X00385Y01197*
X00387Y01199*
X00389Y01201*
X0039Y01205*
Y0124*
X00405*
X00408Y0124*
X00411Y01242*
X00413Y01245*
X00413Y01248*
Y01291*
X00413Y01294*
X00411Y01297*
X00408Y01299*
X00405Y01299*
X0039*
Y01326*
X00392Y01328*
X00399*
X00406Y0133*
X00411Y01335*
X00412Y01338*
X0042Y01337*
Y01336*
X00423Y01328*
X00428Y01323*
X00435Y0132*
Y0134*
Y01359*
X00428Y01356*
X00423Y01351*
X00421Y01347*
X00413Y01349*
Y01349*
X00411Y01355*
X00406Y0136*
X00399Y01363*
X00392*
X00385Y0136*
X00381Y01355*
X00378Y01349*
Y01342*
X00363*
X00362Y01344*
Y01351*
X00359Y01358*
X00354Y01363*
X00348Y01365*
X00341*
X00334Y01363*
X00329Y01358*
X00326Y01351*
Y01344*
X00325Y01342*
X00316*
X00315Y01343*
X00274*
X00274Y01342*
X00266*
X00265Y01345*
X00245*
Y0135*
X0024*
Y0137*
X00233Y01375*
Y01429*
X00645Y01841*
X00785*
X00787Y01838*
X00789Y01833*
X00787Y01828*
Y01821*
X00789Y01814*
X00794Y01809*
X00801Y01807*
X00805*
X00916Y01696*
Y01569*
Y01569*
X00916Y01564*
X00919Y0156*
X00986Y01493*
X00983Y01485*
X00792*
X00658Y0162*
Y01707*
X00657Y01712*
X00654Y01716*
X00617Y01753*
Y01753*
X00615Y0176*
X0061Y01765*
X00603Y01767*
X00596*
X00589Y01765*
X00584Y0176*
X00582Y01753*
Y01746*
X00584Y01739*
X00589Y01734*
X00596Y01732*
X00601*
X00631Y01702*
Y01615*
X00632Y0161*
X00635Y01605*
X00775Y01465*
X00772Y01459*
X00765Y01458*
X00629Y01594*
X00624Y01597*
X0062Y01598*
X00487*
X00485Y016*
X00478Y01602*
X00471*
X00464Y016*
X00459Y01595*
X00457Y01588*
Y01581*
X00459Y01574*
X00464Y01569*
X00471Y01567*
X00478*
X00485Y01569*
X00487Y01571*
X00614*
X0075Y01435*
X00755Y01432*
X0076Y01431*
X01014*
X01036Y0141*
X01036Y01408*
X01033Y01401*
X01029Y014*
X01024Y01395*
X01022Y01388*
Y01381*
X01024Y01374*
X01026Y01372*
Y01339*
X01025Y01337*
X01016Y01336*
X01007Y01345*
Y01348*
X01005Y01355*
X01Y0136*
X00993Y01362*
X00986*
X00979Y0136*
X00974Y01355*
X00973Y01351*
X00966Y01348*
X00964Y01348*
X00909Y01404*
X00904Y01407*
X009Y01408*
X00697*
X00695Y0141*
X00688Y01412*
X00681*
X00675Y0141*
X00671Y01411*
X00667Y01413*
X00665Y0142*
X0066Y01425*
X00653Y01427*
X00646*
X00639Y01425*
X00634Y0142*
X00632Y01413*
Y01406*
X00634Y01399*
X00639Y01394*
X00646Y01392*
X00653*
X00659Y01394*
X00663Y01393*
X00667Y01391*
X00669Y01384*
X00674Y01379*
X00681Y01377*
X00688*
X00695Y01379*
X00697Y01381*
X00847*
X00852Y01374*
X00852Y01373*
Y0137*
X00659Y01178*
X00637*
X00635Y0118*
X00628Y01182*
X00621*
X00614Y0118*
X00609Y01175*
X00607Y01168*
Y01161*
X00609Y01154*
X00614Y01149*
X00621Y01147*
X00628*
X00635Y01149*
X00637Y01151*
X00648*
X00651Y01144*
X00624Y01118*
X00602*
X00597Y01125*
X00597Y01126*
Y01133*
X00595Y0114*
X0059Y01145*
X00583Y01147*
X00576*
X00569Y01145*
X00564Y0114*
X00562Y01133*
Y01126*
X00557Y0112*
X0055Y01119*
X0055Y0112*
X00543Y01122*
X00536*
X00529Y0112*
X00524Y01115*
X00522Y01108*
Y01101*
X00519Y01096*
X0051Y01096*
X0051Y01096*
X00507Y01103*
X00508Y01107*
Y01114*
X00506Y0112*
X00501Y01125*
X00494Y01128*
X00487*
X00481Y01125*
X0048Y01125*
X00473Y01129*
Y01185*
X00472Y01189*
X00469Y01194*
X00452Y0121*
Y01213*
X0045Y0122*
X00445Y01225*
X00438Y01227*
X00431*
X00424Y01225*
X00419Y0122*
X00417Y01213*
Y01206*
X00419Y01199*
X00424Y01194*
X00431Y01192*
X00434*
X00446Y01179*
Y01126*
X00439Y01123*
X00408Y01155*
X00403Y01158*
X00398Y01159*
X00329*
X00323Y01165*
Y01168*
X0032Y01175*
X00315Y0118*
X00309Y01182*
X00301*
X00295Y0118*
X0029Y01175*
X00287Y01168*
Y01161*
X0029Y01154*
X00295Y01149*
X00301Y01147*
X00305Y01139*
X00304Y01136*
X00299Y01135*
X00294Y0113*
X00292Y01123*
Y01116*
X00294Y01109*
X00299Y01104*
X00306Y01102*
X00313*
X0032Y01104*
X00325Y01109*
X00327Y01116*
Y01123*
X00326Y01125*
X00332Y01133*
X00393*
X00513Y01013*
X00517Y0101*
X00522Y01009*
X00689*
X00694Y0101*
X00698Y01013*
X00773Y01087*
X00778Y01085*
X00819*
X00818Y01086*
X00823Y01094*
X00853*
X00857Y01088*
Y01081*
X00859Y01074*
X00864Y01069*
X00871Y01067*
X00878*
X00885Y01069*
X0089Y01074*
X00892Y01081*
Y01088*
X00892Y01095*
X00896Y01098*
X00903Y01104*
X00912Y01102*
X00912Y01102*
X00917Y01097*
X00918Y01089*
X00876Y01048*
X00876Y01048*
X00689Y0086*
X00688*
X00682Y00857*
X00677Y00852*
X00674Y00846*
Y00839*
X00677Y00832*
X00682Y00827*
X00687Y00825*
X00689Y0082*
X0069Y00817*
X00515Y00642*
X00511*
X00504Y0064*
X00499Y00635*
X00497Y00628*
Y00621*
X00499Y00614*
X00504Y00609*
X00511Y00607*
X00518*
X00525Y00609*
X0053Y00614*
X00532Y00621*
Y00625*
X00746Y00839*
X00754Y00836*
X00757Y0083*
X00755Y00826*
X00753Y00822*
X00751*
X00745Y00819*
X0074Y00814*
X00737Y00808*
Y00801*
X00739Y00795*
X00738Y00793*
X00736Y00791*
X00734Y0079*
X00728Y00792*
X00721*
X00715Y00789*
X0071Y00784*
X00707Y00778*
Y00771*
X0071Y00764*
X00715Y00759*
X00721Y00757*
X00728*
X00735Y00759*
X0074Y00764*
X00742Y00771*
Y00778*
X0074Y00783*
X00742Y00785*
X00744Y00787*
X00746Y00789*
X00751Y00787*
X00758*
X00765Y00789*
X0077Y00794*
X00772Y00801*
Y00808*
X0077Y00813*
X00773Y00818*
X00775Y0082*
X00778*
X00785Y00823*
X00791Y00829*
X00794Y00835*
X00774*
Y00845*
X00794*
X00791Y00851*
X00785Y00857*
X00778Y0086*
X00775Y00868*
X00881Y00974*
X00888Y0097*
X00887Y00967*
Y0096*
X0089Y00954*
X00895Y00949*
X00901Y00946*
X00908*
X00915Y00949*
X0092Y00954*
X00922Y0096*
Y00963*
X00983Y01024*
X00986*
X00992Y01027*
X00997Y01032*
X01Y01038*
Y01045*
X00997Y01052*
X00992Y01057*
X00986Y01059*
X00979*
X00977Y01059*
X00972Y01065*
X0112Y01212*
X01121Y01212*
X01127Y01209*
Y01204*
X01129Y01197*
X01134Y01192*
X01141Y01189*
X01141*
X01145Y01185*
Y01118*
X01146Y01113*
X01147Y01112*
Y01106*
X01149Y01099*
X01154Y01094*
X01161Y01091*
X01168*
X01175Y01094*
X01176Y01096*
X01185Y01093*
X01186Y0109*
X00981Y00886*
X00978Y00882*
X00977Y00877*
Y00877*
Y00703*
X00974Y007*
X00972Y00693*
Y00686*
X00974Y00679*
X00979Y00674*
X00986Y00672*
X00993*
X01Y00674*
X01005Y00679*
X01007Y00686*
Y00693*
X01005Y007*
X01002Y00703*
Y00872*
X01208Y01078*
X01208*
X01211Y01082*
X01212Y01087*
Y01132*
X01219Y01135*
X0122Y01134*
X01257Y01097*
Y01092*
X0126Y01085*
X01265Y0108*
X01271Y01077*
X01278*
X01284Y01073*
Y0104*
X01284Y0104*
X01279Y01035*
X01276Y01028*
Y01021*
X01279Y01015*
X01284Y0101*
X0129Y01007*
X01297*
X01304Y0101*
X01309Y01015*
X01311Y01021*
Y01028*
X0131Y0103*
X0131Y01031*
Y01083*
X01317Y01087*
X01324*
X0133Y01089*
X01335Y01094*
X01336Y01096*
X01344*
X01344Y01094*
X01349Y01089*
X01356Y01087*
X01363*
X0137Y01089*
X01375Y01094*
X01377Y01101*
Y01108*
X01375Y01115*
X01372Y01118*
Y01194*
X01375Y01197*
X01377Y01204*
Y01211*
X01375Y01217*
X0137Y01222*
X01363Y01225*
X01356*
X01349Y01222*
X01344Y01217*
X01342Y01211*
Y01204*
X01344Y01197*
X01347Y01194*
Y01118*
X01345Y01115*
X01337Y01115*
X01337Y01115*
X01332Y0112*
Y01181*
Y01181*
X01331Y01185*
X01329Y01189*
X01324Y01194*
Y01199*
X01325Y01199*
X01327Y01206*
Y01213*
X01325Y0122*
X0132Y01225*
X01313Y01227*
X01306*
X01299Y01225*
X01294Y0122*
X01292Y01213*
Y01206*
X01294Y01199*
X01299Y01194*
X013Y01194*
Y01189*
X01301Y01184*
X01303Y01181*
X01308Y01176*
Y01141*
X013Y01138*
X01273Y01166*
Y01202*
X01275Y01204*
X01277Y01211*
Y01218*
X01275Y01225*
X0127Y0123*
X01263Y01232*
X01256*
X0125Y0123*
X01246Y01232*
X01243Y01234*
Y01242*
X01245Y01244*
X01247Y01251*
Y01258*
X01245Y01265*
X0124Y0127*
X01233Y01272*
X01226*
X01219Y0127*
X01214Y01265*
X01212Y01258*
Y01251*
X01214Y01244*
X01216Y01242*
Y01226*
X01213Y01224*
X01209Y01223*
X01203Y01225*
X01196*
X01189Y01222*
X01184Y01217*
X01182Y01211*
Y01204*
X01184Y01197*
X01187Y01194*
Y01121*
X0118Y01119*
X0118Y01119*
X01175Y01124*
X01172Y01125*
Y0119*
X01171Y01195*
X01168Y012*
X01162Y01205*
Y01211*
X0116Y01217*
X01155Y01222*
X01148Y01225*
X01143*
X01139Y01231*
X01139Y01232*
X01259Y01352*
X01324*
X01324*
X01328Y01353*
X01332Y01356*
X01472Y01496*
X01481Y01493*
X01484Y01489*
X01491Y01487*
X01494*
X01768Y01184*
X01769Y01184*
X01769Y01183*
X01771Y01181*
X01773Y0118*
X01775Y01178*
X01775*
X0178Y01177*
X01781*
X01781*
X02341*
X02344Y01174*
X02351Y01172*
X02358*
X02365Y01174*
X0237Y01179*
X0237Y0118*
X02391*
X02397Y01175*
Y01171*
X02395Y01164*
Y0116*
X02394Y01153*
X0237*
X02363Y01151*
X02357Y01147*
X02353Y01143*
X02348Y01141*
X02343Y01136*
X0234Y0113*
X0236*
Y01125*
X02365*
Y01105*
X02371Y01108*
X02376Y01113*
X02378Y01116*
X02395*
Y01105*
X02397*
Y01093*
X02352*
X0235Y01095*
X02343Y01097*
X02336*
X02329Y01095*
X02324Y0109*
X02322Y01083*
Y01076*
X02324Y01069*
X02329Y01064*
X02336Y01062*
X02341*
X02344Y01055*
X02344Y01054*
X02339Y0105*
X02337Y01043*
Y01036*
X02339Y01029*
X02344Y01024*
X02351Y01022*
X02356*
X02363Y01015*
X02367Y01012*
X02372Y01011*
X02397*
Y00988*
X02352*
X02347Y00992*
X02346Y00993*
X02345Y00995*
X02343Y00995*
X02341Y00996*
X0234Y00997*
X02338Y00997*
X02336*
X02335Y00998*
X02333Y00997*
X02331*
X02329Y00997*
X02328Y00996*
X02326Y00995*
X02324Y00995*
X02323Y00993*
X02322Y00992*
X02321Y00991*
X02319Y0099*
X02319Y00988*
X02318Y00986*
X02317Y00985*
X02317Y00983*
Y00981*
X02316Y0098*
X02317Y00978*
Y00976*
X02317Y00974*
X02318Y00973*
X02319Y00971*
X02319Y00969*
X02321Y00968*
X02322Y00967*
X02332Y00957*
X02338Y00953*
X02345Y00951*
X02397*
Y00942*
X02452*
Y00997*
Y01052*
Y01105*
X02454*
Y0113*
X02425*
Y0114*
X02454*
Y0116*
Y01164*
X02452Y01171*
Y01222*
Y01277*
X02397*
Y01264*
X02362*
X02357Y01262*
X02352Y01259*
X02345Y01252*
X02344*
X02338Y01258*
X02334Y01261*
X0233Y01262*
X02329*
X01851*
X01623Y01489*
X01627Y01497*
X01628*
X01635Y01499*
X0164Y01504*
X01642Y01511*
Y01518*
X0164Y01525*
X01635Y0153*
X01628Y01532*
X01621*
X01614Y0153*
X01609Y01525*
X01607Y01518*
X01599Y01518*
X01599Y01518*
X01596Y01524*
X01591Y01529*
X01584Y01532*
X01577*
X01571Y01536*
Y01557*
X01579Y0156*
X01579Y01559*
X01586Y01557*
X01593*
X016Y01559*
X01605Y01564*
X01607Y01571*
Y01578*
X01605Y01585*
X016Y0159*
X01593Y01592*
X01586*
X01579Y0159*
X01579Y01589*
X01571Y01592*
Y01604*
X01601Y01634*
X01604Y01638*
X01609Y0164*
X0161Y0164*
Y0166*
X01615*
Y01665*
X01634*
X01631Y01671*
X01626Y01676*
X01622Y01678*
X01619Y01687*
X01723Y0179*
X01723Y0179*
X01726Y01794*
X01727Y01799*
Y01976*
X0173Y01979*
X01732Y01986*
Y01993*
X0173Y02*
X01725Y02005*
X01718Y02007*
X01711*
X01704Y02005*
X01699Y02*
X01697Y01993*
Y01986*
X01699Y01979*
X01702Y01976*
Y01804*
X01689Y01791*
X0168Y01793*
X0168Y01795*
X01675Y018*
X01668Y01802*
X01661*
X01654Y018*
X01649Y01795*
X01647Y01788*
Y01781*
X01649Y01774*
X01654Y01769*
X01656Y01769*
X01658Y0176*
X01627Y01728*
X0162Y0173*
X01615Y01735*
X01608Y01737*
X01601*
X01597Y01736*
X0159Y01739*
X01589Y0174*
Y02007*
X01714Y02132*
X01718*
X01725Y02134*
X0173Y02139*
X01732Y02146*
Y02153*
X0173Y0216*
X01725Y02165*
X01718Y02167*
X01711*
X01704Y02165*
X01699Y0216*
X01697Y02153*
Y02149*
X01568Y02021*
X01566Y02017*
X01565Y02012*
Y02012*
Y01717*
X01506Y01658*
X01505*
X01501Y01658*
X01497Y01655*
X0144Y01598*
X01434*
X0143Y01597*
X01425Y01603*
X01503Y01681*
X01503*
X01506Y01685*
X01507Y0169*
Y01995*
X01654Y02142*
X01658*
X01665Y02144*
X0167Y02149*
X01672Y02156*
Y02163*
X0167Y0217*
X01665Y02175*
X01658Y02177*
G37*
G36*
X02148Y02162D02*
X02141D01*
X02134Y0216*
X02129Y02155*
X02127Y02148*
Y02141*
X02129Y02134*
X02134Y02129*
X02141Y02127*
X02148*
X02155Y02129*
X0216Y02134*
X02162Y02141*
Y02148*
X0216Y02155*
X02155Y0216*
X02148Y02162*
G37*
G36*
X02069Y0214D02*
X02055D01*
Y02125*
X02061Y02128*
X02066Y02133*
X02069Y0214*
G37*
G36*
X02045D02*
X0203D01*
X02033Y02133*
X02038Y02128*
X02045Y02125*
Y0214*
G37*
G36*
X01799Y0213D02*
X01785D01*
Y02115*
X01791Y02118*
X01796Y02123*
X01799Y0213*
G37*
G36*
X01775D02*
X0176D01*
X01763Y02123*
X01768Y02118*
X01775Y02115*
Y0213*
G37*
G36*
X02364Y02125D02*
X0235D01*
Y0211*
X02356Y02113*
X02361Y02118*
X02364Y02125*
G37*
G36*
X0234D02*
X02325D01*
X02328Y02118*
X02333Y02113*
X0234Y0211*
Y02125*
G37*
G36*
X01135Y02124D02*
Y0211D01*
X01149*
X01146Y02116*
X01141Y02121*
X01135Y02124*
G37*
G36*
X01125D02*
X01118Y02121D01*
X01113Y02116*
X0111Y0211*
X01125*
Y02124*
G37*
G36*
X0132Y02119D02*
Y02105D01*
X01334*
X01331Y02111*
X01326Y02116*
X0132Y02119*
G37*
G36*
X0131D02*
X01303Y02116D01*
X01298Y02111*
X01295Y02105*
X0131*
Y02119*
G37*
G36*
X00079Y02115D02*
X00072Y02112D01*
X00067Y02106*
X00064Y021*
X00079*
Y02115*
G37*
G36*
X01149Y021D02*
X01135D01*
Y02085*
X01141Y02088*
X01146Y02093*
X01149Y021*
G37*
G36*
X01125D02*
X0111D01*
X01113Y02093*
X01118Y02088*
X01125Y02085*
Y021*
G37*
G36*
X01334Y02095D02*
X0132D01*
Y0208*
X01326Y02083*
X01331Y02088*
X01334Y02095*
G37*
G36*
X0131D02*
X01295D01*
X01298Y02088*
X01303Y02083*
X0131Y0208*
Y02095*
G37*
G36*
X00079Y0209D02*
X00064D01*
X00067Y02084*
X00072Y02078*
X00079Y02076*
Y0209*
G37*
G36*
X01388Y02082D02*
X01381D01*
X01374Y0208*
X01369Y02075*
X01367Y02068*
Y02061*
X01369Y02054*
X01374Y02049*
X01381Y02047*
X01388*
X01395Y02049*
X014Y02054*
X01402Y02061*
Y02068*
X014Y02075*
X01395Y0208*
X01388Y02082*
G37*
G36*
X01315Y02049D02*
Y02035D01*
X01329*
X01326Y02041*
X01321Y02046*
X01315Y02049*
G37*
G36*
X01305D02*
X01298Y02046D01*
X01293Y02041*
X0129Y02035*
X01305*
Y02049*
G37*
G36*
X01468Y02057D02*
X01461D01*
X01454Y02055*
X01449Y0205*
X01447Y02043*
Y02036*
X01449Y02029*
X01454Y02024*
X01461Y02022*
X01468*
X01475Y02024*
X0148Y02029*
X01482Y02036*
Y02043*
X0148Y0205*
X01475Y02055*
X01468Y02057*
G37*
G36*
X01329Y02025D02*
X01315D01*
Y0201*
X01321Y02013*
X01326Y02018*
X01329Y02025*
G37*
G36*
X01305D02*
X0129D01*
X01293Y02018*
X01298Y02013*
X01305Y0201*
Y02025*
G37*
G36*
X0061Y02014D02*
Y02D01*
X00624*
X00621Y02006*
X00616Y02011*
X0061Y02014*
G37*
G36*
X006D02*
X00593Y02011D01*
X00588Y02006*
X00585Y02*
X006*
Y02014*
G37*
G36*
X00624Y0199D02*
X0061D01*
Y01975*
X00616Y01978*
X00621Y01983*
X00624Y0199*
G37*
G36*
X006D02*
X00585D01*
X00588Y01983*
X00593Y01978*
X006Y01975*
Y0199*
G37*
G36*
X02228Y01982D02*
X02221D01*
X02214Y0198*
X02209Y01975*
X02207Y01968*
Y01961*
X02209Y01954*
X02214Y01949*
X02221Y01947*
X02228*
X02235Y01949*
X0224Y01954*
X02242Y01961*
Y01968*
X0224Y01975*
X02235Y0198*
X02228Y01982*
G37*
G36*
X01245Y01959D02*
Y01945D01*
X01259*
X01256Y01951*
X01251Y01956*
X01245Y01959*
G37*
G36*
X01235D02*
X01228Y01956D01*
X01223Y01951*
X0122Y01945*
X01235*
Y01959*
G37*
G36*
X02195Y01949D02*
Y01935D01*
X02209*
X02206Y01941*
X02201Y01946*
X02195Y01949*
G37*
G36*
X02185D02*
X02178Y01946D01*
X02173Y01941*
X0217Y01935*
X02185*
Y01949*
G37*
G36*
X00583Y01957D02*
X00576D01*
X00569Y01955*
X00564Y0195*
X00562Y01943*
Y01936*
X00564Y01929*
X00569Y01924*
X00576Y01922*
X00583*
X0059Y01924*
X00595Y01929*
X00597Y01936*
Y01943*
X00595Y0195*
X0059Y01955*
X00583Y01957*
G37*
G36*
X01259Y01935D02*
X01245D01*
Y0192*
X01251Y01923*
X01256Y01928*
X01259Y01935*
G37*
G36*
X01235D02*
X0122D01*
X01223Y01928*
X01228Y01923*
X01235Y0192*
Y01935*
G37*
G36*
X02268Y01947D02*
X02261D01*
X02254Y01945*
X02249Y0194*
X02247Y01933*
Y01926*
X02249Y01919*
X02254Y01914*
X02261Y01912*
X02268*
X02275Y01914*
X0228Y01919*
X02282Y01926*
Y01933*
X0228Y0194*
X02275Y01945*
X02268Y01947*
G37*
G36*
X02209Y01925D02*
X02195D01*
Y0191*
X02201Y01913*
X02206Y01918*
X02209Y01925*
G37*
G36*
X02185D02*
X0217D01*
X02173Y01918*
X02178Y01913*
X02185Y0191*
Y01925*
G37*
G36*
X0154Y01919D02*
Y01905D01*
X01554*
X01551Y01911*
X01546Y01916*
X0154Y01919*
G37*
G36*
X0153D02*
X01523Y01916D01*
X01518Y01911*
X01515Y01905*
X0153*
Y01919*
G37*
G36*
X01455Y01914D02*
Y019D01*
X01469*
X01466Y01906*
X01461Y01911*
X01455Y01914*
G37*
G36*
X01445D02*
X01438Y01911D01*
X01433Y01906*
X0143Y019*
X01445*
Y01914*
G37*
G36*
X01554Y01895D02*
X0154D01*
Y0188*
X01546Y01883*
X01551Y01888*
X01554Y01895*
G37*
G36*
X0153D02*
X01515D01*
X01518Y01888*
X01523Y01883*
X0153Y0188*
Y01895*
G37*
G36*
X01469Y0189D02*
X01455D01*
Y01875*
X01461Y01878*
X01466Y01883*
X01469Y0189*
G37*
G36*
X01445D02*
X0143D01*
X01433Y01883*
X01438Y01878*
X01445Y01875*
Y0189*
G37*
G36*
X01845Y01879D02*
Y01865D01*
X01859*
X01856Y01871*
X01851Y01876*
X01845Y01879*
G37*
G36*
X01835D02*
X01828Y01876D01*
X01823Y01871*
X0182Y01865*
X01835*
Y01879*
G37*
G36*
X01975Y01869D02*
Y01855D01*
X01989*
X01986Y01861*
X01981Y01866*
X01975Y01869*
G37*
G36*
X01965D02*
X01958Y01866D01*
X01953Y01861*
X0195Y01855*
X01965*
Y01869*
G37*
G36*
X01859Y01855D02*
X01845D01*
Y0184*
X01851Y01843*
X01856Y01848*
X01859Y01855*
G37*
G36*
X01835D02*
X0182D01*
X01823Y01848*
X01828Y01843*
X01835Y0184*
Y01855*
G37*
G36*
X0136Y01843D02*
Y01829D01*
X01374*
X01371Y01835*
X01366Y01841*
X0136Y01843*
G37*
G36*
X01374Y01819D02*
X0136D01*
Y01804*
X01366Y01807*
X01371Y01813*
X01374Y01819*
G37*
G36*
X01405Y01803D02*
Y01789D01*
X01419*
X01416Y01795*
X01411Y01801*
X01405Y01803*
G37*
G36*
X01395D02*
X01388Y01801D01*
X01383Y01795*
X0138Y01789*
X01395*
Y01803*
G37*
G36*
X024Y01799D02*
Y01785D01*
X02414*
X02411Y01791*
X02406Y01796*
X024Y01799*
G37*
G36*
X0239D02*
X02383Y01796D01*
X02378Y01791*
X02375Y01785*
X0239*
Y01799*
G37*
G36*
X02293Y01817D02*
X02286D01*
X02279Y01815*
X02274Y0181*
X02272Y01803*
Y01796*
X02274Y01789*
X02279Y01784*
X02286Y01782*
X02293*
X023Y01784*
X02305Y01789*
X02307Y01796*
Y01803*
X02305Y0181*
X023Y01815*
X02293Y01817*
G37*
G36*
X01833D02*
X01826D01*
X01819Y01815*
X01814Y0181*
X01812Y01803*
Y01796*
X01814Y01789*
X01819Y01784*
X01826Y01782*
X01833*
X0184Y01784*
X01845Y01789*
X01847Y01796*
Y01803*
X01845Y0181*
X0184Y01815*
X01833Y01817*
G37*
G36*
X02Y01794D02*
Y0178D01*
X02014*
X02011Y01786*
X02006Y01791*
X02Y01794*
G37*
G36*
X01989Y01845D02*
X0195D01*
X01953Y01838*
X01958Y01833*
X01963Y01831*
X01962Y01823*
X01961Y01822*
X01961Y01822*
X01961Y01822*
X01954Y0182*
X01949Y01815*
X01947Y01808*
Y01801*
X01949Y01794*
X01954Y01789*
X01961Y01787*
X01968*
X0197Y01788*
X01976Y01782*
X01975Y0178*
X0199*
Y01794*
X01987Y01793*
X01981Y01799*
X01982Y01801*
Y01808*
X0198Y01815*
X01975Y0182*
X01968Y01822*
X01969Y0183*
X01973*
X01981Y01833*
X01986Y01838*
X01989Y01845*
G37*
G36*
X0176Y01794D02*
Y0178D01*
X01774*
X01771Y01786*
X01766Y01791*
X0176Y01794*
G37*
G36*
X0175D02*
X01743Y01791D01*
X01738Y01786*
X01735Y0178*
X0175*
Y01794*
G37*
G36*
X01243Y02032D02*
X01236D01*
X01229Y0203*
X01224Y02025*
X01222Y02018*
Y02011*
X01224Y02004*
X01229Y01999*
X01236Y01997*
X0124*
X01321Y01916*
Y01782*
X01313Y01779*
X01311Y01781*
X01305Y01784*
Y01765*
Y01745*
X01311Y01748*
X01313Y0175*
X01321Y01747*
Y01726*
X01319Y01725*
X01317Y01718*
Y01711*
X01319Y01704*
X01324Y01699*
X01331Y01697*
X01338*
X01345Y01699*
X0135Y01704*
X01358Y01704*
X01359Y01699*
X01364Y01694*
X01371Y01692*
X01378*
X01385Y01694*
X0139Y01699*
X01392Y01706*
Y01713*
X0139Y0172*
X01385Y01725*
X01378Y01727*
X01371*
X01364Y01725*
X01359Y0172*
X01351Y0172*
X0135Y01725*
X01345Y01729*
Y018*
X0135Y01803*
Y01824*
Y01844*
X01345Y01847*
Y01921*
X01344Y01926*
X01341Y0193*
X01257Y02014*
Y02018*
X01255Y02025*
X0125Y0203*
X01243Y02032*
G37*
G36*
X02414Y01775D02*
X024D01*
Y0176*
X02406Y01763*
X02411Y01768*
X02414Y01775*
G37*
G36*
X0239D02*
X02375D01*
X02378Y01768*
X02383Y01763*
X0239Y0176*
Y01775*
G37*
G36*
X02014Y0177D02*
X02D01*
Y01755*
X02006Y01758*
X02011Y01763*
X02014Y0177*
G37*
G36*
X0199D02*
X01975D01*
X01978Y01763*
X01983Y01758*
X0199Y01755*
Y0177*
G37*
G36*
X01774D02*
X0176D01*
Y01755*
X01766Y01758*
X01771Y01763*
X01774Y0177*
G37*
G36*
X0175D02*
X01735D01*
X01738Y01763*
X01743Y01758*
X0175Y01755*
Y0177*
G37*
G36*
X02248Y01787D02*
X02241D01*
X02234Y01785*
X02229Y0178*
X02227Y01773*
Y01766*
X02229Y01759*
X02234Y01754*
X02241Y01752*
X02248*
X02255Y01754*
X0226Y01759*
X02262Y01766*
Y01773*
X0226Y0178*
X02255Y01785*
X02248Y01787*
G37*
G36*
X01903Y01782D02*
X01896D01*
X01889Y0178*
X01884Y01775*
X01882Y01768*
Y01761*
X01884Y01756*
X01882Y01753*
X01881Y01752*
X01878Y0175*
X01873Y01752*
X01866*
X01859Y0175*
X01854Y01745*
X01852Y01738*
Y01731*
X01854Y01724*
X01859Y01719*
X01866Y01717*
X01873*
X0188Y01719*
X01885Y01724*
X01887Y01731*
Y01738*
X01885Y01743*
X01887Y01746*
X01888Y01747*
X01891Y01749*
X01896Y01747*
X01903*
X0191Y01749*
X01915Y01754*
X01917Y01761*
Y01768*
X01915Y01775*
X0191Y0178*
X01903Y01782*
G37*
G36*
X01203Y02097D02*
X01196D01*
X01189Y02095*
X01184Y0209*
X01182Y02083*
Y02076*
X01184Y02069*
X01187Y02066*
Y0192*
X01188Y01915*
X01191Y01911*
X01222Y0188*
Y01649*
X0121Y01637*
X01206*
X01199Y01635*
X01194Y0163*
X01192Y01623*
Y01616*
X01194Y01609*
X01199Y01604*
X01206Y01602*
X01213*
X0122Y01604*
X01225Y01609*
X01227Y01616*
Y0162*
X01242Y01635*
X0125Y01633*
X0125Y01632*
Y01626*
X01253Y01619*
X01258Y01614*
X01264Y01611*
X01271*
X01278Y01614*
X01281Y01617*
X01284Y01613*
X0129Y01611*
Y0163*
Y0165*
X01284Y01647*
X01279Y01642*
X01278Y01644*
X01271Y01647*
X01264*
X01258Y01644*
X01258Y01644*
X01251Y01641*
X01248Y01642*
X01246Y01643*
X01247Y01645*
Y01739*
X01248Y0174*
X01254Y01743*
X01258Y01741*
X01265*
X01272Y01744*
X01277Y01749*
X01277Y01749*
X01286Y0175*
X01288Y01748*
X01295Y01745*
Y01765*
Y01784*
X01288Y01781*
X01283Y01776*
X01282Y01775*
X01273Y01773*
X01272Y01774*
X01265Y01777*
X01258*
X01254Y01775*
X01248Y01779*
X01247Y0178*
Y01884*
Y01885*
X01246Y01889*
X01243Y01893*
X01243*
X01212Y01924*
Y02066*
X01215Y02069*
X01217Y02076*
Y02083*
X01215Y0209*
X0121Y02095*
X01203Y02097*
G37*
G36*
X01419Y01779D02*
X0138D01*
X01383Y01773*
X01388Y01767*
X01394Y01764*
X01396Y01759*
X01397Y01756*
X01394Y01754*
X01392Y01747*
Y0174*
X01394Y01734*
X01399Y01729*
X01406Y01726*
X01413*
X0142Y01729*
X01425Y01734*
X01427Y0174*
Y01747*
X01425Y01754*
X0142Y01759*
X01415Y01761*
X01415Y01761*
X01413Y01767*
X01413Y01769*
X01416Y01773*
X01419Y01779*
G37*
G36*
X024Y01719D02*
Y01705D01*
X02414*
X02411Y01711*
X02406Y01716*
X024Y01719*
G37*
G36*
X0239D02*
X02383Y01716D01*
X02378Y01711*
X02375Y01705*
X0239*
Y01719*
G37*
G36*
X006Y01699D02*
Y01685D01*
X00614*
X00611Y01691*
X00606Y01696*
X006Y01699*
G37*
G36*
X0059D02*
X00583Y01696D01*
X00578Y01691*
X00575Y01685*
X0059*
Y01699*
G37*
G36*
X02103Y01947D02*
X02096D01*
X02089Y01945*
X02084Y0194*
X02082Y01933*
Y01926*
X02084Y01919*
X02087Y01916*
Y01824*
X01927Y01663*
X0192Y01665*
X01915Y0167*
X01908Y01672*
X01901*
X01894Y0167*
X01889Y01665*
X01887Y01658*
Y01651*
X01889Y01644*
X01893Y01641*
X01896Y01632*
X01728Y01464*
X01719*
X01716Y01467*
X01709Y0147*
X01702*
X01696Y01467*
X01691Y01462*
X01688Y01456*
Y01449*
X01691Y01442*
X01696Y01437*
X01702Y01435*
X01709*
X01716Y01437*
X01719Y0144*
X01733*
X01738Y01441*
X01742Y01444*
X02108Y0181*
X02108Y0181*
X02111Y01814*
X02112Y01819*
Y01916*
X02115Y01919*
X02117Y01926*
Y01933*
X02115Y0194*
X0211Y01945*
X02103Y01947*
G37*
G36*
X00614Y01675D02*
X006D01*
Y0166*
X00606Y01663*
X00611Y01668*
X00614Y01675*
G37*
G36*
X0059D02*
X00575D01*
X00578Y01668*
X00583Y01663*
X0059Y0166*
Y01675*
G37*
G36*
X0085Y01669D02*
Y01655D01*
X00864*
X00861Y01661*
X00856Y01666*
X0085Y01669*
G37*
G36*
X0084D02*
X00833Y01666D01*
X00828Y01661*
X00825Y01655*
X0084*
Y01669*
G37*
G36*
X01634Y01655D02*
X0162D01*
Y0164*
X01626Y01643*
X01631Y01648*
X01634Y01655*
G37*
G36*
X00775Y01654D02*
Y0164D01*
X00789*
X00786Y01646*
X00781Y01651*
X00775Y01654*
G37*
G36*
X00765D02*
X00758Y01651D01*
X00753Y01646*
X0075Y0164*
X00765*
Y01654*
G37*
G36*
X013Y0165D02*
Y01635D01*
X01315*
X01312Y01641*
X01306Y01647*
X013Y0165*
G37*
G36*
X00864Y01645D02*
X0085D01*
Y0163*
X00856Y01633*
X00861Y01638*
X00864Y01645*
G37*
G36*
X0084D02*
X00825D01*
X00828Y01638*
X00833Y01633*
X0084Y0163*
Y01645*
G37*
G36*
X00789Y0163D02*
X00775D01*
Y01615*
X00781Y01618*
X00786Y01623*
X00789Y0163*
G37*
G36*
X00765D02*
X0075D01*
X00753Y01623*
X00758Y01618*
X00765Y01615*
Y0163*
G37*
G36*
X01315Y01625D02*
X013D01*
Y01611*
X01306Y01613*
X01312Y01619*
X01315Y01625*
G37*
G36*
X01695Y01609D02*
Y01595D01*
X01709*
X01706Y01601*
X01701Y01606*
X01695Y01609*
G37*
G36*
X01685D02*
X01678Y01606D01*
X01673Y01601*
X0167Y01595*
X01685*
Y01609*
G37*
G36*
X00853Y01582D02*
X00846D01*
X00839Y0158*
X00834Y01575*
X0083Y01574*
X0083Y01575*
X00823Y01577*
X00816*
X00809Y01575*
X00804Y0157*
X00802Y01563*
Y01556*
X00804Y01549*
X00809Y01544*
X00816Y01542*
X00823*
X0083Y01544*
X00835Y01549*
X00839Y0155*
X00839Y01549*
X00846Y01547*
X00853*
X0086Y01549*
X00865Y01554*
X00867Y01561*
Y01568*
X00865Y01575*
X0086Y0158*
X00853Y01582*
G37*
G36*
X01709Y01585D02*
X01695D01*
Y0157*
X01701Y01573*
X01706Y01578*
X01709Y01585*
G37*
G36*
X01685D02*
X0167D01*
X01673Y01578*
X01678Y01573*
X01685Y0157*
Y01585*
G37*
G36*
X0011Y01584D02*
Y0157D01*
X00124*
X00121Y01576*
X00116Y01581*
X0011Y01584*
G37*
G36*
X001D02*
X00093Y01581D01*
X00088Y01576*
X00085Y0157*
X001*
Y01584*
G37*
G36*
X00893Y01602D02*
X00886D01*
X00879Y016*
X00874Y01595*
X00872Y01588*
Y01581*
X00874Y01574*
X00879Y01569*
X00886Y01567*
X00893*
X009Y01569*
X00905Y01574*
X00907Y01581*
Y01588*
X00905Y01595*
X009Y016*
X00893Y01602*
G37*
G36*
X00124Y0156D02*
X0011D01*
Y01545*
X00116Y01548*
X00121Y01553*
X00124Y0156*
G37*
G36*
X001D02*
X00085D01*
X00088Y01553*
X00093Y01548*
X001Y01545*
Y0156*
G37*
G36*
X0238Y01524D02*
X02373Y01521D01*
X02368Y01516*
X02365Y0151*
X0238*
Y01524*
G37*
G36*
X02295Y01504D02*
Y0149D01*
X02309*
X02306Y01496*
X02301Y01501*
X02295Y01504*
G37*
G36*
X02285D02*
X02278Y01501D01*
X02273Y01496*
X0227Y0149*
X02285*
Y01504*
G37*
G36*
X0238Y015D02*
X02365D01*
X02368Y01493*
X02373Y01488*
X0238Y01485*
Y015*
G37*
G36*
X0208Y01494D02*
Y0148D01*
X02094*
X02091Y01486*
X02086Y01491*
X0208Y01494*
G37*
G36*
X0207D02*
X02063Y01491D01*
X02058Y01486*
X02055Y0148*
X0207*
Y01494*
G37*
G36*
X02454Y01495D02*
X0243D01*
Y0147*
X02454*
Y01495*
G37*
G36*
X02414Y01695D02*
X02375D01*
X02378Y01688*
X02383Y01683*
X0239Y0168*
X02391Y0168*
X02397Y01676*
Y01668*
X02391Y01663*
X0237*
X02368Y01662*
X02366*
X02364Y01662*
X02363Y01661*
X02361Y0166*
X02359Y0166*
X02358Y01658*
X02357Y01657*
X02356Y01656*
X02354Y01655*
X02354Y01653*
X02353Y01651*
X02352Y0165*
X02352Y01648*
Y01646*
X02351Y01645*
X02352Y01643*
Y01641*
X02352Y01639*
X02353Y01638*
X02354Y01636*
X02354Y01634*
X02356Y01633*
X02357Y01632*
X02358Y01631*
X02359Y01629*
X02361Y01629*
X02363Y01628*
X02364Y01627*
X02366Y01627*
X02368*
X0237Y01626*
X02397*
Y01622*
X024*
Y01575*
X02398Y01568*
X02396Y01567*
X02392Y01563*
X0239Y01557*
Y01552*
X02392Y01546*
X02396Y01542*
X02397Y01542*
X02398Y01533*
X02395Y01529*
X0239Y01525*
Y01505*
Y01484*
X02395Y01479*
Y0147*
X0242*
Y015*
X02425*
Y01505*
X02454*
Y01529*
X02449*
Y01574*
Y01574*
Y01575*
Y01582*
Y01622*
X02452*
Y01677*
X02411*
X02408Y01685*
X02411Y01688*
X02414Y01695*
G37*
G36*
X02309Y0148D02*
X02295D01*
Y01465*
X02301Y01468*
X02306Y01473*
X02309Y0148*
G37*
G36*
X02285D02*
X0227D01*
X02273Y01473*
X02278Y01468*
X02285Y01465*
Y0148*
G37*
G36*
X01983Y01492D02*
X01976D01*
X01969Y0149*
X01964Y01485*
X01962Y01478*
Y01471*
X01964Y01464*
X01969Y01459*
X01976Y01457*
X01983*
X0199Y01459*
X01995Y01464*
X01997Y01471*
Y01478*
X01995Y01485*
X0199Y0149*
X01983Y01492*
G37*
G36*
X02094Y0147D02*
X0208D01*
Y01455*
X02086Y01458*
X02091Y01463*
X02094Y0147*
G37*
G36*
X0207D02*
X02055D01*
X02058Y01463*
X02063Y01458*
X0207Y01455*
Y0147*
G37*
G36*
X02355Y01464D02*
Y0145D01*
X02369*
X02366Y01456*
X02361Y01461*
X02355Y01464*
G37*
G36*
X02345D02*
X02338Y01461D01*
X02333Y01456*
X0233Y0145*
X02345*
Y01464*
G37*
G36*
X01805Y01444D02*
Y0143D01*
X01819*
X01816Y01436*
X01811Y01441*
X01805Y01444*
G37*
G36*
X01795D02*
X01788Y01441D01*
X01783Y01436*
X0178Y0143*
X01795*
Y01444*
G37*
G36*
X00325D02*
Y0143D01*
X00339*
X00336Y01436*
X00331Y01441*
X00325Y01444*
G37*
G36*
X00315D02*
X00308Y01441D01*
X00303Y01436*
X003Y0143*
X00315*
Y01444*
G37*
G36*
X02369Y0144D02*
X02355D01*
Y01425*
X02361Y01428*
X02366Y01433*
X02369Y0144*
G37*
G36*
X02345D02*
X0233D01*
X02333Y01433*
X02338Y01428*
X02345Y01425*
Y0144*
G37*
G36*
X00555Y01426D02*
Y01412D01*
X00569*
X00566Y01418*
X00561Y01424*
X00555Y01426*
G37*
G36*
X00545D02*
X00538Y01424D01*
X00533Y01418*
X0053Y01412*
X00545*
Y01426*
G37*
G36*
X01819Y0142D02*
X01805D01*
Y01405*
X01811Y01408*
X01816Y01413*
X01819Y0142*
G37*
G36*
X01795D02*
X0178D01*
X01783Y01413*
X01788Y01408*
X01795Y01405*
Y0142*
G37*
G36*
X0207Y01414D02*
Y014D01*
X02084*
X02081Y01406*
X02076Y01411*
X0207Y01414*
G37*
G36*
X0206D02*
X02053Y01411D01*
X02048Y01406*
X02045Y014*
X0206*
Y01414*
G37*
G36*
X01898Y01432D02*
X01891D01*
X01884Y0143*
X01879Y01425*
X01877Y01418*
Y01411*
X01879Y01404*
X01884Y01399*
X01891Y01397*
X01898*
X01905Y01399*
X0191Y01404*
X01912Y01411*
Y01418*
X0191Y01425*
X01905Y0143*
X01898Y01432*
G37*
G36*
X00569Y01402D02*
X00555D01*
Y01388*
X00561Y0139*
X00566Y01396*
X00569Y01402*
G37*
G36*
X00545D02*
X0053D01*
X00533Y01396*
X00538Y0139*
X00545Y01388*
Y01402*
G37*
G36*
X02084Y0139D02*
X0207D01*
Y01375*
X02076Y01378*
X02081Y01383*
X02084Y0139*
G37*
G36*
X0206D02*
X02045D01*
X02048Y01383*
X02053Y01378*
X0206Y01375*
Y0139*
G37*
G36*
X01973Y01402D02*
X01966D01*
X01959Y014*
X01954Y01395*
X01952Y01388*
Y01381*
X01954Y01374*
X01959Y01369*
X01966Y01367*
X01973*
X0198Y01369*
X01985Y01374*
X01987Y01381*
Y01388*
X01985Y01395*
X0198Y014*
X01973Y01402*
G37*
G36*
X00565Y01374D02*
Y0136D01*
X00579*
X00576Y01366*
X00571Y01371*
X00565Y01374*
G37*
G36*
X00555D02*
X00548Y01371D01*
X00543Y01366*
X0054Y0136*
X00555*
Y01374*
G37*
G36*
X0025Y01369D02*
Y01355D01*
X00264*
X00261Y01361*
X00256Y01366*
X0025Y01369*
G37*
G36*
X00339Y0142D02*
X003D01*
X00303Y01413*
X00305Y01411*
X00304Y01403*
X00304Y01402*
X00299Y01398*
X00297Y01391*
Y01384*
X00299Y01378*
X00303Y01374*
X003Y01369*
Y01353*
X00314*
X00312Y01359*
X00308Y01363*
X0031Y01368*
X00312Y0137*
X00318*
X00325Y01373*
X0033Y01378*
X00332Y01384*
Y01391*
X0033Y01398*
X00329Y01398*
X00331Y01408*
X00331Y01408*
X00336Y01413*
X00339Y0142*
G37*
G36*
X0029Y01367D02*
X00284Y01364D01*
X00278Y01359*
X00275Y01353*
X0029*
Y01367*
G37*
G36*
X0185Y01359D02*
Y01345D01*
X01864*
X01861Y01351*
X01856Y01356*
X0185Y01359*
G37*
G36*
X0184D02*
X01833Y01356D01*
X01828Y01351*
X01825Y01345*
X0184*
Y01359*
G37*
G36*
X00445D02*
Y01345D01*
X00459*
X00456Y01351*
X00451Y01356*
X00445Y01359*
G37*
G36*
X00579Y0135D02*
X00565D01*
Y01335*
X00571Y01338*
X00576Y01343*
X00579Y0135*
G37*
G36*
X00555D02*
X0054D01*
X00543Y01343*
X00548Y01338*
X00555Y01335*
Y0135*
G37*
G36*
X02165Y01349D02*
Y01335D01*
X02179*
X02176Y01341*
X02171Y01346*
X02165Y01349*
G37*
G36*
X02155D02*
X02148Y01346D01*
X02143Y01341*
X0214Y01335*
X02155*
Y01349*
G37*
G36*
X0062Y01334D02*
X00613Y01331D01*
X00608Y01326*
X00608Y01326*
X00603Y01325*
X00599Y01325*
X00595Y0133*
X00588Y01332*
X00581*
X00574Y0133*
X00569Y01325*
X00567Y01318*
Y01311*
X00569Y01305*
X00574Y013*
X00581Y01297*
X00588*
X00595Y013*
X00599Y01304*
X00603Y01304*
X00608Y01304*
X00608Y01303*
X00613Y01298*
X0062Y01295*
Y01315*
Y01334*
G37*
G36*
X01864Y01335D02*
X0185D01*
Y0132*
X01856Y01323*
X01861Y01328*
X01864Y01335*
G37*
G36*
X0184D02*
X01825D01*
X01828Y01328*
X01833Y01323*
X0184Y0132*
Y01335*
G37*
G36*
X00459D02*
X00445D01*
Y0132*
X00451Y01323*
X00456Y01328*
X00459Y01335*
G37*
G36*
X00648Y01372D02*
X00641D01*
X00634Y0137*
X00629Y01365*
X00627Y01358*
Y01351*
X00629Y01344*
X00633Y01341*
X0063Y01336*
Y0132*
X00644*
X00641Y01326*
X00637Y0133*
X0064Y01336*
X00641Y01337*
X00648*
X00655Y01339*
X0066Y01344*
X00662Y01351*
Y01358*
X0066Y01365*
X00655Y0137*
X00648Y01372*
G37*
G36*
X0235Y01329D02*
Y01315D01*
X02364*
X02361Y01321*
X02356Y01326*
X0235Y01329*
G37*
G36*
X0234D02*
X02333Y01326D01*
X02328Y01321*
X02325Y01315*
X0234*
Y01329*
G37*
G36*
X00722Y01348D02*
X00715D01*
X00708Y01346*
X00703Y01341*
X00701Y01334*
Y01327*
X00703Y01321*
X00708Y01316*
X00715Y01313*
X00722*
X00728Y01316*
X00733Y01321*
X00736Y01327*
Y01334*
X00733Y01341*
X00728Y01346*
X00722Y01348*
G37*
G36*
X02179Y01325D02*
X02165D01*
Y0131*
X02171Y01313*
X02176Y01318*
X02179Y01325*
G37*
G36*
X02155D02*
X0214D01*
X02143Y01318*
X02148Y01313*
X02155Y0131*
Y01325*
G37*
G36*
X02043Y01332D02*
X02036D01*
X02029Y0133*
X02024Y01325*
X02022Y01318*
Y01311*
X02024Y01304*
X02029Y01299*
X02036Y01297*
X02043*
X0205Y01299*
X02055Y01304*
X02057Y01311*
Y01318*
X02055Y01325*
X0205Y0133*
X02043Y01332*
G37*
G36*
X00644Y0131D02*
X0063D01*
Y01295*
X00636Y01298*
X00641Y01303*
X00644Y0131*
G37*
G36*
X02364Y01305D02*
X0235D01*
Y0129*
X02356Y01293*
X02361Y01298*
X02364Y01305*
G37*
G36*
X0234D02*
X02325D01*
X02328Y01298*
X02333Y01293*
X0234Y0129*
Y01305*
G37*
G36*
X00675Y01285D02*
Y0127D01*
X00689*
X00687Y01276*
X00681Y01282*
X00675Y01285*
G37*
G36*
X00665D02*
X00659Y01282D01*
X00653Y01276*
X0065Y0127*
X00665*
Y01285*
G37*
G36*
X00586Y01278D02*
Y01264D01*
X00601*
X00598Y0127*
X00593Y01275*
X00586Y01278*
G37*
G36*
X00576D02*
X0057Y01275D01*
X00565Y0127*
X00562Y01264*
X00576*
Y01278*
G37*
G36*
X00448Y01292D02*
X00441D01*
X00434Y0129*
X00429Y01285*
X00427Y01278*
Y01271*
X00429Y01264*
X00434Y01259*
X00441Y01257*
X00448*
X00455Y01259*
X0046Y01264*
X00462Y01271*
Y01278*
X0046Y01285*
X00455Y0129*
X00448Y01292*
G37*
G36*
X00689Y0126D02*
X00675D01*
Y01246*
X00681Y01248*
X00687Y01254*
X00689Y0126*
G37*
G36*
X00665D02*
X0065D01*
X00653Y01254*
X00659Y01248*
X00665Y01246*
Y0126*
G37*
G36*
X00601Y01254D02*
X00586D01*
Y01239*
X00593Y01242*
X00598Y01247*
X00601Y01254*
G37*
G36*
X00576D02*
X00562D01*
X00565Y01247*
X0057Y01242*
X00576Y01239*
Y01254*
G37*
G36*
X00644Y01238D02*
X00637D01*
X0063Y01235*
X00625Y0123*
X00623Y01224*
Y01217*
X00625Y0121*
X0063Y01205*
X00637Y01203*
X00644*
X00651Y01205*
X00656Y0121*
X00658Y01217*
Y01224*
X00656Y0123*
X00651Y01235*
X00644Y01238*
G37*
G36*
X01608Y01147D02*
X01601D01*
X01594Y01145*
X01591Y01142*
X01529*
X01529*
X01525Y01141*
X01521Y01138*
X01478Y01095*
X0147Y01099*
Y01099*
X01467Y01106*
X01462Y01112*
X01455Y01114*
Y01095*
X0145*
Y0109*
X01431*
X01434Y01084*
X01439Y01078*
X01446Y01075*
X01447*
X0145Y01067*
X01425Y01043*
X01423Y01043*
X01418Y01045*
Y01092*
X0142Y01094*
X01422Y01101*
Y01108*
X0142Y01115*
X01415Y0112*
X01408Y01122*
X01401*
X01394Y0112*
X01389Y01115*
X01387Y01108*
Y01101*
X01389Y01094*
X01391Y01092*
Y01025*
X01309Y00943*
X01202*
X012Y00945*
X01193Y00947*
X01186*
X01179Y00945*
X01174Y0094*
X01172Y00933*
Y00926*
X01174Y00919*
X01179Y00914*
X01186Y00912*
X01193*
X012Y00914*
X01202Y00916*
X01315*
X01319Y00917*
X01324Y0092*
X01413Y0101*
X01415Y0101*
X01421Y01007*
Y00993*
X01335Y00907*
X0123*
X01225Y00906*
X01221Y00903*
Y00903*
X0104Y00722*
X01036*
X01029Y0072*
X01024Y00715*
X01022Y00708*
Y00701*
X01024Y00694*
X01029Y00689*
X01036Y00687*
X01043*
X0105Y00689*
X01055Y00694*
X01057Y00701*
Y00705*
X01234Y00882*
X01339*
X0134*
X01344Y00883*
X01348Y00886*
X01442Y0098*
X01444Y00984*
X01445Y00988*
Y01028*
X01467Y0105*
X01474Y01049*
X01479Y01044*
X01486Y01041*
X01493*
X01499Y01044*
X01504Y01049*
X01507Y01055*
Y01062*
X01504Y01069*
X01499Y01074*
X01498Y01081*
X01534Y01117*
X01591*
X01594Y01114*
X01601Y01112*
X01608*
X01615Y01114*
X0162Y01119*
X01622Y01126*
Y01133*
X0162Y0114*
X01615Y01145*
X01608Y01147*
G37*
G36*
X0196Y01154D02*
Y0114D01*
X01974*
X01971Y01146*
X01966Y01151*
X0196Y01154*
G37*
G36*
X0195D02*
X01943Y01151D01*
X01938Y01146*
X01935Y0114*
X0195*
Y01154*
G37*
G36*
X0191D02*
Y0114D01*
X01924*
X01921Y01146*
X01916Y01151*
X0191Y01154*
G37*
G36*
X019D02*
X01893Y01151D01*
X01888Y01146*
X01885Y0114*
X019*
Y01154*
G37*
G36*
X01974Y0113D02*
X0196D01*
Y01115*
X01966Y01118*
X01971Y01123*
X01974Y0113*
G37*
G36*
X0195D02*
X01935D01*
X01938Y01123*
X01943Y01118*
X0195Y01115*
Y0113*
G37*
G36*
X01924D02*
X0191D01*
Y01115*
X01916Y01118*
X01921Y01123*
X01924Y0113*
G37*
G36*
X019D02*
X01885D01*
X01888Y01123*
X01893Y01118*
X019Y01115*
Y0113*
G37*
G36*
X02168Y01147D02*
X02161D01*
X02154Y01145*
X02149Y0114*
X02147Y01133*
Y01126*
X02149Y01119*
X02154Y01114*
X02161Y01112*
X02168*
X02175Y01114*
X0218Y01119*
X02182Y01126*
Y01133*
X0218Y0114*
X02175Y01145*
X02168Y01147*
G37*
G36*
X02355Y0112D02*
X0234D01*
X02343Y01113*
X02348Y01108*
X02355Y01105*
Y0112*
G37*
G36*
X01445Y01114D02*
X01439Y01112D01*
X01434Y01106*
X01431Y011*
X01445*
Y01114*
G37*
G36*
X00383Y01112D02*
X00376D01*
X00369Y0111*
X00364Y01105*
X00362Y01098*
Y01091*
X00364Y01084*
X00369Y01079*
X00376Y01077*
X00383*
X0039Y01079*
X00395Y01084*
X00397Y01091*
Y01098*
X00395Y01105*
X0039Y0111*
X00383Y01112*
G37*
G36*
X00819Y01075D02*
X00805D01*
Y0106*
X00811Y01063*
X00816Y01068*
X00819Y01075*
G37*
G36*
X00795D02*
X0078D01*
X00783Y01068*
X00788Y01063*
X00795Y0106*
Y01075*
G37*
G36*
X01548Y01062D02*
X01541D01*
X01534Y0106*
X01529Y01055*
X01527Y01048*
Y01041*
X01529Y01034*
X01534Y01029*
X01541Y01027*
X01548*
X01555Y01029*
X0156Y01034*
X01562Y01041*
Y01048*
X0156Y01055*
X01555Y0106*
X01548Y01062*
G37*
G36*
X02183Y01027D02*
X02176D01*
X02169Y01025*
X02164Y0102*
X02162Y01013*
Y01006*
X02164Y00999*
X02169Y00994*
X02176Y00992*
X02183*
X0219Y00994*
X02195Y00999*
X02197Y01006*
Y01013*
X02195Y0102*
X0219Y01025*
X02183Y01027*
G37*
G36*
X00355Y0099D02*
X0034D01*
X00343Y00983*
X00348Y00978*
X00355Y00975*
Y0099*
G37*
G36*
X01598Y01302D02*
X01591D01*
X01584Y013*
X01579Y01295*
X01577Y01288*
Y01281*
X01579Y01274*
X01582Y01271*
Y0121*
X01583Y01205*
X01586Y01201*
X01797Y0099*
Y00986*
X01799Y00979*
X01804Y00974*
X01811Y00972*
X01818*
X01825Y00974*
X0183Y00979*
X01832Y00986*
Y00993*
X0183Y01*
X01825Y01005*
X01818Y01007*
X01814*
X01607Y01214*
Y01271*
X0161Y01274*
X01612Y01281*
Y01288*
X0161Y01295*
X01605Y013*
X01598Y01302*
G37*
G36*
X01575Y00964D02*
Y0095D01*
X01589*
X01586Y00956*
X01581Y00961*
X01575Y00964*
G37*
G36*
X01565D02*
X01558Y00961D01*
X01553Y00956*
X0155Y0095*
X01565*
Y00964*
G37*
G36*
X0152D02*
Y0095D01*
X01534*
X01531Y00956*
X01526Y00961*
X0152Y00964*
G37*
G36*
X0151D02*
X01503Y00961D01*
X01498Y00956*
X01495Y0095*
X0151*
Y00964*
G37*
G36*
X00328Y01083D02*
X003D01*
X00298Y01082*
X00296*
X00294Y01082*
X00293Y01081*
X00291Y0108*
X00289Y0108*
X00288Y01078*
X00287Y01077*
X00286Y01076*
X00284Y01075*
X00284Y01073*
X00283Y01071*
X00282Y0107*
X00282Y01068*
Y01066*
X00281Y01065*
X00282Y01063*
Y01061*
X00282Y01059*
X00283Y01058*
X00284Y01056*
X00284Y01054*
X00286Y01053*
X00287Y01052*
X00288Y01051*
X00289Y01049*
X00291Y01049*
X00293Y01048*
X00294Y01047*
X00296Y01047*
X00298*
X003Y01046*
X00321*
X00348Y01019*
X00348Y01011*
X00343Y01006*
X0034Y01*
X0036*
Y00995*
X00365*
Y00975*
X00371Y00978*
X00375Y00982*
X00384Y00983*
X00406Y00961*
Y00955*
X00407Y00953*
Y00951*
X00407Y00949*
X00408Y00948*
X00409Y00946*
X00409Y00944*
X00411Y00943*
X00412Y00942*
X00413Y00941*
X00414Y00939*
X00416Y00939*
X00418Y00938*
X00419Y00937*
X00421Y00937*
X00423*
X00425Y00936*
X00426Y00937*
X00428*
X0043Y00937*
X00431Y00938*
X00433Y00939*
X00435Y00939*
X00436Y00941*
X00437Y00942*
X00438Y00943*
X0044Y00944*
X0044Y00946*
X00441Y00948*
X00442Y00949*
X00442Y00951*
Y00953*
X00443Y00955*
Y00968*
X00441Y00975*
X00437Y00981*
X00341Y01077*
X00335Y01081*
X00328Y01083*
G37*
G36*
X02088Y00962D02*
X02081D01*
X02074Y0096*
X02069Y00955*
X02067Y00948*
Y00941*
X02069Y00934*
X02074Y00929*
X02081Y00927*
X02088*
X02095Y00929*
X021Y00934*
X02102Y00941*
Y00948*
X021Y00955*
X02095Y0096*
X02088Y00962*
G37*
G36*
X01589Y0094D02*
X01575D01*
Y00925*
X01581Y00928*
X01586Y00933*
X01589Y0094*
G37*
G36*
X01565D02*
X0155D01*
X01553Y00933*
X01558Y00928*
X01565Y00925*
Y0094*
G37*
G36*
X01534D02*
X0152D01*
Y00925*
X01526Y00928*
X01531Y00933*
X01534Y0094*
G37*
G36*
X0151D02*
X01495D01*
X01498Y00933*
X01503Y00928*
X0151Y00925*
Y0094*
G37*
G36*
X02345Y00939D02*
Y00925D01*
X02359*
X02356Y00931*
X02351Y00936*
X02345Y00939*
G37*
G36*
X02335D02*
X02328Y00936D01*
X02323Y00931*
X0232Y00925*
X02335*
Y00939*
G37*
G36*
X02359Y00915D02*
X02345D01*
Y009*
X02351Y00903*
X02356Y00908*
X02359Y00915*
G37*
G36*
X02335D02*
X0232D01*
X02323Y00908*
X02328Y00903*
X02335Y009*
Y00915*
G37*
G36*
X01743Y00917D02*
X01736D01*
X01729Y00915*
X01724Y0091*
X01722Y00903*
Y00896*
X01724Y00889*
X01729Y00884*
X01736Y00882*
X01743*
X0175Y00884*
X01755Y00889*
X01757Y00896*
Y00903*
X01755Y0091*
X0175Y00915*
X01743Y00917*
G37*
G36*
X0212Y00894D02*
Y0088D01*
X02134*
X02131Y00886*
X02126Y00891*
X0212Y00894*
G37*
G36*
X0211D02*
X02103Y00891D01*
X02098Y00886*
X02095Y0088*
X0211*
Y00894*
G37*
G36*
X00928Y00927D02*
X00921D01*
X00914Y00925*
X00909Y0092*
X00907Y00913*
Y00906*
X00909Y00899*
X00912Y00897*
X00908Y00889*
X00906*
X00898Y00886*
X00893Y00881*
X0089Y00875*
X00929*
X00926Y00881*
X00923Y00884*
X00926Y00892*
X00928*
X00935Y00894*
X0094Y00899*
X00942Y00906*
Y00913*
X0094Y0092*
X00935Y00925*
X00928Y00927*
G37*
G36*
X02134Y0087D02*
X0212D01*
Y00855*
X02126Y00858*
X02131Y00863*
X02134Y0087*
G37*
G36*
X0211D02*
X02095D01*
X02098Y00863*
X02103Y00858*
X0211Y00855*
Y0087*
G37*
G36*
X0057Y00869D02*
Y00855D01*
X00584*
X00581Y00861*
X00576Y00866*
X0057Y00869*
G37*
G36*
X0056D02*
X00553Y00866D01*
X00548Y00861*
X00545Y00855*
X0056*
Y00869*
G37*
G36*
X00929Y00865D02*
X00915D01*
Y0085*
X00921Y00853*
X00926Y00858*
X00929Y00865*
G37*
G36*
X00905D02*
X0089D01*
X00893Y00858*
X00898Y00853*
X00905Y0085*
Y00865*
G37*
G36*
X0225Y00864D02*
Y0085D01*
X02264*
X02261Y00856*
X02256Y00861*
X0225Y00864*
G37*
G36*
X0224D02*
X02233Y00861D01*
X02228Y00856*
X02225Y0085*
X0224*
Y00864*
G37*
G36*
X00858Y00872D02*
X00851D01*
X00844Y0087*
X00839Y00865*
X00837Y00858*
Y00851*
X00839Y00844*
X00844Y00839*
X00851Y00837*
X00858*
X00865Y00839*
X0087Y00844*
X00872Y00851*
Y00858*
X0087Y00865*
X00865Y0087*
X00858Y00872*
G37*
G36*
X00584Y00845D02*
X0057D01*
Y0083*
X00576Y00833*
X00581Y00838*
X00584Y00845*
G37*
G36*
X0056D02*
X00545D01*
X00548Y00838*
X00553Y00833*
X0056Y0083*
Y00845*
G37*
G36*
X02264Y0084D02*
X0225D01*
Y00825*
X02256Y00828*
X02261Y00833*
X02264Y0084*
G37*
G36*
X0224D02*
X02225D01*
X02228Y00833*
X02233Y00828*
X0224Y00825*
Y0084*
G37*
G36*
X00833Y00832D02*
X00826D01*
X00819Y0083*
X00814Y00825*
X00812Y00818*
Y00812*
X00809Y00809*
X00805Y00806*
X00803Y00807*
X00796*
X00789Y00805*
X00784Y008*
X00782Y00793*
Y00786*
X00784Y00779*
X00789Y00774*
X00796Y00772*
X00803*
X0081Y00774*
X00815Y00779*
X00817Y00786*
Y00792*
X0082Y00795*
X00824Y00798*
X00826Y00797*
X00833*
X0084Y00799*
X00845Y00804*
X00847Y00811*
Y00818*
X00845Y00825*
X0084Y0083*
X00833Y00832*
G37*
G36*
X024Y00805D02*
X0239D01*
Y0078*
X0243*
X02429Y00782*
X02426Y0079*
X02421Y00796*
X02415Y00801*
X02408Y00804*
X024Y00805*
G37*
G36*
X02242D02*
X02225D01*
Y0078*
X02271*
X02271Y00782*
X02268Y0079*
X02263Y00796*
X02257Y00801*
X02249Y00804*
X02242Y00805*
G37*
G36*
X0238D02*
X02369D01*
X02361Y00804*
X02354Y00801*
X02348Y00796*
X02343Y0079*
X0234Y00782*
X02339Y0078*
X0238*
Y00805*
G37*
G36*
X02215D02*
X02198D01*
X02191Y00804*
X02183Y00801*
X02177Y00796*
X02172Y0079*
X02169Y00782*
X02169Y0078*
X02215*
Y00805*
G37*
G36*
X01845Y00794D02*
Y0078D01*
X01859*
X01856Y00786*
X01851Y00791*
X01845Y00794*
G37*
G36*
X01835D02*
X01828Y00791D01*
X01823Y00786*
X0182Y0078*
X01835*
Y00794*
G37*
G36*
X0177D02*
Y0078D01*
X01784*
X01781Y00786*
X01776Y00791*
X0177Y00794*
G37*
G36*
X0176D02*
X01753Y00791D01*
X01748Y00786*
X01745Y0078*
X0176*
Y00794*
G37*
G36*
X01859Y0077D02*
X01845D01*
Y00755*
X01851Y00758*
X01856Y00763*
X01859Y0077*
G37*
G36*
X01835D02*
X0182D01*
X01823Y00763*
X01828Y00758*
X01835Y00755*
Y0077*
G37*
G36*
X01784D02*
X0177D01*
Y00755*
X01776Y00758*
X01781Y00763*
X01784Y0077*
G37*
G36*
X0176D02*
X01745D01*
X01748Y00763*
X01753Y00758*
X0176Y00755*
Y0077*
G37*
G36*
X0093Y00764D02*
Y0075D01*
X00944*
X00941Y00756*
X00936Y00761*
X0093Y00764*
G37*
G36*
X0092D02*
X00913Y00761D01*
X00908Y00756*
X00905Y0075*
X0092*
Y00764*
G37*
G36*
X0243Y0077D02*
X0239D01*
Y00745*
X024*
X02408Y00746*
X02415Y00749*
X02421Y00753*
X02426Y0076*
X02429Y00767*
X0243Y0077*
G37*
G36*
X0238D02*
X02339D01*
X0234Y00767*
X02343Y0076*
X02348Y00753*
X02354Y00749*
X02361Y00746*
X02369Y00745*
X0238*
Y0077*
G37*
G36*
X02215D02*
X02169D01*
X02169Y00767*
X02172Y0076*
X02177Y00753*
X02183Y00749*
X02191Y00746*
X02198Y00745*
X02215*
Y0077*
G37*
G36*
X02155Y00759D02*
Y00745D01*
X02169*
X02166Y00751*
X02161Y00756*
X02155Y00759*
G37*
G36*
X02145D02*
X02138Y00756D01*
X02133Y00751*
X0213Y00745*
X02145*
Y00759*
G37*
G36*
X00858Y00777D02*
X00851D01*
X00844Y00775*
X00839Y0077*
X00837Y00763*
Y00756*
X00839Y00749*
X00844Y00744*
X00851Y00742*
X00858*
X00865Y00744*
X0087Y00749*
X00872Y00756*
Y00763*
X0087Y0077*
X00865Y00775*
X00858Y00777*
G37*
G36*
X00944Y0074D02*
X0093D01*
Y00725*
X00936Y00728*
X00941Y00733*
X00944Y0074*
G37*
G36*
X0092D02*
X00905D01*
X00908Y00733*
X00913Y00728*
X0092Y00725*
Y0074*
G37*
G36*
X02169Y00735D02*
X02155D01*
Y0072*
X02161Y00723*
X02166Y00728*
X02169Y00735*
G37*
G36*
X02145D02*
X0213D01*
X02133Y00728*
X02138Y00723*
X02145Y0072*
Y00735*
G37*
G36*
X0084Y00734D02*
Y0072D01*
X00854*
X00851Y00726*
X00846Y00731*
X0084Y00734*
G37*
G36*
X0083D02*
X00823Y00731D01*
X00818Y00726*
X00815Y0072*
X0083*
Y00734*
G37*
G36*
X0078Y00724D02*
Y0071D01*
X00794*
X00791Y00716*
X00786Y00721*
X0078Y00724*
G37*
G36*
X0077D02*
X00763Y00721D01*
X00758Y00716*
X00755Y0071*
X0077*
Y00724*
G37*
G36*
X02055Y00714D02*
Y007D01*
X02069*
X02066Y00706*
X02061Y00711*
X02055Y00714*
G37*
G36*
X02045D02*
X02038Y00711D01*
X02033Y00706*
X0203Y007*
X02045*
Y00714*
G37*
G36*
X02271Y0077D02*
X02225D01*
Y00745*
X02229*
X0223Y00737*
X02228Y00736*
X02222Y0073*
X02219Y00722*
Y00714*
X02222Y00707*
X02228Y00701*
X02236Y00698*
X02244*
X02251Y00701*
X02257Y00707*
X0226Y00714*
Y00722*
X02257Y0073*
X02251Y00736*
X02247Y00738*
X02248Y00746*
X02249Y00746*
X02257Y00749*
X02263Y00753*
X02268Y0076*
X02271Y00767*
X02271Y0077*
G37*
G36*
X00854Y0071D02*
X0084D01*
Y00695*
X00846Y00698*
X00851Y00703*
X00854Y0071*
G37*
G36*
X0083D02*
X00815D01*
X00818Y00703*
X00823Y00698*
X0083Y00695*
Y0071*
G37*
G36*
X00794Y007D02*
X0078D01*
Y00685*
X00786Y00688*
X00791Y00693*
X00794Y007*
G37*
G36*
X0077D02*
X00755D01*
X00758Y00693*
X00763Y00688*
X0077Y00685*
Y007*
G37*
G36*
X01153Y00717D02*
X01146D01*
X01139Y00715*
X01134Y0071*
X01132Y00703*
Y00696*
X01134Y00689*
X01139Y00684*
X01146Y00682*
X01153*
X0116Y00684*
X01165Y00689*
X01167Y00696*
Y00703*
X01165Y0071*
X0116Y00715*
X01153Y00717*
G37*
G36*
X02069Y0069D02*
X02055D01*
Y00675*
X02061Y00678*
X02066Y00683*
X02069Y0069*
G37*
G36*
X02045D02*
X0203D01*
X02033Y00683*
X02038Y00678*
X02045Y00675*
Y0069*
G37*
G36*
X01445Y00674D02*
Y0066D01*
X01459*
X01456Y00666*
X01451Y00671*
X01445Y00674*
G37*
G36*
X01435D02*
X01428Y00671D01*
X01423Y00666*
X0142Y0066*
X01435*
Y00674*
G37*
G36*
X01459Y0065D02*
X01445D01*
Y00635*
X01451Y00638*
X01456Y00643*
X01459Y0065*
G37*
G36*
X01435D02*
X0142D01*
X01423Y00643*
X01428Y00638*
X01435Y00635*
Y0065*
G37*
G36*
X0157Y00644D02*
Y0063D01*
X01584*
X01581Y00636*
X01576Y00641*
X0157Y00644*
G37*
G36*
X0156D02*
X01553Y00641D01*
X01548Y00636*
X01545Y0063*
X0156*
Y00644*
G37*
G36*
X01382D02*
Y0063D01*
X01397*
X01394Y00636*
X01388Y00641*
X01382Y00644*
G37*
G36*
X01372D02*
X01366Y00641D01*
X0136Y00636*
X01358Y0063*
X01372*
Y00644*
G37*
G36*
X01584Y0062D02*
X0157D01*
Y00605*
X01576Y00608*
X01581Y00613*
X01584Y0062*
G37*
G36*
X0156D02*
X01545D01*
X01548Y00613*
X01553Y00608*
X0156Y00605*
Y0062*
G37*
G36*
X01397D02*
X01382D01*
Y00605*
X01388Y00608*
X01394Y00613*
X01397Y0062*
G37*
G36*
X01372D02*
X01358D01*
X0136Y00613*
X01366Y00608*
X01372Y00605*
Y0062*
G37*
G36*
X02065Y00619D02*
Y00605D01*
X02079*
X02076Y00611*
X02071Y00616*
X02065Y00619*
G37*
G36*
X02055D02*
X02048Y00616D01*
X02043Y00611*
X0204Y00605*
X02055*
Y00619*
G37*
G36*
X01265Y00609D02*
Y00595D01*
X01279*
X01276Y00601*
X01271Y00606*
X01265Y00609*
G37*
G36*
X01255D02*
X01248Y00606D01*
X01243Y00601*
X0124Y00595*
X01255*
Y00609*
G37*
G36*
X0059D02*
Y00595D01*
X00604*
X00601Y00601*
X00596Y00606*
X0059Y00609*
G37*
G36*
X0058D02*
X00573Y00606D01*
X00568Y00601*
X00565Y00595*
X0058*
Y00609*
G37*
G36*
X01788Y00602D02*
X01781D01*
X01774Y006*
X01769Y00595*
X01767Y00588*
Y00586*
X0176Y00582*
X01759Y00582*
X01755Y00583*
X01707*
X01705Y00585*
X01698Y00587*
X01691*
X01684Y00585*
X01679Y0058*
X01677Y00573*
Y00566*
X01679Y00559*
X01684Y00554*
X01691Y00552*
X01698*
X01705Y00554*
X01707Y00556*
X01749*
X01946Y00359*
Y00287*
X01944Y00285*
X01942Y00278*
Y00271*
X01944Y00264*
X01949Y00259*
X01956Y00257*
X01963*
X0197Y00259*
X01975Y00264*
X01977Y00271*
Y00278*
X01975Y00285*
X01973Y00287*
Y00357*
X0198Y0036*
X01995Y00345*
X02Y00342*
X02005Y00341*
X02057*
X02059Y00339*
X02066Y00337*
X02073*
X0208Y00339*
X02085Y00344*
X02087Y00351*
Y00358*
X02085Y00365*
X0208Y0037*
X02073Y00372*
X02066*
X02059Y0037*
X02057Y00368*
X0201*
X01999Y00379*
X02002Y00386*
X02099*
X02192Y00294*
Y00291*
X02194Y00284*
X02199Y00279*
X02206Y00277*
X02213*
X0222Y00279*
X02225Y00284*
X02227Y00291*
Y00298*
X02225Y00305*
X0222Y0031*
X02213Y00312*
X0221*
X02114Y00409*
X02109Y00412*
X02105Y00413*
X02*
X01819Y00594*
X01814Y00597*
X0181Y00598*
X01797*
X01795Y006*
X01788Y00602*
G37*
G36*
X02079Y00595D02*
X02065D01*
Y0058*
X02071Y00583*
X02076Y00588*
X02079Y00595*
G37*
G36*
X02055D02*
X0204D01*
X02043Y00588*
X02048Y00583*
X02055Y0058*
Y00595*
G37*
G36*
X00975Y00589D02*
Y00575D01*
X00989*
X00986Y00581*
X00981Y00586*
X00975Y00589*
G37*
G36*
X00965D02*
X00958Y00586D01*
X00953Y00581*
X0095Y00575*
X00965*
Y00589*
G37*
G36*
X01463Y00577D02*
X01456D01*
X01449Y00575*
X01447Y00572*
X01442Y0057*
X01437Y00572*
X01435Y00575*
X01428Y00577*
X01421*
X01414Y00575*
X01409Y0057*
X01407Y00563*
Y00556*
X01409Y00549*
X0141Y00548*
X01409Y0054*
X01404Y00535*
X01402Y00528*
Y00521*
X01404Y00514*
X01409Y00509*
X01416Y00507*
X01423*
X0143Y00509*
X01435Y00514*
X01437Y00521*
Y00528*
X01435Y00535*
X01434Y00536*
X01435Y00544*
X01437Y00547*
X01442Y00549*
X01447Y00547*
X01449Y00544*
X01456Y00542*
X01463*
X0147Y00544*
X01475Y00549*
X01477Y00556*
Y00563*
X01475Y0057*
X0147Y00575*
X01463Y00577*
G37*
G36*
X01279Y00585D02*
X01265D01*
Y0057*
X01271Y00573*
X01276Y00578*
X01279Y00585*
G37*
G36*
X01255D02*
X0124D01*
X01243Y00578*
X01248Y00573*
X01255Y0057*
Y00585*
G37*
G36*
X00604D02*
X0059D01*
Y0057*
X00596Y00573*
X00601Y00578*
X00604Y00585*
G37*
G36*
X0058D02*
X00565D01*
X00568Y00578*
X00573Y00573*
X0058Y0057*
Y00585*
G37*
G36*
X01563Y00587D02*
X01556D01*
X01549Y00585*
X01544Y0058*
X01542Y00573*
Y00566*
X01544Y00559*
X01549Y00554*
X01556Y00552*
X01563*
X0157Y00554*
X01575Y00559*
X01577Y00566*
Y00573*
X01575Y0058*
X0157Y00585*
X01563Y00587*
G37*
G36*
X00989Y00565D02*
X00975D01*
Y0055*
X00981Y00553*
X00986Y00558*
X00989Y00565*
G37*
G36*
X00965D02*
X0095D01*
X00953Y00558*
X00958Y00553*
X00965Y0055*
Y00565*
G37*
G36*
X0111Y00549D02*
Y00535D01*
X01124*
X01121Y00541*
X01116Y00546*
X0111Y00549*
G37*
G36*
X011D02*
X01093Y00546D01*
X01088Y00541*
X01085Y00535*
X011*
Y00549*
G37*
G36*
X00945D02*
Y00535D01*
X00959*
X00956Y00541*
X00951Y00546*
X00945Y00549*
G37*
G36*
X00935D02*
X00928Y00546D01*
X00923Y00541*
X0092Y00535*
X00935*
Y00549*
G37*
G36*
X0071D02*
Y00535D01*
X00724*
X00721Y00541*
X00716Y00546*
X0071Y00549*
G37*
G36*
X007D02*
X00693Y00546D01*
X00688Y00541*
X00685Y00535*
X007*
Y00549*
G37*
G36*
X01243Y00547D02*
X01236D01*
X01229Y00545*
X01224Y0054*
X01222Y00533*
Y00526*
X01224Y00519*
X01229Y00514*
X01236Y00512*
X01243*
X0125Y00514*
X01255Y00519*
X01257Y00526*
Y00533*
X01255Y0054*
X0125Y00545*
X01243Y00547*
G37*
G36*
X01124Y00525D02*
X0111D01*
Y0051*
X01116Y00513*
X01121Y00518*
X01124Y00525*
G37*
G36*
X011D02*
X01085D01*
X01088Y00518*
X01093Y00513*
X011Y0051*
Y00525*
G37*
G36*
X00959D02*
X00945D01*
Y0051*
X00951Y00513*
X00956Y00518*
X00959Y00525*
G37*
G36*
X00935D02*
X0092D01*
X00923Y00518*
X00928Y00513*
X00935Y0051*
Y00525*
G37*
G36*
X00724D02*
X0071D01*
Y0051*
X00716Y00513*
X00721Y00518*
X00724Y00525*
G37*
G36*
X007D02*
X00685D01*
X00688Y00518*
X00693Y00513*
X007Y0051*
Y00525*
G37*
G36*
X0207Y00514D02*
Y005D01*
X02084*
X02081Y00506*
X02076Y00511*
X0207Y00514*
G37*
G36*
X0206D02*
X02053Y00511D01*
X02048Y00506*
X02045Y005*
X0206*
Y00514*
G37*
G36*
X02084Y0049D02*
X0207D01*
Y00475*
X02076Y00478*
X02081Y00483*
X02084Y0049*
G37*
G36*
X0206D02*
X02045D01*
X02048Y00483*
X02053Y00478*
X0206Y00475*
Y0049*
G37*
G36*
X0023Y00484D02*
Y0047D01*
X00244*
X00241Y00476*
X00236Y00481*
X0023Y00484*
G37*
G36*
X0022D02*
X00213Y00481D01*
X00208Y00476*
X00205Y0047*
X0022*
Y00484*
G37*
G36*
X01318Y00502D02*
X01311D01*
X01304Y005*
X01299Y00495*
X01297Y00488*
Y00481*
X01299Y00474*
X01304Y00469*
X01311Y00467*
X01318*
X01325Y00469*
X0133Y00474*
X01332Y00481*
Y00488*
X0133Y00495*
X01325Y005*
X01318Y00502*
G37*
G36*
X01575Y00479D02*
Y00465D01*
X01589*
X01586Y00471*
X01581Y00476*
X01575Y00479*
G37*
G36*
X01565D02*
X01558Y00476D01*
X01553Y00471*
X0155Y00465*
X01565*
Y00479*
G37*
G36*
X01405Y00474D02*
Y0046D01*
X01419*
X01416Y00466*
X01411Y00471*
X01405Y00474*
G37*
G36*
X01395D02*
X01388Y00471D01*
X01383Y00466*
X0138Y0046*
X01395*
Y00474*
G37*
G36*
X02215Y00464D02*
X02198D01*
X02191Y00463*
X02183Y0046*
X0218Y00458*
X02176Y00461*
X0217Y00464*
Y00445*
Y00425*
X0217Y00425*
X02172Y0042*
X02177Y00413*
X02183Y00409*
X02191Y00406*
X02198Y00405*
X02215*
Y00435*
Y00464*
G37*
G36*
X01238Y00487D02*
X01231D01*
X01224Y00485*
X01219Y0048*
X01217Y00473*
Y00466*
X01219Y00459*
X01224Y00454*
X01231Y00452*
X01238*
X01245Y00454*
X0125Y00459*
X01252Y00466*
Y00473*
X0125Y0048*
X01245Y00485*
X01238Y00487*
G37*
G36*
X0216Y00464D02*
X02153Y00461D01*
X02148Y00456*
X02145Y0045*
X0216*
Y00464*
G37*
G36*
X0182D02*
Y0045D01*
X01834*
X01831Y00456*
X01826Y00461*
X0182Y00464*
G37*
G36*
X0181D02*
X01803Y00461D01*
X01798Y00456*
X01795Y0045*
X0181*
Y00464*
G37*
G36*
X00244Y0046D02*
X0023D01*
Y00445*
X00236Y00448*
X00241Y00453*
X00244Y0046*
G37*
G36*
X0022D02*
X00205D01*
X00208Y00453*
X00213Y00448*
X0022Y00445*
Y0046*
G37*
G36*
X01589Y00455D02*
X01575D01*
Y0044*
X01581Y00443*
X01586Y00448*
X01589Y00455*
G37*
G36*
X01565D02*
X0155D01*
X01553Y00448*
X01558Y00443*
X01565Y0044*
Y00455*
G37*
G36*
X024Y00464D02*
X0239D01*
Y0044*
X0243*
X02429Y00442*
X02426Y00449*
X02421Y00456*
X02415Y0046*
X02408Y00463*
X024Y00464*
G37*
G36*
X02244Y00511D02*
X02236D01*
X02228Y00508*
X02222Y00503*
X02219Y00495*
Y00487*
X02222Y00479*
X02228Y00473*
X0223Y00472*
X02229Y00464*
X02225*
Y0044*
X02271*
X02271Y00442*
X02268Y00449*
X02263Y00456*
X02257Y0046*
X02249Y00463*
X02248Y00464*
X02247Y00472*
X02251Y00473*
X02257Y00479*
X0226Y00487*
Y00495*
X02257Y00503*
X02251Y00508*
X02244Y00511*
G37*
G36*
X0238Y00464D02*
X02369D01*
X02361Y00463*
X02354Y0046*
X02348Y00456*
X02343Y00449*
X0234Y00442*
X02339Y0044*
X0238*
Y00464*
G37*
G36*
X01419Y0045D02*
X01405D01*
Y00435*
X01411Y00438*
X01416Y00443*
X01419Y0045*
G37*
G36*
X01395D02*
X0138D01*
X01383Y00443*
X01388Y00438*
X01395Y00435*
Y0045*
G37*
G36*
X01765Y00444D02*
Y0043D01*
X01779*
X01776Y00436*
X01771Y00441*
X01765Y00444*
G37*
G36*
X01755D02*
X01748Y00441D01*
X01743Y00436*
X0174Y0043*
X01755*
Y00444*
G37*
G36*
X0216Y0044D02*
X02145D01*
X02148Y00433*
X02153Y00428*
X0216Y00425*
Y0044*
G37*
G36*
X01834D02*
X0182D01*
Y00425*
X01826Y00428*
X01831Y00433*
X01834Y0044*
G37*
G36*
X0181D02*
X01795D01*
X01798Y00433*
X01803Y00428*
X0181Y00425*
Y0044*
G37*
G36*
X0018Y00439D02*
Y00425D01*
X00194*
X00191Y00431*
X00186Y00436*
X0018Y00439*
G37*
G36*
X0017D02*
X00163Y00436D01*
X00158Y00431*
X00155Y00425*
X0017*
Y00439*
G37*
G36*
X0122Y00429D02*
Y00415D01*
X01234*
X01231Y00421*
X01226Y00426*
X0122Y00429*
G37*
G36*
X0121D02*
X01203Y00426D01*
X01198Y00421*
X01195Y00415*
X0121*
Y00429*
G37*
G36*
X00245D02*
Y00415D01*
X00259*
X00256Y00421*
X00251Y00426*
X00245Y00429*
G37*
G36*
X00235D02*
X00228Y00426D01*
X00223Y00421*
X0022Y00415*
X00235*
Y00429*
G37*
G36*
X01779Y0042D02*
X01765D01*
Y00405*
X01771Y00408*
X01776Y00413*
X01779Y0042*
G37*
G36*
X01755D02*
X0174D01*
X01743Y00413*
X01748Y00408*
X01755Y00405*
Y0042*
G37*
G36*
X0243Y0043D02*
X0239D01*
Y00405*
X024*
X02408Y00406*
X02415Y00409*
X02421Y00413*
X02426Y0042*
X02429Y00427*
X0243Y0043*
G37*
G36*
X0238D02*
X02339D01*
X0234Y00427*
X02343Y0042*
X02348Y00413*
X02354Y00409*
X02361Y00406*
X02369Y00405*
X0238*
Y0043*
G37*
G36*
X02271D02*
X02225D01*
Y00405*
X02242*
X02249Y00406*
X02257Y00409*
X02263Y00413*
X02268Y0042*
X02271Y00427*
X02271Y0043*
G37*
G36*
X00194Y00415D02*
X0018D01*
Y004*
X00186Y00403*
X00191Y00408*
X00194Y00415*
G37*
G36*
X0017D02*
X00155D01*
X00158Y00408*
X00163Y00403*
X0017Y004*
Y00415*
G37*
G36*
X0144Y00409D02*
Y00395D01*
X01454*
X01451Y00401*
X01446Y00406*
X0144Y00409*
G37*
G36*
X0143D02*
X01423Y00406D01*
X01418Y00401*
X01415Y00395*
X0143*
Y00409*
G37*
G36*
X01234Y00405D02*
X0122D01*
Y0039*
X01226Y00393*
X01231Y00398*
X01234Y00405*
G37*
G36*
X0121D02*
X01195D01*
X01198Y00398*
X01203Y00393*
X0121Y0039*
Y00405*
G37*
G36*
X00259D02*
X00245D01*
Y0039*
X00251Y00393*
X00256Y00398*
X00259Y00405*
G37*
G36*
X00235D02*
X0022D01*
X00223Y00398*
X00228Y00393*
X00235Y0039*
Y00405*
G37*
G36*
X00513Y00407D02*
X00506D01*
X00499Y00405*
X00494Y004*
X00492Y00393*
Y00386*
X00494Y00379*
X00499Y00374*
X00506Y00372*
X00513*
X0052Y00374*
X00525Y00379*
X00527Y00386*
Y00393*
X00525Y004*
X0052Y00405*
X00513Y00407*
G37*
G36*
X01454Y00385D02*
X0144D01*
Y0037*
X01446Y00373*
X01451Y00378*
X01454Y00385*
G37*
G36*
X0143D02*
X01415D01*
X01418Y00378*
X01423Y00373*
X0143Y0037*
Y00385*
G37*
G36*
X00945Y00369D02*
Y00355D01*
X00959*
X00956Y00361*
X00951Y00366*
X00945Y00369*
G37*
G36*
X00935D02*
X00928Y00366D01*
X00923Y00361*
X0092Y00355*
X00935*
Y00369*
G37*
G36*
X0085D02*
Y00355D01*
X00864*
X00861Y00361*
X00856Y00366*
X0085Y00369*
G37*
G36*
X0084D02*
X00833Y00366D01*
X00828Y00361*
X00825Y00355*
X0084*
Y00369*
G37*
G36*
X0019D02*
Y00355D01*
X00204*
X00201Y00361*
X00196Y00366*
X0019Y00369*
G37*
G36*
X0018D02*
X00173Y00366D01*
X00168Y00361*
X00165Y00355*
X0018*
Y00369*
G37*
G36*
X0163Y00359D02*
Y00345D01*
X01644*
X01641Y00351*
X01636Y00356*
X0163Y00359*
G37*
G36*
X0162D02*
X01613Y00356D01*
X01608Y00351*
X01605Y00345*
X0162*
Y00359*
G37*
G36*
X00959Y00345D02*
X00945D01*
Y0033*
X00951Y00333*
X00956Y00338*
X00959Y00345*
G37*
G36*
X00935D02*
X0092D01*
X00923Y00338*
X00928Y00333*
X00935Y0033*
Y00345*
G37*
G36*
X00864D02*
X0085D01*
Y0033*
X00856Y00333*
X00861Y00338*
X00864Y00345*
G37*
G36*
X0084D02*
X00825D01*
X00828Y00338*
X00833Y00333*
X0084Y0033*
Y00345*
G37*
G36*
X00204D02*
X0019D01*
Y0033*
X00196Y00333*
X00201Y00338*
X00204Y00345*
G37*
G36*
X0018D02*
X00165D01*
X00168Y00338*
X00173Y00333*
X0018Y0033*
Y00345*
G37*
G36*
X01345Y00344D02*
Y0033D01*
X01359*
X01356Y00336*
X01351Y00341*
X01345Y00344*
G37*
G36*
X01335D02*
X01328Y00341D01*
X01323Y00336*
X0132Y0033*
X01335*
Y00344*
G37*
G36*
X01243Y00362D02*
X01236D01*
X01229Y0036*
X01224Y00355*
X01222Y00348*
Y00341*
X01224Y00334*
X01229Y00329*
X01236Y00327*
X01243*
X0125Y00329*
X01255Y00334*
X01257Y00341*
Y00348*
X01255Y00355*
X0125Y0036*
X01243Y00362*
G37*
G36*
X01644Y00335D02*
X0163D01*
Y0032*
X01636Y00323*
X01641Y00328*
X01644Y00335*
G37*
G36*
X0162D02*
X01605D01*
X01608Y00328*
X01613Y00323*
X0162Y0032*
Y00335*
G37*
G36*
X01425Y00329D02*
Y00315D01*
X01439*
X01436Y00321*
X01431Y00326*
X01425Y00329*
G37*
G36*
X01415D02*
X01408Y00326D01*
X01403Y00321*
X014Y00315*
X01415*
Y00329*
G37*
G36*
X01359Y0032D02*
X01345D01*
Y00305*
X01351Y00308*
X01356Y00313*
X01359Y0032*
G37*
G36*
X01335D02*
X0132D01*
X01323Y00313*
X01328Y00308*
X01335Y00305*
Y0032*
G37*
G36*
X0177Y00314D02*
Y00299D01*
X01784*
X01781Y00306*
X01776Y00311*
X0177Y00314*
G37*
G36*
X0176D02*
X01753Y00311D01*
X01748Y00306*
X01745Y00299*
X0176*
Y00314*
G37*
G36*
X00363Y00332D02*
X00356D01*
X00349Y0033*
X00344Y00325*
X00342Y00318*
Y00311*
X00344Y00304*
X00349Y00299*
X00356Y00297*
X00363*
X0037Y00299*
X00375Y00304*
X00377Y00311*
Y00318*
X00375Y00325*
X0037Y0033*
X00363Y00332*
G37*
G36*
X00428Y00327D02*
X00421D01*
X00414Y00325*
X00409Y0032*
X00407Y00313*
Y00306*
X00409Y00299*
X00414Y00294*
X00421Y00292*
X00428*
X00435Y00294*
X0044Y00299*
X00442Y00306*
Y00313*
X0044Y0032*
X00435Y00325*
X00428Y00327*
G37*
G36*
X01439Y00305D02*
X01425D01*
Y0029*
X01431Y00293*
X01436Y00298*
X01439Y00305*
G37*
G36*
X01415D02*
X014D01*
X01403Y00298*
X01408Y00293*
X01415Y0029*
Y00305*
G37*
G36*
X0155Y00304D02*
Y0029D01*
X01564*
X01561Y00296*
X01556Y00301*
X0155Y00304*
G37*
G36*
X0154D02*
X01533Y00301D01*
X01528Y00296*
X01525Y0029*
X0154*
Y00304*
G37*
G36*
X00178Y00317D02*
X00171D01*
X00164Y00315*
X00159Y0031*
X00157Y00303*
Y00296*
X00159Y00289*
X00164Y00284*
X00171Y00282*
X00178*
X00185Y00284*
X0019Y00289*
X00192Y00296*
Y00303*
X0019Y0031*
X00185Y00315*
X00178Y00317*
G37*
G36*
X0149Y00294D02*
Y0028D01*
X01504*
X01501Y00286*
X01496Y00291*
X0149Y00294*
G37*
G36*
X0148D02*
X01473Y00291D01*
X01468Y00286*
X01465Y0028*
X0148*
Y00294*
G37*
G36*
X01784Y00289D02*
X0177D01*
Y00275*
X01776Y00278*
X01781Y00283*
X01784Y00289*
G37*
G36*
X0176D02*
X01745D01*
X01748Y00283*
X01753Y00278*
X0176Y00275*
Y00289*
G37*
G36*
X01325Y00284D02*
Y0027D01*
X01339*
X01336Y00276*
X01331Y00281*
X01325Y00284*
G37*
G36*
X01315D02*
X01308Y00281D01*
X01303Y00276*
X013Y0027*
X01315*
Y00284*
G37*
G36*
X00513Y00302D02*
X00506D01*
X00499Y003*
X00494Y00295*
X00492Y00288*
Y00281*
X00494Y00274*
X00499Y00269*
X00506Y00267*
X00513*
X0052Y00269*
X00525Y00274*
X00527Y00281*
Y00288*
X00525Y00295*
X0052Y003*
X00513Y00302*
G37*
G36*
X01564Y0028D02*
X0155D01*
Y00265*
X01556Y00268*
X01561Y00273*
X01564Y0028*
G37*
G36*
X0154D02*
X01525D01*
X01528Y00273*
X01533Y00268*
X0154Y00265*
Y0028*
G37*
G36*
X01378Y00292D02*
X01371D01*
X01364Y0029*
X01359Y00285*
X01357Y00278*
Y00271*
X01359Y00264*
X01364Y00259*
X01371Y00257*
X01378*
X01385Y00259*
X0139Y00264*
X01392Y00271*
Y00278*
X0139Y00285*
X01385Y0029*
X01378Y00292*
G37*
G36*
X01504Y0027D02*
X0149D01*
Y00255*
X01496Y00258*
X01501Y00263*
X01504Y0027*
G37*
G36*
X0148D02*
X01465D01*
X01468Y00263*
X01473Y00258*
X0148Y00255*
Y0027*
G37*
G36*
X01865Y00269D02*
Y00255D01*
X01879*
X01876Y00261*
X01871Y00266*
X01865Y00269*
G37*
G36*
X01855D02*
X01848Y00266D01*
X01843Y00261*
X0184Y00255*
X01855*
Y00269*
G37*
G36*
X01015D02*
Y00255D01*
X01029*
X01026Y00261*
X01021Y00266*
X01015Y00269*
G37*
G36*
X01005D02*
X00998Y00266D01*
X00993Y00261*
X0099Y00255*
X01005*
Y00269*
G37*
G36*
X01339Y0026D02*
X01325D01*
Y00245*
X01331Y00248*
X01336Y00253*
X01339Y0026*
G37*
G36*
X01315D02*
X013D01*
X01303Y00253*
X01308Y00248*
X01315Y00245*
Y0026*
G37*
G36*
X01185Y00259D02*
Y00245D01*
X01199*
X01196Y00251*
X01191Y00256*
X01185Y00259*
G37*
G36*
X01175D02*
X01168Y00256D01*
X01163Y00251*
X0116Y00245*
X01175*
Y00259*
G37*
G36*
X01233Y00272D02*
X01226D01*
X01219Y0027*
X01214Y00265*
X01212Y00258*
Y00251*
X01214Y00244*
X01219Y00239*
X01226Y00237*
X01233*
X0124Y00239*
X01245Y00244*
X01247Y00251*
Y00258*
X01245Y00265*
X0124Y0027*
X01233Y00272*
G37*
G36*
X01879Y00245D02*
X01865D01*
Y0023*
X01871Y00233*
X01876Y00238*
X01879Y00245*
G37*
G36*
X01855D02*
X0184D01*
X01843Y00238*
X01848Y00233*
X01855Y0023*
Y00245*
G37*
G36*
X01029D02*
X01015D01*
Y0023*
X01021Y00233*
X01026Y00238*
X01029Y00245*
G37*
G36*
X01005D02*
X0099D01*
X00993Y00238*
X00998Y00233*
X01005Y0023*
Y00245*
G37*
G36*
X02205Y00244D02*
Y0023D01*
X02219*
X02216Y00236*
X02211Y00241*
X02205Y00244*
G37*
G36*
X02195D02*
X02188Y00241D01*
X02183Y00236*
X0218Y0023*
X02195*
Y00244*
G37*
G36*
X01675D02*
Y0023D01*
X01689*
X01686Y00236*
X01681Y00241*
X01675Y00244*
G37*
G36*
X01665D02*
X01658Y00241D01*
X01653Y00236*
X0165Y0023*
X01665*
Y00244*
G37*
G36*
X00365Y00239D02*
Y00225D01*
X00379*
X00376Y00231*
X00371Y00236*
X00365Y00239*
G37*
G36*
X00355D02*
X00348Y00236D01*
X00343Y00231*
X0034Y00225*
X00355*
Y00239*
G37*
G36*
X01199Y00235D02*
X01185D01*
Y0022*
X01191Y00223*
X01196Y00228*
X01199Y00235*
G37*
G36*
X01175D02*
X0116D01*
X01163Y00228*
X01168Y00223*
X01175Y0022*
Y00235*
G37*
G36*
X01075Y00234D02*
Y0022D01*
X01089*
X01086Y00226*
X01081Y00231*
X01075Y00234*
G37*
G36*
X01065D02*
X01058Y00231D01*
X01053Y00226*
X0105Y0022*
X01065*
Y00234*
G37*
G36*
X01785Y00229D02*
Y00215D01*
X01799*
X01796Y00221*
X01791Y00226*
X01785Y00229*
G37*
G36*
X01775D02*
X01768Y00226D01*
X01763Y00221*
X0176Y00215*
X01775*
Y00229*
G37*
G36*
X01733Y00247D02*
X01726D01*
X01719Y00245*
X01714Y0024*
X01712Y00233*
Y00226*
X01714Y00219*
X01719Y00214*
X01726Y00212*
X01733*
X0174Y00214*
X01745Y00219*
X01747Y00226*
Y00233*
X01745Y0024*
X0174Y00245*
X01733Y00247*
G37*
G36*
X02219Y0022D02*
X02205D01*
Y00205*
X02211Y00208*
X02216Y00213*
X02219Y0022*
G37*
G36*
X02195D02*
X0218D01*
X02183Y00213*
X02188Y00208*
X02195Y00205*
Y0022*
G37*
G36*
X01689D02*
X01675D01*
Y00205*
X01681Y00208*
X01686Y00213*
X01689Y0022*
G37*
G36*
X01665D02*
X0165D01*
X01653Y00213*
X01658Y00208*
X01665Y00205*
Y0022*
G37*
G36*
X00379Y00215D02*
X00365D01*
Y002*
X00371Y00203*
X00376Y00208*
X00379Y00215*
G37*
G36*
X00355D02*
X0034D01*
X00343Y00208*
X00348Y00203*
X00355Y002*
Y00215*
G37*
G36*
X01733Y00199D02*
X01726D01*
X01721Y00197*
X01716Y00193*
X01711Y00197*
X01705Y00199*
X01699*
X01693Y00197*
X01689Y00193*
X01686Y00187*
Y00181*
X01689Y00175*
X0169Y00173*
X01692Y00168*
X0169Y00163*
X01689Y00161*
X01686Y00155*
Y00149*
X01689Y00143*
X01693Y00139*
X01699Y00136*
X01705*
X01711Y00139*
X01716Y00143*
X01721Y00139*
X01726Y00136*
X01733*
X01738Y00139*
X01743Y00143*
X01745Y00149*
Y00155*
X01743Y00161*
X01741Y00163*
X01739Y00168*
X01741Y00173*
X01743Y00175*
X01745Y00181*
Y00187*
X01743Y00193*
X01738Y00197*
X01733Y00199*
G37*
G36*
X01799Y00205D02*
X01785D01*
Y0019*
X01791Y00193*
X01796Y00198*
X01799Y00205*
G37*
G36*
X01775D02*
X0176D01*
X01763Y00198*
X01768Y00193*
X01775Y0019*
Y00205*
G37*
G36*
X007Y00199D02*
Y00185D01*
X00714*
X00711Y00191*
X00706Y00196*
X007Y00199*
G37*
G36*
X0069D02*
X00683Y00196D01*
X00678Y00191*
X00675Y00185*
X0069*
Y00199*
G37*
G36*
X01623Y00217D02*
X01616D01*
X01609Y00215*
X01604Y0021*
X01602Y00203*
Y00196*
X01604Y00189*
X01609Y00184*
X01616Y00182*
X01623*
X0163Y00184*
X01635Y00189*
X01637Y00196*
Y00203*
X01635Y0021*
X0163Y00215*
X01623Y00217*
G37*
G36*
X01538Y00212D02*
X01531D01*
X01524Y0021*
X01519Y00205*
X01517Y00198*
Y00191*
X01519Y00184*
X01524Y00179*
X01531Y00177*
X01538*
X01545Y00179*
X0155Y00184*
X01552Y00191*
Y00198*
X0155Y00205*
X01545Y0021*
X01538Y00212*
G37*
G36*
X00714Y00175D02*
X007D01*
Y0016*
X00706Y00163*
X00711Y00168*
X00714Y00175*
G37*
G36*
X0069D02*
X00675D01*
X00678Y00168*
X00683Y00163*
X0069Y0016*
Y00175*
G37*
G36*
X0109Y0021D02*
X0107D01*
X01049*
X01045Y00202*
X01043Y00201*
X01038Y00196*
X01035Y0019*
X01055*
Y0018*
X01035*
X01038Y00173*
X01043Y00168*
X01045Y00167*
X01049Y0016*
X0107*
X0109*
X01094Y00167*
X01096Y00168*
X01101Y00173*
X01104Y0018*
X01085*
Y0019*
X01104*
X01101Y00196*
X01096Y00201*
X01094Y00202*
X0109Y0021*
G37*
G36*
X00493Y00182D02*
X00486D01*
X00479Y0018*
X00474Y00175*
X00472Y00168*
Y00161*
X00474Y00154*
X00479Y00149*
X00486Y00147*
X00493*
X005Y00149*
X00505Y00154*
X00507Y00161*
Y00168*
X00505Y00175*
X005Y0018*
X00493Y00182*
G37*
G36*
X01443Y00177D02*
X01436D01*
X01429Y00175*
X01424Y0017*
X01422Y00163*
Y00156*
X01424Y00149*
X01429Y00144*
X01436Y00142*
X01443*
X0145Y00144*
X01455Y00149*
X01457Y00156*
Y00163*
X01455Y0017*
X0145Y00175*
X01443Y00177*
G37*
G36*
X0188Y00154D02*
Y0014D01*
X01894*
X01891Y00146*
X01886Y00151*
X0188Y00154*
G37*
G36*
X0187D02*
X01863Y00151D01*
X01858Y00146*
X01855Y0014*
X0187*
Y00154*
G37*
G36*
X0165D02*
Y0014D01*
X01664*
X01661Y00146*
X01656Y00151*
X0165Y00154*
G37*
G36*
X0164D02*
X01633Y00151D01*
X01628Y00146*
X01625Y0014*
X0164*
Y00154*
G37*
G36*
X01089Y0015D02*
X01075D01*
Y00135*
X01081Y00138*
X01086Y00143*
X01089Y0015*
G37*
G36*
X01065D02*
X0105D01*
X01053Y00143*
X01058Y00138*
X01065Y00135*
Y0015*
G37*
G36*
X01525Y00144D02*
Y0013D01*
X01539*
X01536Y00136*
X01531Y00141*
X01525Y00144*
G37*
G36*
X01515D02*
X01508Y00141D01*
X01503Y00136*
X015Y0013*
X01515*
Y00144*
G37*
G36*
X0086D02*
Y0013D01*
X00874*
X00871Y00136*
X00866Y00141*
X0086Y00144*
G37*
G36*
X0085D02*
X00843Y00141D01*
X00838Y00136*
X00835Y0013*
X0085*
Y00144*
G37*
G36*
X00925Y00139D02*
Y00125D01*
X00939*
X00936Y00131*
X00931Y00136*
X00925Y00139*
G37*
G36*
X00915D02*
X00908Y00136D01*
X00903Y00131*
X009Y00125*
X00915*
Y00139*
G37*
G36*
X0103Y00134D02*
Y0012D01*
X01044*
X01041Y00126*
X01036Y00131*
X0103Y00134*
G37*
G36*
X0102D02*
X01013Y00131D01*
X01008Y00126*
X01005Y0012*
X0102*
Y00134*
G37*
G36*
X01894Y0013D02*
X0188D01*
Y00115*
X01886Y00118*
X01891Y00123*
X01894Y0013*
G37*
G36*
X0187D02*
X01855D01*
X01858Y00123*
X01863Y00118*
X0187Y00115*
Y0013*
G37*
G36*
X0218Y00129D02*
Y00115D01*
X02194*
X02191Y00121*
X02186Y00126*
X0218Y00129*
G37*
G36*
X0217D02*
X02163Y00126D01*
X02158Y00121*
X02155Y00115*
X0217*
Y00129*
G37*
G36*
X01539Y0012D02*
X01525D01*
Y00105*
X01531Y00108*
X01536Y00113*
X01539Y0012*
G37*
G36*
X01515D02*
X015D01*
X01503Y00113*
X01508Y00108*
X01515Y00105*
Y0012*
G37*
G36*
X00874D02*
X0086D01*
Y00105*
X00866Y00108*
X00871Y00113*
X00874Y0012*
G37*
G36*
X0085D02*
X00835D01*
X00838Y00113*
X00843Y00108*
X0085Y00105*
Y0012*
G37*
G36*
X00939Y00115D02*
X00925D01*
Y001*
X00931Y00103*
X00936Y00108*
X00939Y00115*
G37*
G36*
X00915D02*
X009D01*
X00903Y00108*
X00908Y00103*
X00915Y001*
Y00115*
G37*
G36*
X0193Y00114D02*
Y001D01*
X01944*
X01941Y00106*
X01936Y00111*
X0193Y00114*
G37*
G36*
X0192D02*
X01913Y00111D01*
X01908Y00106*
X01905Y001*
X0192*
Y00114*
G37*
G36*
X007D02*
Y001D01*
X00714*
X00711Y00106*
X00706Y00111*
X007Y00114*
G37*
G36*
X0069D02*
X00683Y00111D01*
X00678Y00106*
X00675Y001*
X0069*
Y00114*
G37*
G36*
X01044Y0011D02*
X0103D01*
Y00095*
X01036Y00098*
X01041Y00103*
X01044Y0011*
G37*
G36*
X0102D02*
X01005D01*
X01008Y00103*
X01013Y00098*
X0102Y00095*
Y0011*
G37*
G36*
X01664Y0013D02*
X01625D01*
X01628Y00123*
X01633Y00118*
X01641Y00115*
X01643*
X01647Y00107*
X01644Y00105*
X01642Y00098*
Y00091*
X01644Y00084*
X01649Y00079*
X01656Y00077*
X01663*
X0167Y00079*
X01675Y00084*
X01677Y00091*
X01679Y00092*
X01681Y00092*
X01688*
X01695Y00094*
X017Y00099*
X01702Y00106*
Y00113*
X017Y0012*
X01695Y00125*
X01688Y00127*
X01681*
X01674Y00125*
X01669Y0012*
X01668Y00116*
X01666*
X01663Y0012*
X01662Y00124*
X01664Y0013*
G37*
G36*
X01353Y00127D02*
X01346D01*
X01339Y00125*
X01334Y0012*
X01332Y00113*
Y00106*
X01334Y00099*
X01339Y00094*
X01346Y00092*
X01353*
X0136Y00094*
X01365Y00099*
X01367Y00106*
Y00113*
X01365Y0012*
X0136Y00125*
X01353Y00127*
G37*
G36*
X01273D02*
X01266D01*
X01259Y00125*
X01254Y0012*
X01252Y00113*
Y00106*
X01254Y00099*
X01259Y00094*
X01266Y00092*
X01273*
X0128Y00094*
X01285Y00099*
X01287Y00106*
Y00113*
X01285Y0012*
X0128Y00125*
X01273Y00127*
G37*
G36*
X02194Y00105D02*
X0218D01*
Y0009*
X02186Y00093*
X02191Y00098*
X02194Y00105*
G37*
G36*
X0217D02*
X02155D01*
X02158Y00098*
X02163Y00093*
X0217Y0009*
Y00105*
G37*
G36*
X01743Y00122D02*
X01736D01*
X01729Y0012*
X01724Y00115*
X01722Y00108*
Y00101*
X01724Y00094*
X01729Y00089*
X01736Y00087*
X01743*
X0175Y00089*
X01755Y00094*
X01757Y00101*
Y00108*
X01755Y00115*
X0175Y0012*
X01743Y00122*
G37*
G36*
X0143Y00099D02*
Y00085D01*
X01444*
X01441Y00091*
X01436Y00096*
X0143Y00099*
G37*
G36*
X0142D02*
X01413Y00096D01*
X01408Y00091*
X01405Y00085*
X0142*
Y00099*
G37*
G36*
X01944Y0009D02*
X0193D01*
Y00075*
X01936Y00078*
X01941Y00083*
X01944Y0009*
G37*
G36*
X0192D02*
X01905D01*
X01908Y00083*
X01913Y00078*
X0192Y00075*
Y0009*
G37*
G36*
X00714D02*
X007D01*
Y00075*
X00706Y00078*
X00711Y00083*
X00714Y0009*
G37*
G36*
X0069D02*
X00675D01*
X00678Y00083*
X00683Y00078*
X0069Y00075*
Y0009*
G37*
G36*
X01115Y00089D02*
Y00075D01*
X01129*
X01126Y00081*
X01121Y00086*
X01115Y00089*
G37*
G36*
X01105D02*
X01098Y00086D01*
X01093Y00081*
X0109Y00075*
X01105*
Y00089*
G37*
G36*
X01843Y00107D02*
X01836D01*
X01829Y00105*
X01824Y001*
X01822Y00093*
Y00086*
X01824Y00079*
X01829Y00074*
X01836Y00072*
X01843*
X0185Y00074*
X01855Y00079*
X01857Y00086*
Y00093*
X01855Y001*
X0185Y00105*
X01843Y00107*
G37*
G36*
X0157Y00079D02*
Y00065D01*
X01584*
X01581Y00071*
X01576Y00076*
X0157Y00079*
G37*
G36*
X0156D02*
X01553Y00076D01*
X01548Y00071*
X01545Y00065*
X0156*
Y00079*
G37*
G36*
X00503Y00097D02*
X00496D01*
X00489Y00095*
X00484Y0009*
X00482Y00083*
Y00076*
X00484Y00069*
X00489Y00064*
X00496Y00062*
X00503*
X0051Y00064*
X00515Y00069*
X00517Y00076*
Y00083*
X00515Y0009*
X0051Y00095*
X00503Y00097*
G37*
G36*
X01444Y00075D02*
X0143D01*
Y0006*
X01436Y00063*
X01441Y00068*
X01444Y00075*
G37*
G36*
X0142D02*
X01405D01*
X01408Y00068*
X01413Y00063*
X0142Y0006*
Y00075*
G37*
G36*
X01129Y00065D02*
X01115D01*
Y0005*
X01121Y00053*
X01126Y00058*
X01129Y00065*
G37*
G36*
X01105D02*
X0109D01*
X01093Y00058*
X01098Y00053*
X01105Y0005*
Y00065*
G37*
G36*
X01775Y00064D02*
Y0005D01*
X01789*
X01786Y00056*
X01781Y00061*
X01775Y00064*
G37*
G36*
X01765D02*
X01758Y00061D01*
X01753Y00056*
X0175Y0005*
X01765*
Y00064*
G37*
G36*
X0165D02*
Y0005D01*
X01664*
X01661Y00056*
X01656Y00061*
X0165Y00064*
G37*
G36*
X0164D02*
X01633Y00061D01*
X01628Y00056*
X01625Y0005*
X0164*
Y00064*
G37*
G36*
X01584Y00055D02*
X0157D01*
Y0004*
X01576Y00043*
X01581Y00048*
X01584Y00055*
G37*
G36*
X0156D02*
X01545D01*
X01548Y00048*
X01553Y00043*
X0156Y0004*
Y00055*
G37*
%LNrelia-3*%
%LPD*%
G54D186*
X00957Y0187D02*
X00959Y0187D01*
Y0163*
X00954Y01627*
Y01607*
X00949*
Y01626*
X00942Y01631*
Y01702*
X00941Y01707*
X00938Y01712*
X00825Y01825*
Y01829*
X00823Y01834*
X00824Y01837*
X00825Y01839*
X00882*
X00883Y01837*
X0089Y01834*
X00899*
X00906Y01837*
X00912Y01843*
X00915Y0185*
Y01859*
X00913Y01864*
X00914Y01867*
X00915Y01869*
X00927*
X00928Y01867*
X00935Y01864*
X00944*
X00951Y01867*
X00954Y01871*
X00957Y0187*
X01095Y01831D02*
X011Y01827D01*
X01106Y01826*
X01108*
X01112Y01823*
X01111Y01818*
X01106Y01813*
X01102Y01802*
X01122*
Y01797*
X01127*
Y01777*
X01133Y01779*
X01139Y01777*
Y01767*
X01133Y01764*
X01132Y01765*
X01124*
X01116Y01762*
X0111Y01756*
X01107Y01749*
Y0174*
X01107Y0174*
X01104Y01734*
X01098Y01732*
X01095Y01728*
X01091Y01732*
X01084Y01735*
X01085*
Y01739*
X01082Y01746*
X01076Y01752*
X01069Y01755*
X0106*
X01053Y01752*
X01047Y01746*
X01044Y01739*
Y0173*
X01047Y01723*
X01053Y01717*
X0106Y01714*
X01059*
Y0171*
X01062Y01703*
X01068Y01697*
X01075Y01694*
X01084*
X01091Y01697*
X01095Y01701*
X01098Y01697*
X01105Y01694*
X01114*
X01121Y01697*
X01127Y01703*
X0113Y0171*
Y01717*
X01134Y01721*
X01133Y01721*
X01139Y01717*
Y01649*
X01139Y0165*
X01134Y01648*
X01131Y01652*
X01121Y01656*
Y01633*
Y0161*
X01131Y01614*
X01134Y01618*
X01139Y01617*
X01139Y01617*
Y01615*
X0114Y01609*
X01143Y01604*
X01163Y01585*
X01168Y01581*
X0117Y01581*
X01186Y01565*
X01184Y01561*
X01024*
X0102Y01565*
Y01569*
X01017Y01576*
X01011Y01582*
X01004Y01585*
X00995*
X00996Y01585*
X0099Y01589*
Y01641*
X00994Y01642*
X00994Y01643*
X01034Y01603*
Y016*
X01037Y01593*
X01043Y01587*
X0105Y01584*
X01059*
X01066Y01587*
X01072Y01593*
X01075Y016*
Y01609*
X01072Y01616*
X01066Y01622*
X01059Y01625*
X01056*
X0102Y01661*
Y01776*
X01026Y01779*
X01032Y01776*
Y018*
Y01823*
X01026Y0182*
X0102Y01823*
Y01827*
X01026Y01831*
X0103Y01829*
Y01852*
Y01876*
X01026Y01874*
X0102Y01878*
Y01899*
X01025Y01901*
X01095Y01831*
X01524Y01607D02*
X01528Y01602D01*
X01536Y01599*
X01543*
X01545Y01598*
Y0149*
X01546Y01484*
X01549Y0148*
X0156Y01468*
X01561Y01469*
Y0146*
X01562Y01457*
X01559Y01455*
X01515Y01504*
Y01509*
X01512Y01516*
X01509Y01519*
X01509Y01521*
X0151Y01524*
X0151Y01524*
X01515Y01526*
X0152Y01532*
X01523Y01539*
Y01547*
X0152Y01555*
X01519Y01556*
X01518Y01562*
X01519Y01563*
X01523Y01568*
X01527Y01578*
X01506*
Y01583*
X01527*
X01523Y01593*
X01517Y01599*
X01516Y01599*
X01515Y01604*
X01518Y01608*
X01524Y01607*
X00943Y0121D02*
X00885Y01152D01*
X00809*
X00806Y01157*
X00763*
X0076Y01152*
X0074*
X00734Y01151*
X00729Y01148*
X00712Y01131*
X00706Y01132*
X00705Y01132*
X00701Y01137*
X00694Y0114*
X00694*
X00692Y01145*
X00761Y01214*
X00942*
X00941Y01214*
X00943Y0121*
X0061Y01062D02*
X0061Y01062D01*
X00606Y01057*
X00601Y01047*
X00622*
Y01042*
X00603*
X006Y01037*
X00529*
X00504Y01062*
X00506Y01066*
X00609*
X0061Y01062*
%LNrelia-4*%
%LPC*%
G36*
X01037Y01872D02*
Y01857D01*
X01052*
X01049Y01864*
X01044Y01869*
X01037Y01872*
G37*
G36*
X01052Y01847D02*
X01037D01*
Y01833*
X01044Y01836*
X01049Y01841*
X01052Y01847*
G37*
G36*
X0104Y01819D02*
Y01805D01*
X01054*
X01051Y01811*
X01046Y01816*
X0104Y01819*
G37*
G36*
X0112Y01795D02*
X01105D01*
X01108Y01789*
X01114Y01783*
X0112Y0178*
Y01795*
G37*
G36*
X01054Y01795D02*
X0104D01*
Y0178*
X01046Y01783*
X01051Y01788*
X01054Y01795*
G37*
G36*
X01113Y01652D02*
X01107Y0165D01*
X01101Y01644*
X01099Y01638*
X01113*
Y01652*
G37*
G36*
Y01628D02*
X01099D01*
X01101Y01622*
X01107Y01616*
X01113Y01614*
Y01628*
G37*
G36*
X0079Y01179D02*
Y01165D01*
X00804*
X00801Y01171*
X00796Y01176*
X0079Y01179*
G37*
G36*
X0078D02*
X00773Y01176D01*
X00768Y01171*
X00765Y01165*
X0078*
Y01179*
G37*
%LNrelia-5*%
%LPD*%
G54D65*
X02425Y01135D03*
Y015D03*
Y0097D03*
Y01195D03*
Y0125D03*
Y01025D03*
Y0108D03*
Y0165D03*
Y0155D03*
Y016D03*
G54D95*
X0236Y01125D02*
X0237Y01135D01*
X02425*
X02385Y01505D02*
X0242D01*
X02425Y015*
X02345Y0097D02*
X02425D01*
X02335Y0098D02*
X02345Y0097D01*
X0242Y01645D02*
X02425Y0165D01*
X0237Y01645D02*
X0242D01*
X00425Y00955D02*
Y00968D01*
X00328Y01065D02*
X00425Y00968D01*
X003Y01065D02*
X00328D01*
G54D98*
X01115Y01842D02*
X01155Y01802D01*
Y01615D02*
Y01802D01*
Y01615D02*
X01174Y01596D01*
X01203Y0157D02*
X01213D01*
X00595Y02095D02*
X00853D01*
X01005Y01654D02*
Y01918D01*
X01177Y01596D02*
X01203Y0157D01*
X00853Y02095D02*
X01106Y01842D01*
X01213Y0157D02*
X01215Y01568D01*
X0057Y0204D02*
X00883D01*
X01106Y01842D02*
X01115D01*
X01174Y01596D02*
X01177D01*
X00883Y0204D02*
X01005Y01918D01*
X02345Y01235D02*
X02347D01*
X02372Y01025D02*
X02425D01*
X02357Y0104D02*
X02372Y01025D01*
X02355Y0104D02*
X02357D01*
X0234Y0108D02*
X02425D01*
X01405Y0102D02*
Y01105D01*
X01315Y0093D02*
X01405Y0102D01*
X0119Y0093D02*
X01315D01*
X0046Y0111D02*
X00487Y01082D01*
X00435Y0121D02*
X0046Y01185D01*
X00487Y01082D02*
X00685D01*
X0046Y0111D02*
Y01185D01*
X00685Y01082D02*
X0074Y01137D01*
X00892D02*
X0098Y01225D01*
X0074Y01137D02*
X00892D01*
X02005Y00355D02*
X0207D01*
X01825Y00535D02*
X01838Y00521D01*
X02005Y00355D01*
X01838Y00521D02*
D01*
X00689Y01022D02*
X00774Y01107D01*
X00305Y01165D02*
X00324Y01146D01*
X00774Y01107D02*
X00887D01*
X00324Y01146D02*
X00398D01*
X00522Y01022D02*
X00689D01*
X00398Y01146D02*
X00522Y01022D01*
X00887Y01107D02*
X0097Y0119D01*
X0099*
X01259Y01424D02*
X0126Y01425D01*
X01225Y01424D02*
X01259D01*
X00685Y01395D02*
X009D01*
X00667Y01962D02*
X00924D01*
X00545Y0184D02*
X00667Y01962D01*
X00645Y01615D02*
Y01707D01*
Y01615D02*
X00787Y01472D01*
X00602Y0175D02*
X00645Y01707D01*
X006Y0175D02*
X00602D01*
X01145Y01204D02*
X01159Y0119D01*
X01145Y01204D02*
Y01207D01*
X01159Y01118D02*
X01165Y01112D01*
X01159Y01118D02*
Y0119D01*
X01165Y01109D02*
Y01112D01*
X01005Y01654D02*
X01055Y01605D01*
X00787Y01472D02*
X01177D01*
X01225Y01424*
X01294Y01025D02*
Y01027D01*
X01297Y01031*
X0126Y0116D02*
X01297Y01122D01*
Y01031D02*
Y01122D01*
X0126Y0116D02*
Y01215D01*
X00475Y01585D02*
X0062D01*
X0102Y01445D02*
X0107Y01395D01*
X0062Y01585D02*
X0076Y01445D01*
X0102*
X01064Y01215D02*
Y01217D01*
X0107Y01223*
Y01395*
X01275Y01095D02*
Y01097D01*
X0123Y01143D02*
Y01255D01*
Y01143D02*
X01275Y01097D01*
X00924Y01962D02*
X00975Y01912D01*
Y0155D02*
Y01912D01*
X00692Y00844D02*
X00886Y01038D01*
X00692Y00842D02*
Y00844D01*
X00905Y00964D02*
D01*
X00982Y01042D02*
D01*
X00905Y00964D02*
X00982Y01042D01*
X00886Y01038D02*
X0104Y01192D01*
X00886Y01038D02*
D01*
X0104Y01192D02*
Y01385D01*
X009Y01395D02*
X00975Y0132D01*
X01007Y01295D02*
Y01327D01*
X0099Y01345D02*
X01007Y01327D01*
X01785Y00585D02*
X0181D01*
X01995Y004D02*
X02105D01*
X0181Y00585D02*
X01995Y004D01*
X02105D02*
X0221Y00295D01*
X01755Y0057D02*
X0196Y00365D01*
X01695Y0057D02*
X01755D01*
X0196Y00275D02*
Y00365D01*
X0063Y01105D02*
X00755Y0123D01*
X0054Y01105D02*
X0063D01*
X00755Y0123D02*
X00942D01*
X01007Y01295*
X00665Y01165D02*
X0087Y0137D01*
X00625Y01165D02*
X00665D01*
G54D99*
X01781Y0119D02*
X02355D01*
X01777Y01192D02*
X0178Y0119D01*
X01495Y01505D02*
X01777Y01192D01*
X0178Y0119D02*
X01781D01*
X0233Y0125D02*
X02345Y01235D01*
X01846Y0125D02*
X0233D01*
X01581Y01514D02*
X01846Y0125D01*
X0134Y00895D02*
X01433Y00988D01*
Y01033*
X0123Y00895D02*
X0134D01*
X0104Y00705D02*
X0123Y00895D01*
X01529Y0113D02*
X01605D01*
X01433Y01033D02*
X01529Y0113D01*
X01605Y01717D02*
Y0172D01*
X01482Y01595D02*
X01605Y01717D01*
X01482Y01593D02*
Y01595D01*
X01Y01565D02*
X01018Y01546D01*
X01436*
X01482Y01593*
X01255Y01365D02*
X01324D01*
X00515Y00625D02*
X01255Y01365D01*
X012Y0192D02*
Y0208D01*
Y0192D02*
X01235Y01885D01*
X01593Y01677D02*
X01715Y01799D01*
Y0199*
X0124Y02015D02*
X01333Y01921D01*
X01495Y02D02*
X01655Y0216D01*
X01495Y0169D02*
Y02D01*
X01503Y01543D02*
X01503D01*
X01324Y01365D02*
X01503Y01543D01*
X00928Y01569D02*
Y01701D01*
X00805Y01825D02*
X00928Y01701D01*
X01001Y01496D02*
X01393D01*
X00928Y01569D02*
X01001Y01496D01*
X01393D02*
X01395Y01495D01*
X01Y01525D02*
X0144D01*
X00975Y0155D02*
X01Y01525D01*
X01333Y01716D02*
Y01921D01*
Y01716D02*
X01335Y01715D01*
X0144Y01581D02*
X01505Y01646D01*
X01438Y01581D02*
X0144D01*
X0139Y01586D02*
X01391D01*
X01495Y0169*
X0136Y01105D02*
Y01207D01*
X012Y01087D02*
Y01207D01*
X01312Y01189D02*
X0132Y01181D01*
X0131Y0121D02*
X01312Y01207D01*
Y01189D02*
Y01207D01*
X0132Y01105D02*
Y01181D01*
X01511Y01646D02*
X01577Y01712D01*
X01505Y01646D02*
X01511D01*
X01595Y0121D02*
X01815Y0099D01*
X01595Y0121D02*
Y01285D01*
X0099Y00877D02*
X012Y01087D01*
X0099Y0069D02*
Y00877D01*
X01235Y01645D02*
Y01885D01*
X0121Y0162D02*
X01235Y01645D01*
X01593Y01642D02*
Y01677D01*
X01559Y01609D02*
X01593Y01642D01*
X01559Y0149D02*
Y01609D01*
Y0149D02*
X01579Y0147D01*
Y01467D02*
Y0147D01*
Y01467D02*
X01581Y01465D01*
X01577Y01712D02*
Y02012D01*
X01715Y0215*
X01706Y01452D02*
X01733D01*
X021Y01819*
Y0193*
G54D100*
X0022Y00765D02*
X0024Y00745D01*
X0022Y01435D02*
X0064Y01855D01*
X0022Y00765D02*
Y01435D01*
X00195Y00699D02*
Y01455D01*
Y00699D02*
X0022Y00675D01*
X00195Y01455D02*
X00625Y01885D01*
X0094*
X0064Y01855D02*
X00895D01*
G54D101*
X02362Y01195D02*
X02425D01*
X02357Y0119D02*
X02362Y01195D01*
X02355Y0119D02*
X02357D01*
X02362Y0125D02*
X02425D01*
X02347Y01235D02*
X02362Y0125D01*
G54D104*
X01702Y00184D03*
Y00152D03*
X0173D03*
Y00184D03*
G54D105*
X0107Y00155D03*
X01055Y00185D03*
X0107Y00215D03*
X01085Y00185D03*
G54D106*
X00118Y00118D03*
X0016Y0225D03*
X02384Y00118D03*
Y02244D03*
G54D107*
X02385Y00435D03*
Y00775D03*
G54D108*
X0222Y00435D03*
Y00775D03*
G54D109*
X0224Y00491D03*
Y00718D03*
G54D110*
X01685Y0011D03*
X0178Y0021D03*
X01645Y00135D03*
X0167Y00225D03*
X0174Y00105D03*
G54D111*
X0082Y0156D03*
X01377Y00625D03*
X00581Y01259D03*
X01125Y018D03*
X0044Y0134D03*
X00185Y0035D03*
X0024Y0041D03*
X00175Y0042D03*
X00225Y00465D03*
X00695Y00095D03*
X00855Y00125D03*
X0036Y0022D03*
X00695Y0018D03*
X00845Y0035D03*
X00585Y0059D03*
X00705Y0053D03*
X00565Y0085D03*
X0036Y00995D03*
X00625Y01045D03*
X007Y01065D03*
X00775Y00705D03*
X00835Y00715D03*
X00774Y0084D03*
X008Y0108D03*
X0092Y0012D03*
X01025Y00115D03*
X0101Y0025D03*
X0111Y0007D03*
X01425Y0008D03*
X0118Y0024D03*
X0132Y00265D03*
X0134Y00325D03*
X0142Y0031D03*
X0094Y0035D03*
Y0053D03*
X0097Y0057D03*
X0091Y0087D03*
X00925Y00745D03*
X01105Y0053D03*
X01215Y0041D03*
X0126Y0059D03*
X014Y00455D03*
X00243Y01194D03*
X00245Y0135D03*
X00295Y01348D03*
X0056Y01355D03*
X0067Y01265D03*
X00625Y01315D03*
X00084Y02095D03*
X0032Y01425D03*
X00105Y01565D03*
X00275Y02155D03*
X0055Y01407D03*
X00595Y0168D03*
X00605Y01995D03*
X00455Y02165D03*
X00785Y0116D03*
X00952Y01605D03*
X0077Y01635D03*
X00845Y0165D03*
X00968Y01153D03*
X01295Y0163D03*
X01118Y01633D03*
X01035Y018D03*
X01032Y01852D03*
X0113Y02105D03*
X0124Y0194D03*
X013Y01765D03*
X014Y01784D03*
X01355Y01824D03*
X0131Y0203D03*
X01215Y02255D03*
X01315Y021D03*
X01385Y02185D03*
X0152Y00125D03*
X01565Y0006D03*
X01485Y00275D03*
X01645Y00045D03*
X01545Y00285D03*
X01435Y0039D03*
X01515Y00945D03*
X01625Y0034D03*
X01765Y00294D03*
X0176Y00425D03*
X01565Y00625D03*
X0157Y0046D03*
Y00945D03*
X01765Y00775D03*
X0177Y00045D03*
X01875Y00135D03*
X01815Y00445D03*
X0186Y0025D03*
X01925Y00095D03*
X02175Y0011D03*
X022Y00225D03*
X02165Y00445D03*
X0205Y00695D03*
X0206Y006D03*
X02065Y00495D03*
X0184Y00775D03*
X0215Y0074D03*
X02245Y00845D03*
X02115Y00875D03*
X0234Y0092D03*
X01504Y0158D03*
X01615Y0166D03*
X018Y01425D03*
X01845Y0134D03*
X01905Y01135D03*
X0169Y0159D03*
X01755Y01775D03*
X0145Y01895D03*
X01535Y019D03*
X01465Y02235D03*
X01755Y0222D03*
X01595D03*
X0184Y0186D03*
X0178Y02135D03*
X01785Y0226D03*
X01955Y01135D03*
X02065Y01395D03*
X0216Y0133D03*
X02075Y01475D03*
X0229Y01485D03*
X02345Y0131D03*
X0236Y01125D03*
X0235Y01445D03*
X02385Y01505D03*
X02395Y017D03*
X0197Y0185D03*
X01995Y01775D03*
X0205Y02145D03*
X02025Y02215D03*
X02055Y0226D03*
X0215Y02215D03*
X0219Y0193D03*
X02395Y0178D03*
X02345Y0213D03*
X0227Y0218D03*
X0144Y00655D03*
X0145Y01095D03*
X0173Y0023D03*
X02225Y01965D03*
X02265Y0193D03*
X0229Y018D03*
X02165Y02265D03*
X02145Y02145D03*
X02245Y0177D03*
X02335Y0098D03*
X0218Y0101D03*
X02165Y0113D03*
X0204Y01315D03*
X01585Y0227D03*
X0158Y02125D03*
X01385Y02065D03*
X01465Y0204D03*
X02085Y00945D03*
X0202Y0122D03*
X0184Y0009D03*
X01375Y00275D03*
X01128Y01745D03*
X01125Y01865D03*
X01185Y01765D03*
X0198Y01475D03*
X02355Y0119D03*
X01495Y01505D03*
X02345Y01235D03*
X01581Y01514D03*
X02355Y0104D03*
X0234Y0108D03*
X00445Y01275D03*
X01489Y01059D03*
X0119Y0093D03*
X0115Y007D03*
X00315Y01388D03*
X00396Y01345D03*
X00344Y01348D03*
X00435Y0121D03*
X0098Y01225D03*
X0038Y01095D03*
X0017Y0025D03*
X00175Y003D03*
X01035Y02255D03*
X01605Y0172D03*
X01Y01565D03*
X00875Y01085D03*
X0085Y01565D03*
X0089Y01585D03*
X0142Y00525D03*
X01425Y0056D03*
X00927Y01112D03*
X01268Y01629D03*
X01375Y0171D03*
X0141Y01744D03*
X01262Y01759D03*
X0146Y0056D03*
X01545Y01045D03*
X0156Y0057D03*
X0207Y00355D03*
X01825Y00535D03*
X0174Y009D03*
X01895Y01415D03*
X0159Y01575D03*
X01625Y01515D03*
X01665Y01785D03*
X0183Y018D03*
X01905Y01655D03*
X0187Y01735D03*
X019Y01765D03*
X01965Y01805D03*
X0058Y0194D03*
X00745Y01935D03*
X0197Y01385D03*
X0154Y01619D03*
X00742Y02165D03*
X0077Y02065D03*
X00515Y00625D03*
X00305Y01165D03*
X0099Y0119D03*
X00855Y0076D03*
X0083Y00815D03*
X00855Y00855D03*
X01235Y0047D03*
X0124Y0053D03*
X01315Y00485D03*
X0111Y01715D03*
X00925Y0091D03*
X008Y0079D03*
X0069Y0112D03*
X0058Y0113D03*
X0031Y0112D03*
X01065Y01735D03*
X0108Y01715D03*
X00755Y00804D03*
X00725Y00774D03*
X00491Y0111D03*
X0064Y0122D03*
X00718Y01331D03*
X00645Y01355D03*
X0065Y0141D03*
X00585Y01315D03*
X0124Y02015D03*
X01715Y0199D03*
X01503Y01543D03*
X0126Y01425D03*
X00685Y01395D03*
X0162Y002D03*
X0123Y00255D03*
X0124Y00345D03*
X0127Y0011D03*
X0135D03*
X0144Y0016D03*
X01535Y00195D03*
X0166Y00095D03*
X00805Y01825D03*
X01395Y01495D03*
X0237Y01645D03*
X02405Y01555D03*
X02422Y01584D03*
X00425Y00955D03*
X003Y01065D03*
X0057Y0204D03*
X00545Y0184D03*
X006Y0175D03*
X01165Y01109D03*
X01055Y01605D03*
X01145Y01207D03*
X00595Y02095D03*
X01294Y01025D03*
X0126Y01215D03*
X00475Y01585D03*
X01064Y01215D03*
X01275Y01095D03*
X01215Y01568D03*
X0123Y01255D03*
X0144Y01525D03*
X01335Y01715D03*
X0094Y01885D03*
X01438Y01581D03*
X0139Y01586D03*
X00692Y00842D03*
X00905Y00964D03*
X00982Y01042D03*
X012Y01207D03*
X0136D03*
X0131Y0121D03*
X0104Y01385D03*
X0132Y01105D03*
X0121Y0162D03*
X01581Y01465D03*
X012Y0208D03*
X01595Y01285D03*
X01815Y0099D03*
X01405Y01105D03*
X01605Y0113D03*
X0104Y00705D03*
X0099Y0069D03*
X01715Y0215D03*
X01655Y0216D03*
X0136Y01105D03*
X01706Y01452D03*
X021Y0193D03*
X00975Y0132D03*
X0099Y01345D03*
X01785Y00585D03*
X01695Y0057D03*
X00895Y01855D03*
X0024Y00745D03*
X0022Y00675D03*
X0087Y0137D03*
X0054Y01105D03*
X00625Y01165D03*
X0196Y00275D03*
X0221Y00295D03*
X005Y0008D03*
X0049Y00165D03*
X0051Y00285D03*
Y0039D03*
X00425Y0031D03*
X0036Y00315D03*
M02*