%FSTAX23Y23*%
%MOIN*%
%SFA1B1*%

%IPPOS*%
%ADD128C,0.007874*%
%LNrelia-1*%
%LPD*%
G54D128*
X00679Y01349D02*
Y0137D01*
Y01349D02*
X0072D01*
Y0137*
X00679D02*
X0072D01*
X00619Y014D02*
Y01419D01*
X0058D02*
X00619D01*
X0058Y014D02*
Y01419D01*
Y014D02*
X00619D01*
X01766Y00133D02*
Y00216D01*
X01663Y00133D02*
X01766D01*
X01663D02*
Y00216D01*
X01766*
X02296Y01427D02*
X02463D01*
Y01752*
X02296D02*
X02463D01*
X02296Y01427D02*
Y01752D01*
X01527Y02096D02*
X01852D01*
X01527D02*
Y02263D01*
X01852*
Y02096D02*
Y02263D01*
X00704Y02004D02*
X00745D01*
X00704D02*
Y02025D01*
X00745*
Y02004D02*
Y02025D01*
X00691Y02084D02*
X00732D01*
X00691D02*
Y02105D01*
X00732*
Y02084D02*
Y02105D01*
X00692Y02154D02*
X00731D01*
Y02135D02*
Y02154D01*
X00692Y02135D02*
X00731D01*
X00692D02*
Y02154D01*
X00691Y01869D02*
X00732D01*
X00691D02*
Y0189D01*
X00732*
Y01869D02*
Y0189D01*
X00694Y01764D02*
X00735D01*
X00694D02*
Y01785D01*
X00735*
Y01764D02*
Y01785D01*
X00691Y01819D02*
X00732D01*
X00691D02*
Y0184D01*
X00732*
Y01819D02*
Y0184D01*
X01772Y00808D02*
Y00891D01*
X01827*
Y00808D02*
Y00891D01*
X01772Y00808D02*
X01827D01*
X01863D02*
X01916D01*
Y00891*
X01863D02*
X01916D01*
X01863Y00808D02*
Y00891D01*
X01162Y00507D02*
Y00622D01*
X00887D02*
X01162D01*
X00887Y00507D02*
Y00622D01*
Y00507D02*
X01162D01*
X01444Y0188D02*
X01465D01*
X01444Y01839D02*
Y0188D01*
Y01839D02*
X01465D01*
Y0188*
X01549D02*
X0157D01*
X01549Y01839D02*
Y0188D01*
Y01839D02*
X0157D01*
Y0188*
X0144Y01743D02*
Y01806D01*
Y01743D02*
X01569D01*
Y01806*
X0144D02*
X01569D01*
X023Y00903D02*
X02459D01*
Y01326*
X023D02*
X02459D01*
X023Y00903D02*
Y01326D01*
X00177Y00239D02*
X00374D01*
Y01024*
X00177D02*
X00374D01*
X00177Y00239D02*
Y01024D01*
X00854Y01288D02*
Y01331D01*
X00875*
Y01288D02*
Y01331D01*
X00854Y01288D02*
X00875D01*
X01977Y0005D02*
Y00209D01*
Y0005D02*
X02252D01*
Y00209*
X01977D02*
X02252D01*
X01182Y00217D02*
X01207D01*
X01182Y00172D02*
Y00217D01*
Y00172D02*
X01207D01*
Y00217*
X0147Y00999D02*
X01509D01*
Y0098D02*
Y00999D01*
X0147Y0098D02*
X01509D01*
X0147D02*
Y00999D01*
X01344Y00963D02*
X01365D01*
Y01006*
X01344D02*
X01365D01*
X01344Y00963D02*
Y01006D01*
X01399Y00963D02*
Y01006D01*
X0142*
Y00963D02*
Y01006D01*
X01399Y00963D02*
X0142D01*
X02085Y0048D02*
X02124D01*
X02085D02*
Y00499D01*
X02124*
Y0048D02*
Y00499D01*
X02187Y00413D02*
X0249D01*
Y00796*
X02187D02*
X0249D01*
X02187Y00413D02*
Y00796D01*
X00955Y01644D02*
X01514D01*
X00955Y01085D02*
Y01644D01*
Y01085D02*
X01514D01*
Y01644*
X0139Y00565D02*
Y00604D01*
X01409*
Y00565D02*
Y00604D01*
X0139Y00565D02*
X01409D01*
X01449Y00589D02*
Y0063D01*
X0147*
Y00589D02*
Y0063D01*
X01449Y00589D02*
X0147D01*
X0151Y00565D02*
Y00604D01*
X01529*
Y00565D02*
Y00604D01*
X0151Y00565D02*
X01529D01*
X01469Y0031D02*
Y00349D01*
X0145Y0031D02*
X01469D01*
X0145D02*
Y00349D01*
X01469*
X01395Y00415D02*
Y00494D01*
X01474*
Y00415D02*
Y00494D01*
X01395Y00415D02*
X01474D01*
X01284Y00529D02*
Y0057D01*
X01305*
Y00529D02*
Y0057D01*
X01284Y00529D02*
X01305D01*
X01299Y004D02*
Y00439D01*
X0128Y004D02*
X01299D01*
X0128D02*
Y00439D01*
X01299*
X0137Y00474D02*
Y00515D01*
X01349Y00474D02*
X0137D01*
X01349D02*
Y00515D01*
X0137*
X01509Y00394D02*
Y00435D01*
X0153*
Y00394D02*
Y00435D01*
X01509Y00394D02*
X0153D01*
X01509Y00505D02*
X0155D01*
Y00484D02*
Y00505D01*
X01509Y00484D02*
X0155D01*
X01509D02*
Y00505D01*
X01787Y00052D02*
Y00097D01*
X01812*
Y00052D02*
Y00097D01*
X01787Y00052D02*
X01812D01*
X01264Y01719D02*
Y0174D01*
Y01719D02*
X01305D01*
Y0174*
X01264D02*
X01305D01*
X01614Y01734D02*
X01635D01*
Y01775*
X01614D02*
X01635D01*
X01614Y01734D02*
Y01775D01*
X01584Y01599D02*
Y0164D01*
X01605*
Y01599D02*
Y0164D01*
X01584Y01599D02*
X01605D01*
X01359Y01739D02*
X0138D01*
Y0178*
X01359D02*
X0138D01*
X01359Y01739D02*
Y0178D01*
X01862Y01802D02*
X01887D01*
Y01847*
X01862D02*
X01887D01*
X01862Y01802D02*
Y01847D01*
X01344Y01864D02*
X01365D01*
Y01905*
X01344D02*
X01365D01*
X01344Y01864D02*
Y01905D01*
X01925Y0174D02*
Y01759D01*
Y0174D02*
X01964D01*
Y01759*
X01925D02*
X01964D01*
X01255Y02064D02*
Y02085D01*
Y02064D02*
X01296D01*
Y02085*
X01255D02*
X01296D01*
X01924Y01804D02*
X01945D01*
Y01845*
X01924D02*
X01945D01*
X01924Y01804D02*
Y01845D01*
X01374Y02094D02*
X01395D01*
Y02135*
X01374D02*
X01395D01*
X01374Y02094D02*
Y02135D01*
X01881Y01679D02*
Y017D01*
Y01679D02*
X01922D01*
Y017*
X01881D02*
X01922D01*
X01629Y01575D02*
X0165D01*
X01629Y01534D02*
Y01575D01*
Y01534D02*
X0165D01*
Y01575*
X02129Y00965D02*
X0215D01*
X02129Y00924D02*
Y00965D01*
Y00924D02*
X0215D01*
Y00965*
X01962Y021D02*
X02237D01*
X01962D02*
Y02259D01*
X02237*
Y021D02*
Y02259D01*
X02089Y01984D02*
X0211D01*
Y02025*
X02089D02*
X0211D01*
X02089Y01984D02*
Y02025D01*
X02195Y0118D02*
Y01199D01*
Y0118D02*
X02234D01*
Y01199*
X02195D02*
X02234D01*
X02189Y01994D02*
X0223D01*
X02189D02*
Y02015D01*
X0223*
Y01994D02*
Y02015D01*
X02194Y0123D02*
Y01249D01*
Y0123D02*
X02233D01*
Y01249*
X02194D02*
X02233D01*
X00834Y01733D02*
X00855D01*
Y01776*
X00834D02*
X00855D01*
X00834Y01733D02*
Y01776D01*
X00839Y01584D02*
X0086D01*
Y01625*
X00839D02*
X0086D01*
X00839Y01584D02*
Y01625D01*
X00889Y01768D02*
X0091D01*
Y01811*
X00889D02*
X0091D01*
X00889Y01768D02*
Y01811D01*
X00944Y01768D02*
X00965D01*
Y01811*
X00944D02*
X00965D01*
X00944Y01768D02*
Y01811D01*
X01054Y01754D02*
X01075D01*
Y01795*
X01054D02*
X01075D01*
X01054Y01754D02*
Y01795D01*
X0112Y02054D02*
Y02075D01*
X01079D02*
X0112D01*
X01079Y02054D02*
Y02075D01*
Y02054D02*
X0112D01*
X01154Y01714D02*
Y01735D01*
Y01714D02*
X01195D01*
Y01735*
X01154D02*
X01195D01*
X01109Y0183D02*
Y01849D01*
X0107D02*
X01109D01*
X0107Y0183D02*
Y01849D01*
Y0183D02*
X01109D01*
X01047Y00082D02*
X01092D01*
Y00057D02*
Y00082D01*
X01047Y00057D02*
X01092D01*
X01047D02*
Y00082D01*
X01174Y00094D02*
Y00135D01*
X01195*
Y00094D02*
Y00135D01*
X01174Y00094D02*
X01195D01*
X01516Y00077D02*
Y00202D01*
X01453Y00077D02*
X01516D01*
X01453D02*
Y00202D01*
X01516*
X0127Y00265D02*
Y00304D01*
X01289*
Y00265D02*
Y00304D01*
X0127Y00265D02*
X01289D01*
X01616Y00084D02*
Y00126D01*
X01594Y00084D02*
X01616D01*
X01594D02*
Y00126D01*
X01616*
X01554Y0101D02*
X01575D01*
X01554Y00969D02*
Y0101D01*
Y00969D02*
X01575D01*
Y0101*
X00634Y00499D02*
Y0052D01*
Y00499D02*
X00675D01*
Y0052*
X00634D02*
X00675D01*
X00561Y00207D02*
X00748D01*
Y00052D02*
Y00207D01*
X00561Y00052D02*
X00748D01*
X00561D02*
Y00207D01*
X0052Y00582D02*
Y00597D01*
Y00582D02*
X00546D01*
Y00597*
X0052D02*
X00546D01*
X0054Y005D02*
Y00519D01*
Y005D02*
X00579D01*
Y00519*
X0054D02*
X00579D01*
X00738Y00766D02*
X0076D01*
X00738Y00725D02*
Y00766D01*
Y00725D02*
X0076D01*
Y00766*
X01899Y0095D02*
Y00969D01*
X0186D02*
X01899D01*
X0186Y0095D02*
Y00969D01*
Y0095D02*
X01899D01*
X00535Y01134D02*
Y01155D01*
X00494D02*
X00535D01*
X00494Y01134D02*
Y01155D01*
Y01134D02*
X00535D01*
X00595Y01122D02*
X00614D01*
X00595Y01083D02*
Y01122D01*
Y01083D02*
X00614D01*
Y01122*
X00644Y01125D02*
X00665D01*
X00644Y01084D02*
Y01125D01*
Y01084D02*
X00665D01*
Y01125*
X00325Y0139D02*
X00344D01*
Y01429*
X00325D02*
X00344D01*
X00325Y0139D02*
Y01429D01*
X00339Y01139D02*
X0036D01*
Y0118*
X00339D02*
X0036D01*
X00339Y01139D02*
Y0118D01*
X00384Y01399D02*
X00405D01*
Y0144*
X00384D02*
X00405D01*
X00384Y01399D02*
Y0144D01*
X00394Y01139D02*
X00415D01*
Y0118*
X00394D02*
X00415D01*
X00394Y01139D02*
Y0118D01*
X00794Y00765D02*
X00814D01*
X00794Y00726D02*
Y00765D01*
Y00726D02*
X00814D01*
Y00765*
X00854Y00925D02*
Y00946D01*
Y00925D02*
X00895D01*
Y00946*
X00854D02*
X00895D01*
X00879Y0076D02*
Y00781D01*
Y0076D02*
X0092D01*
Y00781*
X00879D02*
X0092D01*
X00885Y00821D02*
Y0084D01*
Y00821D02*
X00924D01*
Y0084*
X00885D02*
X00924D01*
X00864Y0116D02*
Y01179D01*
X00825D02*
X00864D01*
X00825Y0116D02*
Y01179D01*
Y0116D02*
X00864D01*
X0087Y01099D02*
Y0112D01*
X00829D02*
X0087D01*
X00829Y01099D02*
Y0112D01*
Y01099D02*
X0087D01*
X00978Y00984D02*
X01021D01*
X00978D02*
Y01005D01*
X01021*
Y00984D02*
Y01005D01*
X0062Y01344D02*
Y01365D01*
X00579D02*
X0062D01*
X00579Y01344D02*
Y01365D01*
Y01344D02*
X0062D01*
X0175Y0094D02*
X01789D01*
X0175D02*
Y00959D01*
X01789*
Y0094D02*
Y00959D01*
X00779Y01718D02*
X008D01*
Y01761*
X00779D02*
X008D01*
X00779Y01718D02*
Y01761D01*
X00787Y01582D02*
Y01627D01*
X00812*
Y01582D02*
Y01627D01*
X00787Y01582D02*
X00812D01*
X01917Y01152D02*
Y01197D01*
X01892Y01152D02*
X01917D01*
X01892D02*
Y01197D01*
X01917*
X01944Y012D02*
X01965D01*
X01944Y01159D02*
Y012D01*
Y01159D02*
X01965D01*
Y012*
X02012Y01462D02*
Y01487D01*
Y01462D02*
X02057D01*
Y01487*
X02012D02*
X02057D01*
X01712Y00042D02*
Y00087D01*
X01687Y00042D02*
X01712D01*
X01687D02*
Y00087D01*
X01712*
X01707Y00282D02*
X01752D01*
Y00257D02*
Y00282D01*
X01707Y00257D02*
X01752D01*
X01707D02*
Y00282D01*
X01634Y00274D02*
Y00316D01*
X01656*
Y00274D02*
Y00316D01*
X01634Y00274D02*
X01656D01*
X01754Y00364D02*
X01775D01*
Y00405*
X01754D02*
X01775D01*
X01754Y00364D02*
Y00405D01*
X01807Y00362D02*
X01832D01*
Y00407*
X01807D02*
X01832D01*
X01807Y00362D02*
Y00407D01*
X01815Y00159D02*
X01854D01*
Y0014D02*
Y00159D01*
X01815Y0014D02*
X01854D01*
X01815D02*
Y00159D01*
X02025Y0029D02*
Y00309D01*
Y0029D02*
X02064D01*
Y00309*
X02025D02*
X02064D01*
X01951Y0035D02*
Y00459D01*
Y0035D02*
X02128D01*
Y00459*
X01951D02*
X02128D01*
X02154Y0029D02*
Y00309D01*
X02115D02*
X02154D01*
X02115Y0029D02*
Y00309D01*
Y0029D02*
X02154D01*
X02129Y00695D02*
Y00714D01*
X0209D02*
X02129D01*
X0209Y00695D02*
Y00714D01*
Y00695D02*
X02129D01*
X02102Y01445D02*
X02217D01*
X02102Y01394D02*
Y01445D01*
Y01394D02*
X02217D01*
Y01445*
X02024Y01404D02*
Y01425D01*
Y01404D02*
X02065D01*
Y01425*
X02024D02*
X02065D01*
X01104Y01754D02*
X01125D01*
Y01795*
X01104D02*
X01125D01*
X01104Y01754D02*
Y01795D01*
X01174Y01929D02*
X01215D01*
X01174D02*
Y0195D01*
X01215*
Y01929D02*
Y0195D01*
M02*