%FSTAX23Y23*%
%MOIN*%
%SFA1B1*%

%IPPOS*%
%AMD52*
4,1,8,-0.004800,0.008400,-0.004800,-0.008400,0.000000,-0.013200,0.000000,-0.013200,0.004800,-0.008400,0.004800,0.008400,0.000000,0.013200,0.000000,0.013200,-0.004800,0.008400,0.0*
1,1,0.009546,0.000000,0.008400*
1,1,0.009546,0.000000,-0.008400*
1,1,0.009546,0.000000,-0.008400*
1,1,0.009546,0.000000,0.008400*
%
%AMD66*
4,1,8,0.011900,-0.020700,0.011900,0.020700,0.000000,0.032600,0.000000,0.032600,-0.011900,0.020700,-0.011900,-0.020700,0.000000,-0.032600,0.000000,-0.032600,0.011900,-0.020700,0.0*
1,1,0.023720,0.000000,-0.020700*
1,1,0.023720,0.000000,0.020700*
1,1,0.023720,0.000000,0.020700*
1,1,0.023720,0.000000,-0.020700*
%
%AMD107*
4,1,8,-0.035400,0.000000,-0.035400,0.000000,-0.015700,-0.019700,0.015700,-0.019700,0.035400,0.000000,0.035400,0.000000,0.015700,0.019700,-0.015700,0.019700,-0.035400,0.000000,0.0*
1,1,0.039370,-0.015700,0.000000*
1,1,0.039370,-0.015700,0.000000*
1,1,0.039370,0.015700,0.000000*
1,1,0.039370,0.015700,0.000000*
%
%AMD108*
4,1,8,-0.041300,0.000000,-0.041300,0.000000,-0.021700,-0.019700,0.021700,-0.019700,0.041300,0.000000,0.041300,0.000000,0.021700,0.019700,-0.021700,0.019700,-0.041300,0.000000,0.0*
1,1,0.039370,-0.021700,0.000000*
1,1,0.039370,-0.021700,0.000000*
1,1,0.039370,0.021700,0.000000*
1,1,0.039370,0.021700,0.000000*
%
%AMD138*
4,1,8,-0.057500,0.020200,-0.057500,-0.020200,-0.046800,-0.031000,0.046800,-0.031000,0.057500,-0.020200,0.057500,0.020200,0.046800,0.031000,-0.046800,0.031000,-0.057500,0.020200,0.0*
1,1,0.021484,-0.046800,0.020200*
1,1,0.021484,-0.046800,-0.020200*
1,1,0.021484,0.046800,-0.020200*
1,1,0.021484,0.046800,0.020200*
%
%AMD150*
4,1,8,-0.006200,-0.016500,0.006200,-0.016500,0.016500,-0.006200,0.016500,0.006200,0.006200,0.016500,-0.006200,0.016500,-0.016500,0.006200,-0.016500,-0.006200,-0.006200,-0.016500,0.0*
1,1,0.020500,-0.006200,-0.006200*
1,1,0.020500,0.006200,-0.006200*
1,1,0.020500,0.006200,0.006200*
1,1,0.020500,-0.006200,0.006200*
%
%AMD152*
4,1,8,-0.020900,-0.015600,0.020900,-0.015600,0.027800,-0.008700,0.027800,0.008700,0.020900,0.015600,-0.020900,0.015600,-0.027800,0.008700,-0.027800,-0.008700,-0.020900,-0.015600,0.0*
1,1,0.013807,-0.020900,-0.008700*
1,1,0.013807,0.020900,-0.008700*
1,1,0.013807,0.020900,0.008700*
1,1,0.013807,-0.020900,0.008700*
%
%ADD12R,0.023622X0.066929*%
%ADD13R,0.039370X0.106299*%
%ADD15R,0.118110X0.062992*%
%ADD16R,0.216535X0.039370*%
%ADD17R,0.085039X0.088976*%
%ADD18R,0.023622X0.019685*%
%ADD20R,0.020472X0.020472*%
%ADD21R,0.022538X0.024226*%
%ADD22R,0.020472X0.020472*%
%ADD27R,0.019685X0.019685*%
%ADD28R,0.023622X0.017716*%
%ADD29R,0.026476X0.026306*%
%ADD31R,0.047244X0.070866*%
%ADD32R,0.023622X0.061024*%
%ADD33R,0.031656X0.029851*%
%ADD34R,0.027803X0.028666*%
%ADD42R,0.047244X0.011811*%
%ADD43R,0.011811X0.047244*%
%ADD44R,0.024226X0.022538*%
%ADD45R,0.021654X0.021654*%
%ADD47R,0.075047X0.061206*%
%ADD48R,0.023443X0.026105*%
%ADD49R,0.017716X0.023622*%
%ADD51R,0.026476X0.028163*%
G04~CAMADD=52~8~0.0~0.0~263.1~95.5~47.7~0.0~15~0.0~0.0~0.0~0.0~0~0.0~0.0~0.0~0.0~0~0.0~0.0~0.0~90.0~96.0~263.0*
%ADD52D52*%
%ADD53R,0.049212X0.025591*%
%ADD54R,0.019198X0.018601*%
%ADD57R,0.043307X0.035433*%
%ADD58R,0.047244X0.047244*%
%ADD59R,0.045275X0.023622*%
%ADD64R,0.039370X0.110236*%
G04~CAMADD=66~8~0.0~0.0~651.7~237.2~118.6~0.0~15~0.0~0.0~0.0~0.0~0~0.0~0.0~0.0~0.0~0~0.0~0.0~0.0~270.0~238.0~651.0*
%ADD66D66*%
%ADD67R,0.066929X0.023622*%
%ADD68R,0.110236X0.039370*%
%ADD70R,0.106299X0.039370*%
%ADD72R,0.018432X0.018601*%
%ADD76R,0.021654X0.021654*%
%ADD77R,0.009546X0.026306*%
%ADD78R,0.045275X0.011811*%
%ADD79R,0.022369X0.022538*%
%ADD80R,0.026195X0.026476*%
%ADD81R,0.019685X0.015748*%
%ADD88R,0.043307X0.074803*%
%ADD89R,0.023622X0.019685*%
%ADD90R,0.066929X0.066142*%
%ADD91R,0.019685X0.023622*%
%ADD94R,0.023719X0.065167*%
G04~CAMADD=107~8~0.0~0.0~393.7~708.7~196.9~0.0~15~0.0~0.0~0.0~0.0~0~0.0~0.0~0.0~0.0~0~0.0~0.0~0.0~90.0~708.0~394.0*
%ADD107D107*%
G04~CAMADD=108~8~0.0~0.0~393.7~826.8~196.9~0.0~15~0.0~0.0~0.0~0.0~0~0.0~0.0~0.0~0.0~0~0.0~0.0~0.0~90.0~827.0~393.0*
%ADD108D108*%
%ADD109C,0.025591*%
%ADD136R,0.086740X0.086740*%
%ADD137R,0.029653X0.039496*%
G04~CAMADD=138~8~0.0~0.0~619.4~1150.9~107.4~0.0~15~0.0~0.0~0.0~0.0~0~0.0~0.0~0.0~0.0~0~0.0~0.0~0.0~90.0~1151.0~619.0*
%ADD138D138*%
%ADD139R,0.024866X0.013842*%
%ADD140R,0.070929X0.102425*%
%ADD141R,0.023748X0.023748*%
%ADD142R,0.031622X0.051307*%
%ADD143R,0.021779X0.031228*%
%ADD144R,0.082803X0.059181*%
%ADD145R,0.118236X0.047370*%
%ADD146R,0.039496X0.047370*%
%ADD147R,0.055244X0.035559*%
%ADD148R,0.055244X0.047370*%
%ADD149R,0.063118X0.045401*%
G04~CAMADD=150~8~0.0~0.0~330.0~330.0~102.5~0.0~15~0.0~0.0~0.0~0.0~0~0.0~0.0~0.0~0.0~0~0.0~0.0~0.0~180.0~330.0~330.0*
%ADD150D150*%
%ADD151R,0.032409X0.033984*%
G04~CAMADD=152~8~0.0~0.0~556.4~312.3~69.0~0.0~15~0.0~0.0~0.0~0.0~0~0.0~0.0~0.0~0.0~0~0.0~0.0~0.0~180.0~556.0~312.0*
%ADD152D152*%
%ADD153R,0.056031X0.057212*%
%ADD154O,0.029653X0.057212*%
%ADD155R,0.110362X0.149732*%
%ADD156R,0.037921X0.024535*%
%ADD157R,0.047370X0.047370*%
%ADD158R,0.057212X0.056031*%
%ADD159R,0.031622X0.029260*%
%ADD160R,0.031622X0.031622*%
%ADD161R,0.025716X0.025716*%
%ADD162R,0.025716X0.025716*%
%ADD163R,0.029653X0.029653*%
%ADD164R,0.033984X0.032409*%
%ADD165R,0.141858X0.046583*%
%ADD166R,0.029653X0.031622*%
%ADD167R,0.061149X0.043433*%
%ADD168R,0.059181X0.047370*%
%ADD169R,0.093000X0.115992*%
%ADD170R,0.031228X0.021779*%
%ADD171C,0.023685*%
%ADD172C,0.165480*%
%ADD173C,0.027685*%
%ADD186C,0.005000*%
%ADD188C,0.010000*%
%LNrelia-1*%
%LPD*%
G54D12*
X021Y0209D03*
X02149D03*
X0205D03*
X02164Y00199D03*
X01763Y02088D03*
X01616D03*
X01714D03*
X01665D03*
X02115Y00199D03*
X02065D03*
G54D13*
X01977Y02216D03*
X02222D03*
X01992Y00073D03*
X02237D03*
G54D15*
X00276Y00261D03*
Y01001D03*
G54D16*
X00365Y00435D03*
Y00356D03*
Y00513D03*
Y00671D03*
Y00749D03*
Y00828D03*
Y00907D03*
Y00592D03*
G54D17*
X00751Y0013D03*
X00558D03*
G54D18*
X00553Y0059D03*
X00513D03*
G54D20*
X0067Y0051D03*
X00915Y00771D03*
X00584Y01355D03*
X00834Y0111D03*
X013Y0173D03*
X0121Y0194D03*
X01291Y02075D03*
X01545Y00495D03*
X0206Y01415D03*
X02194Y02005D03*
X02225D03*
X01179Y0194D03*
X00639Y0051D03*
X00865Y0111D03*
X01269Y0173D03*
X02029Y01415D03*
X00615Y01355D03*
X00883Y00771D03*
X01514Y00495D03*
X0126Y02075D03*
G54D21*
X00605Y01086D03*
X00804Y00729D03*
X00345Y01421D03*
X00605Y0112D03*
X00804Y00762D03*
X00345Y01388D03*
G54D22*
X00749Y0073D03*
X01295Y00565D03*
X0044Y01325D03*
X00655Y01089D03*
X0085Y0162D03*
X0137Y01775D03*
X01065Y0179D03*
X01115D03*
X01355Y01869D03*
X01385Y0213D03*
X0146Y00625D03*
X01765Y004D03*
X02125Y00929D03*
X01565Y00974D03*
X01595Y01635D03*
X01455Y01875D03*
X0156D03*
X01935Y0184D03*
X01955Y01164D03*
X02125Y0096D03*
X01385Y02099D03*
X01955Y01195D03*
X01595Y01604D03*
X01295Y00534D03*
X01765Y00369D03*
X0085Y01589D03*
X0137Y01744D03*
X0146Y00594D03*
X01565Y01005D03*
X01935Y01809D03*
X00749Y00761D03*
X0044Y01294D03*
X00655Y0112D03*
X01065Y01759D03*
X01115D03*
X01455Y01844D03*
X0156D03*
X01355Y019D03*
G54D27*
X01089Y0007D03*
X0105D03*
G54D28*
X01195Y00213D03*
X008Y01623D03*
X017Y00046D03*
X018Y00056D03*
X0182Y00403D03*
X01905Y01156D03*
X01875Y01843D03*
X01905Y01193D03*
X018Y00093D03*
X0182Y00366D03*
X008Y01586D03*
X01875Y01806D03*
X017Y00083D03*
X01195Y00176D03*
G54D29*
X0128Y00265D03*
Y00304D03*
G54D31*
X00895Y00535D03*
X01154D03*
G54D32*
X00946Y00634D03*
X01103D03*
X00985D03*
X01025D03*
X01064D03*
G54D33*
X00923Y00831D03*
X00581Y0141D03*
X00826Y0117D03*
X01508Y0099D03*
X00885Y00831D03*
X00618Y0141D03*
X01471Y0099D03*
X00863Y0117D03*
G54D34*
X0129Y00402D03*
X014Y00602D03*
Y00567D03*
X0129Y00437D03*
G54D42*
X00929Y01148D03*
Y01601D03*
X0154Y01581D03*
Y01522D03*
Y01502D03*
X00929Y01561D03*
Y01128D03*
Y01581D03*
X0154Y01601D03*
X00929Y01207D03*
Y01187D03*
X0154D03*
Y01168D03*
Y01266D03*
X00929Y01286D03*
X0154Y01404D03*
Y01561D03*
Y01542D03*
Y01483D03*
Y01463D03*
Y01443D03*
Y01424D03*
Y01384D03*
Y01365D03*
Y01345D03*
Y01325D03*
Y01305D03*
Y01286D03*
Y01246D03*
Y01227D03*
Y01207D03*
Y01148D03*
Y01128D03*
X00929Y01168D03*
Y01227D03*
Y01246D03*
Y01266D03*
Y01305D03*
Y01325D03*
Y01345D03*
Y01365D03*
Y01404D03*
Y01424D03*
Y01443D03*
Y01463D03*
Y01483D03*
Y01502D03*
Y01522D03*
Y01542D03*
Y01384D03*
G54D43*
X01116Y0167D03*
X01294D03*
X01451Y01059D03*
X01097D03*
X01077D03*
X01372Y0167D03*
X01274D03*
X01471Y01059D03*
X01077Y0167D03*
X01097D03*
X01254Y01059D03*
X01294D03*
X01274D03*
X01353Y0167D03*
X00998Y01059D03*
X01333D03*
X01353D03*
X01372D03*
X01412D03*
X01313D03*
X01235D03*
X01215D03*
X01195D03*
X01175D03*
X01156D03*
X01136D03*
X01116D03*
X01038D03*
X01018Y0167D03*
X01038D03*
X01057D03*
X01136D03*
X01156D03*
X01175D03*
X01195D03*
X01215D03*
X01235D03*
X01254D03*
X01313D03*
X01333D03*
X01392D03*
X01412D03*
X01431D03*
X01451D03*
X01471D03*
X00998D03*
X01392Y01059D03*
X01018D03*
X01431D03*
X01057D03*
G54D44*
X01073Y0184D03*
X01961Y0175D03*
X01928D03*
X01106Y0184D03*
G54D45*
X01117Y02065D03*
X00732Y01775D03*
X0073Y0183D03*
Y0188D03*
X00742Y02015D03*
X0073Y02095D03*
X01157Y01725D03*
X0192Y0169D03*
X00497Y01145D03*
X00892Y00936D03*
X00717Y0136D03*
X00682D03*
X00707Y02015D03*
X00697Y01775D03*
X00694Y0183D03*
Y02095D03*
Y0188D03*
X00856Y00936D03*
X01192Y01725D03*
X01884Y0169D03*
X01082Y02065D03*
X00532Y01145D03*
G54D47*
X01485Y00081D03*
Y00198D03*
G54D48*
X01605Y00088D03*
X01645Y00311D03*
X01605Y00121D03*
X01645Y00278D03*
G54D49*
X01748Y0027D03*
X02053Y01475D03*
X01711Y0027D03*
X02016Y01475D03*
G54D51*
X0146Y00311D03*
X0152Y00603D03*
X0146Y00348D03*
X0152Y00566D03*
G54D52*
X01425Y00419D03*
X01464D03*
X01425Y0049D03*
X01444Y00419D03*
X01464Y0049D03*
X01444D03*
X01405D03*
G54D53*
X01435Y00455D03*
G54D54*
X01851Y0015D03*
X02088Y0049D03*
X02093Y00705D03*
X01818Y0015D03*
X02121Y0049D03*
X02126Y00705D03*
G54D57*
X018Y00812D03*
Y00887D03*
G54D58*
X0189Y00808D03*
Y00891D03*
G54D59*
X02197Y00731D03*
Y00479D03*
Y0051D03*
Y00699D03*
G54D64*
X01543Y0222D03*
X01836D03*
G54D66*
X0216Y01381D03*
X02122Y01458D03*
G54D67*
X02288Y01516D03*
X0229Y01139D03*
Y00991D03*
Y01188D03*
Y01041D03*
Y01238D03*
Y0109D03*
X02288Y01565D03*
Y01614D03*
Y01663D03*
G54D68*
X0242Y01443D03*
Y01736D03*
G54D70*
X02416Y00919D03*
Y0131D03*
G54D72*
X02199Y0119D03*
X02198Y0124D03*
X0223Y0119D03*
X0223Y0124D03*
G54D76*
X0152Y00397D03*
X01615Y01752D03*
X0164Y01537D03*
X01615Y01787D03*
X00405Y01177D03*
X0035D03*
Y01142D03*
X00405D03*
X0152Y00432D03*
X0164Y01572D03*
X021Y01987D03*
Y02022D03*
G54D77*
X01405Y00419D03*
G54D78*
X02197Y00536D03*
Y00654D03*
Y00673D03*
Y00555D03*
Y00595D03*
Y00634D03*
Y00575D03*
Y00614D03*
G54D79*
X0073Y02145D03*
X00694D03*
G54D80*
X02064Y003D03*
X02115D03*
X0175Y0095D03*
X00579Y0051D03*
X0054D03*
X0186Y0096D03*
X01899D03*
X01789Y0095D03*
X02025Y003D03*
X02154D03*
G54D81*
X0136Y00479D03*
Y0051D03*
X01185Y0013D03*
Y00099D03*
G54D88*
X01554Y01775D03*
X01455D03*
G54D89*
X00865Y01329D03*
Y0129D03*
X01355Y00965D03*
X0141D03*
X01355Y01004D03*
X0141D03*
X0079Y0172D03*
X00845Y01774D03*
Y01735D03*
X009Y01809D03*
Y0177D03*
X00955Y01809D03*
Y0177D03*
X0079Y01759D03*
G54D90*
X0211Y00405D03*
X01969D03*
G54D91*
X01019Y00995D03*
X0098D03*
G54D94*
X02197Y01458D03*
G54D107*
X02385Y00435D03*
Y00775D03*
G54D108*
X0222Y00435D03*
Y00775D03*
G54D109*
X0224Y00491D03*
Y00718D03*
G54D136*
X0011Y0039D03*
Y00995D03*
Y0029D03*
Y0049D03*
Y0059D03*
Y0069D03*
Y0079D03*
Y0089D03*
G54D137*
X00565Y00812D03*
X00602D03*
X00527D03*
Y00717D03*
X00565D03*
X00602D03*
G54D138*
X00895Y00079D03*
Y0039D03*
Y00279D03*
Y0019D03*
G54D139*
X01013Y00135D03*
Y00234D03*
Y00155D03*
Y00175D03*
Y00194D03*
Y00214D03*
X01126Y00234D03*
Y00214D03*
Y00194D03*
Y00175D03*
Y00155D03*
Y00135D03*
G54D140*
X0107Y00185D03*
G54D141*
X014Y00325D03*
X01369D03*
G54D142*
X00246Y01313D03*
Y01226D03*
X00295Y01313D03*
Y01226D03*
X00393D03*
X00344D03*
Y01313D03*
X00393D03*
G54D143*
X00684Y01285D03*
X00585D03*
X00664D03*
X00625D03*
X00644Y01194D03*
X00605Y01285D03*
X00644D03*
X00684Y01194D03*
X00625D03*
X00565Y01285D03*
Y01194D03*
X00585D03*
X00605D03*
X00664D03*
G54D144*
X00054Y01602D03*
G54D145*
X00072Y02133D03*
G54D146*
X00235Y02133D03*
G54D147*
X00648Y01972D03*
Y01885D03*
Y02058D03*
Y02015D03*
Y01928D03*
Y01799D03*
Y01755D03*
Y01842D03*
Y02096D03*
G54D148*
X00648Y01694D03*
X00479Y02133D03*
G54D149*
X01215Y02296D03*
X01035D03*
Y02133D03*
X01215D03*
G54D150*
X0152Y00312D03*
Y00347D03*
G54D151*
X01835Y00236D03*
Y00203D03*
G54D152*
X02089Y0059D03*
X0199D03*
X02089Y00552D03*
Y00627D03*
X0199Y00552D03*
Y00627D03*
G54D153*
X02195Y00846D03*
X0147Y02193D03*
X0233Y02088D03*
Y01971D03*
X02195Y00963D03*
X0147Y02076D03*
G54D154*
X01845Y01271D03*
X01795Y01478D03*
X01895Y01271D03*
X01945Y01478D03*
X01845D03*
X01895D03*
X01795Y01271D03*
X01945D03*
G54D155*
X0176Y01675D03*
G54D156*
X01681Y01618D03*
X01838Y01693D03*
Y01656D03*
Y01618D03*
X01681Y01656D03*
Y01693D03*
Y01731D03*
X01838D03*
G54D157*
X01755Y023D03*
X02045D03*
X0217D03*
X016D03*
X02105D03*
X01705D03*
X01655D03*
G54D158*
X02413Y0184D03*
X02296D03*
G54D159*
X02215Y01762D03*
X01875Y00372D03*
X02215Y01727D03*
X01875Y00407D03*
G54D160*
X01385Y00293D03*
Y00356D03*
G54D161*
X01595Y00169D03*
Y002D03*
G54D162*
X01745Y0032D03*
X01714D03*
G54D163*
X01212Y00335D03*
X01177D03*
G54D164*
X01212Y00275D03*
X01177D03*
G54D165*
X01315Y00078D03*
Y00171D03*
G54D166*
X0223Y01573D03*
Y01606D03*
G54D167*
X02159Y0154D03*
Y01639D03*
X0198Y0154D03*
Y01639D03*
G54D168*
X01289Y01875D03*
X012Y01814D03*
X01289D03*
X012Y01875D03*
G54D169*
X00567Y0035D03*
X00742D03*
G54D170*
X00549Y0124D03*
X007D03*
G54D171*
X0107Y00155D03*
X01055Y00185D03*
X0107Y00215D03*
X01085Y00185D03*
G54D172*
X00118Y00118D03*
X0016Y0225D03*
X02384Y00118D03*
Y02244D03*
G54D173*
X0077Y02065D03*
X01715Y0199D03*
G54D186*
X01772Y00194D02*
X0175D01*
Y00201*
X01772*
Y00194*
G54D188*
X01767Y00199D02*
X01755D01*
Y00196*
X01767*
Y00199*
G54D186*
X01682Y00194D02*
X01659D01*
Y00201*
X01682*
Y00194*
G54D188*
X01677Y00199D02*
X01664D01*
Y00196*
X01677*
Y00199*
G54D186*
X01772Y00174D02*
X0175D01*
Y00181*
X01772*
Y00174*
G54D188*
X01767Y00179D02*
X01755D01*
Y00176*
X01767*
Y00179*
G54D186*
X01737Y00174D02*
X01722D01*
Y00215*
X01737*
Y00174*
G54D188*
X01732Y00179D02*
X01727D01*
Y0021*
X01732*
Y00179*
G54D186*
X01709Y00174D02*
X01695D01*
Y00215*
X01709*
Y00174*
G54D188*
X01704Y00179D02*
X017D01*
Y0021*
X01704*
Y00179*
G54D186*
X01682Y00174D02*
X01659D01*
Y00181*
X01682*
Y00174*
G54D188*
X01677Y00179D02*
X01664D01*
Y00176*
X01677*
Y00179*
G54D186*
X01772Y00155D02*
X0175D01*
Y00161*
X01772*
Y00155*
G54D188*
X01767Y0016D02*
X01755D01*
Y00156*
X01767*
Y0016*
G54D186*
X01682Y00155D02*
X01659D01*
Y00161*
X01682*
Y00155*
G54D188*
X01677Y0016D02*
X01664D01*
Y00156*
X01677*
Y0016*
G54D186*
X01772Y00135D02*
X0175D01*
Y00142*
X01772*
Y00135*
G54D188*
X01767Y0014D02*
X01755D01*
Y00137*
X01767*
Y0014*
G54D186*
X01682Y00135D02*
X01659D01*
Y00142*
X01682*
Y00135*
G54D188*
X01677Y0014D02*
X01664D01*
Y00137*
X01677*
Y0014*
G54D186*
X01737Y00121D02*
X01722D01*
Y00161*
X01737*
Y00121*
G54D188*
X01732Y00126D02*
X01727D01*
Y00156*
X01732*
Y00126*
G54D186*
X01709Y00121D02*
X01695D01*
Y00161*
X01709*
Y00121*
G54D188*
X01704Y00126D02*
X017D01*
Y00156*
X01704*
Y00126*
M02*