%FSTAX23Y23*%
%MOIN*%
%SFA1B1*%

%IPPOS*%
%AMD10*
4,1,8,0.007900,-0.016700,0.007900,0.016700,0.003900,0.020700,-0.003900,0.020700,-0.007900,0.016700,-0.007900,-0.016700,-0.003900,-0.020700,0.003900,-0.020700,0.007900,-0.016700,0.0*
1,1,0.007874,0.003900,-0.016700*
1,1,0.007874,0.003900,0.016700*
1,1,0.007874,-0.003900,0.016700*
1,1,0.007874,-0.003900,-0.016700*
%
%AMD11*
4,1,8,0.009800,0.003900,-0.009800,0.003900,-0.011800,0.002000,-0.011800,-0.002000,-0.009800,-0.003900,0.009800,-0.003900,0.011800,-0.002000,0.011800,0.002000,0.009800,0.003900,0.0*
1,1,0.003937,0.009800,0.002000*
1,1,0.003937,-0.009800,0.002000*
1,1,0.003937,-0.009800,-0.002000*
1,1,0.003937,0.009800,-0.002000*
%
%AMD23*
4,1,8,-0.006900,0.008200,-0.006900,-0.008200,-0.003400,-0.011600,0.003400,-0.011600,0.006900,-0.008200,0.006900,0.008200,0.003400,0.011600,-0.003400,0.011600,-0.006900,0.008200,0.0*
1,1,0.006890,-0.003400,0.008200*
1,1,0.006890,-0.003400,-0.008200*
1,1,0.006890,0.003400,-0.008200*
1,1,0.006890,0.003400,0.008200*
%
%AMD24*
4,1,8,-0.053500,0.020200,-0.053500,-0.020200,-0.046800,-0.027000,0.046800,-0.027000,0.053500,-0.020200,0.053500,0.020200,0.046800,0.027000,-0.046800,0.027000,-0.053500,0.020200,0.0*
1,1,0.013484,-0.046800,0.020200*
1,1,0.013484,-0.046800,-0.020200*
1,1,0.013484,0.046800,-0.020200*
1,1,0.013484,0.046800,0.020200*
%
%AMD50*
4,1,8,-0.006200,-0.012500,0.006200,-0.012500,0.012500,-0.006200,0.012500,0.006200,0.006200,0.012500,-0.006200,0.012500,-0.012500,0.006200,-0.012500,-0.006200,-0.006200,-0.012500,0.0*
1,1,0.012500,-0.006200,-0.006200*
1,1,0.012500,0.006200,-0.006200*
1,1,0.012500,0.006200,0.006200*
1,1,0.012500,-0.006200,0.006200*
%
%AMD52*
4,1,8,-0.004800,0.008400,-0.004800,-0.008400,0.000000,-0.013200,0.000000,-0.013200,0.004800,-0.008400,0.004800,0.008400,0.000000,0.013200,0.000000,0.013200,-0.004800,0.008400,0.0*
1,1,0.009546,0.000000,0.008400*
1,1,0.009546,0.000000,-0.008400*
1,1,0.009546,0.000000,-0.008400*
1,1,0.009546,0.000000,0.008400*
%
%AMD56*
4,1,8,-0.020900,-0.011600,0.020900,-0.011600,0.023800,-0.008700,0.023800,0.008700,0.020900,0.011600,-0.020900,0.011600,-0.023800,0.008700,-0.023800,-0.008700,-0.020900,-0.011600,0.0*
1,1,0.005807,-0.020900,-0.008700*
1,1,0.005807,0.020900,-0.008700*
1,1,0.005807,0.020900,0.008700*
1,1,0.005807,-0.020900,0.008700*
%
%AMD66*
4,1,8,0.011900,-0.020700,0.011900,0.020700,0.000000,0.032600,0.000000,0.032600,-0.011900,0.020700,-0.011900,-0.020700,0.000000,-0.032600,0.000000,-0.032600,0.011900,-0.020700,0.0*
1,1,0.023720,0.000000,-0.020700*
1,1,0.023720,0.000000,0.020700*
1,1,0.023720,0.000000,0.020700*
1,1,0.023720,0.000000,-0.020700*
%
%AMD82*
4,1,8,-0.008200,-0.006900,0.008200,-0.006900,0.011600,-0.003400,0.011600,0.003400,0.008200,0.006900,-0.008200,0.006900,-0.011600,0.003400,-0.011600,-0.003400,-0.008200,-0.006900,0.0*
1,1,0.006890,-0.008200,-0.003400*
1,1,0.006890,0.008200,-0.003400*
1,1,0.006890,0.008200,0.003400*
1,1,0.006890,-0.008200,0.003400*
%
%AMD107*
4,1,8,-0.035400,0.000000,-0.035400,0.000000,-0.015700,-0.019700,0.015700,-0.019700,0.035400,0.000000,0.035400,0.000000,0.015700,0.019700,-0.015700,0.019700,-0.035400,0.000000,0.0*
1,1,0.039370,-0.015700,0.000000*
1,1,0.039370,-0.015700,0.000000*
1,1,0.039370,0.015700,0.000000*
1,1,0.039370,0.015700,0.000000*
%
%AMD108*
4,1,8,-0.041300,0.000000,-0.041300,0.000000,-0.021700,-0.019700,0.021700,-0.019700,0.041300,0.000000,0.041300,0.000000,0.021700,0.019700,-0.021700,0.019700,-0.041300,0.000000,0.0*
1,1,0.039370,-0.021700,0.000000*
1,1,0.039370,-0.021700,0.000000*
1,1,0.039370,0.021700,0.000000*
1,1,0.039370,0.021700,0.000000*
%
G04~CAMADD=10~8~0.0~0.0~413.4~157.5~39.4~0.0~15~0.0~0.0~0.0~0.0~0~0.0~0.0~0.0~0.0~0~0.0~0.0~0.0~270.0~158.0~414.0*
%ADD10D10*%
G04~CAMADD=11~8~0.0~0.0~236.2~78.7~19.7~0.0~15~0.0~0.0~0.0~0.0~0~0.0~0.0~0.0~0.0~0~0.0~0.0~0.0~0.0~236.2~78.7*
%ADD11D11*%
%ADD12R,0.023622X0.066929*%
%ADD13R,0.039370X0.106299*%
%ADD14R,0.078740X0.078740*%
%ADD15R,0.118110X0.062992*%
%ADD16R,0.216535X0.039370*%
%ADD17R,0.085039X0.088976*%
%ADD18R,0.023622X0.019685*%
%ADD19R,0.021654X0.031496*%
%ADD20R,0.020472X0.020472*%
%ADD21R,0.022538X0.024226*%
%ADD22R,0.020472X0.020472*%
G04~CAMADD=23~8~0.0~0.0~232.3~137.8~34.4~0.0~15~0.0~0.0~0.0~0.0~0~0.0~0.0~0.0~0.0~0~0.0~0.0~0.0~90.0~138.0~232.0*
%ADD23D23*%
G04~CAMADD=24~8~0.0~0.0~539.4~1070.9~67.4~0.0~15~0.0~0.0~0.0~0.0~0~0.0~0.0~0.0~0.0~0~0.0~0.0~0.0~90.0~1071.0~539.0*
%ADD24D24*%
%ADD25R,0.020866X0.009843*%
%ADD26R,0.066929X0.098425*%
%ADD27R,0.019685X0.019685*%
%ADD28R,0.023622X0.017716*%
%ADD29R,0.026476X0.026306*%
%ADD30R,0.015748X0.015748*%
%ADD31R,0.047244X0.070866*%
%ADD32R,0.023622X0.061024*%
%ADD33R,0.031656X0.029851*%
%ADD34R,0.027803X0.028666*%
%ADD35R,0.023622X0.043307*%
%ADD36R,0.013780X0.023228*%
%ADD37R,0.074803X0.051181*%
%ADD38R,0.110236X0.039370*%
%ADD39R,0.031496X0.039370*%
%ADD40R,0.047244X0.027559*%
%ADD41R,0.047244X0.039370*%
%ADD42R,0.047244X0.011811*%
%ADD43R,0.011811X0.047244*%
%ADD44R,0.024226X0.022538*%
%ADD45R,0.021654X0.021654*%
%ADD46R,0.055118X0.037401*%
%ADD47R,0.075047X0.061206*%
%ADD48R,0.023443X0.026105*%
%ADD49R,0.017716X0.023622*%
G04~CAMADD=50~8~0.0~0.0~250.0~250.0~62.5~0.0~15~0.0~0.0~0.0~0.0~0~0.0~0.0~0.0~0.0~0~0.0~0.0~0.0~180.0~250.0~250.0*
%ADD50D50*%
%ADD51R,0.026476X0.028163*%
G04~CAMADD=52~8~0.0~0.0~263.1~95.5~47.7~0.0~15~0.0~0.0~0.0~0.0~0~0.0~0.0~0.0~0.0~0~0.0~0.0~0.0~90.0~96.0~263.0*
%ADD52D52*%
%ADD53R,0.049212X0.025591*%
%ADD54R,0.019198X0.018601*%
%ADD55R,0.024409X0.025984*%
G04~CAMADD=56~8~0.0~0.0~476.4~232.3~29.0~0.0~15~0.0~0.0~0.0~0.0~0~0.0~0.0~0.0~0.0~0~0.0~0.0~0.0~180.0~476.0~232.0*
%ADD56D56*%
%ADD57R,0.043307X0.035433*%
%ADD58R,0.047244X0.047244*%
%ADD59R,0.045275X0.023622*%
%ADD60R,0.048031X0.049212*%
%ADD61O,0.021654X0.049212*%
%ADD62R,0.102362X0.141732*%
%ADD63R,0.029921X0.016535*%
%ADD64R,0.039370X0.110236*%
%ADD65R,0.039370X0.039370*%
G04~CAMADD=66~8~0.0~0.0~651.7~237.2~118.6~0.0~15~0.0~0.0~0.0~0.0~0~0.0~0.0~0.0~0.0~0~0.0~0.0~0.0~270.0~238.0~651.0*
%ADD66D66*%
%ADD67R,0.066929X0.023622*%
%ADD68R,0.110236X0.039370*%
%ADD69R,0.049212X0.048031*%
%ADD70R,0.106299X0.039370*%
%ADD71R,0.023622X0.021260*%
%ADD72R,0.018432X0.018601*%
%ADD73R,0.023622X0.023622*%
%ADD74R,0.017716X0.017716*%
%ADD75R,0.017716X0.017716*%
%ADD76R,0.021654X0.021654*%
%ADD77R,0.009546X0.026306*%
%ADD78R,0.045275X0.011811*%
%ADD79R,0.022369X0.022538*%
%ADD80R,0.026195X0.026476*%
%ADD81R,0.019685X0.015748*%
G04~CAMADD=82~8~0.0~0.0~232.3~137.8~34.4~0.0~15~0.0~0.0~0.0~0.0~0~0.0~0.0~0.0~0.0~0~0.0~0.0~0.0~180.0~232.0~138.0*
%ADD82D82*%
%ADD83R,0.025984X0.024409*%
%ADD84R,0.133858X0.038583*%
%ADD85R,0.021654X0.023622*%
%ADD86R,0.053150X0.035433*%
%ADD87R,0.051181X0.039370*%
%ADD88R,0.043307X0.074803*%
%ADD89R,0.023622X0.019685*%
%ADD90R,0.066929X0.066142*%
%ADD91R,0.019685X0.023622*%
%ADD92R,0.085000X0.107992*%
%ADD93R,0.023228X0.013780*%
%ADD94R,0.023719X0.065167*%
%ADD95C,0.019685*%
%ADD96C,0.017716*%
%ADD97C,0.015748*%
%ADD98C,0.009843*%
%ADD99C,0.007874*%
%ADD100C,0.010000*%
%ADD101C,0.011811*%
%ADD102C,0.008113*%
%ADD103C,0.006075*%
%ADD104C,0.015748*%
%ADD105C,0.019685*%
%ADD106C,0.157480*%
G04~CAMADD=107~8~0.0~0.0~393.7~708.7~196.9~0.0~15~0.0~0.0~0.0~0.0~0~0.0~0.0~0.0~0.0~0~0.0~0.0~0.0~90.0~708.0~394.0*
%ADD107D107*%
G04~CAMADD=108~8~0.0~0.0~393.7~826.8~196.9~0.0~15~0.0~0.0~0.0~0.0~0~0.0~0.0~0.0~0.0~0~0.0~0.0~0.0~90.0~827.0~393.0*
%ADD108D108*%
%ADD109C,0.025591*%
%ADD110C,0.019685*%
%ADD111C,0.019685*%
%ADD186C,0.005000*%
%ADD188C,0.010000*%
%LNrelia-1*%
%LPD*%
G54D186*
X01617Y00625D02*
Y00502D01*
X01973*
X01977Y00498*
X01976Y00448*
X01925*
Y00427*
X01897*
Y00428*
X01852*
Y0039*
X01849Y00388*
X01844Y0039*
Y00401*
X0182*
X01795*
Y00389*
X01787*
Y00398*
X01765*
X01742*
Y0038*
X01741Y00374*
X01731Y00364*
X01726Y00358*
X01725Y0035*
Y00339*
X01695*
Y00322*
X01674Y00301*
X01669Y00303*
Y00308*
X01645*
X0162*
Y00285*
X01622*
Y00255*
X0163*
Y00223*
X01624Y00219*
X01624Y0022*
X01619*
X01616*
X01611Y00219*
X01575*
Y00184*
Y0015*
X01579*
Y00132*
X0158Y00126*
X01582Y00122*
Y00114*
X0158*
Y00091*
X01605*
X01629*
Y00111*
X01629Y00111*
X01634Y00115*
X0164Y00112*
X01642*
X01644Y00107*
X01642Y00106*
X01639Y00099*
Y0009*
X01642Y00083*
X01648Y00077*
X01652Y00076*
X01656Y00072*
X01656Y00069*
X01655Y00066*
X01653Y00065*
X01647Y00068*
Y00047*
X01642*
Y00042*
X01621*
X01626Y00032*
X01632Y00026*
X01631Y00026*
X0163Y00022*
X00447*
Y0004*
Y00326*
X00483*
Y00386*
X00447*
Y00402*
X00485*
Y00432*
X00367*
Y00437*
X00485*
Y00467*
X00447*
Y00472*
X01192*
Y00687*
X01555*
X01617Y00625*
G54D188*
X01612Y00623D02*
Y00497D01*
X01971*
X01972Y00496*
X01971Y00453*
X0192*
Y00432*
X01902*
Y00433*
X01847*
Y00393*
X01848Y00394*
X01849Y00394*
Y00406*
X0182*
X0179*
Y00394*
X01792*
Y00403*
X01765*
X01737*
Y00381*
X01736Y00376*
X01727Y00367*
X01722Y0036*
X0172Y00351*
Y00344*
X0169*
Y00324*
X01672Y00307*
X01674Y00307*
Y00313*
X01645*
X01615*
Y0028*
X01617*
Y0025*
X01625*
Y00226*
X01624Y00225*
X01625Y00225*
X01619*
X01616*
X01611Y00224*
X0157*
Y00184*
Y00145*
X01574*
Y00131*
X01575Y00124*
X01577Y00121*
Y00119*
X01575*
Y00086*
X01605*
X01634*
Y0011*
X01633Y00108*
X01634Y00109*
X01639Y00107*
X01638*
X01638Y00109*
X01638Y00109*
X01634Y001*
Y00089*
X01638Y0008*
X01645Y00073*
X01649Y00071*
X01651Y0007*
X01651Y0007*
X01651Y0007*
X01653Y00071*
X01642Y00075*
Y00052*
X0164Y0005*
X01639Y00047*
X01614*
X01621Y00029*
X01611Y0004*
X01627Y00033*
X01626Y00027*
X00452*
Y0004*
Y00321*
X00488*
Y00391*
X00452*
Y00397*
X0049*
Y00437*
X00372*
X0037Y00435*
X0049Y00432*
Y00472*
X00452*
Y00467*
X01197*
Y00682*
X01553*
X01612Y00623*
X00453Y00032D02*
X01626D01*
X00453Y00042D02*
X01616D01*
X00453Y00052D02*
X0164D01*
X00453Y00062D02*
X0164D01*
X00453Y00072D02*
X0164D01*
X01651D02*
X0165D01*
X00453Y00082D02*
X01638D01*
X00453Y00092D02*
X01574D01*
X01635D02*
X01634D01*
X00453Y00102D02*
X01574D01*
X01635D02*
X01634D01*
X00453Y00112D02*
X01574D01*
X00453Y00122D02*
X01576D01*
X00453Y00132D02*
X01572D01*
X00453Y00142D02*
X01572D01*
X00453Y00152D02*
X0157D01*
X00453Y00162D02*
X0157D01*
X00453Y00172D02*
X0157D01*
X00453Y00182D02*
X0157D01*
X00453Y00192D02*
X0157D01*
X00453Y00202D02*
X0157D01*
X00453Y00212D02*
X0157D01*
X00453Y00222D02*
X0157D01*
X00453Y00232D02*
X01624D01*
X00453Y00242D02*
X01624D01*
X00453Y00252D02*
X01616D01*
X00453Y00262D02*
X01616D01*
X00453Y00272D02*
X01616D01*
X00453Y00282D02*
X01614D01*
X00453Y00292D02*
X01614D01*
X00453Y00302D02*
X01614D01*
X00453Y00312D02*
X01614D01*
X01675D02*
X01676D01*
X00491Y00322D02*
X01686D01*
X00491Y00332D02*
X01688D01*
X00491Y00342D02*
X01688D01*
X00491Y00352D02*
X0172D01*
X00491Y00362D02*
X01722D01*
X00491Y00372D02*
X0173D01*
X00491Y00382D02*
X01736D01*
X00453Y00392D02*
X01736D01*
X00493Y00402D02*
X01736D01*
X01793D02*
X01792D01*
X01849D02*
X01848D01*
X00493Y00412D02*
X01846D01*
X00493Y00422D02*
X01846D01*
X00493Y00432D02*
X01846D01*
X00493Y00442D02*
X0192D01*
X00493Y00452D02*
X0192D01*
X00493Y00462D02*
X01972D01*
X01199Y00472D02*
X01972D01*
X01199Y00482D02*
X01972D01*
X01199Y00492D02*
X01972D01*
X01199Y00502D02*
X0161D01*
X01199Y00512D02*
X0161D01*
X01199Y00522D02*
X0161D01*
X01199Y00532D02*
X0161D01*
X01199Y00542D02*
X0161D01*
X01199Y00552D02*
X0161D01*
X01199Y00562D02*
X0161D01*
X01199Y00572D02*
X0161D01*
X01199Y00582D02*
X0161D01*
X01199Y00592D02*
X0161D01*
X01199Y00602D02*
X0161D01*
X01199Y00612D02*
X0161D01*
X01199Y00622D02*
X0161D01*
X01199Y00632D02*
X01602D01*
X01199Y00642D02*
X01592D01*
X01199Y00652D02*
X01582D01*
X01199Y00662D02*
X01572D01*
X01199Y00672D02*
X01562D01*
G54D186*
X01797Y00347D02*
X01812D01*
X01818Y00345*
X01867*
X01873Y00346*
X01896Y00323*
X01903Y00319*
X0191Y00317*
X01971*
X01975Y00313*
X01975Y00295*
X01959*
X01958Y00295*
X01955*
X01954Y00294*
X01952Y00294*
X0195Y00292*
X01948Y00292*
X01947Y0029*
X01945Y00289*
X01944Y00287*
X01942Y00286*
X01942Y00284*
X0194Y00282*
X0194Y0028*
X01939Y00279*
Y00276*
X01939Y00275*
X01939Y00273*
Y0027*
X0194Y00269*
X0194Y00267*
X01942Y00265*
X01942Y00263*
X01944Y00262*
X01945Y0026*
X01947Y00259*
X01948Y00257*
X0195Y00257*
X01952Y00255*
X01954Y00255*
X01955Y00254*
X01958*
X01959Y00254*
X0197*
X01974Y0025*
X01973Y00139*
X0196*
Y00114*
X01937*
X01937Y00113*
X01927Y00118*
Y00095*
Y00073*
X0196*
Y00022*
X01784Y00022*
X01783Y00026*
X01782Y00026*
X01788Y00032*
X01789Y00034*
X01797*
Y00053*
X01802*
Y00058*
X01824*
Y00072*
X01828Y00072*
X01828Y00072*
X0183Y00072*
X01832Y0007*
X01834Y0007*
X01835Y00069*
X01838*
X0184Y00069*
X01841Y00069*
X01844*
X01845Y0007*
X01847Y0007*
X01849Y00072*
X01851Y00072*
X01852Y00074*
X01854Y00075*
X01855Y00077*
X01857Y00078*
X01857Y0008*
X01859Y00082*
X01859Y00084*
X0186Y00085*
Y00088*
X0186Y0009*
X0186Y00091*
Y00094*
X01859Y00095*
X01859Y00097*
X01857Y00099*
X01857Y00101*
X01855Y00102*
X01854Y00104*
X0185Y00108*
X01844Y00112*
X01836Y00114*
X01799*
X01793Y00112*
X01777*
Y00082*
X01776Y00076*
X01773Y00074*
X01772Y00074*
X01765Y0007*
X01761Y00065*
X01757Y00063*
X01751Y00057*
X01746Y00047*
X01767*
Y00042*
X01746*
X01751Y00032*
X01757Y00026*
X01756Y00026*
X01755Y00022*
X01725*
X01724Y00027*
X01724Y00027*
Y00043*
X01702*
Y00048*
X01724*
Y00065*
X01722Y00072*
Y00087*
X01726Y00089*
X01728Y00087*
X01735Y00084*
X01744*
X01751Y00087*
X01757Y00093*
X0176Y001*
Y00109*
X01757Y00116*
X01753Y0012*
X01753Y00121*
X01754Y00124*
X01771*
X01776Y00125*
X0178Y00128*
X01782Y00131*
X01783Y00132*
X01788Y00133*
X01792Y0013*
X01799Y00129*
X01818*
X01823Y0013*
X01829*
Y00128*
X01848*
Y0015*
Y00171*
X0184*
X01838Y00175*
X01841Y00179*
X01857*
Y00211*
X01859*
Y00227*
X01864*
X01872Y00231*
X01878Y00237*
X01883Y00247*
X01862*
Y00252*
X01857*
Y00273*
X01847Y00268*
X01841Y00262*
X0184Y00262*
X01837*
Y00239*
X01832*
Y00234*
X0181*
Y00213*
X0181Y00211*
X01805Y00207*
X01803Y00207*
X01782*
Y00212*
X01777*
Y00233*
X01767Y00228*
X01761Y00222*
X01757Y00214*
Y00214*
X01752*
X01748Y00219*
Y00221*
X0175Y00225*
Y00234*
X01747Y00241*
X01747Y0024*
X01749Y00245*
X0177*
Y00267*
X01751*
Y00272*
X01769*
X01777Y00275*
X01784Y00282*
X01788Y00292*
X01767*
Y00297*
X01788*
X01784Y00307*
X01777Y00313*
X01769Y00317*
X01769*
X01766Y00321*
Y00341*
X01773Y00348*
X01783*
X01797Y00348*
Y00347*
G54D188*
X01792Y00342D02*
X01811D01*
X01818Y0034*
X01867*
X01871Y00341*
X01893Y00319*
X01901Y00314*
X0191Y00312*
X01969*
X0197Y00311*
X0197Y003*
X01959*
X01957Y003*
X01954*
X01952Y00299*
X0195Y00298*
X01948Y00297*
X01945Y00296*
X01943Y00294*
X01941Y00293*
X0194Y00291*
X01938Y00289*
X01937Y00286*
X01936Y00284*
X01935Y00282*
X01934Y0028*
Y00277*
X01934Y00275*
X01934Y00272*
Y00269*
X01935Y00267*
X01936Y00265*
X01937Y00263*
X01938Y0026*
X0194Y00258*
X01941Y00256*
X01943Y00255*
X01945Y00253*
X01948Y00252*
X0195Y00251*
X01952Y0025*
X01954Y00249*
X01957*
X01959Y00249*
X01968*
X01969Y00248*
X01968Y00144*
X01955*
Y00119*
X01925*
X01916Y00128*
X01922Y00125*
Y00095*
Y00068*
X01955*
Y00027*
X01788*
X01787Y00033*
X01803Y0004*
X01793Y00029*
X01793Y00029*
X01802*
Y00048*
X01805Y00051*
X01805Y00053*
X01829*
Y00067*
X01839Y00068*
X01849Y00058*
X01828Y00067*
X0183Y00066*
X01832Y00065*
X01834Y00064*
X01837*
X0184Y00064*
X01842Y00064*
X01845*
X01847Y00065*
X01849Y00066*
X01851Y00067*
X01854Y00068*
X01856Y0007*
X01858Y00071*
X01859Y00073*
X01861Y00075*
X01862Y00078*
X01863Y0008*
X01864Y00082*
X01865Y00084*
Y00087*
X01865Y0009*
X01865Y00092*
Y00095*
X01864Y00097*
X01863Y00099*
X01862Y00101*
X01861Y00104*
X01859Y00106*
X01858Y00107*
X01853Y00112*
X01846Y00117*
X01837Y00119*
X01799*
X01792Y00117*
X01772*
Y00083*
X01771Y00079*
X01771Y00079*
X0177Y00079*
X01762Y00073*
X01758Y00069*
X01754Y00068*
X01746Y0006*
X01739Y00042*
X01762*
X01765Y00045*
X01738Y00048*
X01746Y00029*
X01736Y0004*
X01752Y00033*
X01751Y00027*
X01729*
X01729Y00027*
Y00048*
X01707*
X01705Y00046*
X01729Y00043*
Y00066*
X01727Y00073*
Y00084*
X01725Y00083*
X01725Y00083*
X01734Y00079*
X01745*
X01754Y00083*
X01761Y0009*
X01765Y00099*
Y0011*
X01761Y00119*
X01758Y00121*
X01758Y0012*
X01758Y00119*
X01772*
X01778Y0012*
X01783Y00124*
X01785Y00127*
X01785Y00127*
X01787Y00127*
X0179Y00126*
X01799Y00124*
X01819*
X01823Y00125*
X01824*
Y00123*
X01853*
Y0015*
Y00176*
X01843*
X01844Y00174*
X01844Y00174*
X01862*
Y00206*
X01864*
Y00222*
X01865*
X01875Y00226*
X01883Y00234*
X0189Y00252*
X01867*
X01865Y00255*
X01862Y00255*
Y0028*
X01844Y00273*
X01836Y00265*
X01837Y00267*
X01832*
Y00244*
X0183Y00241*
X01829Y00239*
X01805*
Y00213*
X01805Y00213*
X01804Y00212*
X01804Y00212*
X01787*
X01785Y00215*
X01782Y00215*
Y0024*
X01764Y00233*
X01756Y00225*
X01762Y00239*
Y00219*
X01755*
X01753Y00221*
Y0022*
X01755Y00224*
Y00235*
X01761Y0022*
X01749Y00232*
X01753Y0024*
X01775*
Y00272*
X01756*
X01753Y0027*
X0177Y00267*
X0178Y00271*
X01788Y00279*
X01795Y00297*
X01772*
X0177Y00294*
X01796Y00291*
X01788Y0031*
X0178Y00318*
X01794Y00312*
X0178*
X01771Y00322*
Y00339*
X01775Y00343*
X01783*
X01792Y00343*
Y00342*
X0171Y00048D02*
Y00047D01*
X0172Y00046D02*
Y00047D01*
X0173Y00028D02*
Y00081D01*
X0174Y00028D02*
Y00041D01*
Y00046D02*
Y00045D01*
Y0005D02*
Y00079D01*
X0175Y00028D02*
Y00033D01*
Y00044D02*
Y00047D01*
Y00066D02*
Y00081D01*
Y00232D02*
Y00233D01*
X0176Y00044D02*
Y00045D01*
Y00074D02*
Y00089D01*
Y0012D02*
Y00119D01*
Y00222D02*
Y00239D01*
Y0027D02*
Y00271D01*
X0177Y0008D02*
Y00117D01*
Y00238D02*
Y00239D01*
Y0027D02*
Y00271D01*
Y00296D02*
Y00295D01*
X0178Y0012D02*
Y00121D01*
Y00242D02*
Y00271D01*
Y00296D02*
Y00295D01*
Y00314D02*
Y00344D01*
X0179Y00028D02*
Y00033D01*
Y0012D02*
Y00125D01*
Y00214D02*
Y00283D01*
Y00294D02*
Y00295D01*
Y00308D02*
Y00344D01*
X018Y00028D02*
Y00029D01*
Y00038D02*
Y00037D01*
Y0012D02*
Y00123D01*
Y00214D02*
Y00341D01*
X0181Y00028D02*
Y00053D01*
Y0012D02*
Y00123D01*
Y0024D02*
Y00341D01*
X0182Y00028D02*
Y00053D01*
Y0012D02*
Y00123D01*
Y0024D02*
Y00339D01*
X0183Y00028D02*
Y00065D01*
Y0012D02*
Y00121D01*
Y00244D02*
Y00339D01*
X0184Y00028D02*
Y00067D01*
Y0012D02*
Y00121D01*
Y0027D02*
Y00339D01*
X0185Y00028D02*
Y00065D01*
Y00116D02*
Y00121D01*
Y00176D02*
Y00175D01*
Y00278D02*
Y00339D01*
X0186Y00028D02*
Y00073D01*
Y00108D02*
Y00173D01*
Y00282D02*
Y00339D01*
X0187Y00028D02*
Y00225D01*
Y00254D02*
Y00339D01*
X0188Y00028D02*
Y00231D01*
Y00254D02*
Y00331D01*
X0189Y00028D02*
Y00249D01*
Y00254D02*
Y00321D01*
X019Y00028D02*
Y00313D01*
X0191Y00028D02*
Y00311D01*
X0192Y00028D02*
Y00311D01*
X0193Y00028D02*
Y00067D01*
Y0012D02*
Y00311D01*
X0194Y00028D02*
Y00067D01*
Y0012D02*
Y00257D01*
Y00294D02*
Y00311D01*
X0195Y00028D02*
Y00067D01*
Y0012D02*
Y00249D01*
Y003D02*
Y00311D01*
X0196Y00146D02*
Y00247D01*
Y00302D02*
Y00311D01*
X0197Y00304D02*
Y00311D01*
%LNrelia-2*%
%LPC*%
G36*
X01445Y00674D02*
Y0066D01*
X01459*
X01456Y00666*
X01451Y00671*
X01445Y00674*
G37*
G36*
X01435D02*
X01428Y00671D01*
X01423Y00666*
X0142Y0066*
X01435*
Y00674*
G37*
G36*
X0157Y00644D02*
Y0063D01*
X01584*
X01581Y00636*
X01576Y00641*
X0157Y00644*
G37*
G36*
X01372D02*
X01366Y00641D01*
X0136Y00636*
X01358Y0063*
X01372*
Y00644*
G37*
G36*
X01461Y0065D02*
X0142D01*
X01421Y00646*
Y00645*
X01423Y00638*
X01425Y00634*
X01426Y00632*
X01426Y00631*
X01422Y00626*
X0142Y00626*
X01416*
X01401*
X01396Y00631*
X01394Y00636*
X01388Y00641*
X01382Y00644*
Y00625*
X01377*
Y0062*
X01358*
X0136Y00613*
X01366Y00608*
X0137Y00606*
X01376Y00601*
Y00577*
X01378*
Y00545*
X01404*
X01407Y00537*
X01404Y00535*
X01402Y00529*
X01401Y00528*
X01394Y00525*
X01391Y00527*
X01384Y00528*
X0136*
X01353Y00527*
X01351Y00526*
X01342*
Y00512*
X01341Y0051*
X01342Y00509*
Y00494*
X01334Y00491*
X01327Y00497*
X01326Y00498*
X01325Y005*
X01323Y005*
X01321Y00501*
X0132Y00502*
X01318Y00502*
X01316*
X01315Y00503*
X01313Y00502*
X01311*
X01309Y00502*
X01308Y00501*
X01306Y005*
X01304Y005*
X01303Y00498*
X01302Y00497*
X01301Y00496*
X01299Y00495*
X01299Y00493*
X01298Y00491*
X01297Y0049*
X01297Y00488*
Y00486*
X01296Y00485*
X01297Y00483*
Y00481*
X01297Y00479*
X01298Y00478*
X01299Y00476*
X01299Y00474*
X01301Y00473*
X01302Y00472*
X01307Y00467*
X01303Y00459*
X01293*
X0127Y00482*
X01264Y00486*
X01257Y00488*
X01235*
X01233Y00487*
X01231*
X01229Y00487*
X01228Y00486*
X01226Y00485*
X01224Y00485*
X01223Y00483*
X01222Y00482*
X01221Y00481*
X01219Y0048*
X01219Y00478*
X01218Y00476*
X01217Y00475*
X01217Y00473*
Y00471*
X01216Y0047*
X01217Y00468*
Y00466*
X01217Y00464*
X01218Y00463*
X01219Y00461*
X01219Y00459*
X01221Y00458*
X01222Y00457*
X01223Y00456*
X01224Y00454*
X01226Y00454*
X01228Y00453*
X01229Y00452*
X01231Y00452*
X01233*
X01235Y00451*
X0125*
X01267Y00434*
X01266Y00427*
X01262Y0042*
X01232*
X01231Y00421*
X01226Y00426*
X0122Y00429*
Y0041*
X01215*
Y00405*
X01195*
X01198Y00398*
X01203Y00393*
X01208Y00391*
X01209Y00389*
X01215Y00386*
X01222Y00384*
X01266*
Y00378*
X01285*
Y00402*
X0129*
Y00407*
X01313*
Y00427*
X01311*
Y00451*
X01312Y00452*
X01319Y00455*
X01323Y00453*
X0133Y00451*
X0135*
X01357Y00453*
X01363Y00457*
X01369Y00463*
X01373*
X01378Y0046*
X014*
Y0045*
X0138*
X01383Y00443*
X01386Y0044*
X01385Y00438*
X01383Y00432*
X01378Y00431*
X01372Y00427*
X01368Y00421*
X01366Y00415*
Y00376*
X01365*
Y00342*
X01351*
X01351*
X01345Y00344*
Y00325*
Y00305*
X01351Y00307*
X01351*
X01351*
X01365*
Y00296*
X01364Y00295*
X0136Y0029*
X01359Y00284*
X01357Y00278*
Y00271*
X01359Y00264*
X01364Y00259*
X01371Y00257*
X01378*
X01385Y00259*
X0139Y00264*
X01392Y00271*
Y00273*
X01404*
Y00286*
X01412Y00291*
X01415Y0029*
Y0031*
X01425*
Y0029*
X01428Y00292*
X01436Y00288*
Y00287*
X01455*
Y00311*
X01465*
Y00282*
X01466Y00281*
X01465Y0028*
X01504*
X01502Y00284*
X01506Y00289*
X01507Y0029*
X01513Y00289*
X01515*
Y00312*
X0152*
Y00317*
X01542*
Y00318*
X01541Y00325*
X01537Y0033*
X01536Y00331*
X01539Y00335*
X0154Y00341*
Y00353*
X01539Y00359*
X01538Y00361*
Y00378*
X01538*
Y00414*
Y00451*
X01526*
X01508Y00469*
X01511Y00476*
X01525*
Y00474*
X0154*
X0155Y00465*
X01589*
X01588Y00468*
Y0047*
X01586Y00477*
X01582Y00483*
X01565Y005*
Y00515*
X0155*
Y00495*
X0154*
Y00515*
X01525*
Y00513*
X01514*
X01502Y00525*
X01497Y00528*
X01492Y00529*
X01457*
X01452Y00528*
X01448Y00525*
X01445Y00523*
X01437Y00526*
Y00528*
X01435Y00535*
X01434Y00536*
X01435Y00544*
X01437Y00547*
X01442Y00549*
X01447Y00547*
X01449Y00544*
X01456Y00542*
X01463*
X0147Y00544*
X01475Y00549*
X01477Y00556*
Y00563*
X01475Y00568*
X01478Y00576*
Y00605*
X0148*
Y0062*
X0146*
Y0063*
X0148*
Y00645*
X01465*
X01461Y0065*
G37*
G36*
X01515Y00627D02*
X01496D01*
Y00608*
X01515*
Y00627*
G37*
G36*
X01255Y00609D02*
X01248Y00606D01*
X01243Y00601*
X0124Y00595*
X01255*
Y00609*
G37*
G36*
Y00585D02*
X0124D01*
X01243Y00578*
X01248Y00573*
X01255Y0057*
Y00585*
G37*
G36*
X0156Y00644D02*
X01553Y00641D01*
X01548Y00636*
X01546Y00631*
X01542Y00627*
X01525*
Y00603*
X0152*
Y00598*
X01496*
Y00579*
X01498*
Y00544*
X01541*
Y00553*
X01553*
X01554Y00553*
X01556Y00552*
X01563*
X0157Y00554*
X01575Y00559*
X01577Y00566*
Y00573*
X01575Y0058*
X0157Y00585*
X01563Y00587*
X01561Y00594*
X01561Y00595*
X01571Y00606*
X01576Y00608*
X01581Y00613*
X01584Y0062*
X01565*
Y00625*
X0156*
Y00644*
G37*
G36*
X01265Y00609D02*
Y0059D01*
Y0057*
X01274Y0056*
Y00552*
X01244*
X01237Y0055*
X01231Y00547*
X01227Y00542*
X01226Y00541*
X01224Y0054*
X01224Y00538*
X01223Y00536*
X01222Y00535*
X01222Y00533*
Y00531*
X01221Y0053*
X01222Y00528*
Y00526*
X01222Y00524*
X01223Y00523*
X01224Y00521*
X01224Y00519*
X01226Y00518*
X01227Y00517*
X01228Y00516*
X01229Y00514*
X01231Y00514*
X01233Y00513*
X01234Y00512*
X01236Y00512*
X01238*
X0124Y00511*
X01241Y00512*
X01243*
X01245Y00512*
X01246Y00513*
X01248Y00514*
X0125Y00514*
X01251Y00516*
X01276*
Y00516*
X01313*
Y00545*
X01315*
Y0056*
X01295*
Y0057*
X01315*
Y00585*
X013*
X01283Y00602*
X01277Y00606*
X0127Y00608*
X01268*
X01265Y00609*
G37*
G36*
X0181Y00464D02*
X01803Y00461D01*
X01798Y00456*
X01795Y0045*
X0181*
Y00464*
G37*
G36*
X01589Y00455D02*
X01575D01*
Y0044*
X01581Y00443*
X01586Y00448*
X01589Y00455*
G37*
G36*
X01565D02*
X0155D01*
X01553Y00448*
X01558Y00443*
X01565Y0044*
Y00455*
G37*
G36*
X01755Y00444D02*
X01748Y00441D01*
X01743Y00436*
X0174Y0043*
X01755*
Y00444*
G37*
G36*
X0121Y00429D02*
X01203Y00426D01*
X01198Y00421*
X01195Y00415*
X0121*
Y00429*
G37*
G36*
X0182Y00464D02*
Y00445D01*
X01815*
Y0044*
X01795*
X01798Y00433*
X01801Y0043*
X018Y00422*
X01798*
Y00408*
X0182*
X01841*
Y00422*
X01838*
Y0044*
X01836Y00446*
X01834Y0045*
X01831Y00456*
X01826Y00461*
X0182Y00464*
G37*
G36*
X01765Y00444D02*
Y00425D01*
X0176*
Y0042*
X0174*
X01743Y00413*
X01744Y00412*
Y00405*
X01765*
X01785*
Y0042*
X01782*
X01781Y00427*
X01779Y0043*
X01776Y00436*
X01771Y00441*
X01765Y00444*
G37*
G36*
X00941Y00428D02*
X009D01*
Y00395*
X00958*
Y00411*
X00957Y00417*
X00953Y00423*
X00948Y00426*
X00941Y00428*
G37*
G36*
X0089D02*
X00848D01*
X00841Y00426*
X00836Y00423*
X00832Y00417*
X00831Y00411*
Y00395*
X0089*
Y00428*
G37*
G36*
X01313Y00397D02*
X01295D01*
Y00378*
X01313*
Y00397*
G37*
G36*
X0163Y00359D02*
Y00345D01*
X01644*
X01641Y00351*
X01636Y00356*
X0163Y00359*
G37*
G36*
X0162D02*
X01613Y00356D01*
X01608Y00351*
X01605Y00345*
X0162*
Y00359*
G37*
G36*
X00959Y00345D02*
X00945D01*
Y0033*
X00951Y00333*
X00956Y00338*
X00959Y00345*
G37*
G36*
X00958Y00385D02*
X009D01*
Y00353*
X0092*
Y00346*
X00923Y00338*
X00928Y00333*
X00935Y0033*
Y0035*
X0094*
Y00355*
X00959*
X00956Y00361*
X00956Y00361*
Y00362*
X00957Y00364*
X00958Y0037*
Y00385*
G37*
G36*
X0089D02*
X00831D01*
Y0037*
X00832Y00365*
X00828Y00361*
X00825Y00355*
X00845*
Y0035*
X0085*
Y0033*
X00856Y00333*
X00861Y00338*
X00863Y00343*
X00864Y00343*
X00867Y00349*
X00868Y00353*
X0089*
Y00385*
G37*
G36*
X0084Y00345D02*
X00825D01*
X00828Y00338*
X00833Y00333*
X0084Y0033*
Y00345*
G37*
G36*
X01335Y00344D02*
X01328Y00341D01*
X01323Y00336*
X0132Y0033*
X01335*
Y00344*
G37*
G36*
X01645Y00335D02*
X01605D01*
X01608Y00328*
X01613Y00323*
X01617Y00321*
X01617Y00321*
X01622Y00316*
X01645*
X01666*
Y00334*
X01646*
X01645Y00335*
G37*
G36*
X01335Y0032D02*
X0132D01*
X01323Y00313*
X01328Y00308*
X01335Y00305*
Y0032*
G37*
G36*
X01325Y00284D02*
Y0027D01*
X01339*
X01336Y00276*
X01331Y00281*
X01325Y00284*
G37*
G36*
X00618Y00411D02*
X00517D01*
Y00408*
X0051*
X00508Y00407*
X00506*
X00504Y00407*
X00503Y00406*
X00501Y00405*
X00499Y00405*
X00498Y00403*
X00497Y00402*
X00496Y00401*
X00494Y004*
X00494Y00398*
X00493Y00396*
X00492Y00395*
X00492Y00393*
Y00391*
X00491Y0039*
X00492Y00388*
Y00386*
X00492Y00384*
X00493Y00383*
X00494Y00381*
X00494Y00379*
X00496Y00378*
X00497Y00377*
X00498Y00376*
X00499Y00374*
X00501Y00374*
X00503Y00373*
X00504Y00372*
X00506Y00372*
X00508*
X0051Y00371*
X00517*
Y00313*
X00506Y00302*
X00506*
X00504Y00302*
X00503Y00301*
X00501Y003*
X00499Y003*
X00498Y00298*
X00497Y00297*
X00496Y00296*
X00494Y00295*
X00494Y00293*
X00493Y00291*
X00492Y0029*
X00492Y00288*
Y00286*
X00491Y00285*
X00492Y00283*
Y00281*
X00492Y00279*
X00493Y00278*
X00494Y00276*
X00494Y00274*
X00496Y00273*
X00497Y00272*
X00498Y00271*
X00499Y00269*
X00501Y00269*
X00503Y00268*
X00504Y00267*
X00506Y00267*
X00508*
X0051Y00266*
X00514*
X00521Y00268*
X00527Y00272*
X00543Y00288*
X00618*
Y00411*
G37*
G36*
X01564Y0028D02*
X0155D01*
Y00265*
X01556Y00268*
X01561Y00273*
X01564Y0028*
G37*
G36*
X01547Y00307D02*
X01525D01*
Y00284*
X01525Y00284*
Y00281*
X01528Y00273*
X01533Y00268*
X0154Y00265*
Y00285*
X01545*
Y0029*
X01564*
X01561Y00296*
X01556Y00301*
X01551Y00303*
X01547Y00307*
G37*
G36*
X01504Y0027D02*
X0149D01*
Y00255*
X01496Y00258*
X01501Y00263*
X01504Y0027*
G37*
G36*
X0148D02*
X01465D01*
X01468Y00263*
X01473Y00258*
X0148Y00255*
Y0027*
G37*
G36*
X01015Y00269D02*
Y00255D01*
X01029*
X01026Y00261*
X01021Y00266*
X01015Y00269*
G37*
G36*
X01005D02*
X00998Y00266D01*
X00993Y00261*
X0099Y00255*
X01005*
Y00269*
G37*
G36*
X01339Y0026D02*
X01325D01*
Y00245*
X01331Y00248*
X01336Y00253*
X01339Y0026*
G37*
G36*
X0124Y00363D02*
X01238Y00362D01*
X01236*
X01234Y00362*
X01233Y00361*
X01231Y0036*
X01229Y0036*
X01228Y00358*
X01227Y00357*
X01223Y00354*
X01213*
X01211Y00353*
X01158*
Y00316*
X01161*
Y00295*
X01156*
Y00277*
X01141Y00262*
X01137Y00256*
X01136Y0025*
X0113Y00247*
X01108*
Y00244*
X01075*
Y00185*
Y00125*
X01108*
Y00122*
X0112*
X01128Y0012*
X01129Y00114*
X01132Y00109*
X01154Y00087*
X01159Y00084*
X01165Y00083*
X01194*
X01199*
X01202Y00083*
Y00083*
X01205Y00084*
X0121Y00087*
X01241Y00118*
X01244Y00123*
X01245Y00127*
X01262Y00144*
X01389*
Y00198*
X0124*
Y00167*
X01218Y00145*
X01215Y0014*
X01214Y00138*
X0121Y00135*
X01202Y00139*
Y00146*
X01192*
X01187Y00152*
X0119Y00159*
X01214*
Y00187*
X01216Y00194*
Y00208*
X01195*
Y00218*
X01216*
Y00232*
X01202*
X012Y00235*
X0118*
Y00245*
X012*
X01204Y00251*
X0121Y00252*
X01213Y00249*
X01213Y00248*
X01214Y00246*
X01214Y00244*
X01216Y00243*
X01217Y00242*
X01218Y00241*
X01219Y00239*
X01221Y00239*
X01223Y00238*
X01224Y00237*
X01226Y00237*
X01228*
X0123Y00236*
X01231Y00237*
X01233*
X01235Y00237*
X01236Y00238*
X01238Y00239*
X0124Y00239*
X01241Y00241*
X01242Y00242*
X01243Y00243*
X01245Y00244*
X01245Y00246*
X01246Y00248*
X01247Y00249*
X01247Y00251*
Y00253*
X01248Y00255*
Y00258*
X01246Y00265*
X01242Y0027*
X01233Y0028*
Y00288*
X01249*
X01256Y00288*
Y0027*
X0128*
Y00265*
X01285*
Y00242*
X01303*
Y00242*
X01304Y00244*
X01311Y00247*
X01315Y00245*
Y00265*
Y00284*
X01311Y00282*
X01304Y00285*
X01303Y00287*
Y00288*
X01301*
Y00325*
X01258*
X01257Y00325*
X01254Y00329*
X01253Y00333*
X01253Y00333*
X01255Y00334*
X01255Y00336*
X01256Y00338*
X01257Y00339*
X01257Y00341*
Y00343*
X01258Y00345*
X01257Y00346*
Y00348*
X01257Y0035*
X01256Y00351*
X01255Y00353*
X01255Y00355*
X01253Y00356*
X01252Y00357*
X01251Y00358*
X0125Y0036*
X01248Y0036*
X01246Y00361*
X01245Y00362*
X01243Y00362*
X01241*
X0124Y00363*
G37*
G36*
X01275Y0026D02*
X01256D01*
Y00242*
X01275*
Y0026*
G37*
G36*
X0069Y00199D02*
X00683Y00196D01*
X00678Y00191*
X00675Y00185*
X0069*
Y00199*
G37*
G36*
X0153Y00236D02*
X01439D01*
Y00185*
X01427Y00172*
X01426Y00171*
X01424Y0017*
X01424Y00168*
X01423Y00166*
X01422Y00165*
X01422Y00163*
Y00161*
X01421Y0016*
Y0016*
X01422Y00158*
Y00156*
X01422Y00154*
X01423Y00153*
X01424Y00151*
X01424Y00149*
X01426Y00148*
X01427Y00147*
X01428Y00146*
X01429Y00144*
X01431Y00144*
X01433Y00143*
X01434Y00142*
X01436Y00142*
X01438*
X0144Y00141*
X01441Y00142*
X01443*
X01445Y00142*
X01446Y00143*
X01448Y00144*
X0145Y00144*
X01451Y00146*
X01452Y00147*
X01452Y00147*
X01465Y00159*
X0153*
Y00176*
X01535*
X01536Y00177*
X01538*
X0154Y00177*
X01541Y00178*
X01543Y00179*
X01545Y00179*
X01546Y00181*
X01547Y00182*
X01548Y00183*
X0155Y00184*
X0155Y00186*
X01551Y00188*
X01552Y00189*
X01552Y00191*
Y00193*
X01553Y00195*
X01552Y00196*
Y00198*
X01552Y002*
X01551Y00201*
X0155Y00203*
X0155Y00205*
X01548Y00206*
X01547Y00207*
X01546Y00208*
X01545Y0021*
X01543Y0021*
X01541Y00211*
X0154Y00212*
X01538Y00212*
X01536*
X01535Y00213*
X0153*
Y00236*
G37*
G36*
X00803Y00184D02*
X00756D01*
Y00135*
X00803*
Y00184*
G37*
G36*
X007Y00199D02*
Y0018D01*
X00695*
Y00175*
X00675*
X00678Y00168*
X00683Y00163*
X00691Y0016*
X00697*
X00698Y00158*
Y00135*
X00746*
Y00184*
X00724*
X00716Y00192*
X0071Y00196*
X00703Y00198*
X00703*
X007Y00199*
G37*
G36*
X01525Y00144D02*
Y0013D01*
X01539*
X01536Y00136*
X01531Y00141*
X01525Y00144*
G37*
G36*
X0086D02*
Y0013D01*
X00874*
X00871Y00136*
X00866Y00141*
X0086Y00144*
G37*
G36*
X0085D02*
X00843Y00141D01*
X00838Y00136*
X00835Y0013*
X0085*
Y00144*
G37*
G36*
X0135Y00128D02*
X01348Y00127D01*
X01346*
X01344Y00127*
X01343Y00126*
X01341Y00125*
X01339Y00125*
X01338Y00123*
X01337Y00122*
X01336Y00121*
X01334Y0012*
X01334Y00118*
X01333Y00116*
X01332Y00115*
X01332Y00113*
Y00111*
X01331Y0011*
Y00105*
X01288*
Y0011*
X01287Y00111*
Y00113*
X01287Y00115*
X01286Y00116*
X01285Y00118*
X01285Y0012*
X01283Y00121*
X01282Y00122*
X01281Y00123*
X0128Y00125*
X01278Y00125*
X01276Y00126*
X01275Y00127*
X01273Y00127*
X01271*
X0127Y00128*
X01268Y00127*
X01266*
X01264Y00127*
X01263Y00126*
X01261Y00125*
X01259Y00125*
X01258Y00123*
X01257Y00122*
X01256Y00121*
X01254Y0012*
X01254Y00118*
X01253Y00116*
X01252Y00115*
X01252Y00113*
Y00111*
X01251Y0011*
Y00105*
X0124*
Y00051*
X01389*
Y00105*
X01368*
Y0011*
X01367Y00111*
Y00113*
X01367Y00115*
X01366Y00116*
X01365Y00118*
X01365Y0012*
X01363Y00121*
X01362Y00122*
X01361Y00123*
X0136Y00125*
X01358Y00125*
X01356Y00126*
X01355Y00127*
X01353Y00127*
X01351*
X0135Y00128*
G37*
G36*
X00792Y00411D02*
X00691D01*
Y00288*
X00768*
X0079Y00266*
X00796Y00262*
X00803Y00261*
X00833*
Y00258*
X00834Y00253*
X00837Y00248*
X00842Y00245*
X00848Y00243*
X00876*
Y00226*
X00848*
X00842Y00224*
X00837Y00221*
X00834Y00216*
X00833Y00211*
Y0017*
X00834Y00164*
X00837Y0016*
X00842Y00156*
X00848Y00155*
X00941*
X00947Y00156*
X00952Y0016*
X00955Y00164*
X00956Y0017*
Y00172*
X00966*
Y00105*
Y00103*
X00958Y00102*
X00957Y00104*
X00957Y00105*
X00953Y00111*
X00948Y00115*
X00941Y00116*
X00939*
Y00123*
X00936Y00131*
X00931Y00136*
X00925Y00139*
Y0012*
X00915*
Y00139*
X00908Y00136*
X00903Y00131*
X009Y00123*
Y00116*
X009*
Y00084*
X00958*
Y00095*
Y00096*
X00966Y00097*
X00967Y00095*
X00967Y00093*
X00971Y00088*
X01002Y00057*
X01008Y00053*
X01015Y00051*
X0105*
X01052Y00052*
X01062*
X01069Y0005*
X01075*
X01084*
Y0007*
Y00089*
X01075*
X01069*
X01062Y00087*
X01052*
X0105Y00088*
X01032*
X0103Y00095*
X01036Y00098*
X01041Y00103*
X01044Y0011*
X01025*
Y0012*
X01045*
X01049Y00125*
X01065*
Y00185*
Y00244*
X01033*
Y00245*
X0099*
X00992Y00239*
X01013*
Y00229*
X00993*
Y00219*
X00992Y00213*
X00986Y00208*
X00984Y00208*
X00956*
Y00211*
X00955Y00216*
X00952Y00221*
X00947Y00224*
X00941Y00226*
X00913*
Y00243*
X00941*
X00947Y00245*
X00952Y00248*
X00955Y00253*
X00956Y00258*
Y00299*
X00955Y00305*
X00952Y00309*
X00947Y00313*
X00941Y00314*
X00848*
X00842Y00313*
X00837Y00309*
X00834Y00305*
X00833Y00299*
Y00297*
X0081*
X00792Y00315*
Y00411*
G37*
G36*
X01515Y00144D02*
X01508Y00141D01*
X01503Y00136*
X015Y00128*
Y00125*
X01499Y00124*
X01499Y00122*
X0149*
Y00086*
X01532*
Y00109*
X01536Y00113*
X01539Y0012*
X0152*
Y00125*
X01515*
Y00144*
G37*
G36*
X0142Y00099D02*
X01413Y00096D01*
X01408Y00091*
X01405Y00085*
X0142*
Y00099*
G37*
G36*
X00876Y0012D02*
X00835D01*
X00836Y00116*
Y00111*
X00836Y00111*
X00832Y00105*
X00831Y00099*
Y00084*
X0089*
Y00116*
X00881*
X00876Y0012*
G37*
G36*
X01626Y00083D02*
X01605D01*
X01578*
X01572Y00078*
X0157Y00079*
Y0006*
Y0004*
X01576Y00043*
X01577Y00044*
X01578*
X01584Y00045*
X01589Y00049*
X01605Y00065*
X01626*
Y00083*
G37*
G36*
X0069Y0009D02*
X00675D01*
X00678Y00083*
X00683Y00078*
X0069Y00075*
Y0009*
G37*
G36*
X00803Y00125D02*
X00756D01*
Y00075*
X00803*
Y00125*
G37*
G36*
X00746D02*
X00698D01*
Y00114*
X00691*
X00683Y00111*
X00678Y00106*
X00675Y001*
X00695*
Y00095*
X007*
Y00075*
X00746*
Y00125*
G37*
G36*
X01115Y00089D02*
Y00075D01*
X01129*
X01126Y00081*
X01121Y00086*
X01115Y00089*
G37*
G36*
X0156Y00079D02*
X01553Y00076D01*
X01548Y00071*
X01545Y00065*
X0156*
Y00079*
G37*
G36*
X0049Y00183D02*
X00488Y00182D01*
X00486*
X00484Y00182*
X00483Y00181*
X00481Y0018*
X00479Y0018*
X00478Y00178*
X00477Y00177*
X00476Y00176*
X00474Y00175*
X00474Y00173*
X00473Y00171*
X00472Y0017*
X00472Y00168*
Y00166*
X00471Y00165*
X00472Y00163*
Y00161*
X00472Y00159*
X00473Y00158*
X00474Y00156*
X00474Y00154*
X00476Y00153*
X00477Y00152*
X00477Y00151*
X00479Y0015*
X00479Y00149*
X00481Y00149*
X00483Y00147*
X00486Y00147*
X00486Y00147*
X00486*
X0049Y00146*
X00508*
Y00103*
X00503Y00098*
X005*
X00498Y00097*
X00496*
X00494Y00097*
X00493Y00096*
X00491Y00095*
X00489Y00095*
X00488Y00093*
X00487Y00092*
X00486Y00091*
X00484Y0009*
X00484Y00088*
X00483Y00086*
X00482Y00085*
X00482Y00083*
Y00081*
X00481Y0008*
X00482Y00078*
Y00076*
X00482Y00074*
X00483Y00073*
X00484Y00071*
X00484Y00069*
X00486Y00068*
X00487Y00067*
X00488Y00066*
X00489Y00064*
X00491Y00064*
X00493Y00063*
X00494Y00062*
X00496Y00062*
X00498*
X005Y00061*
X0051*
X00517Y00063*
X00523Y00067*
X00533Y00077*
X00608*
Y00182*
X00527*
X00525Y00182*
X00493*
X00493Y00182*
X00491*
X0049Y00183*
G37*
G36*
X0142Y00075D02*
X01405D01*
X01408Y00068*
X01413Y00063*
X0142Y0006*
Y00075*
G37*
G36*
X01129Y00065D02*
X01115D01*
Y0005*
X01121Y00053*
X01126Y00058*
X01129Y00065*
G37*
G36*
X01094Y00089D02*
Y0007D01*
Y0005*
X01105*
Y0007*
Y00089*
X01094*
G37*
G36*
X0164Y00064D02*
X01633Y00061D01*
X01628Y00056*
X01625Y0005*
X0164*
Y00064*
G37*
G36*
X00958Y00074D02*
X009D01*
Y00041*
X00941*
X00948Y00043*
X00953Y00046*
X00957Y00052*
X00958Y00058*
Y00074*
G37*
G36*
X0089D02*
X00831D01*
Y00058*
X00832Y00052*
X00836Y00046*
X00841Y00043*
X00848Y00041*
X0089*
Y00074*
G37*
G36*
X01532Y00076D02*
X0149D01*
Y00041*
X01532*
Y00076*
G37*
G36*
X0148Y00122D02*
X01437D01*
Y00104*
X0143Y00099*
Y0008*
Y0006*
X01437Y00055*
Y00041*
X0148*
Y00081*
Y00122*
G37*
G36*
X0156Y00055D02*
X01545D01*
X01548Y00048*
X01553Y00043*
X0156Y0004*
Y00055*
G37*
G36*
X01865Y00269D02*
Y00255D01*
X01879*
X01876Y00261*
X01871Y00266*
X01865Y00269*
G37*
G36*
X0183Y00259D02*
X01812D01*
Y00241*
X0183*
Y00259*
G37*
G36*
X01785Y00229D02*
Y00215D01*
X01799*
X01796Y00221*
X01791Y00226*
X01785Y00229*
G37*
G36*
X01894Y0013D02*
X0188D01*
Y00115*
X01886Y00118*
X01891Y00123*
X01894Y0013*
G37*
G36*
X0187Y00169D02*
X01856D01*
Y0015*
Y00127*
X01856Y00126*
X01858Y00123*
X01863Y00118*
X0187Y00115*
Y00135*
X01875*
Y0014*
X01894*
X01891Y00146*
X01886Y00151*
X01878Y00154*
X01871*
X0187Y00154*
Y00169*
G37*
G36*
X0192Y00114D02*
X01913Y00111D01*
X01908Y00106*
X01905Y001*
X0192*
Y00114*
G37*
G36*
Y0009D02*
X01905D01*
X01908Y00083*
X01913Y00078*
X0192Y00075*
Y0009*
G37*
G36*
X01821Y00051D02*
X01805D01*
Y00037*
X01821*
Y00051*
G37*
%LNrelia-3*%
%LPD*%
G54D10*
X01702Y00195D03*
Y00141D03*
X0173D03*
Y00195D03*
G54D11*
X0167Y00178D03*
Y00158D03*
X01761Y00138D03*
Y00158D03*
Y00178D03*
Y00197D03*
X0167Y00138D03*
Y00197D03*
G54D12*
X021Y0209D03*
X02149D03*
X0205D03*
X02164Y00199D03*
X01763Y02088D03*
X01616D03*
X01714D03*
X01665D03*
X02115Y00199D03*
X02065D03*
G54D13*
X01977Y02216D03*
X02222D03*
X01992Y00073D03*
X02237D03*
G54D14*
X0011Y0039D03*
Y00995D03*
Y0029D03*
Y0049D03*
Y0059D03*
Y0069D03*
Y0079D03*
Y0089D03*
G54D15*
X00276Y00261D03*
Y01001D03*
G54D16*
X00365Y00435D03*
Y00356D03*
Y00513D03*
Y00671D03*
Y00749D03*
Y00828D03*
Y00907D03*
Y00592D03*
G54D17*
X00751Y0013D03*
X00558D03*
G54D18*
X00553Y0059D03*
X00513D03*
G54D19*
X00565Y00812D03*
X00602D03*
X00527D03*
Y00717D03*
X00565D03*
X00602D03*
G54D20*
X0067Y0051D03*
X00915Y00771D03*
X00584Y01355D03*
X00834Y0111D03*
X013Y0173D03*
X0121Y0194D03*
X01291Y02075D03*
X01545Y00495D03*
X0206Y01415D03*
X02194Y02005D03*
X02225D03*
X01179Y0194D03*
X00639Y0051D03*
X00865Y0111D03*
X01269Y0173D03*
X02029Y01415D03*
X00615Y01355D03*
X00883Y00771D03*
X01514Y00495D03*
X0126Y02075D03*
G54D21*
X00605Y01086D03*
X00804Y00729D03*
X00345Y01421D03*
X00605Y0112D03*
X00804Y00762D03*
X00345Y01388D03*
G54D22*
X00749Y0073D03*
X01295Y00565D03*
X0044Y01325D03*
X00655Y01089D03*
X0085Y0162D03*
X0137Y01775D03*
X01065Y0179D03*
X01115D03*
X01355Y01869D03*
X01385Y0213D03*
X0146Y00625D03*
X01765Y004D03*
X02125Y00929D03*
X01565Y00974D03*
X01595Y01635D03*
X01455Y01875D03*
X0156D03*
X01935Y0184D03*
X01955Y01164D03*
X02125Y0096D03*
X01385Y02099D03*
X01955Y01195D03*
X01595Y01604D03*
X01295Y00534D03*
X01765Y00369D03*
X0085Y01589D03*
X0137Y01744D03*
X0146Y00594D03*
X01565Y01005D03*
X01935Y01809D03*
X00749Y00761D03*
X0044Y01294D03*
X00655Y0112D03*
X01065Y01759D03*
X01115D03*
X01455Y01844D03*
X0156D03*
X01355Y019D03*
G54D23*
X00769Y00835D03*
X00789D03*
X0075D03*
X00769Y00907D03*
X00789D03*
X0075D03*
G54D24*
X00895Y00079D03*
Y0039D03*
Y00279D03*
Y0019D03*
G54D25*
X01013Y00135D03*
Y00234D03*
Y00155D03*
Y00175D03*
Y00194D03*
Y00214D03*
X01126Y00234D03*
Y00214D03*
Y00194D03*
Y00175D03*
Y00155D03*
Y00135D03*
G54D26*
X0107Y00185D03*
G54D27*
X01089Y0007D03*
X0105D03*
G54D28*
X01195Y00213D03*
X008Y01623D03*
X017Y00046D03*
X018Y00056D03*
X0182Y00403D03*
X01905Y01156D03*
X01875Y01843D03*
X01905Y01193D03*
X018Y00093D03*
X0182Y00366D03*
X008Y01586D03*
X01875Y01806D03*
X017Y00083D03*
X01195Y00176D03*
G54D29*
X0128Y00265D03*
Y00304D03*
G54D30*
X014Y00325D03*
X01369D03*
G54D31*
X00895Y00535D03*
X01154D03*
G54D32*
X00946Y00634D03*
X01103D03*
X00985D03*
X01025D03*
X01064D03*
G54D33*
X00923Y00831D03*
X00581Y0141D03*
X00826Y0117D03*
X01508Y0099D03*
X00885Y00831D03*
X00618Y0141D03*
X01471Y0099D03*
X00863Y0117D03*
G54D34*
X0129Y00402D03*
X014Y00602D03*
Y00567D03*
X0129Y00437D03*
G54D35*
X00246Y01313D03*
Y01226D03*
X00295Y01313D03*
Y01226D03*
X00393D03*
X00344D03*
Y01313D03*
X00393D03*
G54D36*
X00684Y01285D03*
X00585D03*
X00664D03*
X00625D03*
X00644Y01194D03*
X00605Y01285D03*
X00644D03*
X00684Y01194D03*
X00625D03*
X00565Y01285D03*
Y01194D03*
X00585D03*
X00605D03*
X00664D03*
G54D37*
X00054Y01602D03*
G54D38*
X00072Y02133D03*
G54D39*
X00235Y02133D03*
G54D40*
X00648Y01972D03*
Y01885D03*
Y02058D03*
Y02015D03*
Y01928D03*
Y01799D03*
Y01755D03*
Y01842D03*
Y02096D03*
G54D41*
X00648Y01694D03*
X00479Y02133D03*
G54D42*
X00929Y01148D03*
Y01601D03*
X0154Y01581D03*
Y01522D03*
Y01502D03*
X00929Y01561D03*
Y01128D03*
Y01581D03*
X0154Y01601D03*
X00929Y01207D03*
Y01187D03*
X0154D03*
Y01168D03*
Y01266D03*
X00929Y01286D03*
X0154Y01404D03*
Y01561D03*
Y01542D03*
Y01483D03*
Y01463D03*
Y01443D03*
Y01424D03*
Y01384D03*
Y01365D03*
Y01345D03*
Y01325D03*
Y01305D03*
Y01286D03*
Y01246D03*
Y01227D03*
Y01207D03*
Y01148D03*
Y01128D03*
X00929Y01168D03*
Y01227D03*
Y01246D03*
Y01266D03*
Y01305D03*
Y01325D03*
Y01345D03*
Y01365D03*
Y01404D03*
Y01424D03*
Y01443D03*
Y01463D03*
Y01483D03*
Y01502D03*
Y01522D03*
Y01542D03*
Y01384D03*
G54D43*
X01116Y0167D03*
X01294D03*
X01451Y01059D03*
X01097D03*
X01077D03*
X01372Y0167D03*
X01274D03*
X01471Y01059D03*
X01077Y0167D03*
X01097D03*
X01254Y01059D03*
X01294D03*
X01274D03*
X01353Y0167D03*
X00998Y01059D03*
X01333D03*
X01353D03*
X01372D03*
X01412D03*
X01313D03*
X01235D03*
X01215D03*
X01195D03*
X01175D03*
X01156D03*
X01136D03*
X01116D03*
X01038D03*
X01018Y0167D03*
X01038D03*
X01057D03*
X01136D03*
X01156D03*
X01175D03*
X01195D03*
X01215D03*
X01235D03*
X01254D03*
X01313D03*
X01333D03*
X01392D03*
X01412D03*
X01431D03*
X01451D03*
X01471D03*
X00998D03*
X01392Y01059D03*
X01018D03*
X01431D03*
X01057D03*
G54D44*
X01073Y0184D03*
X01961Y0175D03*
X01928D03*
X01106Y0184D03*
G54D45*
X01117Y02065D03*
X00732Y01775D03*
X0073Y0183D03*
Y0188D03*
X00742Y02015D03*
X0073Y02095D03*
X01157Y01725D03*
X0192Y0169D03*
X00497Y01145D03*
X00892Y00936D03*
X00717Y0136D03*
X00682D03*
X00707Y02015D03*
X00697Y01775D03*
X00694Y0183D03*
Y02095D03*
Y0188D03*
X00856Y00936D03*
X01192Y01725D03*
X01884Y0169D03*
X01082Y02065D03*
X00532Y01145D03*
G54D46*
X01215Y02296D03*
X01035D03*
Y02133D03*
X01215D03*
G54D47*
X01485Y00081D03*
Y00198D03*
G54D48*
X01605Y00088D03*
X01645Y00311D03*
X01605Y00121D03*
X01645Y00278D03*
G54D49*
X01748Y0027D03*
X02053Y01475D03*
X01711Y0027D03*
X02016Y01475D03*
G54D50*
X0152Y00312D03*
Y00347D03*
G54D51*
X0146Y00311D03*
X0152Y00603D03*
X0146Y00348D03*
X0152Y00566D03*
G54D52*
X01425Y00419D03*
X01464D03*
X01425Y0049D03*
X01444Y00419D03*
X01464Y0049D03*
X01444D03*
X01405D03*
G54D53*
X01435Y00455D03*
G54D54*
X01851Y0015D03*
X02088Y0049D03*
X02093Y00705D03*
X01818Y0015D03*
X02121Y0049D03*
X02126Y00705D03*
G54D55*
X01835Y00236D03*
Y00203D03*
G54D56*
X02089Y0059D03*
X0199D03*
X02089Y00552D03*
Y00627D03*
X0199Y00552D03*
Y00627D03*
G54D57*
X018Y00812D03*
Y00887D03*
G54D58*
X0189Y00808D03*
Y00891D03*
G54D59*
X02197Y00731D03*
Y00479D03*
Y0051D03*
Y00699D03*
G54D60*
X02195Y00846D03*
X0147Y02193D03*
X0233Y02088D03*
Y01971D03*
X02195Y00963D03*
X0147Y02076D03*
G54D61*
X01845Y01271D03*
X01795Y01478D03*
X01895Y01271D03*
X01945Y01478D03*
X01845D03*
X01895D03*
X01795Y01271D03*
X01945D03*
G54D62*
X0176Y01675D03*
G54D63*
X01681Y01618D03*
X01838Y01693D03*
Y01656D03*
Y01618D03*
X01681Y01656D03*
Y01693D03*
Y01731D03*
X01838D03*
G54D64*
X01543Y0222D03*
X01836D03*
G54D65*
X01755Y023D03*
X02045D03*
X0217D03*
X016D03*
X02105D03*
X01705D03*
X01655D03*
G54D66*
X0216Y01381D03*
X02122Y01458D03*
G54D67*
X02288Y01516D03*
X0229Y01139D03*
Y00991D03*
Y01188D03*
Y01041D03*
Y01238D03*
Y0109D03*
X02288Y01565D03*
Y01614D03*
Y01663D03*
G54D68*
X0242Y01443D03*
Y01736D03*
G54D69*
X02413Y0184D03*
X02296D03*
G54D70*
X02416Y00919D03*
Y0131D03*
G54D71*
X02215Y01762D03*
X01875Y00372D03*
X02215Y01727D03*
X01875Y00407D03*
G54D72*
X02199Y0119D03*
X02198Y0124D03*
X0223Y0119D03*
X0223Y0124D03*
G54D73*
X01385Y00293D03*
Y00356D03*
G54D74*
X01595Y00169D03*
Y002D03*
G54D75*
X01745Y0032D03*
X01714D03*
G54D76*
X0152Y00397D03*
X01615Y01752D03*
X0164Y01537D03*
X01615Y01787D03*
X00405Y01177D03*
X0035D03*
Y01142D03*
X00405D03*
X01212Y00335D03*
X0152Y00432D03*
X0164Y01572D03*
X021Y01987D03*
Y02022D03*
X01177Y00335D03*
G54D77*
X01405Y00419D03*
G54D78*
X02197Y00536D03*
Y00654D03*
Y00673D03*
Y00555D03*
Y00595D03*
Y00634D03*
Y00575D03*
Y00614D03*
G54D79*
X0073Y02145D03*
X00694D03*
G54D80*
X02064Y003D03*
X02115D03*
X0175Y0095D03*
X00579Y0051D03*
X0054D03*
X0186Y0096D03*
X01899D03*
X01789Y0095D03*
X02025Y003D03*
X02154D03*
G54D81*
X0136Y00479D03*
Y0051D03*
X01185Y0013D03*
Y00099D03*
G54D82*
X00815Y00841D03*
X00723Y009D03*
Y00861D03*
Y0088D03*
X00815Y009D03*
Y0088D03*
Y00861D03*
X00723Y00841D03*
G54D83*
X01212Y00275D03*
X01177D03*
G54D84*
X01315Y00078D03*
Y00171D03*
G54D85*
X0223Y01573D03*
Y01606D03*
G54D86*
X02159Y0154D03*
Y01639D03*
X0198Y0154D03*
Y01639D03*
G54D87*
X01289Y01875D03*
X012Y01814D03*
X01289D03*
X012Y01875D03*
G54D88*
X01554Y01775D03*
X01455D03*
G54D89*
X00865Y01329D03*
Y0129D03*
X01355Y00965D03*
X0141D03*
X01355Y01004D03*
X0141D03*
X0079Y0172D03*
X00845Y01774D03*
Y01735D03*
X009Y01809D03*
Y0177D03*
X00955Y01809D03*
Y0177D03*
X0079Y01759D03*
G54D90*
X0211Y00405D03*
X01969D03*
G54D91*
X01019Y00995D03*
X0098D03*
G54D92*
X00567Y0035D03*
X00742D03*
G54D93*
X00549Y0124D03*
X007D03*
G54D94*
X02197Y01458D03*
G54D95*
X02025Y00275D02*
Y003D01*
X0196Y00275D02*
X02025D01*
X02064Y003D02*
Y00349D01*
X0207Y00355*
X02028Y00271D02*
X02063Y00236D01*
Y00201D02*
X02065Y00199D01*
X02063Y00201D02*
Y00236D01*
X00174Y0036D02*
X00185Y0035D01*
X00139Y0036D02*
X00174D01*
X0011Y0039D02*
X00139Y0036D01*
X00276Y00261D02*
X00303D01*
X00345Y0022*
X0011Y0039D02*
X00139Y00419D01*
X00174*
X00175Y0042*
X00225Y00465D02*
X00246D01*
X0024Y0041D02*
X00251D01*
X00276Y00435*
X00365*
X00246Y00465D02*
X00276Y00435D01*
X00695Y00095D02*
X00695Y00095D01*
X00718*
X00751Y00128*
Y0013*
X00855Y00096D02*
X00872Y00079D01*
X00895*
X00855Y00096D02*
Y00125D01*
X00695Y0018D02*
X00703D01*
X00751Y00131*
X00345Y0022D02*
X0036D01*
X00751Y0013D02*
Y00131D01*
X00845Y0035D02*
X00851Y00356D01*
Y00373*
X00868Y0039*
X00895*
X00283Y00995D02*
X0036D01*
X00276Y01001D02*
X00283Y00995D01*
X00895Y00079D02*
X00902D01*
X0092Y00096*
Y0012*
X00938Y00351D02*
X0094Y0035D01*
X01089Y0007D02*
X0111D01*
X00921Y0039D02*
X00938Y00373D01*
Y00351D02*
Y00373D01*
X00895Y0039D02*
X00921D01*
X00895Y00535D02*
X009Y0053D01*
X0094*
X0111Y00535D02*
X01154D01*
X01215Y0041D02*
X01222Y00402D01*
X01105Y0053D02*
X0111Y00535D01*
X01222Y00402D02*
X0129D01*
X014Y00455D02*
X01435D01*
X0126Y0059D02*
X0127D01*
X01295Y00565*
X00946Y00634D02*
X00948Y00632D01*
Y00591D02*
X0097Y0057D01*
X00948Y00591D02*
Y00632D01*
X014Y00602D02*
Y00602D01*
X00082Y01609D02*
X00105Y01586D01*
Y01565D02*
Y01586D01*
X00084Y02095D02*
Y02095D01*
X00083Y02096D02*
X00084Y02095D01*
X00073Y02133D02*
X00083Y02123D01*
Y02096D02*
Y02123D01*
X00072Y02133D02*
X00073D01*
X00235Y02137D02*
X00241Y02143D01*
X00235Y02133D02*
Y02137D01*
X00241Y02143D02*
X00263D01*
X00275Y02155*
X01385Y0213D02*
Y02185D01*
X0177Y00045D02*
X0178Y00055D01*
X0152Y00603D02*
Y00604D01*
X01523Y00608*
X01764Y00401D02*
X01765Y004D01*
X01764Y00401D02*
Y0042D01*
X0176Y00425D02*
X01764Y0042D01*
X01545Y00495D02*
X0157Y0047D01*
Y0046D02*
Y0047D01*
X01523Y00608D02*
X01548D01*
X01565Y00625*
X0178Y00055D02*
X01799D01*
X018Y00056*
X01815Y00445D02*
X0182Y0044D01*
Y00403D02*
Y0044D01*
X01925Y00095D02*
X01926Y00093D01*
X01992*
X02175Y0011D02*
X02191Y00093D01*
X02237*
X02164Y00223D02*
X02166Y00225D01*
X02164Y00219D02*
Y00223D01*
X02165Y00445D02*
X02185Y00465D01*
Y00477*
X02166Y00225D02*
X022D01*
X02185Y00477D02*
X02186Y00479D01*
X02065Y00495D02*
X0207Y0049D01*
X02067Y006D02*
X02077Y0059D01*
X0206Y006D02*
X02067D01*
X0207Y0049D02*
X02088D01*
X02077Y0059D02*
X02089D01*
X02195Y00733D02*
X02197Y00731D01*
X02156Y00733D02*
X02195D01*
X0215Y0074D02*
X02156Y00733D01*
X02186Y00479D02*
X02197D01*
X02115Y00875D02*
X02125Y00885D01*
Y00929*
X02195Y00846D02*
X02243D01*
X02245Y00845*
X0234Y00919D02*
X02416D01*
X0234Y0092D02*
X0234Y00919D01*
X01905Y01135D02*
Y01156D01*
X01465Y02198D02*
X0147Y02193D01*
X01465Y02198D02*
Y02235D01*
X01543Y0222D02*
X01594D01*
X01595Y0222*
X01763Y02088D02*
Y0211D01*
X01755Y0222D02*
X01755Y0222D01*
X01763Y0211D02*
X0178Y02126D01*
Y02135*
X01755Y0222D02*
X01836D01*
X01755Y023D02*
X01785Y0227D01*
Y0226D02*
Y0227D01*
X01955Y01135D02*
Y01164D01*
X02061Y01398D02*
X02065Y01395D01*
X0229Y01139D02*
X02345D01*
X0216Y0133D02*
Y01381D01*
X02061Y01398D02*
Y01414D01*
X0229Y01485D02*
Y01514D01*
X02288Y01516D02*
X0229Y01514D01*
X02345Y01139D02*
X0236Y01125D01*
X02345Y0131D02*
X02415D01*
X02416Y0131*
X0235Y01445D02*
X02418D01*
X02395Y017D02*
Y01726D01*
X02404Y01736*
X02418Y01445D02*
X0242Y01443D01*
X02404Y01736D02*
X0242D01*
X0205Y0209D02*
Y02144D01*
X02023Y02216D02*
X02025Y02215D01*
X0205Y02145D02*
X0205Y02144D01*
X01977Y02216D02*
X02023D01*
X02054Y0226D02*
X02055Y0226D01*
X02054Y0226D02*
Y0229D01*
X02045Y023D02*
X02054Y0229D01*
X02395Y0178D02*
X02401Y01786D01*
Y01828*
X02413Y0184*
X02222Y02189D02*
Y02216D01*
Y02189D02*
X02231Y0218D01*
X0215Y02215D02*
X02151Y02216D01*
X02222*
X02231Y0218D02*
X0227D01*
X0144Y00645D02*
Y00655D01*
Y00645D02*
X0146Y00625D01*
X01377Y00625D02*
X014Y00602D01*
X0233Y01971D02*
Y01971D01*
X02288Y0193D02*
X0233Y01971D01*
X02265Y0193D02*
X02288D01*
X0229Y01833D02*
X02296Y0184D01*
X0229Y018D02*
Y01833D01*
X02215Y01762D02*
X02237D01*
X02245Y0177*
X02165Y02295D02*
X0217Y023D01*
X02165Y02265D02*
Y02295D01*
X02145Y02145D02*
X02147Y02142D01*
X02225Y01965D02*
X02225Y01965D01*
Y02005*
X02215Y01762D02*
X02215Y01762D01*
X02147Y02092D02*
X02149Y0209D01*
X02147Y02092D02*
Y02142D01*
X0229Y00991D02*
X02312D01*
X02165Y0113D02*
X02199Y01164D01*
X02324Y0098D02*
X02335D01*
X02312Y00991D02*
X02324Y0098D01*
X02199Y01164D02*
Y0119D01*
X02198Y0119D02*
X02199Y0119D01*
X02198Y0119D02*
Y0124D01*
X0218Y00977D02*
Y01009D01*
X0218Y0101D02*
X0218Y01009D01*
Y00977D02*
X02195Y00963D01*
X021Y0096D02*
X02124D01*
X02125Y0096*
X01616Y02088D02*
Y0211D01*
X01614Y02112D02*
X01616Y0211D01*
X01592Y02112D02*
X01614D01*
X0203Y01325D02*
X0204Y01315D01*
X01934Y01325D02*
X0203D01*
X01955Y01195D02*
X01995D01*
X01895Y01285D02*
X01934Y01325D01*
X01895Y01271D02*
Y01285D01*
X0159Y0229D02*
X016Y023D01*
X0159Y02275D02*
Y0229D01*
X01585Y0227D02*
X0159Y02275D01*
X0158Y02125D02*
X01592Y02112D01*
X01465Y02071D02*
X0147Y02076D01*
X01465Y0204D02*
Y02071D01*
X01385Y02065D02*
Y02099D01*
X01995Y01195D02*
X0202Y0122D01*
X01905Y01193D02*
X01952D01*
X01955Y01195*
X02085Y00945D02*
X021Y0096D01*
X01836Y00093D02*
X0184Y0009D01*
X018Y00093D02*
X01836D01*
X0198Y01475D02*
X02016D01*
X00215Y0089D02*
X00276Y00828D01*
X018Y0015D02*
X01818D01*
X01105Y00636D02*
Y00655D01*
X01103Y00634D02*
X01105Y00636D01*
X0115Y00699D02*
Y007D01*
X01105Y00655D02*
X0115Y00699D01*
X01835Y00202D02*
Y00203D01*
X01812Y0018D02*
X01835Y00202D01*
X01795Y0018D02*
X01812D01*
X0199Y0059D02*
X01992Y00588D01*
X02018*
X0203Y00373D02*
Y00576D01*
X02018Y00588D02*
X0203Y00576D01*
X01873Y00372D02*
X01875D01*
X01876*
X01765Y00369D02*
X01816D01*
X02003Y00347D02*
X0203Y00373D01*
X01994Y00338D02*
X02003Y00347D01*
X01876Y00372D02*
X01911Y00338D01*
X02003Y00347D02*
D01*
X01911Y00338D02*
X01994D01*
X01867Y00366D02*
X01873Y00372D01*
X01816Y00369D02*
X01819Y00366D01*
X0182D02*
X01867D01*
X01819D02*
X0182D01*
X01746Y0032D02*
Y0035D01*
X01765Y00369*
X0146Y00348D02*
X0146Y00348D01*
X01519*
X0152Y00347*
Y00397*
X01519Y00398D02*
X0152Y00397D01*
X01506Y00398D02*
X01519D01*
X0149Y00415D02*
X01506Y00398D01*
X01385Y00356D02*
Y00415D01*
Y00356D02*
X01386Y00354D01*
X01412D02*
X01417Y00348D01*
X01386Y00354D02*
X01412D01*
X01417Y00348D02*
X0146D01*
X00139Y0026D02*
X00159D01*
X0011Y0029D02*
X00139Y0026D01*
X00159D02*
X0017Y0025D01*
X0011Y0029D02*
X0012Y003D01*
X00175*
X0133Y0047D02*
X0135D01*
X01315Y00485D02*
X0133Y0047D01*
X0135D02*
X0136Y00479D01*
X02064Y003D02*
X02115D01*
X02Y01415D02*
X02029D01*
X0197Y01385D02*
X02Y01415D01*
X00112Y00592D02*
X00365D01*
X0011Y0059D02*
X00112Y00592D01*
X01235Y0047D02*
X01257D01*
X0129Y00437*
Y00437D02*
Y00437D01*
X0124Y0053D02*
X01244Y00534D01*
X01295*
X0224Y00535D02*
X0225Y00545D01*
Y0067*
X01212Y00275D02*
X01213D01*
X0123Y00258*
Y00255D02*
Y00258D01*
X01212Y00335D02*
X01213Y00335D01*
X0123*
X0124Y00345*
X01279Y00078D02*
X01315D01*
X0127Y00087D02*
X01279Y00078D01*
X0127Y00087D02*
Y0011D01*
X01315Y00078D02*
X0134D01*
X0135Y00087*
Y0011*
X01478Y00198D02*
X01485D01*
X0144Y0016D02*
X01478Y00198D01*
X0144Y0016D02*
Y0016D01*
X01485Y00198D02*
X01488Y00195D01*
X01535*
X02351Y01663D02*
X0237Y01645D01*
X02288Y01663D02*
X02351D01*
X02266D02*
X02288D01*
X02216Y01713D02*
X02266Y01663D01*
X02216Y01713D02*
Y01727D01*
X02216Y01727D02*
X02216Y01727D01*
X02215Y01727D02*
X02216D01*
X021Y0209D02*
Y02112D01*
X02105Y02117*
Y023*
X01705Y0216D02*
X01715Y0215D01*
X01705Y0216D02*
Y023D01*
X01655Y0216D02*
Y023D01*
X00365Y00907D02*
X00415D01*
X00425Y00917*
Y00955*
X0018Y01065D02*
X003D01*
X0011Y00995D02*
X0018Y01065D01*
X00276Y00828D02*
X00375D01*
X0011Y0089D02*
X00215D01*
X0011Y0079D02*
X00139Y0076D01*
X00224*
X0024Y00745*
X0011Y0069D02*
X00125Y00675D01*
X0022*
X00219Y00513D02*
X00365D01*
X00196Y0049D02*
X00219Y00513D01*
X0011Y0049D02*
X00196D01*
X00985Y00685D02*
X0099Y0069D01*
X00985Y00634D02*
Y00685D01*
X01482Y0047D02*
X0152Y00432D01*
X0148Y0047D02*
X01482D01*
X0136Y0051D02*
X01384D01*
X01385Y0051*
X02205Y003D02*
X0221Y00295D01*
X02154Y003D02*
X02205D01*
X02115Y00219D02*
Y00241D01*
X02151Y00277*
Y00296*
X02154Y003*
X02167Y00508D02*
X02195D01*
X02153Y00494D02*
X02167Y00508D01*
X02153Y00478D02*
Y00494D01*
X02134Y00458D02*
X02153Y00478D01*
X02134Y00428D02*
Y00458D01*
X0211Y00405D02*
X02134Y00428D01*
X0211Y00405D02*
X0211D01*
X01967Y00407D02*
X01969Y00405D01*
X01875Y00407D02*
X01967D01*
X01015Y0007D02*
X0105D01*
X00984Y001D02*
X01015Y0007D01*
X00984Y001D02*
Y0019D01*
X00895D02*
X00984D01*
X00742Y00338D02*
X00774Y00305D01*
X00803Y00279D02*
X00895D01*
X00742Y00338D02*
Y0035D01*
X00774Y00305D02*
X00776D01*
X00803Y00279*
X00895Y0019D02*
Y00279D01*
X005Y0008D02*
X0051D01*
X00558Y00128*
Y0013*
X0049Y00165D02*
X0049Y00164D01*
X00525*
X00558Y00131*
Y0013D02*
Y00131D01*
X0051Y00285D02*
X00514D01*
X00567Y00338*
Y0035*
X0051Y0039D02*
X00535D01*
X00567Y00357*
Y0035D02*
Y00357D01*
X00425Y0031D02*
Y00346D01*
X00415Y00356D02*
X00425Y00346D01*
X00365Y00356D02*
X00415D01*
X0036Y00315D02*
Y00351D01*
X00365Y00356*
G54D96*
X01702Y00127D02*
Y00152D01*
X01685Y0011D02*
X01702Y00127D01*
X01685Y0011D02*
Y0011D01*
G54D97*
X01739Y00105D02*
X0174Y00105D01*
X0173Y00115D02*
X0174Y00105D01*
X0173Y00115D02*
Y00152D01*
X0118Y00224D02*
Y00239D01*
X01192Y00213D02*
X01195D01*
X0118Y00224D02*
X01192Y00213D01*
X0118Y0024D02*
X0118Y00239D01*
X01319Y00265D02*
X0132Y00265D01*
X0128Y00265D02*
X01319D01*
X0128Y00265D02*
X0128Y00265D01*
X0134Y00325D02*
X01369D01*
X01425Y0008D02*
X01426D01*
X01427Y00081D02*
X01485D01*
X01426Y0008D02*
X01427Y00081D01*
X01491D02*
X01514Y00104D01*
X01565Y0006D02*
X01565Y0006D01*
X01578*
X01605Y00087*
X01484Y00275D02*
Y00286D01*
Y00275D02*
X01485Y00275D01*
X01418Y0031D02*
X0142D01*
X0146Y0031D02*
X01484Y00286D01*
X0146Y0031D02*
Y00311D01*
X01514Y00118D02*
X0152Y00123D01*
X01514Y00104D02*
Y00118D01*
X0152Y00123D02*
Y00125D01*
X01544Y00285D02*
X01545Y00285D01*
X01544Y00285D02*
Y00288D01*
X01645Y00045D02*
X01646D01*
X01647Y00046*
X01605Y00087D02*
Y00088D01*
X01647Y00046D02*
X017D01*
X014Y00325D02*
X01403D01*
X01418Y0031*
X0152Y00312D02*
X01544Y00288D01*
X01688Y01618D02*
X01688Y01618D01*
Y01592D02*
Y01618D01*
X01681Y01618D02*
X01688D01*
X01688Y01592D02*
X0169Y01591D01*
Y0159D02*
Y01591D01*
X0173Y00195D02*
Y0023D01*
X01375Y00275D02*
Y00284D01*
X01385Y00293*
X01375Y00275D02*
X01375Y00275D01*
X01702Y00195D02*
Y00258D01*
Y00184D02*
Y00195D01*
Y00258D02*
X01711Y00267D01*
Y0027*
X01744Y00319D02*
X01745Y0032D01*
X01744Y0031D02*
Y00319D01*
X01739Y00304D02*
X01744Y0031D01*
X01739Y00304D02*
D01*
X01723Y00289D02*
X01739Y00304D01*
X01723Y00285D02*
Y00289D01*
X01711Y00272D02*
X01723Y00285D01*
X01595Y002D02*
X01619D01*
X01595Y002D02*
X01595Y002D01*
X01619D02*
X0162Y002D01*
X01671Y00083D02*
X017D01*
X0166Y00095D02*
X01671Y00083D01*
X01267Y00171D02*
X01315D01*
X0123Y00134D02*
X01267Y00171D01*
X0123Y0013D02*
Y00134D01*
X01199Y00099D02*
X0123Y0013D01*
X01185Y00099D02*
X01199D01*
X01279Y00305D02*
X0128Y00304D01*
X01177Y00305D02*
X01279D01*
X01177D02*
Y00334D01*
X01177Y00335D02*
X01177Y00334D01*
Y00275D02*
Y00305D01*
Y00275D02*
X01177Y00275D01*
X01152Y00225D02*
Y0025D01*
X01176Y00275D02*
X01177D01*
X01152Y0025D02*
X01176Y00275D01*
X01183Y00185D02*
X01192Y00176D01*
X01169Y00185D02*
X01183D01*
X01159Y00195D02*
X01169Y00185D01*
X0115Y00195D02*
X01159D01*
X01192Y00176D02*
X01195D01*
X01152Y00164D02*
X01183Y00133D01*
Y0013D02*
Y00133D01*
Y0013D02*
X01185D01*
X01144Y0012D02*
Y00135D01*
Y0012D02*
X01165Y00099D01*
X01185*
G54D98*
X00818Y01561D02*
Y01571D01*
X00802Y01586D02*
X00818Y01571D01*
Y01561D02*
X0082Y0156D01*
X00598Y01243D02*
X0066D01*
X00673Y0122D02*
X00683D01*
X0066Y01243D02*
X00683Y0122D01*
X00774*
X00585Y01265D02*
Y01285D01*
X00581Y01261D02*
X00585Y01265D01*
X00586Y01231D02*
D01*
X00598Y01243*
X00565Y01211D02*
X00586Y01231D01*
X00581Y01259D02*
Y01261D01*
X01115Y0179D02*
X01124Y018D01*
X01125*
X0044Y01325D02*
Y0134D01*
X00553Y0059D02*
X00585D01*
X00565Y00812D02*
Y0085D01*
X00689Y00529D02*
X00704D01*
X0067Y0051D02*
X00689Y00529D01*
X00704D02*
X00705Y0053D01*
X00605Y01065D02*
X00625Y01045D01*
X00605Y01065D02*
Y01086D01*
X00675Y01089D02*
X007Y01065D01*
X00774Y00705D02*
X00775D01*
X00804Y00728D02*
Y00729D01*
X00749Y0073D02*
X00774Y00705D01*
X00811Y00721D02*
X00825D01*
X00832Y00715D02*
X00835D01*
X00825Y00721D02*
X00832Y00715D01*
X00804Y00728D02*
X00811Y00721D01*
X00769Y00835D02*
Y0084D01*
X00769Y00836D02*
X00771Y00835D01*
X00769Y00836D02*
Y0084D01*
X00769Y0084D02*
X00769Y0084D01*
X00774*
X00771Y00835D02*
X00789D01*
X008Y0108D02*
X00801Y01081D01*
X01019Y00123D02*
X01025Y00117D01*
Y00115D02*
Y00117D01*
X01019Y00123D02*
Y00135D01*
X01011Y00234D02*
X01013D01*
Y00135D02*
X01019D01*
X01011Y00234D02*
Y00248D01*
X0101Y0025D02*
X01011Y00248D01*
X00915Y00771D02*
X0092Y00765D01*
Y00751D02*
Y00765D01*
X0091Y0087D02*
X00923Y00856D01*
Y00831D02*
Y00856D01*
X0092Y00751D02*
X00925Y00747D01*
Y00745D02*
Y00747D01*
X0032Y01425D02*
X00321Y01423D01*
X00343D02*
X00345Y01421D01*
X00321Y01423D02*
X00343D01*
X0055Y01407D02*
X00578D01*
X0067Y01265D02*
Y01267D01*
X00666Y01271D02*
X0067Y01267D01*
X00666Y01271D02*
Y01283D01*
X00655Y01089D02*
X00675D01*
X00785Y0116D02*
X00785D01*
X00795Y0117*
X0056Y01355D02*
X00584D01*
X00578Y01407D02*
X00581Y0141D01*
X00664Y01285D02*
X00666Y01283D01*
X00664Y01285D02*
X00684D01*
X00625D02*
Y01315D01*
X00595Y0168D02*
Y01682D01*
X0061Y01698*
X00659*
X00771Y01635D02*
X0078Y01626D01*
X0077Y01635D02*
X00771D01*
X00641Y0197D02*
X00651D01*
X00468Y02144D02*
Y02154D01*
Y02144D02*
X00479Y02133D01*
X00455Y02165D02*
X00456Y02163D01*
X0046D02*
X00468Y02154D01*
X00456Y02163D02*
X0046D01*
X00607Y01995D02*
X00621Y01981D01*
X0063D02*
X00641Y0197D01*
X00621Y01981D02*
X0063D01*
X00605Y01995D02*
X00607D01*
X00801Y01081D02*
X00806D01*
X00834Y0111*
X00795Y0117D02*
X00826D01*
X0093Y01149D02*
X00962D01*
X00929Y01148D02*
X0093Y01149D01*
X0078Y01626D02*
X00797D01*
X008Y01623*
X00845Y0165D02*
X00846Y01648D01*
Y01623D02*
X0085Y0162D01*
X00929Y01601D02*
X00947D01*
X00846Y01623D02*
Y01648D01*
X00962Y01149D02*
X00966Y01153D01*
X00968*
X00947Y01601D02*
X00951Y01605D01*
X00952*
X01117Y01634D02*
X01118Y01633D01*
X01294Y01631D02*
X01295Y0163D01*
X01294Y01631D02*
Y01669D01*
X01117Y01634D02*
Y01669D01*
X01116Y0167D02*
X01117Y01669D01*
X01294Y0167D02*
X01294Y01669D01*
X013Y01765D02*
X013Y01764D01*
Y0173D02*
X013Y0173D01*
X013Y0173D02*
Y01764D01*
X01389Y01775D02*
X01398Y01784D01*
X0137Y01775D02*
X01389D01*
X01041Y01796D02*
X01059D01*
X01065Y0179*
X01037Y018D02*
X01041Y01796D01*
X01035Y018D02*
X01037D01*
X01032Y01852D02*
X01035D01*
X01054Y01858D02*
X01072Y0184D01*
X01035Y01852D02*
X0104Y01858D01*
X01054*
X01072Y0184D02*
X01073D01*
X01117Y02065D02*
Y0209D01*
X0113Y02102*
X0121Y0194D02*
X0124D01*
X01291Y02048D02*
X0131Y0203D01*
X01291Y02048D02*
Y02075D01*
X01355Y01824D02*
Y01869D01*
X0113Y02102D02*
Y02105D01*
X01215Y02255D02*
Y02296D01*
X01291Y02075D02*
X01315Y02098D01*
Y021*
X01748Y0027D02*
Y00272D01*
X01645Y00311D02*
Y00312D01*
X01763Y00287D02*
Y00292D01*
X01748Y00272D02*
X01763Y00287D01*
Y00292D02*
X01765Y00294D01*
X01425Y00402D02*
Y00419D01*
X01435Y0039D02*
Y00392D01*
X01425Y00402D02*
X01435Y00392D01*
X01425Y00419D02*
X01425Y00419D01*
X01626Y0033D02*
X01645Y00312D01*
X01626Y0033D02*
Y00338D01*
X01625Y0034D02*
X01626Y00338D01*
X01765Y00775D02*
X01766Y00776D01*
Y00783*
X01851Y0015D02*
X01864Y00136D01*
X01873*
X01851Y0015D02*
X01851D01*
X01835Y00237D02*
X01842Y00245D01*
X01835Y00236D02*
Y00237D01*
X01842Y00245D02*
X01852D01*
X01857Y0025D02*
X0186D01*
X01852Y00245D02*
X01857Y0025D01*
X01873Y00136D02*
X01875Y00135D01*
X0184Y00775D02*
X01841Y00776D01*
X01858*
X01766Y00783D02*
X01796Y00812D01*
X018*
X0205Y00695D02*
X02052D01*
X02062Y00705*
X02093*
X01858Y00776D02*
X0189Y00808D01*
X01508Y00953D02*
X01515Y00947D01*
Y00945D02*
Y00947D01*
X01508Y00953D02*
Y0099D01*
X01568Y00946D02*
Y00971D01*
Y00946D02*
X0157Y00945D01*
X01565Y00974D02*
X01568Y00971D01*
X01504Y0158D02*
X01504Y01581D01*
X01539*
X0154Y01581*
X01595Y01635D02*
X01613Y01653D01*
X018Y01425D02*
Y01427D01*
X01845Y01271D02*
Y0134D01*
X01795Y01432D02*
X018Y01427D01*
X01795Y01432D02*
Y01478D01*
X01613Y01658D02*
X01615Y0166D01*
X01613Y01653D02*
Y01658D01*
X01398Y01784D02*
X014D01*
X01451Y01878D02*
X01455Y01875D01*
X01451Y01878D02*
Y01893D01*
X0145Y01895D02*
X01451Y01893D01*
X01535Y019D02*
X0156Y01875D01*
X01535Y019D02*
X01535D01*
X01755Y01772D02*
X0176Y01767D01*
Y01675D02*
Y01767D01*
X01755Y01772D02*
Y01775D01*
X01841Y01858D02*
X01857D01*
X0184Y0186D02*
X01841Y01858D01*
X01872Y01843D02*
X01875D01*
X01935Y0184D02*
X01959D01*
X01857Y01858D02*
X01872Y01843D01*
X02061Y01414D02*
X02061Y01415D01*
X02053Y01475D02*
X02075D01*
X01961Y0175D02*
X01968Y01756D01*
X01976*
X01959Y0184D02*
X01968Y0185D01*
X01976Y01756D02*
X01995Y01775D01*
X01968Y0185D02*
X0197D01*
X0219Y01932D02*
X02194Y01936D01*
X0219Y0193D02*
Y01932D01*
X02194Y01936D02*
Y02005D01*
X0233Y02088D02*
X02345Y02103D01*
Y0213*
X01451Y0106D02*
Y01095D01*
Y0106D02*
X01451Y01059D01*
X0145Y01095D02*
X01451Y01095D01*
X0173Y00152D02*
Y00184D01*
X00765Y01735D02*
X00783Y01753D01*
X00765Y0171D02*
Y01735D01*
X005Y01445D02*
X00765Y0171D01*
X01128Y01745D02*
Y01746D01*
X01115Y01759D02*
X01128Y01746D01*
X01115Y01759D02*
D01*
X01123Y01863D02*
X01124Y01865D01*
X01114Y01847D02*
X01123Y01856D01*
X01108Y0184D02*
X01114Y01846D01*
Y01847*
X01123Y01856D02*
Y01863D01*
X01107Y0184D02*
X01108D01*
X00845Y00997D02*
X00977D01*
X0098Y00995*
X01097Y01059D02*
X01098Y0106D01*
Y01088*
X02268Y01041D02*
X0229D01*
X02247Y01061D02*
X02268Y01041D01*
X01803Y01061D02*
X02247D01*
X01498Y0108D02*
X01785D01*
X01803Y01061*
X01141Y01132D02*
X01446D01*
X01098Y01088D02*
X01141Y01132D01*
X01446D02*
X01498Y0108D01*
X02354Y0104D02*
X02355Y0104D01*
X02291Y0104D02*
X02354D01*
X0229Y01041D02*
X02291Y0104D01*
X01077Y01059D02*
Y01093D01*
X01518Y01102D02*
X01802D01*
X02285Y01085D02*
X0229Y0109D01*
X01802Y01102D02*
X0182Y01085D01*
X02285*
X01471Y0115D02*
X01518Y01102D01*
X01134Y0115D02*
X01471D01*
X01077Y01093D02*
X01134Y0115D01*
X0229Y0109D02*
X02297Y01083D01*
X02333*
X02337Y0108*
X0234*
X00455Y01153D02*
X005Y01198D01*
Y01445*
X00443Y01276D02*
X00445Y01275D01*
X0044Y01294D02*
X00443Y01291D01*
Y01276D02*
Y01291D01*
X01471Y01059D02*
X01489D01*
X01471Y01059D02*
X01471Y01059D01*
X01715Y00585D02*
X01785D01*
X01156Y01018D02*
X01407Y00767D01*
X0151Y0079D02*
X01715Y00585D01*
X01417Y0079D02*
X0151D01*
X01497Y00767D02*
X01695Y0057D01*
X01407Y00767D02*
X01497D01*
X01176Y0103D02*
X01417Y0079D01*
X01605Y00121D02*
Y00122D01*
X01595Y00132D02*
X01605Y00122D01*
X01595Y00132D02*
Y00169D01*
X01635*
X01645Y0016*
X01673Y00278D02*
X01714Y0032D01*
X01645Y00278D02*
X01673D01*
X00315Y01388D02*
X00345D01*
X00344Y01183D02*
X0035Y01177D01*
X00315D02*
X0035D01*
X00405D02*
X00435Y01207D01*
Y0121*
X00929Y01207D02*
X00962D01*
X0098Y01225*
X0038Y01095D02*
X00405Y0112D01*
Y01142*
X01464Y00415D02*
X01464Y00415D01*
X01464Y00415D02*
Y00419D01*
X01464Y00415D02*
X0149D01*
X01389Y00419D02*
X01405D01*
X01385Y00415D02*
X01389Y00419D01*
X01615Y01787D02*
X01617Y01785D01*
X01665*
X00865Y0111D02*
X00871Y01104D01*
Y01091D02*
Y01104D01*
X00875Y01085D02*
Y01087D01*
X00871Y01091D02*
X00875Y01087D01*
X00927Y01112D02*
Y01127D01*
X00928Y01128D02*
X00929D01*
X00927Y01127D02*
X00928Y01128D01*
X008Y01586D02*
X00802D01*
X0085Y01565D02*
Y01589D01*
X00895Y01582D02*
X00928D01*
X00892Y01585D02*
X00895Y01582D01*
X0089Y01585D02*
X00892D01*
X01405Y00561D02*
X01423D01*
X014Y00567D02*
X01405Y00561D01*
X00928Y01582D02*
X00929Y01581D01*
X01268Y01629D02*
Y01632D01*
X01273Y01637*
Y01669*
X01274Y0167*
X01372D02*
X01373Y01671D01*
Y01708*
X01262Y01757D02*
X01269Y0175D01*
X01262Y01757D02*
Y01759D01*
X01373Y01708D02*
X01375Y0171D01*
X01269Y0173D02*
Y0175D01*
X0137Y01744D02*
X0141D01*
X01425Y0049D02*
Y00517D01*
Y0049D02*
X01425Y0049D01*
X0142Y00522D02*
Y00525D01*
Y00522D02*
X01425Y00517D01*
X01423Y00561D02*
X01425Y0056D01*
X0146D02*
Y00594D01*
X0152Y00566D02*
X01553D01*
X01557Y0057D02*
X0156D01*
X01553Y00566D02*
X01557Y0057D01*
X01545Y01045D02*
X01565Y01025D01*
Y01005D02*
Y01025D01*
X01895Y01415D02*
X01895D01*
X01945Y01464*
X0159Y01575D02*
X01591Y01576D01*
Y01601D02*
X01595Y01604D01*
X01591Y01576D02*
Y01601D01*
X01838Y01731D02*
X0184Y01733D01*
X0183Y018D02*
X01832D01*
X01838Y01806*
X0192Y0167D02*
Y0169D01*
X01905Y01655D02*
X0192Y0167D01*
X0184Y01733D02*
X01868D01*
X0187Y01735*
X01945Y01464D02*
Y01478D01*
X01921Y01756D02*
X01928Y0175D01*
X01902Y01765D02*
X01911Y01756D01*
X01838Y01806D02*
X01875D01*
X019Y01765D02*
X01902D01*
X01911Y01756D02*
X01921D01*
X01935Y01809D02*
X01958D01*
X01962Y01805D02*
X01965D01*
X01958Y01809D02*
X01962Y01805D01*
X0058Y0194D02*
X00581Y01938D01*
X0062Y01894D02*
X0064D01*
X00648Y01885*
X00581Y01928D02*
Y01938D01*
Y01928D02*
X00615Y01895D01*
X0062D02*
X0062Y01894D01*
X00615Y01895D02*
X0062D01*
X0154Y01601D02*
Y01619D01*
X0154Y01601D02*
X0154Y01601D01*
X01625Y01515D02*
Y01516D01*
X01634Y01531D02*
X0164Y01537D01*
X01625Y01516D02*
X01634Y01525D01*
Y01531*
X0164Y01621D02*
X01675Y01656D01*
X0164Y01572D02*
Y01621D01*
X01539Y01542D02*
X0154Y01542D01*
X01504Y01542D02*
X01539D01*
X01503Y01543D02*
X01504Y01542D01*
X00514Y00624D02*
X00515Y00625D01*
X00514Y0059D02*
Y00624D01*
X00513Y0059D02*
X00514Y0059D01*
X00367Y0059D02*
X00513D01*
X00365Y00592D02*
X00367Y0059D01*
X00637Y00511D02*
Y00854D01*
Y00511D02*
X00639Y0051D01*
X00637Y00854D02*
X00845Y01062D01*
X00315Y01177D02*
Y01177D01*
X00305Y01165D02*
Y01167D01*
X00315Y01177*
X0093Y01188D02*
X00988D01*
X0099Y0119*
X00929Y01187D02*
X0093Y01188D01*
X00828Y00816D02*
Y00828D01*
Y00816D02*
X0083Y00815D01*
X00815Y00841D02*
X0082D01*
X00822Y00834D02*
X00828Y00828D01*
X0082Y00841D02*
X00822Y00839D01*
Y00834D02*
Y00839D01*
X00857Y0076D02*
X00863Y00765D01*
X00855Y0076D02*
X00857D01*
X00863Y00765D02*
X00878D01*
X00883Y00771*
X00885Y00831D02*
X00885D01*
X00856Y00853D02*
X00862D01*
X00855Y00855D02*
X00856Y00853D01*
X00862D02*
X00885Y00831D01*
X01098Y01671D02*
Y017D01*
X01097Y0167D02*
X01098Y01671D01*
Y017D02*
X0111Y01712D01*
Y01715*
X00892Y00936D02*
X00898Y0093D01*
X00904*
X00925Y0091*
X00801Y00765D02*
X00804Y00762D01*
X00801Y00765D02*
Y00788D01*
X008Y0079D02*
X00801Y00788D01*
X00655Y0112D02*
X00655Y0112D01*
X00689*
X0069Y0112*
X00605D02*
Y0112D01*
X00598Y01127D02*
X00605Y0112D01*
X00585Y01127D02*
X00598D01*
X00582Y0113D02*
X00585Y01127D01*
X0058Y0113D02*
X00582D01*
X00329Y01121D02*
X0035Y01142D01*
X0031Y0112D02*
X00311Y01121D01*
X00329*
X01065Y01735D02*
Y01759D01*
X01078Y01713D02*
X0108Y01715D01*
X01078Y01671D02*
Y01713D01*
X01077Y0167D02*
X01078Y01671D01*
X00727Y00774D02*
X00735Y00767D01*
X00744D02*
X00749Y00761D01*
X00735Y00767D02*
X00744D01*
X00725Y00774D02*
X00727D01*
X0075Y00812D02*
Y00835D01*
Y00812D02*
X00755Y00807D01*
Y00804D02*
Y00807D01*
X00497Y01119D02*
Y01145D01*
X00491Y01113D02*
X00497Y01119D01*
X00491Y0111D02*
Y01113D01*
X00644Y01194D02*
D01*
X0064Y01218D02*
Y0122D01*
X00644Y01194D02*
Y01214D01*
X0064Y01218D02*
X00644Y01214D01*
X00605Y01285D02*
Y01302D01*
X00718Y01331D02*
Y01358D01*
X00717Y0136D02*
X00718Y01358D01*
X00615Y01355D02*
X00645D01*
X00618Y0141D02*
X0065D01*
X00585Y01315D02*
X00586Y01313D01*
X00594D02*
X00605Y01302D01*
X00586Y01313D02*
X00594D01*
X01215Y0127D02*
Y01568D01*
Y0127D02*
X0123Y01255D01*
X01088Y02055D02*
X0109Y02053D01*
X01082Y02065D02*
X01088Y02059D01*
X0109Y02052D02*
Y02053D01*
X01102Y0204D02*
X01267D01*
X0109Y02052D02*
X01102Y0204D01*
X01088Y02055D02*
Y02059D01*
X01267Y0204D02*
X01317Y0199D01*
X01715*
X01675Y01656D02*
X01681D01*
X0126Y01215D02*
Y01425D01*
X01109Y0117D02*
X01509D01*
X01064Y01215D02*
X01109Y0117D01*
X02225Y00517D02*
X0224Y00531D01*
Y00535*
X00682Y01359D02*
X00683Y01361D01*
X00644Y01302D02*
X00682Y0134D01*
Y01359*
X00683Y01393D02*
X00685Y01395D01*
X00683Y01361D02*
Y01393D01*
X00565Y01194D02*
Y01211D01*
X00664D02*
X00673Y0122D01*
X00664Y01194D02*
Y01211D01*
X02204Y00517D02*
X02225D01*
Y00692D02*
X02247Y0067D01*
X0225*
X02197Y00699D02*
X02204Y00692D01*
X02221D02*
X02225D01*
X02221D02*
D01*
X02204D02*
X02221D01*
X00805Y01825D02*
Y01925D01*
X00765Y01965D02*
X00805Y01925D01*
X00783Y01754D02*
X00788Y01759D01*
X00783Y01753D02*
Y01754D01*
X00706Y02015D02*
X00707Y02015D01*
X00649Y02015D02*
X00706D01*
X00648Y02015D02*
X00649Y02015D01*
X00715Y01965D02*
X00765D01*
X00687Y01937D02*
X00715Y01965D01*
X00657Y01937D02*
X00687D01*
X00648Y01928D02*
X00657Y01937D01*
X00648Y01842D02*
X00657Y01851D01*
X00676D02*
X00688Y01863D01*
Y01874*
X00657Y01851D02*
X00676D01*
X00546Y01841D02*
X00648D01*
X00545Y0184D02*
X00546Y01841D01*
X00688Y01874D02*
X00694Y0188D01*
X00648Y01799D02*
X00657Y01807D01*
X00672*
X00694Y0183*
X00648Y01799D02*
X00648Y01799D01*
X00554Y01799D02*
X00648D01*
X00475Y01585D02*
Y0172D01*
X00554Y01799*
X00678Y01764D02*
X00683Y01769D01*
X00694Y01772D02*
Y0178D01*
X00691Y01769D02*
X00694Y01772D01*
X00648Y01755D02*
X00657Y01764D01*
X00683Y01769D02*
X00691D01*
X00657Y01764D02*
X00678D01*
X01142Y01217D02*
X01143Y01216D01*
X01142Y01217D02*
Y01517D01*
X01143Y01209D02*
X01145Y01207D01*
X01143Y01209D02*
Y01216D01*
X01253Y0106D02*
Y01088D01*
X01232Y0111D02*
X01253Y01088D01*
Y0106D02*
X01254Y01059D01*
X01165Y0111D02*
X01232D01*
X01165Y01109D02*
X01165Y0111D01*
X01055Y01605D02*
X01142Y01517D01*
X01294Y01025D02*
Y01059D01*
X01509Y0117D02*
X01511Y01169D01*
X01539*
X0154Y01168*
X01274Y01059D02*
X01274Y0106D01*
Y01095*
X01275Y01095*
X00692Y00842D02*
X00693Y00841D01*
X00723*
X00879Y00967D02*
X0088Y00966D01*
X00903D02*
X00905Y00964D01*
X00998Y01043D02*
Y01059D01*
X00982Y01042D02*
X00997D01*
X0088Y00966D02*
X00903D01*
X00997Y01042D02*
X00998Y01043D01*
X00864Y00967D02*
X00879D01*
X00859Y00961D02*
X00864Y00967D01*
X00769Y00921D02*
X00845Y00997D01*
X00859Y00938D02*
Y00961D01*
X00835Y01015D02*
X00875D01*
X00904Y01044*
X0075Y0093D02*
X00835Y01015D01*
X00914Y01062D02*
X0097Y01118D01*
X00922Y01044D02*
X00973Y01096D01*
X00904Y01044D02*
X00922D01*
X00973Y01118D02*
X0103Y01175D01*
Y0134*
X00973Y01096D02*
X01049D01*
X00845Y01062D02*
X00914D01*
X0097Y01118D02*
X00973D01*
X0107Y0138D02*
Y01474D01*
X0103Y0134D02*
X0107Y0138D01*
X01001Y01542D02*
X0107Y01474D01*
X01039Y01384D02*
X0104Y01385D01*
X0093Y01384D02*
X01039D01*
X00455Y00922D02*
Y01153D01*
X00856Y00936D02*
X00859Y00938D01*
X0094Y01542D02*
X01001D01*
X00929Y01325D02*
X00966D01*
X00972Y0132*
X00975*
X00929Y01345D02*
X0093Y01345D01*
X00989*
X0099Y01345*
X01156Y01018D02*
Y01059D01*
X01175D02*
X01176Y01058D01*
Y0103D02*
Y01058D01*
X00708Y009D02*
X00723D01*
X00665Y00856D02*
X00708Y009D01*
X00665Y00765D02*
Y00856D01*
X0075Y0068D02*
X00892D01*
X00665Y00765D02*
X0075Y0068D01*
X00579Y0051D02*
X00639D01*
X00368D02*
X0054D01*
X00365Y00513D02*
X00368Y0051D01*
X00788Y01759D02*
X0079D01*
X0044Y00907D02*
X00453D01*
X0044D02*
X00455Y00922D01*
X00521Y00818D02*
X00527Y00812D01*
X00521Y00818D02*
Y00839D01*
X00453Y00907D02*
X00521Y00839D01*
X00929Y01384D02*
X0093Y01384D01*
X00877Y01365D02*
X00929D01*
X00872Y0137D02*
X00877Y01365D01*
X0087Y0137D02*
X00872D01*
X00644Y01285D02*
Y01302D01*
X00829Y01329D02*
X00865D01*
X0074Y0124D02*
X00829Y01329D01*
X007Y0124D02*
X0074D01*
X00826Y01246D02*
X00929D01*
X00773Y01194D02*
X00826Y01246D01*
X00684Y01194D02*
X00773D01*
X0082Y01266D02*
X00929D01*
X00774Y0122D02*
X0082Y01266D01*
X0054Y01105D02*
Y01107D01*
X00532Y01114D02*
X0054Y01107D01*
X00532Y01114D02*
Y01145D01*
X00625Y01165D02*
Y01194D01*
X00585Y01177D02*
Y01194D01*
X00558Y01149D02*
X00585Y01177D01*
X00537Y01149D02*
X00558D01*
X00532Y01145D02*
X00537Y01149D01*
X01039Y0103D02*
Y01058D01*
Y0103D02*
X01042Y01027D01*
X01038Y01059D02*
X01039Y01058D01*
X01042Y0083D02*
Y01027D01*
X00892Y0068D02*
X01042Y0083D01*
X0075Y00907D02*
Y0093D01*
X01049Y01096D02*
X01056Y01088D01*
Y0106D02*
Y01088D01*
Y0106D02*
X01057Y01059D01*
X00769Y00907D02*
Y00921D01*
Y00907D02*
D01*
X00813Y00936D02*
X00856D01*
X00789Y00911D02*
X00813Y00936D01*
X00789Y00907D02*
Y00911D01*
X00928Y01287D02*
X00929Y01286D01*
X00894Y01287D02*
X00928D01*
X00891Y0129D02*
X00894Y01287D01*
X00865Y0129D02*
X00891D01*
X00928Y01169D02*
X00929Y01168D01*
X00895Y01169D02*
X00928D01*
X00894Y0117D02*
X00895Y01169D01*
X00863Y0117D02*
X00894D01*
X01019Y00995D02*
X01019Y00995D01*
X01019Y00995D02*
Y01059D01*
X01018Y01059D02*
X01019Y01059D01*
X0147Y0099D02*
X01471D01*
X01432Y01027D02*
X0147Y0099D01*
X01432Y01027D02*
Y01058D01*
X01431Y01059D02*
X01432Y01058D01*
X01945Y01257D02*
Y01271D01*
X01914Y01227D02*
X01945Y01257D01*
X0154Y01227D02*
X01914D01*
X01795Y01261D02*
Y01271D01*
X0178Y01246D02*
X01795Y01261D01*
X0154Y01246D02*
X0178D01*
X01882Y01691D02*
X01884Y0169D01*
X0184Y01691D02*
X01882D01*
X01838Y01693D02*
X0184Y01691D01*
X01476Y0047D02*
X0148D01*
X01464Y00482D02*
X01476Y0047D01*
X01464Y00482D02*
Y0049D01*
X01394Y0051D02*
X01405Y00498D01*
X01385Y0051D02*
X01394D01*
X01405Y0049D02*
Y00498D01*
X01444Y0049D02*
Y00504D01*
X01457Y00516*
X01492D02*
X01514Y00495D01*
X01457Y00516D02*
X01492D01*
X01444Y0049D02*
X01444Y0049D01*
X02195Y00508D02*
X02204Y00517D01*
X02145Y00705D02*
X02157Y00692D01*
X02196Y00674D02*
X02197Y00673D01*
X02157Y00687D02*
X02169Y00674D01*
X02196*
X02157Y00687D02*
Y00692D01*
X02126Y00705D02*
X02145D01*
X02196Y00554D02*
X02197Y00555D01*
X02169Y00554D02*
X02196D01*
X02125Y00511D02*
X02169Y00554D01*
X02125Y00494D02*
Y00511D01*
X02121Y0049D02*
X02125Y00494D01*
X02121Y0049D02*
X02121D01*
X0115Y00225D02*
X01155D01*
X0114Y00214D02*
X0115Y00225D01*
X01126Y00214D02*
X0114D01*
X01149Y00194D02*
X0115Y00195D01*
X01126Y00194D02*
X01149D01*
X01126Y00175D02*
X01141D01*
X01152Y00164*
X01126Y00135D02*
X01144D01*
X01126D02*
Y00155D01*
X01013Y00175D02*
Y00194D01*
Y00214*
X00988Y00194D02*
X01013D01*
X00984Y0019D02*
X00988Y00194D01*
G54D99*
X00243Y01224D02*
X00246Y01226D01*
X00243Y01194D02*
Y01224D01*
X00245Y01314D02*
X00246Y01313D01*
X00245Y01314D02*
Y0135D01*
X00295Y01313D02*
Y01348D01*
X01761Y00197D02*
X01769D01*
X0178Y00208*
Y0021*
X01652Y00138D02*
X0167D01*
X01648Y00135D02*
X01652Y00138D01*
X01645Y00135D02*
X01648D01*
X0167Y00197D02*
X0167D01*
X0167D02*
Y00224D01*
X0167Y00225D02*
X0167Y00224D01*
X01164Y01744D02*
X01185Y01765D01*
X01164Y01731D02*
Y01744D01*
X01225Y01714D02*
X01233Y01706D01*
X0124Y01721D02*
X01252Y01709D01*
X0124Y01721D02*
Y01832D01*
X01283Y01875*
X01222Y01792D02*
Y01798D01*
X01225Y01714D02*
Y0179D01*
X01222Y01792D02*
X01225Y0179D01*
X01252Y01672D02*
Y01709D01*
X01495Y01505D02*
X01496D01*
X01511Y0152*
X01538*
X0154Y01522*
Y01502D02*
X01569D01*
X01581Y01514*
X01761Y00158D02*
X01791D01*
X018Y0015*
X01064Y00634D02*
X01067Y00638D01*
X0119Y00885D02*
Y0093D01*
X01105Y0071D02*
Y008D01*
X01067Y00672D02*
X01105Y0071D01*
Y008D02*
X0119Y00885D01*
X01067Y00638D02*
Y00672D01*
X01645Y0019D02*
Y00278D01*
Y0019D02*
X01656Y00178D01*
X01793D02*
X01795Y0018D01*
X01761Y00178D02*
X01793D01*
X01645Y0016D02*
X01646Y00158D01*
X0167*
X01656Y00178D02*
X0167D01*
X00393Y01188D02*
X00405Y01177D01*
X00393Y01188D02*
Y01226D01*
X00396Y01315D02*
Y01345D01*
X00393Y01313D02*
X00396Y01315D01*
X00344Y01313D02*
Y01348D01*
Y01183D02*
Y01226D01*
X01035Y02255D02*
Y02296D01*
X01615Y0173D02*
Y01752D01*
X01605Y0172D02*
X01615Y0173D01*
X01605Y0172D02*
Y0172D01*
X01626Y01745D02*
X0165D01*
X0166Y01734D02*
X01678D01*
X01681Y01731*
X01615Y01752D02*
X01621Y01745D01*
X01626*
X0165Y01745D02*
X0166Y01734D01*
X01626Y01745D02*
X01626Y01745D01*
X00929Y01561D02*
X00931Y01563D01*
X00998*
X01Y01565*
X01157Y01725D02*
X01164Y01731D01*
X0174Y009D02*
Y00903D01*
X0175Y00913D02*
Y0095D01*
X0174Y00903D02*
X0175Y00913D01*
X0073Y0178D02*
Y0183D01*
Y0188D02*
Y01919D01*
X00745Y01934*
Y01935*
X0073Y0183D02*
Y0188D01*
Y02145D02*
X00737Y02152D01*
Y02157D02*
X00742Y02162D01*
X00737Y02152D02*
Y02157D01*
X00742Y02162D02*
Y02165D01*
X0073Y02095D02*
X00742Y02082D01*
Y02065D02*
X0077D01*
X00742Y02015D02*
Y02065D01*
Y02082*
X00634Y02055D02*
Y02063D01*
Y02055D02*
X00655D01*
X00701Y02134D02*
Y02137D01*
X00713Y02121D02*
X00853D01*
X00694Y02145D02*
X00701Y02137D01*
Y02134D02*
X00713Y02121D01*
X00853D02*
X0096Y02015D01*
X00675Y02145D02*
X00694D01*
X00648Y02118D02*
X00675Y02145D01*
X0096Y02015D02*
X0124D01*
X01048Y02098D02*
X01082Y02065D01*
X01048Y02098D02*
Y0212D01*
X01035Y02133D02*
X01048Y0212D01*
X01489Y0162D02*
X01489D01*
X01335Y01618D02*
X01488D01*
X01583Y01693D02*
X01681D01*
X01315Y01639D02*
X01335Y01618D01*
X01489Y0162D02*
X01504Y01635D01*
X0152Y01628D02*
Y0163D01*
X01482Y01634D02*
X01488Y01641D01*
X0152Y0163D02*
X01583Y01693D01*
X0147Y01435D02*
Y01578D01*
X01488Y01618D02*
X01489Y0162D01*
X01335Y01641D02*
X01342Y01634D01*
X0147Y01578D02*
X0152Y01628D01*
X01342Y01634D02*
X01482D01*
X01844Y01656D02*
X0187Y01631D01*
X01814Y01555D02*
X0187Y0161D01*
Y01631*
X0175Y01555D02*
X01814D01*
X0154Y01384D02*
X01579D01*
X01594Y01424D02*
X01756Y01586D01*
X01809*
X01579Y01384D02*
X0175Y01555D01*
X01831Y01618D02*
X01838D01*
X01809Y01586D02*
X01827Y01603D01*
Y01614D02*
X01831Y01618D01*
X01827Y01603D02*
Y01614D01*
X01395Y01306D02*
Y01495D01*
X01665Y02088D02*
Y02148D01*
X01655Y02158D02*
X01665Y02148D01*
X01655Y02158D02*
Y0216D01*
X00648Y02096D02*
Y02118D01*
X00683Y02068D02*
X00691Y02076D01*
X00668Y02068D02*
X00683D01*
X00691Y02076D02*
Y02092D01*
X00694Y02095*
X00655Y02055D02*
X00668Y02068D01*
X00621D02*
X00629D01*
X00634Y02063*
X00595Y02095D02*
X00621Y02068D01*
X00611Y02042D02*
X00638Y02015D01*
X00572Y02042D02*
X00611D01*
X0057Y0204D02*
X00572Y02042D01*
X00638Y02015D02*
X00648D01*
X00609Y01756D02*
X00642D01*
X00603Y0175D02*
X00609Y01756D01*
X006Y0175D02*
X00603D01*
X01511Y01189D02*
X01538D01*
X01395Y01306D02*
X01511Y01189D01*
X01538D02*
X0154Y01187D01*
X0144Y0134D02*
Y01525D01*
X01538Y01268D02*
X0154Y01266D01*
X0144Y0134D02*
X01511Y01268D01*
X01538*
X01351Y01672D02*
X01353Y0167D01*
X01335Y01715D02*
X01351Y01698D01*
Y01672D02*
Y01698D01*
X0136Y0152D02*
X01421Y01581D01*
X01438*
X0136Y01207D02*
Y0152D01*
X0139Y01585D02*
Y01586D01*
X0131Y01505D02*
X0139Y01585D01*
X01185Y01223D02*
Y01595D01*
X012Y01207D02*
Y01208D01*
X01185Y01223D02*
X012Y01208D01*
X0131Y0121D02*
Y01505D01*
X01185Y01595D02*
X0121Y0162D01*
Y01623*
X0132Y01103D02*
Y01105D01*
Y01103D02*
X01333Y0109D01*
X0121Y01623D02*
X01215Y01628D01*
Y0167*
X01581Y01465D02*
Y01468D01*
X01575Y01474D02*
X01581Y01468D01*
X01575Y01474D02*
Y01475D01*
X01568Y01481D02*
X01575Y01475D01*
X01542Y01481D02*
X01568D01*
X0154Y01483D02*
X01542Y01481D01*
X012Y0208D02*
X01202Y02077D01*
X01257*
X012Y02118D02*
X01214Y02133D01*
X012Y0208D02*
Y02118D01*
X01214Y02133D02*
X01215D01*
X01257Y02077D02*
X0126Y02075D01*
X0154Y01286D02*
X0154Y01285D01*
X01594*
X01595Y01285*
X01815Y0099D02*
X01817Y00987D01*
X01832*
X0186Y0096*
Y0096D02*
Y0096D01*
X01899Y00901D02*
Y0096D01*
X0189Y00891D02*
X01899Y00901D01*
X01789Y00949D02*
Y0095D01*
Y00949D02*
X018Y00939D01*
Y00887D02*
Y00939D01*
X01405Y01102D02*
Y01105D01*
Y01102D02*
X01412Y01094D01*
Y01059D02*
Y01094D01*
X01333Y01059D02*
Y0109D01*
X0154Y01128D02*
X0154Y01129D01*
X01604*
X01605Y0113*
X0104Y00704D02*
Y00705D01*
X01025Y00689D02*
X0104Y00704D01*
X01025Y00634D02*
Y00689D01*
X01715Y02088D02*
Y0215D01*
X01714Y02088D02*
X01715Y02088D01*
X0136Y01101D02*
Y01105D01*
X01353Y01095D02*
X0136Y01101D01*
X01353Y0106D02*
Y01095D01*
X01353Y01059D02*
X01353Y0106D01*
X0154Y01345D02*
X01598D01*
X01706Y01452*
X021Y0193D02*
Y01987D01*
Y02022D02*
Y0209D01*
X01194Y01814D02*
X01206D01*
X01222Y01798*
X01233Y01672D02*
Y01706D01*
X01192Y01725D02*
X01199Y01718D01*
Y01717D02*
Y01718D01*
Y01717D02*
X01213Y01704D01*
Y01672D02*
Y01704D01*
Y01672D02*
X01215Y0167D01*
X01554Y01775D02*
X0156Y0178D01*
Y01844*
X01455Y01775D02*
X01455Y01775D01*
X01455Y01775D02*
Y01844D01*
X01554Y01759D02*
Y01775D01*
X01504Y01709D02*
X01554Y01759D01*
X01504Y01635D02*
Y01709D01*
X01315Y01639D02*
Y01668D01*
X01313Y0167D02*
X01315Y01668D01*
X01488Y01641D02*
Y01726D01*
X0147Y01435D02*
X015Y01404D01*
X01455Y01759D02*
Y01775D01*
Y01759D02*
X01488Y01726D01*
X01335Y01641D02*
Y01668D01*
X01333Y0167D02*
X01335Y01668D01*
X0135Y01905D02*
X01355Y019D01*
X01324Y01905D02*
X0135D01*
X01295Y01875D02*
X01324Y01905D01*
X01289Y01875D02*
X01295D01*
X01163Y01924D02*
X01179Y0194D01*
X01163Y01845D02*
Y01924D01*
Y01845D02*
X01194Y01814D01*
X01283Y01875D02*
X01289D01*
X01252Y01672D02*
X01254Y0167D01*
X01055Y01672D02*
Y01703D01*
X00989Y0177D02*
X01055Y01703D01*
X01233Y01672D02*
X01235Y0167D01*
X00955Y0177D02*
X00989D01*
X01016Y01721D02*
X01036Y01701D01*
X01016Y01672D02*
Y01698D01*
X01009Y01705D02*
X01016Y01698D01*
X01036Y01672D02*
Y01701D01*
X0095Y01721D02*
X01016D01*
X0086Y01705D02*
X01009D01*
X00901Y0177D02*
X0095Y01721D01*
X01055Y01672D02*
X01057Y0167D01*
X01036Y01672D02*
X01038Y0167D01*
X009Y0177D02*
X00901D01*
X00845Y01735D02*
X00846D01*
X00852Y01729*
Y01712D02*
Y01729D01*
Y01712D02*
X0086Y01705D01*
X01016Y01672D02*
X01018Y0167D01*
X00998D02*
Y01687D01*
X00996Y01689D02*
X00998Y01687D01*
X00852Y01689D02*
X00996D01*
X00821Y0172D02*
X00852Y01689D01*
X0079Y0172D02*
X00821D01*
X015Y01404D02*
X0154D01*
Y01424D02*
X01594D01*
X01838Y01656D02*
X01844D01*
G54D100*
X00765Y01775D02*
X00785Y01795D01*
X00721Y01705D02*
Y01721D01*
X00765Y01765D02*
Y01775D01*
X00721Y01721D02*
X00765Y01765D01*
X00785Y01795D02*
X00822D01*
X00677Y01662D02*
X00721Y01705D01*
X00437Y0118D02*
X00482Y01225D01*
Y01467*
X00677Y01662*
X00822Y01795D02*
X00843Y01774D01*
X00677Y01662D02*
X00677D01*
X0025Y00945D02*
X00342D01*
X0023Y00925D02*
X0025Y00945D01*
X0023Y00885D02*
Y00925D01*
X00375Y00828D02*
X00453D01*
X0094Y01882D02*
Y01885D01*
Y01882D02*
X00955Y01867D01*
Y01809D02*
Y01867D01*
X00843Y01774D02*
X00845D01*
X00342Y00945D02*
X00437Y0104D01*
Y0118*
X00895Y01814D02*
Y01855D01*
Y01814D02*
X00899Y01809D01*
X009*
X0024Y00745D02*
X0036D01*
X00365Y00749*
X0022Y00675D02*
X00222D01*
X00226Y00671*
X00365*
X00527Y00712D02*
Y00717D01*
X005Y00685D02*
X00527Y00712D01*
X00379Y00685D02*
X005D01*
X00365Y00671D02*
X00379Y00685D01*
X00596Y00723D02*
X00602Y00717D01*
X00596Y00723D02*
Y0073D01*
X00577Y00749D02*
X00596Y0073D01*
X00365Y00749D02*
X00577D01*
X00596Y00806D02*
X00602Y00812D01*
X00596Y00799D02*
Y00806D01*
X00581Y00783D02*
X00596Y00799D01*
X00498Y00783D02*
X00581D01*
X00453Y00828D02*
X00498Y00783D01*
G54D101*
X02232Y01188D02*
X0229D01*
X0223Y0119D02*
X02232Y01188D01*
X0229D02*
X02291Y01189D01*
X02354*
X02355Y0119*
X0223Y0124D02*
X0223Y01239D01*
X02289*
X0229Y01238*
X02339*
X02342Y01235*
X02345*
G54D102*
X02197Y00575D02*
X02214D01*
X02219Y0058D02*
X02224D01*
X02214Y00575D02*
X02219Y0058D01*
X02224D02*
X02229Y00585D01*
Y00604*
X02221Y00613D02*
X02229Y00604D01*
X01472Y00942D02*
X0177Y00645D01*
X0184Y00631D02*
X01889Y00583D01*
X01957Y00573D02*
X01978Y00552D01*
X01764Y00631D02*
X0184D01*
X0177Y00645D02*
X01846D01*
X01894Y00596D02*
X01952D01*
X01957Y00601D02*
Y00606D01*
X01978Y00627*
X01466Y00929D02*
X01764Y00631D01*
X01846Y00645D02*
X01894Y00596D01*
X01952D02*
X01957Y00601D01*
Y00573D02*
Y00578D01*
X01952Y00583D02*
X01957Y00578D01*
X01889Y00583D02*
X01952D01*
X01389Y01013D02*
Y01029D01*
Y01013D02*
X01393Y01008D01*
X01405D02*
X0141Y01004D01*
X0139Y01031D02*
Y01058D01*
X01393Y01008D02*
X01405D01*
X0139Y01058D02*
X01392Y01059D01*
X01389Y01029D02*
X0139Y01031D01*
X01355Y01004D02*
X01359Y01008D01*
X01371D02*
X01376Y01013D01*
X01359Y01008D02*
X01371D01*
X01376Y01013D02*
Y01029D01*
X01374Y01031D02*
X01376Y01029D01*
X01372Y01059D02*
X01374Y01058D01*
Y01031D02*
Y01058D01*
X0217Y00593D02*
X02195D01*
X02148Y00578D02*
X02168D01*
X02127Y00583D02*
X02144D01*
X02148Y00578*
X02149Y00596D02*
X02154Y00591D01*
X02127Y00596D02*
X02149D01*
X02195Y00593D02*
X02197Y00595D01*
X02154Y00591D02*
X02168D01*
X02122Y00601D02*
Y00606D01*
X02101Y00627D02*
X02122Y00606D01*
X02168Y00591D02*
X0217Y00593D01*
X02122Y00601D02*
X02127Y00596D01*
X02089Y00627D02*
X02101D01*
X0217Y00577D02*
X02195D01*
X02197Y00575*
X02168Y00578D02*
X0217Y00577D01*
X02122Y00573D02*
Y00578D01*
X02089Y00552D02*
X02101D01*
X02122Y00578D02*
X02127Y00583D01*
X02101Y00552D02*
X02122Y00573D01*
X02174Y00632D02*
X02195D01*
X02197Y00634*
X02176Y00599D02*
X02181Y00595D01*
X02171Y00599D02*
X02176D01*
X02166Y00605D02*
X02171Y00599D01*
X02166Y00605D02*
Y00624D01*
X02181Y00595D02*
X02197D01*
X02166Y00624D02*
X02174Y00632D01*
X02199Y00613D02*
X02221D01*
X02197Y00614D02*
X02199Y00613D01*
X01389Y00956D02*
X01393Y00961D01*
X01405*
X0141Y00965*
X01389Y00947D02*
X01393Y00942D01*
X01389Y00947D02*
Y00956D01*
X01393Y00942D02*
X01472D01*
X01375Y00942D02*
X01388Y00929D01*
X01355Y00965D02*
X01359Y00961D01*
X01371*
X01388Y00929D02*
X01466D01*
X01375Y00942D02*
Y00956D01*
X01371Y00961D02*
X01375Y00956D01*
X01978Y00627D02*
X0199D01*
X01978Y00552D02*
X0199D01*
G54D103*
X02405Y01555D02*
Y01578D01*
X02398Y01584D02*
X02405Y01578D01*
X02308Y01565D02*
X02317Y01574D01*
Y0158*
X0232Y01584*
X02259Y01574D02*
Y0158D01*
X0232Y01584D02*
X02398D01*
X02259Y01574D02*
X02268Y01565D01*
X02288D02*
X02308D01*
X02268D02*
X02288D01*
X0224Y01584D02*
X02256D01*
X0223Y01574D02*
X0224Y01584D01*
X02256D02*
X02259Y0158D01*
X02222Y01582D02*
X0223Y01574D01*
X02186Y01584D02*
X02205D01*
X02183Y0158D02*
X02186Y01584D01*
X02207Y01582D02*
X02222D01*
X02205Y01584D02*
X02207Y01582D01*
X0223Y01573D02*
Y01574D01*
X02183Y01555D02*
Y0158D01*
X02168Y0154D02*
X02183Y01555D01*
X02159Y0154D02*
X02168D01*
X02419Y01587D02*
X02422Y01584D01*
X0232Y01595D02*
X02403D01*
X02411Y01587*
X02419*
X02317Y01599D02*
Y01605D01*
Y01599D02*
X0232Y01595D01*
X02268Y01614D02*
X02288D01*
X02259Y01605D02*
X02268Y01614D01*
X02308D02*
X02317Y01605D01*
X02259Y01599D02*
Y01605D01*
X02288Y01614D02*
X02308D01*
X0223Y01605D02*
Y01606D01*
X02222Y01597D02*
X0223Y01605D01*
X02207Y01597D02*
X02222D01*
X02159Y01639D02*
X02168D01*
X02183Y01599D02*
Y01624D01*
X02168Y01639D02*
X02183Y01624D01*
X0223Y01605D02*
X0224Y01595D01*
X02256D02*
X02259Y01599D01*
X0224Y01595D02*
X02256D01*
X02205D02*
X02207Y01597D01*
X02183Y01599D02*
X02186Y01595D01*
X02205*
X02165Y01461D02*
Y01481D01*
X02169Y01458D02*
X02197D01*
X02132Y01515D02*
X02165Y01481D01*
X02129Y01515D02*
X02132D01*
X02049Y01595D02*
X02129Y01515D01*
X02007Y01595D02*
X02049D01*
X02003Y01599D02*
X02007Y01595D01*
X01989Y01639D02*
X02003Y01624D01*
Y01599D02*
Y01624D01*
X0198Y01639D02*
X01989D01*
X02165Y01461D02*
X02169Y01458D01*
X02003Y0158D02*
X02007Y01584D01*
X0215Y01458D02*
X02154Y01461D01*
X02122Y01458D02*
X0215D01*
X01989Y0154D02*
X02003Y01555D01*
X0198Y0154D02*
X01989D01*
X02003Y01555D02*
Y0158D01*
X02127Y01503D02*
X02154Y01476D01*
Y01461D02*
Y01476D01*
X02007Y01584D02*
X02044D01*
X02125Y01503*
X02127*
X01971Y01639D02*
X0198D01*
X01956Y01624D02*
X01971Y01639D01*
X01852Y01492D02*
X0186D01*
X01845Y01485D02*
X01852Y01492D01*
X01864Y01495D02*
Y01516D01*
X0186Y01492D02*
X01864Y01495D01*
Y01516D02*
X01943Y01595D01*
X01953*
X01956Y01599D02*
Y01624D01*
X01953Y01595D02*
X01956Y01599D01*
X01845Y01478D02*
Y01485D01*
X01971Y0154D02*
X0198D01*
X01956Y01555D02*
Y0158D01*
Y01555D02*
X01971Y0154D01*
X01887Y01492D02*
X01895Y01485D01*
X01879Y01492D02*
X01887D01*
X01895Y01478D02*
Y01485D01*
X01953Y01584D02*
X01956Y0158D01*
X01875Y01495D02*
X01879Y01492D01*
X01875Y01495D02*
Y01511D01*
X01948Y01584*
X01953*
G54D104*
X01702Y00184D03*
Y00152D03*
X0173D03*
Y00184D03*
G54D105*
X0107Y00155D03*
X01055Y00185D03*
X0107Y00215D03*
X01085Y00185D03*
G54D106*
X00118Y00118D03*
X0016Y0225D03*
X02384Y00118D03*
Y02244D03*
G54D107*
X02385Y00435D03*
Y00775D03*
G54D108*
X0222Y00435D03*
Y00775D03*
G54D109*
X0224Y00491D03*
Y00718D03*
G54D110*
X01685Y0011D03*
X0178Y0021D03*
X01645Y00135D03*
X0167Y00225D03*
X0174Y00105D03*
G54D111*
X0082Y0156D03*
X01377Y00625D03*
X00581Y01259D03*
X01125Y018D03*
X0044Y0134D03*
X00185Y0035D03*
X0024Y0041D03*
X00175Y0042D03*
X00225Y00465D03*
X00695Y00095D03*
X00855Y00125D03*
X0036Y0022D03*
X00695Y0018D03*
X00845Y0035D03*
X00585Y0059D03*
X00705Y0053D03*
X00565Y0085D03*
X0036Y00995D03*
X00625Y01045D03*
X007Y01065D03*
X00775Y00705D03*
X00835Y00715D03*
X00774Y0084D03*
X008Y0108D03*
X0092Y0012D03*
X01025Y00115D03*
X0101Y0025D03*
X0111Y0007D03*
X01425Y0008D03*
X0118Y0024D03*
X0132Y00265D03*
X0134Y00325D03*
X0142Y0031D03*
X0094Y0035D03*
Y0053D03*
X0097Y0057D03*
X0091Y0087D03*
X00925Y00745D03*
X01105Y0053D03*
X01215Y0041D03*
X0126Y0059D03*
X014Y00455D03*
X00243Y01194D03*
X00245Y0135D03*
X00295Y01348D03*
X0056Y01355D03*
X0067Y01265D03*
X00625Y01315D03*
X00084Y02095D03*
X0032Y01425D03*
X00105Y01565D03*
X00275Y02155D03*
X0055Y01407D03*
X00595Y0168D03*
X00605Y01995D03*
X00455Y02165D03*
X00785Y0116D03*
X00952Y01605D03*
X0077Y01635D03*
X00845Y0165D03*
X00968Y01153D03*
X01295Y0163D03*
X01118Y01633D03*
X01035Y018D03*
X01032Y01852D03*
X0113Y02105D03*
X0124Y0194D03*
X013Y01765D03*
X014Y01784D03*
X01355Y01824D03*
X0131Y0203D03*
X01215Y02255D03*
X01315Y021D03*
X01385Y02185D03*
X0152Y00125D03*
X01565Y0006D03*
X01485Y00275D03*
X01645Y00045D03*
X01545Y00285D03*
X01435Y0039D03*
X01515Y00945D03*
X01625Y0034D03*
X01765Y00294D03*
X0176Y00425D03*
X01565Y00625D03*
X0157Y0046D03*
Y00945D03*
X01765Y00775D03*
X0177Y00045D03*
X01875Y00135D03*
X01815Y00445D03*
X0186Y0025D03*
X01925Y00095D03*
X02175Y0011D03*
X022Y00225D03*
X02165Y00445D03*
X0205Y00695D03*
X0206Y006D03*
X02065Y00495D03*
X0184Y00775D03*
X0215Y0074D03*
X02245Y00845D03*
X02115Y00875D03*
X0234Y0092D03*
X01504Y0158D03*
X01615Y0166D03*
X018Y01425D03*
X01845Y0134D03*
X01905Y01135D03*
X0169Y0159D03*
X01755Y01775D03*
X0145Y01895D03*
X01535Y019D03*
X01465Y02235D03*
X01755Y0222D03*
X01595D03*
X0184Y0186D03*
X0178Y02135D03*
X01785Y0226D03*
X01955Y01135D03*
X02065Y01395D03*
X0216Y0133D03*
X02075Y01475D03*
X0229Y01485D03*
X02345Y0131D03*
X0236Y01125D03*
X0235Y01445D03*
X02385Y01505D03*
X02395Y017D03*
X0197Y0185D03*
X01995Y01775D03*
X0205Y02145D03*
X02025Y02215D03*
X02055Y0226D03*
X0215Y02215D03*
X0219Y0193D03*
X02395Y0178D03*
X02345Y0213D03*
X0227Y0218D03*
X0144Y00655D03*
X0145Y01095D03*
X0173Y0023D03*
X02225Y01965D03*
X02265Y0193D03*
X0229Y018D03*
X02165Y02265D03*
X02145Y02145D03*
X02245Y0177D03*
X02335Y0098D03*
X0218Y0101D03*
X02165Y0113D03*
X0204Y01315D03*
X01585Y0227D03*
X0158Y02125D03*
X01385Y02065D03*
X01465Y0204D03*
X02085Y00945D03*
X0202Y0122D03*
X0184Y0009D03*
X01375Y00275D03*
X01128Y01745D03*
X01125Y01865D03*
X01185Y01765D03*
X0198Y01475D03*
X02355Y0119D03*
X01495Y01505D03*
X02345Y01235D03*
X01581Y01514D03*
X02355Y0104D03*
X0234Y0108D03*
X00445Y01275D03*
X01489Y01059D03*
X0119Y0093D03*
X0115Y007D03*
X00315Y01388D03*
X00396Y01345D03*
X00344Y01348D03*
X00435Y0121D03*
X0098Y01225D03*
X0038Y01095D03*
X0017Y0025D03*
X00175Y003D03*
X01035Y02255D03*
X01605Y0172D03*
X01Y01565D03*
X00875Y01085D03*
X0085Y01565D03*
X0089Y01585D03*
X0142Y00525D03*
X01425Y0056D03*
X00927Y01112D03*
X01268Y01629D03*
X01375Y0171D03*
X0141Y01744D03*
X01262Y01759D03*
X0146Y0056D03*
X01545Y01045D03*
X0156Y0057D03*
X0207Y00355D03*
X01825Y00535D03*
X0174Y009D03*
X01895Y01415D03*
X0159Y01575D03*
X01625Y01515D03*
X01665Y01785D03*
X0183Y018D03*
X01905Y01655D03*
X0187Y01735D03*
X019Y01765D03*
X01965Y01805D03*
X0058Y0194D03*
X00745Y01935D03*
X0197Y01385D03*
X0154Y01619D03*
X00742Y02165D03*
X0077Y02065D03*
X00515Y00625D03*
X00305Y01165D03*
X0099Y0119D03*
X00855Y0076D03*
X0083Y00815D03*
X00855Y00855D03*
X01235Y0047D03*
X0124Y0053D03*
X01315Y00485D03*
X0111Y01715D03*
X00925Y0091D03*
X008Y0079D03*
X0069Y0112D03*
X0058Y0113D03*
X0031Y0112D03*
X01065Y01735D03*
X0108Y01715D03*
X00755Y00804D03*
X00725Y00774D03*
X00491Y0111D03*
X0064Y0122D03*
X00718Y01331D03*
X00645Y01355D03*
X0065Y0141D03*
X00585Y01315D03*
X0124Y02015D03*
X01715Y0199D03*
X01503Y01543D03*
X0126Y01425D03*
X00685Y01395D03*
X0162Y002D03*
X0123Y00255D03*
X0124Y00345D03*
X0127Y0011D03*
X0135D03*
X0144Y0016D03*
X01535Y00195D03*
X0166Y00095D03*
X00805Y01825D03*
X01395Y01495D03*
X0237Y01645D03*
X02405Y01555D03*
X02422Y01584D03*
X00425Y00955D03*
X003Y01065D03*
X0057Y0204D03*
X00545Y0184D03*
X006Y0175D03*
X01165Y01109D03*
X01055Y01605D03*
X01145Y01207D03*
X00595Y02095D03*
X01294Y01025D03*
X0126Y01215D03*
X00475Y01585D03*
X01064Y01215D03*
X01275Y01095D03*
X01215Y01568D03*
X0123Y01255D03*
X0144Y01525D03*
X01335Y01715D03*
X0094Y01885D03*
X01438Y01581D03*
X0139Y01586D03*
X00692Y00842D03*
X00905Y00964D03*
X00982Y01042D03*
X012Y01207D03*
X0136D03*
X0131Y0121D03*
X0104Y01385D03*
X0132Y01105D03*
X0121Y0162D03*
X01581Y01465D03*
X012Y0208D03*
X01595Y01285D03*
X01815Y0099D03*
X01405Y01105D03*
X01605Y0113D03*
X0104Y00705D03*
X0099Y0069D03*
X01715Y0215D03*
X01655Y0216D03*
X0136Y01105D03*
X01706Y01452D03*
X021Y0193D03*
X00975Y0132D03*
X0099Y01345D03*
X01785Y00585D03*
X01695Y0057D03*
X00895Y01855D03*
X0024Y00745D03*
X0022Y00675D03*
X0087Y0137D03*
X0054Y01105D03*
X00625Y01165D03*
X0196Y00275D03*
X0221Y00295D03*
X005Y0008D03*
X0049Y00165D03*
X0051Y00285D03*
Y0039D03*
X00425Y0031D03*
X0036Y00315D03*
M02*