%FSTAX23Y23*%
%MOIN*%
%SFA1B1*%

%IPPOS*%
%ADD186C,0.005000*%
%ADD188C,0.010000*%
%LNrelia-1*%
%LPD*%
G54D186*
X02477Y01176D02*
X02477Y01175D01*
X02477Y01174*
X02477Y01174*
X02477Y01174*
X02476Y01173*
X02476Y01173*
X02476Y01173*
X02476Y01173*
X02476Y01172*
X02476Y01172*
X02476Y01172*
X02476Y01172*
X02476Y01172*
X02476Y01172*
X02476Y01171*
X02476Y01171*
X02475Y01171*
X02475Y01171*
X02475Y01171*
X02475Y01171*
X02474Y0117*
X02475Y0117*
X02474Y0117*
X02474Y0117*
X02474Y0117*
X02473Y0117*
X02476Y01171*
X02472Y01169*
X02472Y01169*
X02471Y01169*
X02471Y01169*
X0247Y01169*
X0247Y01169*
X0247Y01169*
X0247Y01169*
X02469Y01169*
X02468Y01169*
X02468Y01169*
X02468Y01169*
X02467Y01169*
X02467Y0117*
X02467Y0117*
X02466Y0117*
X02466Y0117*
X02466Y0117*
X02466Y0117*
X02465Y0117*
X02465Y01171*
X02464Y01171*
X02464Y01171*
X02464Y01171*
X02464Y01171*
X02464Y01171*
X02464Y01172*
X02463Y01172*
X02463Y01172*
X02463Y01172*
X02463Y01173*
X02463Y01173*
X02463Y01173*
X02463Y01173*
X02463Y01174*
X02463Y01174*
X02463Y01175*
Y01175*
X02463Y0118*
X02477*
Y01176*
X02465Y01172D02*
X02475D01*
X02464Y01177D02*
X02477D01*
X02477Y01092D02*
X02477Y01091D01*
X02477Y01091*
X02477Y0109*
X02477Y0109*
X02476Y0109*
X02476Y0109*
X02476Y0109*
X02476Y01089*
X02476Y01089*
X02476Y01089*
X02476Y01088*
X02476Y01088*
X02476Y01088*
X02476Y01088*
X02476Y01088*
X02476Y01088*
X02475Y01087*
X02475Y01087*
X02475Y01087*
X02475Y01087*
X02474Y01087*
X02475Y01087*
X02474Y01087*
X02474Y01086*
X02474Y01086*
X02473Y01086*
X02476Y01087*
X02472Y01086*
X02472Y01086*
X02471Y01086*
X02471Y01086*
X0247Y01086*
X0247Y01086*
X0247Y01086*
X0247Y01086*
X02469Y01086*
X02468Y01086*
X02468Y01086*
X02468Y01086*
X02467Y01086*
X02467Y01086*
X02467Y01086*
X02466Y01086*
X02466Y01086*
X02466Y01086*
X02466Y01086*
X02465Y01087*
X02465Y01087*
X02464Y01087*
X02464Y01087*
X02464Y01087*
X02464Y01087*
X02464Y01088*
X02464Y01088*
X02463Y01088*
X02463Y01088*
X02463Y01089*
X02463Y01089*
X02463Y01089*
X02463Y01089*
X02463Y0109*
X02463Y0109*
X02463Y01091*
X02463Y01091*
Y01092*
X02463Y01096*
X02477*
Y01092*
X02465Y01088D02*
X02475D01*
X02464Y01093D02*
X02477D01*
X02477Y01056D02*
X02471Y01052D01*
X02471Y01052*
X02471Y01052*
X0247Y01052*
X02467Y01049*
X0247Y01047*
X02471Y01047*
X02471Y01047*
X02471Y01047*
X02471Y01047*
X02477Y01043*
Y01046*
X02469Y01051*
X02463Y01046*
Y01043*
X02467Y01046*
X02467Y01046*
X02468Y01046*
X02468Y01047*
X02468Y01047*
X02468Y01047*
X02469Y01047*
X02472Y0105*
X02468Y01052*
X02468Y01052*
X02468Y01052*
X02467Y01052*
X02467Y01052*
X02467Y01052*
X02463Y01055*
Y01052*
X02469Y01048*
X02477Y01053*
Y01056*
G54D188*
X02472Y01046D02*
X02474Y01048D01*
X02474Y01048*
X02473Y01048*
X02476Y01049*
X02473Y01051*
X02473Y01051*
X02474Y01051*
X02474Y01051*
X02472Y01052*
Y01043*
X02469Y01045*
X02468Y01044*
Y01053*
X02464Y0105*
X02464Y0105*
X02465Y0105*
X02465Y01051*
X02465Y01051*
X02466Y01051*
X02466Y01051*
X02463Y01049*
X02466Y01047*
X02465Y01048*
X02465Y01048*
X02465Y01048*
X02464Y01048*
X02468Y01046*
Y01055*
X02469Y01054*
X02472Y01056*
Y01046*
G54D186*
X02477Y01012D02*
X02471Y01008D01*
X02471Y01008*
X02471Y01008*
X0247Y01008*
X02467Y01005*
X0247Y01003*
X02471Y01003*
X02471Y01003*
X02471Y01003*
X02471Y01002*
X02477Y00998*
Y01002*
X02469Y01007*
X02463Y01002*
Y00999*
X02467Y01002*
X02467Y01002*
X02468Y01002*
X02468Y01003*
X02468Y01003*
X02468Y01003*
X02469Y01003*
X02472Y01005*
X02468Y01008*
X02468Y01008*
X02468Y01008*
X02467Y01008*
X02467Y01008*
X02467Y01008*
X02463Y01011*
Y01008*
X02469Y01004*
X02477Y01009*
Y01012*
X02472Y01002D02*
X02474Y01004D01*
X02474Y01004*
X02473Y01004*
X02476Y01005*
X02473Y01007*
X02473Y01007*
X02474Y01007*
X02474Y01007*
X02472Y01008*
Y00999*
X02469Y01001*
X02468Y01*
Y01009*
X02464Y01006*
X02464Y01006*
X02465Y01006*
X02465Y01007*
X02465Y01007*
X02466Y01007*
X02466Y01007*
X02463Y01005*
X02466Y01003*
X02465Y01004*
X02465Y01004*
X02465Y01004*
X02464Y01004*
X02468Y01002*
Y01011*
X02469Y0101*
X02472Y01012*
Y01002*
X02464Y01002D02*
X02466D01*
X02475D02*
X02477D01*
X02467Y01007D02*
X02473D01*
X02477Y01012D02*
D01*
X02477Y01426D02*
X02477Y01425D01*
X02477Y01424*
X02477Y01424*
X02477Y01424*
X02476Y01423*
X02476Y01423*
X02476Y01423*
X02476Y01423*
X02476Y01422*
X02476Y01422*
X02476Y01422*
X02476Y01422*
X02476Y01422*
X02476Y01422*
X02476Y01421*
X02476Y01421*
X02475Y01421*
X02475Y01421*
X02475Y01421*
X02475Y0142*
X02474Y0142*
X02475Y0142*
X02474Y0142*
X02474Y0142*
X02474Y0142*
X02473Y0142*
X02476Y01421*
X02472Y01419*
X02472Y01419*
X02471Y01419*
X02471Y01419*
X0247Y01419*
X0247Y01419*
X0247Y01419*
X0247Y01419*
X02469Y01419*
X02468Y01419*
X02468Y01419*
X02468Y01419*
X02467Y01419*
X02467Y01419*
X02467Y0142*
X02466Y0142*
X02466Y0142*
X02466Y0142*
X02466Y0142*
X02465Y0142*
X02465Y0142*
X02464Y01421*
X02464Y01421*
X02464Y01421*
X02464Y01421*
X02464Y01421*
X02464Y01422*
X02463Y01422*
X02463Y01422*
X02463Y01422*
X02463Y01423*
X02463Y01423*
X02463Y01423*
X02463Y01423*
X02463Y01424*
X02463Y01424*
X02463Y01425*
Y01425*
X02463Y0143*
X02477*
Y01426*
X02465Y01422D02*
X02475D01*
X02464Y01427D02*
X02477D01*
%LNrelia-2*%
%LPC*%
G36*
X02477Y0118D02*
X02463D01*
Y01175*
X02463Y01175*
Y01175*
X02463Y01174*
X02463Y01174*
X02463Y01174*
X02463Y01174*
X02463Y01173*
X02463Y01173*
X02463Y01173*
X02463Y01173*
X02463Y01173*
X02463Y01173*
X02463Y01173*
X02463Y01173*
X02463Y01172*
X02463Y01172*
X02463Y01172*
X02464Y01171*
X02464Y01171*
X02464Y01171*
X02465Y0117*
X02465Y0117*
X02465Y0117*
X02465Y0117*
X02465*
X02465Y0117*
X02466Y0117*
X02466Y0117*
X02467Y0117*
X02468Y01169*
X02468Y01169*
X02469Y01169*
X02469Y01169*
X02469*
X02469Y01169*
X02469*
X0247*
X0247*
X0247Y01169*
X02471Y01169*
X02472Y01169*
X02472Y01169*
X02472Y0117*
X02472Y0117*
X02473Y0117*
X02473Y0117*
X02473Y0117*
X02473Y0117*
X02473Y0117*
X02473Y0117*
X02473*
X02474Y0117*
X02474Y0117*
X02475Y0117*
X02475Y01171*
X02475Y01171*
X02475Y01171*
X02476Y01171*
X02476Y01171*
X02476Y01171*
X02476Y01172*
X02476Y01172*
X02476Y01172*
X02476Y01172*
X02477Y01173*
X02477Y01173*
X02477Y01173*
Y01173*
X02477Y01173*
X02477Y01174*
X02477Y01174*
X02477Y01175*
X02477Y01175*
X02477Y01175*
Y0118*
G37*
G36*
X02471Y0116D02*
X02466Y01158D01*
X02465Y01158*
X02465Y01157*
X02464Y01157*
X02463Y01157*
X02463Y01157*
X02463Y01157*
X02463Y01157*
X02463Y01157*
X02462Y01157*
X02462Y01157*
X02462Y01157*
X02462*
X02463Y01157*
X02464Y01156*
X02464Y01156*
X02465Y01156*
X02465Y01156*
X02465Y01156*
X02466Y01156*
X02466Y01156*
X02466Y01156*
X02466Y01155*
X02466Y01155*
X02466*
X02471Y01153*
Y0116*
G37*
G36*
X02477Y01096D02*
X02463D01*
Y01092*
X02463Y01091*
Y01091*
X02463Y01091*
X02463Y0109*
X02463Y0109*
X02463Y0109*
X02463Y0109*
X02463Y0109*
X02463Y01089*
X02463Y01089*
X02463Y01089*
X02463Y01089*
X02463Y01089*
X02463Y01089*
X02463Y01089*
X02463Y01088*
X02463Y01088*
X02464Y01088*
X02464Y01087*
X02464Y01087*
X02465Y01087*
X02465Y01087*
X02465Y01087*
X02465Y01087*
X02465*
X02465Y01086*
X02466Y01086*
X02466Y01086*
X02467Y01086*
X02468Y01086*
X02468Y01086*
X02469Y01086*
X02469Y01086*
X02469*
X02469Y01086*
X02469*
X0247*
X0247*
X0247Y01086*
X02471Y01086*
X02472Y01086*
X02472Y01086*
X02472Y01086*
X02472Y01086*
X02473Y01086*
X02473Y01086*
X02473Y01086*
X02473Y01086*
X02473Y01086*
X02473Y01086*
X02473*
X02474Y01086*
X02474Y01087*
X02475Y01087*
X02475Y01087*
X02475Y01087*
X02475Y01087*
X02476Y01087*
X02476Y01087*
X02476Y01088*
X02476Y01088*
X02476Y01088*
X02476Y01089*
X02476Y01089*
X02477Y01089*
X02477Y01089*
X02477Y01089*
Y01089*
X02477Y0109*
X02477Y0109*
X02477Y01091*
X02477Y01091*
X02477Y01091*
X02477Y01092*
Y01096*
G37*
G36*
X02469Y01029D02*
X02462D01*
Y01022*
X02462Y01022*
X02462Y01022*
X02463Y01021*
X02463Y01021*
X02463Y01021*
X02463Y01021*
X02463Y0102*
X02463Y0102*
X02463Y0102*
X02463Y0102*
X02463Y0102*
X02464Y01019*
X02464Y01019*
X02464Y01019*
X02465Y01019*
X02465Y01019*
X02465Y01019*
X02465Y01019*
X02465*
X02465*
X02465*
X02466Y01019*
X02466Y01019*
X02466Y01019*
X02467Y01019*
X02467Y01019*
X02467Y01019*
X02467Y01019*
X02467Y01019*
X02467Y01019*
X02468Y0102*
X02468Y0102*
X02468Y0102*
X02468Y0102*
X02468Y0102*
X02468Y01021*
X02468Y01021*
X02468Y01021*
X02468Y01021*
X02469Y01022*
X02469Y01022*
X02469Y01023*
X02469Y01023*
Y01029*
G37*
G36*
X02471Y01624D02*
X02466Y01622D01*
X02465Y01622*
X02465Y01622*
X02464Y01621*
X02463Y01621*
X02463Y01621*
X02463Y01621*
X02463Y01621*
X02463Y01621*
X02462Y01621*
X02462Y01621*
X02462Y01621*
X02462*
X02463Y01621*
X02464Y01621*
X02464Y0162*
X02465Y0162*
X02465Y0162*
X02465Y0162*
X02466Y0162*
X02466Y0162*
X02466Y0162*
X02466Y0162*
X02466Y0162*
X02466*
X02471Y01618*
Y01624*
G37*
G36*
Y01535D02*
X02466Y01533D01*
X02465Y01532*
X02465Y01532*
X02464Y01532*
X02463Y01532*
X02463Y01532*
X02463Y01532*
X02463Y01532*
X02463Y01532*
X02462Y01532*
X02462Y01532*
X02462Y01532*
X02462*
X02463Y01531*
X02464Y01531*
X02464Y01531*
X02465Y01531*
X02465Y01531*
X02465Y0153*
X02466Y0153*
X02466Y0153*
X02466Y0153*
X02466Y0153*
X02466Y0153*
X02466*
X02471Y01528*
Y01535*
G37*
G36*
X02477Y0143D02*
X02463D01*
Y01425*
X02463Y01425*
Y01425*
X02463Y01424*
X02463Y01424*
X02463Y01424*
X02463Y01424*
X02463Y01423*
X02463Y01423*
X02463Y01423*
X02463Y01423*
X02463Y01423*
X02463Y01423*
X02463Y01423*
X02463Y01423*
X02463Y01422*
X02463Y01422*
X02463Y01422*
X02464Y01421*
X02464Y01421*
X02464Y01421*
X02465Y0142*
X02465Y0142*
X02465Y0142*
X02465Y0142*
X02465*
X02465Y0142*
X02466Y0142*
X02466Y0142*
X02467Y01419*
X02468Y01419*
X02468Y01419*
X02469Y01419*
X02469Y01419*
X02469*
X02469Y01419*
X02469*
X0247*
X0247*
X0247Y01419*
X02471Y01419*
X02472Y01419*
X02472Y01419*
X02472Y01419*
X02472Y0142*
X02473Y0142*
X02473Y0142*
X02473Y0142*
X02473Y0142*
X02473Y0142*
X02473Y0142*
X02473*
X02474Y0142*
X02474Y0142*
X02475Y0142*
X02475Y01421*
X02475Y01421*
X02475Y01421*
X02476Y01421*
X02476Y01421*
X02476Y01421*
X02476Y01422*
X02476Y01422*
X02476Y01422*
X02476Y01422*
X02477Y01423*
X02477Y01423*
X02477Y01423*
Y01423*
X02477Y01423*
X02477Y01424*
X02477Y01424*
X02477Y01425*
X02477Y01425*
X02477Y01425*
Y0143*
G37*
M02*