%FSTAX23Y23*%
%MOIN*%
%SFA1B1*%

%IPPOS*%
%ADD187C,0.005000*%
%ADD189C,0.010000*%
%LNrelia-1*%
%LPD*%
G54D187*
X02467Y01181D02*
X02467Y0118D01*
X02467Y01179*
X02467Y01179*
X02467Y01179*
X02466Y01178*
X02466Y01178*
X02466Y01178*
X02466Y01178*
X02466Y01177*
X02466Y01177*
X02466Y01177*
X02466Y01177*
X02466Y01177*
X02466Y01177*
X02466Y01176*
X02466Y01176*
X02465Y01176*
X02465Y01176*
X02465Y01176*
X02465Y01176*
X02464Y01175*
X02465Y01175*
X02464Y01175*
X02464Y01175*
X02464Y01175*
X02463Y01175*
X02466Y01176*
X02462Y01174*
X02462Y01174*
X02461Y01174*
X02461Y01174*
X0246Y01174*
X0246Y01174*
X0246Y01174*
X0246Y01174*
X02459Y01174*
X02458Y01174*
X02458Y01174*
X02458Y01174*
X02457Y01174*
X02457Y01175*
X02457Y01175*
X02456Y01175*
X02456Y01175*
X02456Y01175*
X02456Y01175*
X02455Y01175*
X02455Y01176*
X02454Y01176*
X02454Y01176*
X02454Y01176*
X02454Y01176*
X02454Y01176*
X02454Y01177*
X02453Y01177*
X02453Y01177*
X02453Y01177*
X02453Y01178*
X02453Y01178*
X02453Y01178*
X02453Y01178*
X02453Y01179*
X02453Y01179*
X02453Y0118*
Y0118*
X02453Y01185*
X02467*
Y01181*
X02455Y01177D02*
X02465D01*
X02454Y01182D02*
X02467D01*
X02467Y01097D02*
X02467Y01096D01*
X02467Y01096*
X02467Y01095*
X02467Y01095*
X02466Y01095*
X02466Y01095*
X02466Y01095*
X02466Y01094*
X02466Y01094*
X02466Y01094*
X02466Y01093*
X02466Y01093*
X02466Y01093*
X02466Y01093*
X02466Y01093*
X02466Y01093*
X02465Y01092*
X02465Y01092*
X02465Y01092*
X02465Y01092*
X02464Y01092*
X02465Y01092*
X02464Y01092*
X02464Y01091*
X02464Y01091*
X02463Y01091*
X02466Y01092*
X02462Y01091*
X02462Y01091*
X02461Y01091*
X02461Y01091*
X0246Y01091*
X0246Y01091*
X0246Y01091*
X0246Y01091*
X02459Y01091*
X02458Y01091*
X02458Y01091*
X02458Y01091*
X02457Y01091*
X02457Y01091*
X02457Y01091*
X02456Y01091*
X02456Y01091*
X02456Y01091*
X02456Y01091*
X02455Y01092*
X02455Y01092*
X02454Y01092*
X02454Y01092*
X02454Y01092*
X02454Y01092*
X02454Y01093*
X02454Y01093*
X02453Y01093*
X02453Y01093*
X02453Y01094*
X02453Y01094*
X02453Y01094*
X02453Y01094*
X02453Y01095*
X02453Y01095*
X02453Y01096*
X02453Y01096*
Y01097*
X02453Y01101*
X02467*
Y01097*
X02455Y01093D02*
X02465D01*
X02454Y01098D02*
X02467D01*
X02467Y01061D02*
X02461Y01057D01*
X02461Y01057*
X02461Y01057*
X0246Y01057*
X02457Y01054*
X0246Y01052*
X02461Y01052*
X02461Y01052*
X02461Y01052*
X02461Y01052*
X02467Y01048*
Y01051*
X02459Y01056*
X02453Y01051*
Y01048*
X02457Y01051*
X02457Y01051*
X02458Y01051*
X02458Y01052*
X02458Y01052*
X02458Y01052*
X02459Y01052*
X02462Y01055*
X02458Y01057*
X02458Y01057*
X02458Y01057*
X02457Y01057*
X02457Y01057*
X02457Y01057*
X02453Y0106*
Y01057*
X02459Y01053*
X02467Y01058*
Y01061*
G54D189*
X02462Y01051D02*
X02464Y01053D01*
X02464Y01053*
X02463Y01053*
X02466Y01054*
X02463Y01056*
X02463Y01056*
X02464Y01056*
X02464Y01056*
X02462Y01057*
Y01048*
X02459Y0105*
X02458Y01049*
Y01058*
X02454Y01055*
X02454Y01055*
X02455Y01055*
X02455Y01056*
X02455Y01056*
X02456Y01056*
X02456Y01056*
X02453Y01054*
X02456Y01052*
X02455Y01053*
X02455Y01053*
X02455Y01053*
X02454Y01053*
X02458Y01051*
Y0106*
X02459Y01059*
X02462Y01061*
Y01051*
G54D187*
X02467Y01017D02*
X02461Y01013D01*
X02461Y01013*
X02461Y01013*
X0246Y01013*
X02457Y0101*
X0246Y01008*
X02461Y01008*
X02461Y01008*
X02461Y01008*
X02461Y01007*
X02467Y01003*
Y01007*
X02459Y01012*
X02453Y01007*
Y01004*
X02457Y01007*
X02457Y01007*
X02458Y01007*
X02458Y01008*
X02458Y01008*
X02458Y01008*
X02459Y01008*
X02462Y0101*
X02458Y01013*
X02458Y01013*
X02458Y01013*
X02457Y01013*
X02457Y01013*
X02457Y01013*
X02453Y01016*
Y01013*
X02459Y01009*
X02467Y01014*
Y01017*
X02462Y01007D02*
X02464Y01009D01*
X02464Y01009*
X02463Y01009*
X02466Y0101*
X02463Y01012*
X02463Y01012*
X02464Y01012*
X02464Y01012*
X02462Y01013*
Y01004*
X02459Y01006*
X02458Y01005*
Y01014*
X02454Y01011*
X02454Y01011*
X02455Y01011*
X02455Y01012*
X02455Y01012*
X02456Y01012*
X02456Y01012*
X02453Y0101*
X02456Y01008*
X02455Y01009*
X02455Y01009*
X02455Y01009*
X02454Y01009*
X02458Y01007*
Y01016*
X02459Y01015*
X02462Y01017*
Y01007*
X02454Y01007D02*
X02456D01*
X02465D02*
X02467D01*
X02457Y01012D02*
X02463D01*
X02467Y01017D02*
D01*
X02467Y01436D02*
X02467Y01435D01*
X02467Y01434*
X02467Y01434*
X02467Y01434*
X02466Y01433*
X02466Y01433*
X02466Y01433*
X02466Y01433*
X02466Y01432*
X02466Y01432*
X02466Y01432*
X02466Y01432*
X02466Y01432*
X02466Y01432*
X02466Y01431*
X02466Y01431*
X02465Y01431*
X02465Y01431*
X02465Y01431*
X02465Y0143*
X02464Y0143*
X02465Y0143*
X02464Y0143*
X02464Y0143*
X02464Y0143*
X02463Y0143*
X02466Y01431*
X02462Y01429*
X02462Y01429*
X02461Y01429*
X02461Y01429*
X0246Y01429*
X0246Y01429*
X0246Y01429*
X0246Y01429*
X02459Y01429*
X02458Y01429*
X02458Y01429*
X02458Y01429*
X02457Y01429*
X02457Y01429*
X02457Y0143*
X02456Y0143*
X02456Y0143*
X02456Y0143*
X02456Y0143*
X02455Y0143*
X02455Y0143*
X02454Y01431*
X02454Y01431*
X02454Y01431*
X02454Y01431*
X02454Y01431*
X02454Y01432*
X02453Y01432*
X02453Y01432*
X02453Y01432*
X02453Y01433*
X02453Y01433*
X02453Y01433*
X02453Y01433*
X02453Y01434*
X02453Y01434*
X02453Y01435*
Y01435*
X02453Y0144*
X02467*
Y01436*
X02455Y01432D02*
X02465D01*
X02454Y01437D02*
X02467D01*
%LNrelia-2*%
%LPC*%
G36*
X02467Y01185D02*
X02453D01*
Y0118*
X02453Y0118*
Y0118*
X02453Y01179*
X02453Y01179*
X02453Y01179*
X02453Y01179*
X02453Y01178*
X02453Y01178*
X02453Y01178*
X02453Y01178*
X02453Y01178*
X02453Y01178*
X02453Y01178*
X02453Y01178*
X02453Y01177*
X02453Y01177*
X02453Y01177*
X02454Y01176*
X02454Y01176*
X02454Y01176*
X02455Y01175*
X02455Y01175*
X02455Y01175*
X02455Y01175*
X02455*
X02455Y01175*
X02456Y01175*
X02456Y01175*
X02457Y01175*
X02458Y01174*
X02458Y01174*
X02459Y01174*
X02459Y01174*
X02459*
X02459Y01174*
X02459*
X0246*
X0246*
X0246Y01174*
X02461Y01174*
X02462Y01174*
X02462Y01174*
X02462Y01175*
X02462Y01175*
X02463Y01175*
X02463Y01175*
X02463Y01175*
X02463Y01175*
X02463Y01175*
X02463Y01175*
X02463*
X02464Y01175*
X02464Y01175*
X02465Y01175*
X02465Y01176*
X02465Y01176*
X02465Y01176*
X02466Y01176*
X02466Y01176*
X02466Y01176*
X02466Y01177*
X02466Y01177*
X02466Y01177*
X02466Y01177*
X02467Y01178*
X02467Y01178*
X02467Y01178*
Y01178*
X02467Y01178*
X02467Y01179*
X02467Y01179*
X02467Y0118*
X02467Y0118*
X02467Y0118*
Y01185*
G37*
G36*
X02461Y01165D02*
X02456Y01163D01*
X02455Y01163*
X02455Y01162*
X02454Y01162*
X02453Y01162*
X02453Y01162*
X02453Y01162*
X02453Y01162*
X02453Y01162*
X02452Y01162*
X02452Y01162*
X02452Y01162*
X02452*
X02453Y01162*
X02454Y01161*
X02454Y01161*
X02455Y01161*
X02455Y01161*
X02455Y01161*
X02456Y01161*
X02456Y01161*
X02456Y01161*
X02456Y0116*
X02456Y0116*
X02456*
X02461Y01158*
Y01165*
G37*
G36*
X02467Y01101D02*
X02453D01*
Y01097*
X02453Y01096*
Y01096*
X02453Y01096*
X02453Y01095*
X02453Y01095*
X02453Y01095*
X02453Y01095*
X02453Y01095*
X02453Y01094*
X02453Y01094*
X02453Y01094*
X02453Y01094*
X02453Y01094*
X02453Y01094*
X02453Y01094*
X02453Y01093*
X02453Y01093*
X02454Y01093*
X02454Y01092*
X02454Y01092*
X02455Y01092*
X02455Y01092*
X02455Y01092*
X02455Y01092*
X02455*
X02455Y01091*
X02456Y01091*
X02456Y01091*
X02457Y01091*
X02458Y01091*
X02458Y01091*
X02459Y01091*
X02459Y01091*
X02459*
X02459Y01091*
X02459*
X0246*
X0246*
X0246Y01091*
X02461Y01091*
X02462Y01091*
X02462Y01091*
X02462Y01091*
X02462Y01091*
X02463Y01091*
X02463Y01091*
X02463Y01091*
X02463Y01091*
X02463Y01091*
X02463Y01091*
X02463*
X02464Y01091*
X02464Y01092*
X02465Y01092*
X02465Y01092*
X02465Y01092*
X02465Y01092*
X02466Y01092*
X02466Y01092*
X02466Y01093*
X02466Y01093*
X02466Y01093*
X02466Y01094*
X02466Y01094*
X02467Y01094*
X02467Y01094*
X02467Y01094*
Y01094*
X02467Y01095*
X02467Y01095*
X02467Y01096*
X02467Y01096*
X02467Y01096*
X02467Y01097*
Y01101*
G37*
G36*
X02459Y01034D02*
X02452D01*
Y01027*
X02452Y01027*
X02452Y01027*
X02453Y01026*
X02453Y01026*
X02453Y01026*
X02453Y01026*
X02453Y01025*
X02453Y01025*
X02453Y01025*
X02453Y01025*
X02453Y01025*
X02454Y01024*
X02454Y01024*
X02454Y01024*
X02455Y01024*
X02455Y01024*
X02455Y01024*
X02455Y01024*
X02455*
X02455*
X02455*
X02456Y01024*
X02456Y01024*
X02456Y01024*
X02457Y01024*
X02457Y01024*
X02457Y01024*
X02457Y01024*
X02457Y01024*
X02457Y01024*
X02458Y01025*
X02458Y01025*
X02458Y01025*
X02458Y01025*
X02458Y01025*
X02458Y01026*
X02458Y01026*
X02458Y01026*
X02458Y01026*
X02459Y01027*
X02459Y01027*
X02459Y01028*
X02459Y01028*
Y01034*
G37*
G36*
X02461Y01634D02*
X02456Y01632D01*
X02455Y01632*
X02455Y01632*
X02454Y01631*
X02453Y01631*
X02453Y01631*
X02453Y01631*
X02453Y01631*
X02453Y01631*
X02452Y01631*
X02452Y01631*
X02452Y01631*
X02452*
X02453Y01631*
X02454Y01631*
X02454Y0163*
X02455Y0163*
X02455Y0163*
X02455Y0163*
X02456Y0163*
X02456Y0163*
X02456Y0163*
X02456Y0163*
X02456Y0163*
X02456*
X02461Y01628*
Y01634*
G37*
G36*
Y01545D02*
X02456Y01543D01*
X02455Y01542*
X02455Y01542*
X02454Y01542*
X02453Y01542*
X02453Y01542*
X02453Y01542*
X02453Y01542*
X02453Y01542*
X02452Y01542*
X02452Y01542*
X02452Y01542*
X02452*
X02453Y01541*
X02454Y01541*
X02454Y01541*
X02455Y01541*
X02455Y01541*
X02455Y0154*
X02456Y0154*
X02456Y0154*
X02456Y0154*
X02456Y0154*
X02456Y0154*
X02456*
X02461Y01538*
Y01545*
G37*
G36*
X02467Y0144D02*
X02453D01*
Y01435*
X02453Y01435*
Y01435*
X02453Y01434*
X02453Y01434*
X02453Y01434*
X02453Y01434*
X02453Y01433*
X02453Y01433*
X02453Y01433*
X02453Y01433*
X02453Y01433*
X02453Y01433*
X02453Y01433*
X02453Y01433*
X02453Y01432*
X02453Y01432*
X02453Y01432*
X02454Y01431*
X02454Y01431*
X02454Y01431*
X02455Y0143*
X02455Y0143*
X02455Y0143*
X02455Y0143*
X02455*
X02455Y0143*
X02456Y0143*
X02456Y0143*
X02457Y01429*
X02458Y01429*
X02458Y01429*
X02459Y01429*
X02459Y01429*
X02459*
X02459Y01429*
X02459*
X0246*
X0246*
X0246Y01429*
X02461Y01429*
X02462Y01429*
X02462Y01429*
X02462Y01429*
X02462Y0143*
X02463Y0143*
X02463Y0143*
X02463Y0143*
X02463Y0143*
X02463Y0143*
X02463Y0143*
X02463*
X02464Y0143*
X02464Y0143*
X02465Y0143*
X02465Y01431*
X02465Y01431*
X02465Y01431*
X02466Y01431*
X02466Y01431*
X02466Y01431*
X02466Y01432*
X02466Y01432*
X02466Y01432*
X02466Y01432*
X02467Y01433*
X02467Y01433*
X02467Y01433*
Y01433*
X02467Y01433*
X02467Y01434*
X02467Y01434*
X02467Y01435*
X02467Y01435*
X02467Y01435*
Y0144*
G37*
M02*