%FSTAX23Y23*%
%MOIN*%
%SFA1B1*%

%IPPOS*%
%ADD128C,0.007874*%
%LNrelia-1*%
%LPD*%
G54D128*
X00667Y01345D02*
Y01374D01*
Y01345D02*
X00732D01*
Y01374*
X00667D02*
X00732D01*
X00642Y01387D02*
Y01432D01*
X00557D02*
X00642D01*
X00557Y01387D02*
Y01432D01*
Y01387D02*
X00642D01*
X01776Y00123D02*
Y00226D01*
X01653Y00123D02*
X01776D01*
X01653D02*
Y00226D01*
X01776*
X02251Y01419D02*
X02479D01*
Y0176*
X02251D02*
X02479D01*
X02251Y01419D02*
Y0176D01*
X01519Y02051D02*
X0186D01*
X01519D02*
Y02279D01*
X0186*
Y02051D02*
Y02279D01*
X00692Y02D02*
X00757D01*
X00692D02*
Y02029D01*
X00757*
Y02D02*
Y02029D01*
X00679Y0208D02*
X00744D01*
X00679D02*
Y02109D01*
X00744*
Y0208D02*
Y02109D01*
X00677Y02162D02*
X00747D01*
Y02127D02*
Y02162D01*
X00677Y02127D02*
X00747D01*
X00677D02*
Y02162D01*
X00679Y01865D02*
X00744D01*
X00679D02*
Y01894D01*
X00744*
Y01865D02*
Y01894D01*
X00682Y0176D02*
X00747D01*
X00682D02*
Y01789D01*
X00747*
Y0176D02*
Y01789D01*
X00679Y01815D02*
X00744D01*
X00679D02*
Y01844D01*
X00744*
Y01815D02*
Y01844D01*
X01768Y0079D02*
Y00909D01*
X01831*
Y0079D02*
Y00909D01*
X01768Y0079D02*
X01831D01*
X01859Y00781D02*
X0192D01*
Y00918*
X01859D02*
X0192D01*
X01859Y00781D02*
Y00918D01*
X01182Y00496D02*
Y00669D01*
X00867D02*
X01182D01*
X00867Y00496D02*
Y00669D01*
Y00496D02*
X01182D01*
X01439Y01891D02*
X0147D01*
X01439Y01828D02*
Y01891D01*
Y01828D02*
X0147D01*
Y01891*
X01544D02*
X01575D01*
X01544Y01828D02*
Y01891D01*
Y01828D02*
X01575D01*
Y01891*
X0143Y01733D02*
Y01816D01*
Y01733D02*
X01579D01*
Y01816*
X0143D02*
X01579D01*
X02253Y00895D02*
X02473D01*
Y01334*
X02253D02*
X02473D01*
X02253Y00895D02*
Y01334D01*
X00174Y00226D02*
X00477D01*
Y01037*
X00174D02*
X00477D01*
X00174Y00226D02*
Y01037D01*
X00849Y01276D02*
Y01343D01*
X0088*
Y01276D02*
Y01343D01*
X00849Y01276D02*
X0088D01*
X01969Y00036D02*
Y00256D01*
Y00036D02*
X0226D01*
Y00256*
X01969D02*
X0226D01*
X01178Y00226D02*
X01211D01*
X01178Y00163D02*
Y00226D01*
Y00163D02*
X01211D01*
Y00226*
X01447Y01012D02*
X01532D01*
Y00967D02*
Y01012D01*
X01447Y00967D02*
X01532D01*
X01447D02*
Y01012D01*
X01339Y00951D02*
X0137D01*
Y01018*
X01339D02*
X0137D01*
X01339Y00951D02*
Y01018D01*
X01394Y00951D02*
Y01018D01*
X01425*
Y00951D02*
Y01018D01*
X01394Y00951D02*
X01425D01*
X02075Y00475D02*
X02134D01*
X02075D02*
Y00504D01*
X02134*
Y00475D02*
Y00504D01*
X02171Y00409D02*
X02494D01*
Y008*
X02171D02*
X02494D01*
X02171Y00409D02*
Y008D01*
X00902Y01697D02*
X01567D01*
X00902Y01032D02*
Y01697D01*
Y01032D02*
X01567D01*
Y01697*
X0138Y00547D02*
Y00622D01*
X01419*
Y00547D02*
Y00622D01*
X0138Y00547D02*
X01419D01*
X01444Y00578D02*
Y00641D01*
X01475*
Y00578D02*
Y00641D01*
X01444Y00578D02*
X01475D01*
X01498Y00544D02*
Y00625D01*
X01541*
Y00544D02*
Y00625D01*
X01498Y00544D02*
X01541D01*
X01481Y00289D02*
Y0037D01*
X01438Y00289D02*
X01481D01*
X01438D02*
Y0037D01*
X01481*
X01391Y00402D02*
Y00507D01*
X01478*
Y00402D02*
Y00507D01*
X01391Y00402D02*
X01478D01*
X01279Y00518D02*
Y00581D01*
X0131*
Y00518D02*
Y00581D01*
X01279Y00518D02*
X0131D01*
X01309Y00382D02*
Y00457D01*
X0127Y00382D02*
X01309D01*
X0127D02*
Y00457D01*
X01309*
X01374Y00467D02*
Y00522D01*
X01345Y00467D02*
X01374D01*
X01345D02*
Y00522D01*
X01374*
X01505Y00382D02*
Y00447D01*
X01534*
Y00382D02*
Y00447D01*
X01505Y00382D02*
X01534D01*
X01498Y0051D02*
X01561D01*
Y00479D02*
Y0051D01*
X01498Y00479D02*
X01561D01*
X01498D02*
Y0051D01*
X01783Y00043D02*
Y00106D01*
X01816*
Y00043D02*
Y00106D01*
X01783Y00043D02*
X01816D01*
X01253Y01714D02*
Y01745D01*
Y01714D02*
X01316D01*
Y01745*
X01253D02*
X01316D01*
X0161Y01722D02*
X01639D01*
Y01787*
X0161D02*
X01639D01*
X0161Y01722D02*
Y01787D01*
X01579Y01588D02*
Y01651D01*
X0161*
Y01588D02*
Y01651D01*
X01579Y01588D02*
X0161D01*
X01354Y01728D02*
X01385D01*
Y01791*
X01354D02*
X01385D01*
X01354Y01728D02*
Y01791D01*
X01858Y01793D02*
X01891D01*
Y01856*
X01858D02*
X01891D01*
X01858Y01793D02*
Y01856D01*
X01339Y01853D02*
X0137D01*
Y01916*
X01339D02*
X0137D01*
X01339Y01853D02*
Y01916D01*
X0191Y01732D02*
Y01767D01*
Y01732D02*
X01979D01*
Y01767*
X0191D02*
X01979D01*
X01244Y02059D02*
Y0209D01*
Y02059D02*
X01307D01*
Y0209*
X01244D02*
X01307D01*
X01919Y01793D02*
X0195D01*
Y01856*
X01919D02*
X0195D01*
X01919Y01793D02*
Y01856D01*
X01369Y02083D02*
X014D01*
Y02146*
X01369D02*
X014D01*
X01369Y02083D02*
Y02146D01*
X01869Y01675D02*
Y01704D01*
Y01675D02*
X01934D01*
Y01704*
X01869D02*
X01934D01*
X01625Y01587D02*
X01654D01*
X01625Y01522D02*
Y01587D01*
Y01522D02*
X01654D01*
Y01587*
X02124Y00976D02*
X02155D01*
X02124Y00913D02*
Y00976D01*
Y00913D02*
X02155D01*
Y00976*
X01954Y02053D02*
X02245D01*
X01954D02*
Y02273D01*
X02245*
Y02053D02*
Y02273D01*
X02085Y01972D02*
X02114D01*
Y02037*
X02085D02*
X02114D01*
X02085Y01972D02*
Y02037D01*
X02186Y01175D02*
Y01204D01*
Y01175D02*
X02243D01*
Y01204*
X02186D02*
X02243D01*
X02178Y01989D02*
X02241D01*
X02178D02*
Y0202D01*
X02241*
Y01989D02*
Y0202D01*
X02185Y01225D02*
Y01254D01*
Y01225D02*
X02243D01*
Y01254*
X02185D02*
X02243D01*
X00829Y01721D02*
X0086D01*
Y01788*
X00829D02*
X0086D01*
X00829Y01721D02*
Y01788D01*
X00834Y01573D02*
X00865D01*
Y01636*
X00834D02*
X00865D01*
X00834Y01573D02*
Y01636D01*
X00884Y01756D02*
X00915D01*
Y01823*
X00884D02*
X00915D01*
X00884Y01756D02*
Y01823D01*
X00939Y01756D02*
X0097D01*
Y01823*
X00939D02*
X0097D01*
X00939Y01756D02*
Y01823D01*
X01049Y01743D02*
X0108D01*
Y01806*
X01049D02*
X0108D01*
X01049Y01743D02*
Y01806D01*
X01132Y0205D02*
Y02079D01*
X01067D02*
X01132D01*
X01067Y0205D02*
Y02079D01*
Y0205D02*
X01132D01*
X01142Y0171D02*
Y01739D01*
Y0171D02*
X01207D01*
Y01739*
X01142D02*
X01207D01*
X01124Y01822D02*
Y01857D01*
X01055D02*
X01124D01*
X01055Y01822D02*
Y01857D01*
Y01822D02*
X01124D01*
X01035Y00088D02*
X01104D01*
Y00051D02*
Y00088D01*
X01035Y00051D02*
X01104D01*
X01035D02*
Y00088D01*
X0117Y00087D02*
Y00142D01*
X01199*
Y00087D02*
Y00142D01*
X0117Y00087D02*
X01199D01*
X01542Y00031D02*
Y00248D01*
X01427Y00031D02*
X01542D01*
X01427D02*
Y00248D01*
X01542*
X01258Y00244D02*
Y00325D01*
X01301*
Y00244D02*
Y00325D01*
X01258Y00244D02*
X01301D01*
X01622Y00072D02*
Y00137D01*
X01587Y00072D02*
X01622D01*
X01587D02*
Y00137D01*
X01622*
X01549Y01021D02*
X0158D01*
X01549Y00958D02*
Y01021D01*
Y00958D02*
X0158D01*
Y01021*
X00623Y00494D02*
Y00525D01*
Y00494D02*
X00686D01*
Y00525*
X00623D02*
X00686D01*
X00512Y00211D02*
X00797D01*
Y00048D02*
Y00211D01*
X00512Y00048D02*
X00797D01*
X00512D02*
Y00211D01*
X00514Y00578D02*
Y00601D01*
Y00578D02*
X00551D01*
Y00601*
X00514D02*
X00551D01*
X00519Y00488D02*
Y00531D01*
Y00488D02*
X006D01*
Y00531*
X00519D02*
X006D01*
X00733Y00777D02*
X00765D01*
X00733Y00714D02*
Y00777D01*
Y00714D02*
X00765D01*
Y00777*
X0192Y00938D02*
Y00981D01*
X01839D02*
X0192D01*
X01839Y00938D02*
Y00981D01*
Y00938D02*
X0192D01*
X00547Y0113D02*
Y01159D01*
X00482D02*
X00547D01*
X00482Y0113D02*
Y01159D01*
Y0113D02*
X00547D01*
X00587Y01138D02*
X00622D01*
X00587Y01068D02*
Y01138D01*
Y01068D02*
X00622D01*
Y01138*
X00639Y01136D02*
X0067D01*
X00639Y01073D02*
Y01136D01*
Y01073D02*
X0067D01*
Y01136*
X00317Y01375D02*
X00352D01*
Y01444*
X00317D02*
X00352D01*
X00317Y01375D02*
Y01444D01*
X00335Y01127D02*
X00364D01*
Y01192*
X00335D02*
X00364D01*
X00335Y01127D02*
Y01192D01*
X00379Y01388D02*
X0041D01*
Y01451*
X00379D02*
X0041D01*
X00379Y01388D02*
Y01451D01*
X0039Y01127D02*
X00419D01*
Y01192*
X0039D02*
X00419D01*
X0039Y01127D02*
Y01192D01*
X00787Y0078D02*
X00821D01*
X00787Y00711D02*
Y0078D01*
Y00711D02*
X00821D01*
Y0078*
X00842Y00921D02*
Y0095D01*
Y00921D02*
X00907D01*
Y0095*
X00842D02*
X00907D01*
X00868Y00755D02*
Y00786D01*
Y00755D02*
X00931D01*
Y00786*
X00868D02*
X00931D01*
X00862Y00808D02*
Y00853D01*
Y00808D02*
X00947D01*
Y00853*
X00862D02*
X00947D01*
X00887Y01147D02*
Y01192D01*
X00802D02*
X00887D01*
X00802Y01147D02*
Y01192D01*
Y01147D02*
X00887D01*
X00881Y01094D02*
Y01125D01*
X00818D02*
X00881D01*
X00818Y01094D02*
Y01125D01*
Y01094D02*
X00881D01*
X00966Y00979D02*
X01033D01*
X00966D02*
Y0101D01*
X01033*
Y00979D02*
Y0101D01*
X00631Y01339D02*
Y0137D01*
X00568D02*
X00631D01*
X00568Y01339D02*
Y0137D01*
Y01339D02*
X00631D01*
X01729Y00928D02*
X0181D01*
X01729D02*
Y00971D01*
X0181*
Y00928D02*
Y00971D01*
X00774Y01706D02*
X00805D01*
Y01773*
X00774D02*
X00805D01*
X00774Y01706D02*
Y01773D01*
X00783Y01573D02*
Y01636D01*
X00816*
Y01573D02*
Y01636D01*
X00783Y01573D02*
X00816D01*
X01921Y01143D02*
Y01206D01*
X01888Y01143D02*
X01921D01*
X01888D02*
Y01206D01*
X01921*
X01939Y01211D02*
X0197D01*
X01939Y01148D02*
Y01211D01*
Y01148D02*
X0197D01*
Y01211*
X02003Y01458D02*
Y01491D01*
Y01458D02*
X02066D01*
Y01491*
X02003D02*
X02066D01*
X01716Y00033D02*
Y00096D01*
X01683Y00033D02*
X01716D01*
X01683D02*
Y00096D01*
X01716*
X01698Y00286D02*
X01761D01*
Y00253D02*
Y00286D01*
X01698Y00253D02*
X01761D01*
X01698D02*
Y00286D01*
X01627Y00262D02*
Y00327D01*
X01662*
Y00262D02*
Y00327D01*
X01627Y00262D02*
X01662D01*
X01749Y00353D02*
X0178D01*
Y00416*
X01749D02*
X0178D01*
X01749Y00353D02*
Y00416D01*
X01803Y00353D02*
X01836D01*
Y00416*
X01803D02*
X01836D01*
X01803Y00353D02*
Y00416D01*
X01805Y00164D02*
X01864D01*
Y00135D02*
Y00164D01*
X01805Y00135D02*
X01864D01*
X01805D02*
Y00164D01*
X02004Y00278D02*
Y00321D01*
Y00278D02*
X02085D01*
Y00321*
X02004D02*
X02085D01*
X01932Y00346D02*
Y00463D01*
Y00346D02*
X02147D01*
Y00463*
X01932D02*
X02147D01*
X02175Y00278D02*
Y00321D01*
X02094D02*
X02175D01*
X02094Y00278D02*
Y00321D01*
Y00278D02*
X02175D01*
X02139Y0069D02*
Y00719D01*
X0208D02*
X02139D01*
X0208Y0069D02*
Y00719D01*
Y0069D02*
X02139D01*
X02083Y0151D02*
X02236D01*
X02083Y01329D02*
Y0151D01*
Y01329D02*
X02236D01*
Y0151*
X02013Y01399D02*
Y0143D01*
Y01399D02*
X02076D01*
Y0143*
X02013D02*
X02076D01*
X01099Y01743D02*
X0113D01*
Y01806*
X01099D02*
X0113D01*
X01099Y01743D02*
Y01806D01*
X01163Y01924D02*
X01226D01*
X01163D02*
Y01955D01*
X01226*
Y01924D02*
Y01955D01*
M02*