M48
;Layer_Color=9474304
;FILE_FORMAT=4:3
METRIC
;TYPE=PLATED
T01F00S00C0.200
T02F00S00C0.203
T03F00S00C0.250
T05F00S00C2.000
%
T01
X0056958Y0029278
X0057658
Y0030078
X0056958
T02
X0040894Y0029337
X0041275Y0030099
X0040513
X0040894Y0030861
T03
X0018034Y0031750
X0018161Y0033020
X0018415Y0034290
X0018161Y0036068
X0019812Y0035814
X0019431Y0037211
X0022860Y0033401
X0024511Y0033274
X0026670Y0032639
Y0035306
X0026162Y0029591
X0026416Y0027432
X0031369Y0027813
Y0029972
X0035433Y0028575
X0037084Y0028448
X0039370Y0031750
X0037592Y0034290
X0035179
X0037592Y0038862
X0031623
X0022860Y0030988
X0039751Y0028321
X0041910Y0027178
X0045974Y0028194
X0048006
X0049911Y0027432
X0050292Y0029464
X0052324Y0028575
X0052705Y0030353
X0054864Y0030480
X0056134Y0031115
X0057658Y0031242
X0058928Y0030734
X0058551Y0032889
X0058420Y0036195
X0059817Y0036703
X0060071Y0038989
X0066167Y0037973
X0066294Y0034417
X0068707Y0036703
X0069850Y0032893
X0069596Y0031115
X0068961Y0028194
X0062611Y0027813
X0061341Y0028829
X0060452Y0027686
X0058674Y0026543
X0057912Y0028067
X0056515Y0028194
X0055880Y0027813
X0055499Y0028829
Y0026543
X0053467Y0026924
X0052959Y0032639
X0051435Y0032385
X0049784Y0033274
X0048641Y0032385
X0047244Y0032131
X0047752Y0033655
X0045212Y0034163
X0044577Y0035814
X0045085Y0037338
X0045212Y0038862
X0047117Y0037719
X0049276Y0036957
X0049784Y0038735
X0049911Y0039624
X0050800
X0050165Y0035306
X0053594Y0037084
X0054991Y0034036
X0060960Y0031750
X0063500Y0032385
X0044958Y0031877
X0043688Y0031496
X0041783Y0038862
X0045720Y0040386
X0048710Y0041275
X0050292Y0042037
X0053467Y0041275
X0053340Y0039878
X0056769
X0059055Y0040259
X0058547Y0045085
X0060452
X0057912Y0048260
X0059817Y0050546
X0062103Y0054229
X0063373
X0065024Y0056388
X0065532Y0058801
X0066167Y0060833
X0066421Y0062865
X0064008
X0063754Y0060579
X0061849Y0061341
X0059436Y0061595
X0057053Y0062303
X0053885Y0062611
X0053883Y0063878
X0054991Y0063881
X0054102Y0065405
X0051927Y0065549
X0051909Y0064611
X0051689Y0063627
X0050292Y0064135
X0050243Y0065561
X0049022Y0065701
X0049149Y0063373
X0045720Y0061595
X0044577Y0065231
X0044450Y0066548
X0045928Y0066790
X0046627Y0066819
X0047625Y0068961
X0048641Y0068834
X0049530Y0069704
X0049276Y0070720
X0048133Y0071736
X0046736Y0070231
X0045781Y0070096
X0043815Y0070231
X0042370Y0069723
X0041910Y0068961
X0041148
X0040767Y0069469
X0040005Y0071120
X0039954Y0072466
X0042291Y0072771
X0042300Y0071129
X0042129Y0066891
X0040513Y0066167
X0040132Y0060579
X0040759Y0056269
X0042799Y0056074
X0044196
X0045720Y0056261
X0046990Y0056134
X0048260Y0056074
Y0053467
X0047258
X0046108Y0053230
X0046585Y0051438
X0049403Y0053467
X0050570Y0053221
X0051554Y0052305
X0052959Y0051943
X0053594Y0049403
X0052197
X0054483Y0054102
X0054229Y0058039
X0060579Y0059436
X0068580Y0059182
X0073279Y0058674
Y0056769
X0073533Y0055626
X0073660Y0053975
X0073152Y0052832
X0073533Y0051816
X0073025Y0050292
X0073152Y0048768
X0070739Y0046863
X0067437Y0047625
X0066675Y0049403
X0069088Y0051054
X0068707Y0054102
X0068326Y0044196
X0065786Y0043053
X0066040Y0040640
X0042926Y0043180
X0040132Y0043307
X0043942Y0049022
X0043307Y0053585
X0044958Y0057277
X0052840Y0066540
X0054737Y0067564
X0054483Y0069088
X0056007Y0070739
X0058293Y0070485
X0060198Y0071120
X0060452Y0072644
X0063754Y0072390
X0063627Y0071247
X0064389Y0070485
X0061976Y0070231
X0061214Y0069469
X0062103Y0067437
X0056642Y0065786
X0057277Y0075946
X0052705Y0073660
X0050546Y0073533
X0050927Y0077216
X0048895Y0077851
X0047117Y0078740
X0046990Y0076962
X0045212Y0076581
Y0074676
X0044196Y0078232
X0042418Y0078867
X0067056Y0074422
X0069342
X0070231Y0075311
X0071247Y0074422
X0071882Y0071120
X0070739Y0070358
X0074549Y0070612
Y0068580
X0073914Y0067183
X0075246Y0065647
X0074803Y0064897
X0074295Y0063627
X0073406Y0062103
X0071882Y0063119
X0039116Y0065151
X0037906Y0066171
X0036322Y0065659
X0035306Y0065151
X0034544Y0065024
X0035179Y0067310
X0033274Y0066929
X0028829Y0068072
X0028956Y0069850
X0027559Y0072136
X0028448Y0074676
X0029083Y0076073
X0028194Y0077216
X0028829Y0078613
X0033274Y0077851
X0032639Y0074549
X0034163Y0071755
X0036449Y0072517
X0037592Y0073279
X0035814Y0060198
X0038862Y0059563
X0038481Y0058928
X0038608Y0056515
X0038862Y0055626
X0038328Y0054703
X0037279Y0053653
X0035941Y0052959
X0034036Y0052832
X0033655Y0054864
X0031242Y0053848
X0031496Y0052451
X0029591Y0051943
Y0054991
X0029997Y0056412
X0030743Y0057547
X0029591Y0058801
X0028575Y0058806
X0028497Y0057380
X0027940Y0059817
X0027690Y0061151
X0030226Y0061214
X0031115Y0060833
X0030099Y0059817
X0031975Y0059211
X0024892Y0059436
X0023775Y0059583
X0022469Y0059643
X0021219
X0019939Y0059690
X0021717Y0060658
X0021844Y0061595
X0021476Y0054991
X0021590Y0053848
X0021336Y0052451
X0023368Y0053213
X0022860Y0050673
X0024511Y0049657
X0026190Y0053618
X0027432Y0053467
X0028448Y0054102
X0024765Y0056134
X0025019Y0057785
X0019913Y0055733
X0019812Y0044323
X0019304Y0042545
X0026797Y0041275
X0028575Y0040386
X0028067Y0046990
X0031298Y0046807
X0033391Y0046754
X0032899Y0045841
X0034036Y0045466
X0034798Y0046101
X0035433Y0047117
X0036830Y0047498
X0037211Y0048514
X0036705Y0049897
X0038679Y0051872
X0037211Y0044323
X0035433Y0044704
X0034925Y0043561
X0033401Y0043307
X0032137Y0045079
X0038862Y0042926
X0038354Y0039878
X0025781Y0065659
X0016383Y0065151
X0015850Y0078628
X0020701Y0080137
X0025273Y0080391
X0032568Y0080397
X0040005Y0082677
X0044577
X0048895Y0080899
X0050927Y0082169
X0054229Y0081788
X0053975Y0083058
X0053848Y0079375
X0055753Y0080264
X0057277Y0080010
X0058928Y0079629
X0058293Y0081788
X0059055Y0082804
X0065913
X0065151Y0081661
X0065786Y0079883
X0068199
X0068326Y0081661
X0068707Y0082931
X0071374Y0080772
X0073279Y0079502
T05
X0016716Y0028400
X0074272
X0017780Y0082550
X0074272Y0082400
M30
