%FSTAX23Y23*%
%MOIN*%
%SFA1B1*%

%IPPOS*%
%ADD173C,0.003937*%
%ADD175C,0.001969*%
%LNrelia-1*%
%LPD*%
G54D173*
X0145Y02135D02*
X01489D01*
X0147Y02115D02*
Y02154D01*
X0219Y00905D02*
X02229D01*
X0221Y00885D02*
Y00924D01*
X0231Y0203D02*
X02349D01*
X0233Y0201D02*
Y02049D01*
X01184Y00275D02*
X01205D01*
X01195Y00264D02*
Y00285D01*
Y00324D02*
Y00345D01*
X01184Y00335D02*
X01205D01*
X01584Y00185D02*
X01605D01*
X01595Y00174D02*
Y00195D01*
X00635Y0035D02*
X00674D01*
X00655Y0033D02*
Y00369D01*
X0187Y01355D02*
Y01394D01*
X0185Y01375D02*
X01889D01*
X01835Y00209D02*
Y0023D01*
X01824Y0022D02*
X01845D01*
X0173Y00309D02*
Y0033D01*
X01719Y0032D02*
X0174D01*
X0205Y0159D02*
X02089D01*
X0207Y0157D02*
Y01609D01*
X0223Y01579D02*
Y016D01*
X02219Y0159D02*
X0224D01*
X02335Y0184D02*
X02374D01*
X02355Y0182D02*
Y01859D01*
G54D175*
X00007Y02167D02*
X00688D01*
X00007Y02108D02*
Y02167D01*
X-00205Y02108D02*
X00007D01*
X-00205Y01655D02*
Y02108D01*
Y01655D02*
X00007D01*
Y01561D02*
Y01655D01*
Y01561D02*
X00688D01*
Y02167*
X01165Y01784D02*
X01324D01*
Y01905*
X01165D02*
X01324D01*
X01165Y01784D02*
Y01905D01*
X01101Y02104D02*
Y02325D01*
X00968Y02104D02*
X01101D01*
X00968D02*
Y02325D01*
X01101*
X01148Y02104D02*
Y02325D01*
X01281*
Y02104D02*
Y02325D01*
X01148Y02104D02*
X01281D01*
X007Y00811D02*
X00838D01*
Y0093*
X007D02*
X00838D01*
X007Y00811D02*
Y0093D01*
X01657Y01576D02*
Y01773D01*
Y01576D02*
X01862D01*
Y01773*
X01657D02*
X01862D01*
X02123Y00522D02*
Y00657D01*
X01956D02*
X02123D01*
X01956Y00522D02*
Y00657D01*
Y00522D02*
X02123D01*
X00428Y01195D02*
Y01344D01*
X00211Y01195D02*
X00428D01*
X00211D02*
Y01344D01*
X00428*
X01351Y00271D02*
X01418D01*
Y00378*
X01351D02*
X01418D01*
X01351Y00271D02*
Y00378D01*
X01433Y02048D02*
X01506D01*
X01433D02*
Y02221D01*
X01506*
Y02048D02*
Y02221D01*
X02173Y00991D02*
X02246D01*
Y00818D02*
Y00991D01*
X02173Y00818D02*
X02246D01*
X02173D02*
Y00991D01*
X02293Y01943D02*
X02366D01*
X02293D02*
Y02116D01*
X02366*
Y01943D02*
Y02116D01*
X01403Y00036D02*
Y00213D01*
X01226Y00036D02*
X01403D01*
X01226D02*
Y00213D01*
X01403*
X01157Y00255D02*
Y00294D01*
X01232Y00255D02*
Y00294D01*
X01157D02*
X01232D01*
X01157Y00255D02*
X01232D01*
X01159Y00317D02*
X0123D01*
X01159Y00352D02*
X0123D01*
Y00317D02*
Y00352D01*
X01159Y00317D02*
Y00352D01*
X0161Y00155D02*
Y00214D01*
X01579Y00155D02*
Y00214D01*
X0161*
X01579Y00155D02*
X0161D01*
X00788Y00267D02*
Y00432D01*
X00521Y00267D02*
Y00432D01*
Y00267D02*
X00788D01*
X00521Y00432D02*
X00788D01*
X00831Y00042D02*
X00958D01*
Y00227*
X00831D02*
X00958D01*
X00831Y00042D02*
Y00227D01*
Y00427D02*
X00958D01*
X00831Y00242D02*
Y00427D01*
Y00242D02*
X00958D01*
Y00427*
X00723Y01171D02*
Y01308D01*
X00526Y01171D02*
X00723D01*
X00526D02*
Y01308D01*
X00723*
X01767Y01243D02*
X01972D01*
X01767Y01506D02*
X01972D01*
X01767Y01243D02*
Y01506D01*
X01972Y01243D02*
Y01506D01*
X01815Y00257D02*
X01854D01*
X01815Y00182D02*
X01854D01*
Y00257*
X01815Y00182D02*
Y00257D01*
X017Y00304D02*
X01759D01*
X017Y00335D02*
X01759D01*
Y00304D02*
Y00335D01*
X017Y00304D02*
Y00335D01*
X01853Y00352D02*
Y00427D01*
X01896Y00352D02*
Y00427D01*
X01853D02*
X01896D01*
X01853Y00352D02*
X01896D01*
X01949Y01519D02*
X0219D01*
X01949D02*
Y0166D01*
X0219Y01519D02*
Y0166D01*
X01949D02*
X0219D01*
X02212Y01554D02*
X02247D01*
X02212Y01625D02*
X02247D01*
X02212Y01554D02*
Y01625D01*
X02247Y01554D02*
Y01625D01*
X02268Y01803D02*
X02441D01*
Y01876*
X02268D02*
X02441D01*
X02268Y01803D02*
Y01876D01*
X02193Y01782D02*
X02236D01*
X02193Y01707D02*
X02236D01*
X02193D02*
Y01782D01*
X02236Y01707D02*
Y01782D01*
M02*