%FSTAX23Y23*%
%MOIN*%
%SFA1B1*%

%IPPOS*%
%ADD128C,0.007874*%
%ADD187C,0.005000*%
%ADD189C,0.010000*%
%LNrelia-1*%
%LPD*%
G54D187*
X018Y00859D02*
X018Y00859D01*
X018Y00859*
X018Y00859*
X01801Y00859*
X01801Y00859*
X01801Y00859*
X01802Y00859*
X01802Y00859*
X01802Y00859*
X01802Y00859*
X01803Y00859*
X01803Y00859*
X01803Y00858*
X01803Y00858*
X01803Y00858*
X01804Y00858*
X01804Y00858*
X01804Y00858*
X01804Y00858*
X01804Y00857*
X01804Y00857*
X01804Y00857*
X01804Y00857*
X01804Y00856*
X01804Y00856*
X01804Y00856*
X01804Y00855*
X01804Y00855*
X01804Y00852*
X01794*
Y00855*
X01794Y00855*
X01794Y00856*
X01794Y00856*
X01794Y00856*
X01794Y00857*
X01795Y00857*
X01795Y00857*
X01795Y00857*
X01795Y00857*
X01795Y00858*
X01795Y00858*
X01795Y00858*
X01795Y00858*
X01795Y00858*
X01796Y00859*
X01796Y00859*
X01796Y00859*
X01797Y00859*
X01797Y00859*
X01797Y00859*
X01797Y00859*
X01797Y00859*
X01797Y00859*
X01798Y00859*
X01798Y00859*
X01798Y00859*
X01799Y00859*
X01799Y00859*
X01799Y00859*
X018Y00859*
G54D189*
X01799Y00854D02*
X01799Y00854D01*
X018Y00854*
X018Y00854*
X018Y00854*
X018Y00854*
X018Y00854*
X018Y00854*
X018Y00854*
X018Y00854*
X018Y00854*
X018Y00854*
X018Y00854*
X018Y00855*
X018Y00855*
X01799Y00855*
X01799Y00855*
X01799Y00855*
X01799Y00856*
X01799Y00856*
X01799Y00855*
X01799Y00855*
X01799Y00857*
X01799*
Y00855*
X01799Y00855*
X01799Y00855*
X01799Y00856*
X01799Y00856*
X01799Y00855*
X01799Y00855*
X01799Y00854*
X01799Y00854*
X01798Y00854*
X01796Y00854*
X01799Y00854*
X01799Y00854*
X01799Y00854*
X01799Y00854*
X01799Y00854*
G54D187*
X01889Y00859D02*
X01889Y00859D01*
X0189Y00859*
X0189Y00859*
X0189Y00859*
X01891Y00859*
X01891Y00859*
X01891Y00859*
X01892Y00859*
X01892Y00859*
X01892Y00859*
X01892Y00859*
X01893Y00859*
X01893Y00858*
X01893Y00858*
X01893Y00858*
X01893Y00858*
X01893Y00858*
X01894Y00858*
X01894*
X01894Y00857*
X01894Y00857*
X01894Y00857*
X01894Y00857*
X01894Y00856*
X01894Y00856*
X01894Y00856*
X01894Y00855*
X01894Y00855*
Y00852*
X01884*
Y00855*
X01884Y00855*
X01884Y00856*
X01884Y00856*
X01884Y00856*
X01884Y00857*
X01884Y00857*
X01884Y00857*
X01884Y00857*
X01884Y00857*
X01885Y00858*
X01885Y00858*
X01885Y00858*
X01885Y00858*
X01885Y00858*
X01885Y00859*
X01886Y00859*
X01886Y00859*
X01886Y00859*
X01886Y00859*
X01887Y00859*
X01887Y00859*
X01887Y00859*
X01887Y00859*
X01888Y00859*
X01888Y00859*
X01888Y00859*
X01889Y00859*
X01889Y00859*
X01889Y00859*
X01889Y00859*
X01886Y00854D02*
X01895D01*
X01888Y00859D02*
X01891D01*
X02141Y00169D02*
X02141Y00169D01*
X02142Y00169*
X02142Y00169*
X02142Y00169*
X02143Y00169*
X02143Y00169*
X02143Y00169*
X02144Y00169*
X02144Y00169*
X02144Y00168*
X02144Y00168*
X02145Y00168*
X02145Y00168*
X02145Y00167*
X02145Y00167*
X02145Y00167*
X02145Y00166*
X02145Y00166*
X02146Y00166*
X02146Y00166*
X02146Y00165*
X02146Y00165*
X02146Y00165*
X02146Y00165*
X02145Y00164*
X02145Y00164*
X02145Y00164*
X02145Y00164*
X02145Y00164*
X02145Y00163*
X02145Y00163*
X02144Y00163*
X02144Y00163*
X02137Y0016*
X02144Y00158*
X02144Y00158*
X02144Y00158*
X02145Y00158*
X02145Y00157*
X02145Y00157*
X02146Y00157*
X02146Y00156*
X02146Y00156*
X02146Y00156*
X02146Y00156*
X02146Y00155*
X02146Y00155*
X02147Y00154*
X02147Y00154*
X02147Y00154*
X02147Y00154*
X02147Y00154*
X02147Y00153*
X02146Y00153*
X02146Y00153*
X02146Y00153*
X02146Y00152*
X02146Y00152*
X02146Y00151*
X02146Y00151*
X02145Y00151*
X02145Y0015*
X02145Y0015*
X02145Y0015*
X02145Y0015*
X02144Y0015*
X02144Y0015*
X02144Y00149*
X02143Y00149*
X02143Y00149*
X02143Y00149*
X02142Y00149*
X02142Y00149*
X02141Y00149*
X02141Y00149*
X02141Y00149*
X0214Y00149*
X0214Y00149*
X0214Y00149*
X02139Y00149*
X02139Y00149*
X02138Y00149*
X02138Y00149*
X02137Y0015*
X02137Y0015*
X02137Y0015*
X02137Y0015*
X02136Y0015*
X02136Y00151*
X02136Y00151*
X02136Y00151*
X02136Y00151*
X02136Y00152*
X02136Y00152*
X02135Y00152*
X02135Y00152*
X02135Y00153*
X02135Y00153*
X02135Y00154*
X02135Y00154*
X02135Y00154*
X02135Y00154*
X02135Y00154*
X02135Y00155*
X02135Y00155*
X02135Y00156*
X02136Y00156*
X02136Y00157*
X02136Y00157*
X02136Y00157*
X02137Y00157*
X02137Y00158*
X02137Y00158*
X02144Y0016*
X02138Y00163*
X02138Y00163*
X02138Y00163*
X02137Y00163*
X02137Y00163*
X02137Y00164*
X02137Y00164*
X02136Y00164*
X02136Y00164*
X02136Y00165*
X02136Y00165*
X02136Y00165*
X02136Y00166*
X02136Y00166*
X02136Y00166*
X02136Y00166*
X02136Y00166*
X02136Y00166*
X02136Y00167*
X02137Y00167*
X02137Y00167*
X02137Y00168*
X02137Y00168*
X02137Y00168*
X02137Y00168*
X02137Y00168*
X02138Y00169*
X02138Y00169*
X02138Y00169*
X02138Y00169*
X02139Y00169*
X02139Y00169*
X02139Y00169*
X0214Y00169*
X0214Y00169*
X0214Y00169*
X02141Y00169*
X02141*
X02141Y00169*
X02138Y00151D02*
Y00158D01*
Y00161D02*
Y0016D01*
Y00164D02*
Y00168D01*
X02143Y00151D02*
Y00158D01*
Y00161D02*
Y0016D01*
Y00164D02*
Y0017D01*
X01207Y00172D02*
Y00174D01*
X01198*
Y00172*
X01201*
Y00174*
X01197*
Y00171*
X01201*
Y00178*
X01199*
X01207Y00172*
X01472Y00295D02*
Y00297D01*
X01463*
Y00295*
X01466*
Y00297*
X01462*
Y00294*
X01466*
Y00301*
X01464*
X01472Y00295*
X01372Y00476D02*
X01372Y00476D01*
Y00476*
X01372Y00475*
X01372Y00475*
X01372Y00475*
X01372Y00474*
X01372Y00474*
X01372Y00474*
X01372Y00474*
X01372Y00474*
X01371Y00474*
X01371Y00474*
X01371Y00474*
X01371Y00474*
X01371Y00474*
X01371Y00474*
X01371Y00474*
X01371Y00474*
X0137Y00474*
X0137Y00474*
X0137Y00474*
X0137Y00474*
X0137Y00474*
X0137Y00474*
X0137Y00474*
X01367Y00479*
X01365Y00474*
X01365Y00474*
X01365Y00474*
X01365Y00473*
X01364Y00473*
X01364Y00473*
X01364Y00473*
X01363Y00473*
X01363Y00473*
X01363Y00473*
X01363Y00473*
X01363Y00473*
X01363Y00473*
X01362Y00474*
X01362Y00474*
X01362Y00474*
X01362Y00474*
X01362Y00474*
X01362Y00474*
X01362Y00474*
X01362Y00475*
X01362Y00475*
X01362Y00475*
X01362Y00476*
X01362Y00476*
X01362Y00479*
X01372*
Y00476*
X01364Y00475D02*
X01366D01*
X01371D02*
D01*
X01793Y00095D02*
X01797D01*
Y00098*
X01793*
Y00091*
X01795*
X01787Y00097*
Y00095*
X01796*
Y00097*
X01793*
Y00095*
X01317Y01733D02*
X01319D01*
Y01736*
X01317*
Y01732*
X0132*
Y01736*
X01313*
Y01734*
X01319Y01742*
X01317*
Y01733*
X01868Y01857D02*
X01872D01*
Y0186*
X01868*
Y01853*
X0187*
X01862Y01859*
Y01857*
X01871*
Y01859*
X01868*
Y01857*
X02069Y02154D02*
X0208D01*
Y02154*
X0207Y0214*
X02071*
Y02156*
X02068*
Y02154*
X02071*
Y0216*
X02069*
Y02154*
X0207Y02141D02*
Y0214D01*
Y02155D02*
Y0216D01*
X02075Y02149D02*
Y02153D01*
X0109Y00073D02*
X01092D01*
Y00076*
X0109*
Y00072*
X01093*
Y00076*
X01086*
Y00074*
X01092Y00082*
X0109*
Y00073*
X01178Y00135D02*
X01182D01*
Y00138*
X01178*
Y00131*
X0118*
X01172Y00137*
Y00135*
X01181*
Y00137*
X01178*
Y00135*
X01497Y00117D02*
Y00119D01*
X01488*
Y00117*
X01491*
Y00119*
X01487*
Y00116*
X01491*
Y00123*
X01489*
X01497Y00117*
X0066Y00142D02*
X00661Y00142D01*
X00661Y00142*
X00661Y00142*
X00662Y00142*
X00662Y00142*
X00662Y00142*
X00662Y00142*
X00662Y00142*
X00663Y00142*
X00663Y00142*
X00663Y00141*
X00663Y00141*
X00663Y00141*
X00664Y00141*
X00664Y00141*
X00664Y0014*
X00664Y0014*
X00664Y0014*
X00664Y0014*
X00664Y0014*
X00664Y0014*
X00664Y00139*
X00664Y00139*
X00664Y00139*
X00664Y00139*
X00664Y00138*
X00664Y00138*
X00664Y00137*
X00664Y00137*
X00664Y00137*
X00664Y00137*
X00664Y00137*
X00664Y00136*
X00664Y00136*
X00664Y00135*
X00664Y00135*
X00664Y00135*
X00664Y00134*
X00664Y00134*
X00664Y00134*
X00664Y00134*
X00663Y00133*
X00663Y00133*
X00663Y00133*
X00663Y00133*
X00663Y00133*
X00663Y00133*
X00663Y00133*
X00662Y00133*
X00662Y00133*
X00662Y00132*
X00662Y00132*
X00661Y00132*
X00661Y00132*
X00661Y00132*
X0066Y00132*
X0066Y00132*
X00657*
Y00142*
X0066*
X0066Y00142*
G54D189*
X0066Y00137D02*
X0066Y00137D01*
X0066Y00137*
X00661Y00137*
X00661Y00137*
X00663Y00136*
X0066Y00137*
X0066Y00137*
X0066Y00138*
X00659Y00138*
X00659Y00138*
X00659Y00138*
X00659Y00139*
X00659Y00138*
X00659Y00138*
X00659Y00138*
X00659Y00138*
X00659Y00138*
X00659Y00138*
X00659Y00137*
X00659Y00137*
X00659Y00137*
X00659Y00137*
X00659Y00137*
X00659Y00136*
X00659Y00136*
X00659Y00137*
X00659Y00136*
X00659Y00136*
X00659Y00136*
X00659Y00137*
X0066Y00137*
X0066Y00137*
X0066Y00137*
X0066Y00137*
X00661Y00137*
X00661Y00137*
X0066Y00137*
X0066Y00137*
X0066Y00137*
X00662*
Y00137*
X0066*
X0066Y00137*
G54D187*
X00539Y00602D02*
X00539Y00602D01*
X00539Y00602*
X0054Y00602*
X0054Y00602*
X0054Y00602*
X0054Y00602*
X00541Y00602*
X00541Y00602*
X00541Y00602*
X00542Y00601*
X00542Y00601*
X00542Y00601*
X00542Y00601*
X00542Y00601*
X00542Y006*
X00542Y006*
X00543Y006*
X00543Y006*
X00543Y006*
X00543Y00599*
X00543Y00599*
X00543Y00599*
X00543Y00599*
X00543Y00599*
X00543Y00598*
X00543Y00598*
X00543Y00598*
X00543Y00597*
X00543Y00597*
X00543Y00597*
X00543Y00597*
X00543Y00596*
X00543Y00596*
X00543Y00595*
X00543Y00595*
X00543Y00595*
X00543Y00594*
X00542Y00594*
X00542Y00594*
X00542Y00594*
X00542Y00594*
X00542Y00593*
X00542Y00593*
X00542Y00593*
X00542Y00593*
X00541Y00593*
X00541Y00592*
X00541Y00593*
X00541Y00592*
X00541Y00592*
X0054Y00592*
X0054Y00592*
X0054Y00592*
X00539Y00592*
X00539Y00592*
X00539Y00592*
X00538Y00592*
X00535*
Y00602*
X00538*
X00539Y00602*
G54D189*
X00538Y00597D02*
X00538Y00597D01*
X00539Y00597*
X00539Y00597*
X00539Y00597*
X00539Y00597*
X00538Y00597*
X00538Y00598*
X00538Y00598*
X00538Y00598*
X00538Y00598*
X00538Y00598*
X00538Y00598*
X00538Y00598*
X00538Y00598*
X00538Y00598*
X00538Y00597*
X00538Y00597*
X00538Y00597*
X00538Y00597*
X00538Y00597*
X00538Y00596*
X00538Y00596*
X00538Y00596*
X00538Y00596*
X00538Y00596*
X00538Y00596*
X00538Y00596*
X00538Y00596*
X00538Y00596*
X00538Y00597*
X00539Y00597*
X00539Y00597*
X00539Y00597*
X00539Y00597*
X00539Y00597*
X00539Y00597*
X00538Y00597*
X0054*
Y00597*
X00538*
X00538Y00597*
G54D187*
X00762Y00711D02*
Y00714D01*
X00752*
Y00711*
X00756*
Y00714*
X00752*
Y0071*
X00756*
Y00717*
X00754*
X00762Y00711*
X01967Y01157D02*
Y01159D01*
X01958*
Y01157*
X01961*
Y01159*
X01957*
Y01156*
X01961*
Y01163*
X01959*
X01967Y01157*
X01712Y00042D02*
Y00044D01*
X01703*
Y00042*
X01706*
Y00044*
X01702*
Y00041*
X01706*
Y00048*
X01704*
X01712Y00042*
X0175Y00273D02*
X01752D01*
Y00276*
X0175*
Y00272*
X01753*
Y00276*
X01746*
Y00274*
X01752Y00282*
X0175*
Y00273*
X02049Y00427D02*
X0205Y00427D01*
X0205Y00427*
X02051Y00427*
X02052Y00427*
X02052Y00427*
X02052Y00427*
X02052Y00427*
X02053Y00427*
X02053Y00427*
X02053Y00427*
X02054Y00426*
X02054Y00426*
X02054Y00426*
X02055Y00426*
X02055Y00425*
X02055Y00425*
X02055Y00425*
X02055Y00425*
X02056Y00425*
X02056Y00424*
X02056Y00424*
X02057Y00423*
X02057Y00422*
X02057Y00422*
X02057Y00422*
X02057Y00421*
X02057Y00421*
X02057Y00421*
X02057Y00421*
X02058Y0042*
X02058Y0042*
X02058Y00419*
X02058Y00418*
X02058Y00417*
X02058Y00417*
Y00417*
X02058Y00417*
X02058Y00416*
X02058Y00416*
X02058Y00416*
X02058Y00415*
X02058Y00414*
X02057Y00414*
X02057Y00412*
X02057Y00413*
X02057Y00413*
X02057Y00412*
X02057Y00412*
X02057Y00411*
X02056Y00411*
X02056Y0041*
X02056Y0041*
X02056Y0041*
X02056Y0041*
X02055Y00409*
X02055Y00409*
X02055Y00409*
X02055Y00408*
X02054Y00408*
X02054Y00408*
X02054Y00408*
X02054Y00408*
X02053Y00408*
X02053Y00408*
X02053Y00407*
X02053Y00407*
X02052Y00407*
X02052Y00407*
X02052Y00407*
X02051Y00407*
X02051Y00407*
X0205Y00407*
X02049Y00407*
X02048Y00407*
X02042Y00407*
Y00427*
X02049*
X02049Y00427*
X02044Y00408D02*
Y00428D01*
X02049Y00409D02*
Y00428D01*
X02054Y0041D02*
Y00426D01*
X02165Y01414D02*
X02165Y01414D01*
Y01413*
X02165Y01413*
X02165Y01413*
X02165Y01412*
X02165Y01412*
X02165Y01412*
X02165Y01412*
X02165Y01412*
X02164Y01411*
X02164Y01411*
X02164Y01411*
X02164Y01411*
X02164Y01411*
X02164Y0141*
X02163Y0141*
X02163Y0141*
X02163Y0141*
X02163Y0141*
X02162Y0141*
X02162Y0141*
X02162Y0141*
X02162Y0141*
X02161Y0141*
X02161Y0141*
X02161Y0141*
X0216Y0141*
X0216Y0141*
X0216Y0141*
X0216Y0141*
X02159Y0141*
X02159Y0141*
X02159Y0141*
X02158Y0141*
X02158Y0141*
X02158Y0141*
X02157Y0141*
X02157Y0141*
X02157Y0141*
X02157Y0141*
X02156Y0141*
X02156Y01411*
X02156Y01411*
X02156Y01411*
X02156Y01411*
X02156Y01411*
X02155Y01411*
X02155*
X02155Y01412*
X02155Y01412*
X02155Y01412*
X02155Y01412*
X02155Y01413*
X02155Y01413*
X02155Y01413*
X02155Y01414*
X02155Y01414*
Y01417*
X02165*
Y01414*
X02157Y01412D02*
X02165D01*
%LNrelia-2*%
%LPC*%
G36*
X00731Y01368D02*
X00731D01*
X0073Y01368*
X0073*
X0073Y01368*
X0073Y01368*
X0073Y01368*
X00729Y01368*
X00729Y01367*
X00729Y01367*
X00729Y01367*
Y01367*
X00729Y01367*
X00728Y01367*
X00728Y01367*
X00728Y01367*
X00728Y01366*
X00728Y01366*
X00728Y01366*
X00728Y01365*
X00728Y01365*
X00728Y01365*
Y01365*
Y01365*
Y01364*
X00728Y01364*
X00728Y01364*
X00728Y01364*
X00728Y01363*
X00728Y01363*
X00728Y01363*
X00728Y01363*
X00728Y01363*
X00728Y01362*
X00728Y01362*
X00729Y01362*
X00729Y01362*
X00729Y01362*
X00729Y01361*
X00729Y01361*
X00729Y01361*
X00729Y01361*
X0073Y01361*
X0073Y01361*
X0073Y01361*
X0073Y01361*
X00731Y01361*
X00731*
X00731Y01361*
X00731Y01361*
X00731Y01361*
X00732Y01361*
X00732Y01361*
X00732Y01362*
X00733Y01362*
X00733Y01362*
X00733Y01362*
X00733Y01362*
X00733Y01362*
X00733Y01362*
X00733Y01362*
X00733Y01362*
X00733Y01362*
X00733Y01363*
X00733Y01363*
X00733Y01363*
X00734Y01364*
X00734Y01364*
Y01365*
Y01365*
Y01365*
Y01365*
X00734Y01365*
Y01365*
X00734Y01365*
X00734Y01365*
X00733Y01366*
X00733Y01366*
X00733Y01367*
X00733Y01367*
X00733Y01367*
Y01367*
X00733Y01367*
X00733Y01367*
X00732Y01367*
X00732Y01367*
X00732Y01368*
X00732Y01368*
X00731Y01368*
X00731Y01368*
G37*
G36*
X00707Y01373D02*
X00701D01*
Y01368*
X00706*
X00706Y01368*
X00707Y01368*
X00707Y01368*
X00707Y01368*
X00708Y01368*
X00708Y01368*
X00708Y01368*
X00708Y01368*
X00708Y01369*
X00708Y01369*
X00709Y01369*
X00709Y01369*
X00709Y01369*
X00709Y01369*
X00709Y01369*
X00709Y01369*
X00709Y0137*
X00709Y0137*
X00709Y0137*
X00709Y0137*
X00709Y0137*
X00709Y01371*
Y01371*
Y01371*
Y01371*
X00709Y01371*
X00709Y01371*
X00709Y01371*
X00709Y01372*
X00709Y01372*
X00709Y01372*
X00709Y01372*
X00709Y01372*
X00709Y01373*
X00708Y01373*
X00708Y01373*
X00708Y01373*
X00708Y01373*
X00708Y01373*
X00707Y01373*
X00707Y01373*
X00707Y01373*
X00707Y01373*
G37*
G36*
X01726Y00158D02*
X01726D01*
X01726*
X01726*
X01726Y00158*
X01726Y00158*
X01725Y00157*
X01725Y00157*
X01725Y00157*
X01725Y00157*
X01724Y00157*
X01724Y00157*
X01724Y00157*
X01724Y00157*
X01724Y00156*
X01724Y00156*
X01724Y00156*
X01724Y00155*
X01724Y00155*
Y00155*
X01724Y00155*
X01724Y00155*
X01724Y00154*
X01724Y00154*
X01724Y00154*
X01724Y00154*
X01724Y00153*
X01724Y00153*
X01724Y00153*
X01725Y00153*
X01725Y00153*
X01725Y00153*
X01725Y00153*
X01726Y00153*
X01726Y00153*
X01726*
X01726*
X01726*
X01726Y00153*
X01726Y00153*
X01727Y00153*
X01727Y00153*
X01727Y00153*
X01727Y00153*
X01728Y00153*
X01728Y00153*
X01728Y00153*
X01728Y00154*
X01728Y00154*
X01728Y00154*
X01728Y00154*
X01728Y00155*
X01728Y00155*
Y00155*
X01728Y00155*
X01728Y00155*
X01728Y00156*
X01728Y00156*
X01728Y00156*
X01728Y00157*
X01728Y00157*
X01728Y00157*
X01728Y00157*
X01727Y00157*
X01727Y00157*
X01727Y00157*
X01727Y00157*
X01726Y00158*
X01726Y00158*
G37*
G36*
X01719Y00158D02*
X01719D01*
X01719*
X01719Y00158*
X01719Y00158*
X01718Y00158*
X01718Y00158*
X01718Y00158*
X01718Y00158*
X01718Y00158*
X01717Y00158*
X01717Y00158*
X01717Y00158*
X01717Y00157*
X01717Y00157*
X01717Y00157*
X01716Y00157*
X01716Y00157*
X01716Y00157*
X01716Y00156*
X01716Y00156*
X01716Y00156*
X01716Y00156*
X01716Y00155*
X01716Y00155*
Y00155*
X01716Y00155*
Y00155*
X01716Y00155*
X01716Y00154*
X01716Y00154*
X01716Y00154*
X01717Y00153*
X01717Y00153*
X01717Y00153*
X01717Y00153*
X01717Y00153*
X01717Y00153*
X01717Y00153*
X01717Y00152*
X01718Y00152*
X01718Y00152*
X01719Y00152*
X01719Y00152*
X01719*
X01719*
X01719*
X01719*
X01719Y00152*
X01719*
X01719Y00152*
X0172Y00152*
X0172Y00152*
X01721Y00152*
X01721Y00153*
X01721Y00153*
X01721Y00153*
X01721*
X01721Y00153*
X01721Y00153*
X01722Y00153*
X01722Y00154*
X01722Y00154*
X01722Y00154*
X01722Y00155*
X01722Y00155*
Y00155*
X01722Y00155*
Y00156*
X01722Y00156*
X01722Y00156*
X01722Y00156*
X01722Y00157*
X01722Y00157*
X01721Y00157*
X01721Y00157*
X01721Y00157*
X01721Y00157*
X01721Y00158*
X01721Y00158*
X0172Y00158*
X0172Y00158*
X0172Y00158*
X01719Y00158*
X01719Y00158*
G37*
G36*
X01674Y02163D02*
X01673D01*
X01673Y02163*
X01673Y02163*
X01673Y02163*
X01673Y02163*
X01672Y02163*
X01672Y02163*
X01672Y02162*
X01672Y02162*
X01672Y02162*
X01672Y02162*
X01672Y02162*
X01671Y02162*
X01671Y02162*
X01671Y02162*
X01671Y02162*
X01671Y02162*
X01671Y02161*
X01671Y02161*
X01671Y0216*
X01671Y0216*
Y0216*
Y0216*
Y0216*
Y0216*
X01671Y02159*
Y02159*
X01671Y02159*
X01671Y02159*
X01671Y02158*
X01671Y02158*
X01671Y02158*
X01671Y02157*
X01672Y02157*
Y02157*
X01672Y02157*
X01672Y02157*
X01672Y02157*
X01672Y02157*
X01672Y02157*
X01673Y02156*
X01673Y02156*
X01673Y02156*
X01674*
X01674Y02156*
X01674*
X01674Y02156*
X01674Y02156*
X01675Y02157*
X01675Y02157*
X01675Y02157*
X01676Y02157*
X01676Y02157*
Y02157*
X01676Y02157*
X01676Y02157*
X01676Y02157*
X01676Y02158*
X01676Y02158*
X01676Y02158*
X01677Y02159*
X01677Y02159*
X01677Y02159*
X01677Y0216*
Y0216*
Y0216*
Y0216*
X01677Y0216*
X01677Y0216*
X01677Y0216*
X01677Y02161*
X01676Y02161*
X01676Y02161*
X01676Y02161*
X01676Y02162*
X01676Y02162*
X01676Y02162*
X01676Y02162*
X01676Y02162*
X01675Y02163*
X01675Y02163*
X01675Y02163*
X01675Y02163*
X01675Y02163*
X01675Y02163*
X01674Y02163*
X01674Y02163*
X01674Y02163*
X01674Y02163*
G37*
G36*
X00723Y02006D02*
X00718D01*
X00718Y02006*
X00717Y02006*
X00717Y02006*
X00717Y02006*
X00716Y02006*
X00716Y02006*
X00716Y02006*
X00716Y02006*
X00716Y02006*
X00716Y02006*
X00715Y02005*
X00715Y02005*
X00715Y02005*
X00715Y02005*
X00715Y02005*
X00715Y02005*
X00715Y02005*
X00715Y02005*
X00715Y02004*
X00715Y02004*
X00715Y02004*
X00715Y02004*
Y02004*
Y02004*
Y02003*
X00715Y02003*
X00715Y02003*
X00715Y02003*
X00715Y02003*
X00715Y02002*
X00715Y02002*
X00715Y02002*
X00715Y02002*
X00715Y02002*
X00716Y02002*
X00716Y02001*
X00716Y02001*
X00716Y02001*
X00716Y02001*
X00717Y02001*
X00717Y02001*
X00717Y02001*
X00717Y02001*
X00723*
Y02006*
G37*
G36*
X0071Y02086D02*
X00705D01*
X00705Y02086*
X00705Y02086*
X00704Y02086*
X00704Y02086*
X00704Y02086*
X00703Y02086*
X00703Y02086*
X00703Y02086*
X00703Y02085*
X00703Y02085*
X00703Y02085*
X00703Y02085*
X00702Y02085*
X00702Y02085*
X00702Y02085*
X00702Y02085*
X00702Y02084*
X00702Y02084*
X00702Y02084*
X00702Y02084*
X00702Y02084*
X00702Y02083*
Y02083*
Y02083*
Y02083*
X00702Y02083*
X00702Y02083*
X00702Y02083*
X00702Y02082*
X00702Y02082*
X00702Y02082*
X00703Y02082*
X00703Y02082*
X00703Y02081*
X00703Y02081*
X00703Y02081*
X00703Y02081*
X00704Y02081*
X00704Y02081*
X00704Y02081*
X00704Y02081*
X00704Y02081*
X00705Y02081*
X0071*
Y02086*
G37*
G36*
X00719Y02158D02*
X00714D01*
Y02153*
X00718*
X00718Y02153*
X00719Y02153*
X00719Y02153*
X00719Y02153*
X0072Y02153*
X0072Y02153*
X0072Y02153*
X0072Y02153*
X0072Y02154*
X00721Y02154*
X00721Y02154*
X00721Y02154*
X00721Y02154*
X00721Y02154*
X00721Y02154*
X00721Y02154*
X00721Y02155*
X00721Y02155*
X00722Y02155*
X00722Y02155*
X00722Y02155*
X00722Y02156*
Y02156*
Y02156*
Y02156*
X00722Y02156*
X00722Y02156*
X00722Y02156*
X00721Y02157*
X00721Y02157*
X00721Y02157*
X00721Y02157*
X00721Y02157*
X00721Y02158*
X00721Y02158*
X0072Y02158*
X0072Y02158*
X0072Y02158*
X0072Y02158*
X0072Y02158*
X00719Y02158*
X00719Y02158*
X00719Y02158*
G37*
G36*
X00731Y02158D02*
X00731D01*
X00731Y02158*
X00731Y02158*
X0073Y02158*
X0073Y02158*
X0073Y02158*
X0073Y02158*
X00729Y02158*
X00729Y02158*
X00729Y02158*
X00729Y02157*
X00729Y02157*
X00729Y02157*
X00729Y02157*
X00729Y02156*
X00729Y02156*
Y02156*
Y02156*
Y02156*
X00729Y02156*
X00729Y02156*
X00729Y02155*
X00729Y02155*
X00729Y02155*
X00729Y02155*
X00729Y02154*
X00729Y02154*
X00729Y02154*
X0073Y02154*
X0073Y02154*
X0073Y02154*
X0073Y02154*
X00731Y02154*
X00731Y02154*
X00731*
X00731Y02154*
X00731Y02154*
X00732Y02154*
X00732Y02154*
X00732Y02154*
X00733Y02154*
X00733Y02154*
X00733Y02154*
X00733Y02154*
X00733Y02155*
X00733Y02155*
X00733Y02155*
X00733Y02155*
X00734Y02156*
X00734Y02156*
Y02156*
Y02156*
Y02156*
X00734Y02156*
X00733Y02156*
X00733Y02157*
X00733Y02157*
X00733Y02157*
X00733Y02157*
X00733Y02158*
X00733Y02158*
X00733Y02158*
X00733Y02158*
X00732Y02158*
X00732Y02158*
X00732Y02158*
X00731Y02158*
X00731Y02158*
G37*
G36*
X00731Y02152D02*
X00731D01*
X00731Y02152*
X00731*
X00731Y02152*
X0073Y02152*
X0073Y02152*
X0073Y02152*
X00729Y02152*
X00729Y02151*
X00729Y02151*
X00729Y02151*
X00729Y02151*
X00729Y02151*
X00728Y02151*
X00728Y0215*
X00728Y0215*
X00728Y0215*
X00728Y02149*
X00728Y02149*
Y02149*
Y02149*
X00728Y02149*
X00728Y02149*
X00728Y02148*
X00728Y02148*
X00728Y02148*
X00728Y02148*
X00728Y02148*
X00728Y02147*
X00729Y02147*
X00729Y02147*
X00729Y02147*
X00729Y02147*
X00729Y02147*
X00729Y02146*
X0073Y02146*
X0073Y02146*
X0073Y02146*
X0073Y02146*
X0073Y02146*
X0073Y02146*
X00731Y02146*
X00731Y02146*
X00731*
X00731Y02146*
X00731*
X00732Y02146*
X00732Y02146*
X00732Y02146*
X00733Y02146*
X00733Y02147*
X00733Y02147*
X00733Y02147*
X00733Y02147*
X00733Y02147*
X00733Y02147*
X00734Y02147*
X00734Y02147*
X00734Y02148*
X00734Y02148*
X00734Y02149*
X00734Y02149*
Y02149*
Y02149*
Y02149*
Y02149*
X00734Y02149*
Y02149*
X00734Y02149*
X00734Y0215*
X00734Y0215*
X00734Y02151*
X00734Y02151*
X00733Y02151*
X00733Y02151*
Y02151*
X00733Y02151*
X00733Y02151*
X00733Y02152*
X00733Y02152*
X00732Y02152*
X00732Y02152*
X00732Y02152*
X00731Y02152*
G37*
G36*
X0071Y01871D02*
X00705D01*
X00705Y01871*
X00705Y01871*
X00704Y01871*
X00704Y01871*
X00704Y01871*
X00703Y01871*
X00703Y01871*
X00703Y01871*
X00703Y0187*
X00703Y0187*
X00703Y0187*
X00703Y0187*
X00702Y0187*
X00702Y0187*
X00702Y0187*
X00702Y0187*
X00702Y01869*
X00702Y01869*
X00702Y01869*
X00702Y01869*
X00702Y01869*
X00702Y01868*
Y01868*
Y01868*
Y01868*
X00702Y01868*
X00702Y01868*
X00702Y01868*
X00702Y01867*
X00702Y01867*
X00702Y01867*
X00703Y01867*
X00703Y01867*
X00703Y01866*
X00703Y01866*
X00703Y01866*
X00703Y01866*
X00704Y01866*
X00704Y01866*
X00704Y01866*
X00704Y01866*
X00704Y01866*
X00705Y01866*
X0071*
Y01871*
G37*
G36*
X00692Y01878D02*
X00692D01*
X00692Y01878*
X00692Y01878*
X00692Y01878*
X00691Y01878*
X00691Y01878*
X00691Y01877*
X0069Y01877*
X0069Y01877*
X0069Y01877*
X0069Y01877*
X0069Y01877*
X0069Y01877*
X0069Y01877*
X0069Y01877*
X0069Y01877*
X0069Y01876*
X0069Y01876*
X0069Y01876*
X00689Y01875*
X00689Y01875*
Y01874*
Y01874*
Y01874*
Y01874*
X00689Y01874*
Y01874*
X00689Y01874*
X00689Y01874*
X0069Y01873*
X0069Y01873*
X0069Y01872*
X0069Y01872*
X0069Y01872*
Y01872*
X0069Y01872*
X0069Y01872*
X00691Y01872*
X00691Y01872*
X00691Y01871*
X00691Y01871*
X00692Y01871*
X00692Y01871*
X00692*
X00693Y01871*
X00693*
X00693Y01871*
X00693Y01871*
X00693Y01871*
X00694Y01871*
X00694Y01872*
X00694Y01872*
X00694Y01872*
Y01872*
X00694Y01872*
X00695Y01872*
X00695Y01872*
X00695Y01872*
X00695Y01873*
X00695Y01873*
X00695Y01873*
X00695Y01874*
X00695Y01874*
X00695Y01874*
Y01874*
Y01874*
Y01875*
X00695Y01875*
X00695Y01875*
X00695Y01875*
X00695Y01876*
X00695Y01876*
X00695Y01876*
X00695Y01876*
X00695Y01876*
X00695Y01877*
X00695Y01877*
X00694Y01877*
X00694Y01877*
X00694Y01877*
X00694Y01878*
X00694Y01878*
X00694Y01878*
X00693Y01878*
X00693Y01878*
X00693Y01878*
X00693Y01878*
X00693Y01878*
X00692Y01878*
G37*
G36*
X00713Y01766D02*
X00708D01*
X00708Y01766*
X00707Y01766*
X00707Y01766*
X00707Y01766*
X00706Y01766*
X00706Y01766*
X00706Y01766*
X00706Y01766*
X00706Y01766*
X00706Y01766*
X00705Y01765*
X00705Y01765*
X00705Y01765*
X00705Y01765*
X00705Y01765*
X00705Y01765*
X00705Y01765*
X00705Y01765*
X00705Y01764*
X00705Y01764*
X00705Y01764*
X00705Y01764*
Y01764*
Y01764*
Y01763*
X00705Y01763*
X00705Y01763*
X00705Y01763*
X00705Y01763*
X00705Y01762*
X00705Y01762*
X00705Y01762*
X00705Y01762*
X00705Y01762*
X00706Y01762*
X00706Y01761*
X00706Y01761*
X00706Y01761*
X00706Y01761*
X00707Y01761*
X00707Y01761*
X00707Y01761*
X00707Y01761*
X00713*
Y01766*
G37*
G36*
X00699Y01769D02*
X00694D01*
Y01762*
X00699Y01769*
G37*
G36*
X0071Y01821D02*
X00705D01*
X00705Y01821*
X00705Y01821*
X00704Y01821*
X00704Y01821*
X00704Y01821*
X00703Y01821*
X00703Y01821*
X00703Y01821*
X00703Y0182*
X00703Y0182*
X00703Y0182*
X00703Y0182*
X00702Y0182*
X00702Y0182*
X00702Y0182*
X00702Y0182*
X00702Y01819*
X00702Y01819*
X00702Y01819*
X00702Y01819*
X00702Y01819*
X00702Y01818*
Y01818*
Y01818*
Y01818*
X00702Y01818*
X00702Y01818*
X00702Y01818*
X00702Y01817*
X00702Y01817*
X00702Y01817*
X00703Y01817*
X00703Y01817*
X00703Y01816*
X00703Y01816*
X00703Y01816*
X00703Y01816*
X00704Y01816*
X00704Y01816*
X00704Y01816*
X00704Y01816*
X00704Y01816*
X00705Y01816*
X0071*
Y01821*
G37*
G36*
X01799Y0086D02*
X01799D01*
X01799*
X01799*
X01799Y0086*
X01799*
X01798Y0086*
X01798Y0086*
X01798Y0086*
X01797Y0086*
X01797Y0086*
X01796Y00859*
X01796Y00859*
X01796Y00859*
X01796*
X01796Y00859*
X01796Y00859*
X01795Y00859*
X01795Y00859*
X01795Y00859*
X01795Y00858*
X01794Y00858*
X01794Y00858*
X01794Y00857*
X01794Y00857*
X01794Y00857*
X01794Y00857*
X01794Y00857*
X01794Y00857*
X01794Y00857*
X01794Y00857*
X01794Y00857*
X01794Y00856*
X01794Y00856*
X01794Y00856*
X01794Y00856*
X01794Y00856*
Y00855*
X01794Y00855*
Y00851*
X01805*
Y00855*
X01805Y00855*
X01805Y00856*
X01805Y00856*
X01805Y00856*
X01805Y00857*
X01805Y00857*
Y00857*
X01805Y00857*
X01805Y00857*
X01805Y00857*
X01805Y00858*
X01805Y00858*
X01804Y00858*
X01804Y00858*
X01804Y00858*
X01804Y00858*
X01804Y00859*
X01804Y00859*
X01804Y00859*
X01803Y00859*
X01803Y00859*
X01803Y00859*
X01802Y00859*
X01802*
X01802Y0086*
X01802Y0086*
X01802Y0086*
X01802Y0086*
X01802Y0086*
X01802Y0086*
X01801Y0086*
X01801Y0086*
X01801Y0086*
X018Y0086*
X018Y0086*
X01799Y0086*
G37*
G36*
X01892Y00872D02*
X01892D01*
X01892*
X01892*
X01892*
X01892Y00872*
X01891*
X01891Y00872*
X01891Y00872*
X01891Y00872*
X0189Y00872*
X0189Y00871*
X0189Y00871*
X01889Y00871*
X01889*
X01889Y00871*
X01889Y00871*
X01889Y00871*
X01889Y00871*
X01889Y0087*
X01889Y0087*
X01889Y00869*
X01889Y00869*
Y00869*
X01889Y00869*
Y00869*
X01889Y00869*
X01889Y00868*
X01889Y00868*
X01889Y00868*
X01889Y00867*
X01889Y00867*
X01889Y00867*
X01889*
X01889Y00867*
X0189Y00867*
X0189Y00867*
X0189Y00867*
X0189Y00866*
X0189Y00866*
X01891Y00866*
X01891Y00866*
X01892Y00866*
X01892Y00866*
X01892*
X01892*
X01892*
X01892Y00866*
X01892Y00866*
X01893Y00866*
X01893Y00866*
X01893Y00866*
X01894Y00866*
X01894Y00866*
X01894Y00866*
X01894Y00867*
X01894Y00867*
X01894Y00867*
X01895Y00867*
X01895Y00867*
X01895Y00868*
X01895Y00868*
X01895Y00868*
X01895Y00868*
X01895Y00868*
X01895Y00868*
X01895Y00868*
X01895Y00869*
X01895Y00869*
Y00869*
X01895Y00869*
X01895Y00869*
X01895Y0087*
X01895Y0087*
X01895Y0087*
X01895Y00871*
X01895Y00871*
X01894Y00871*
X01894Y00871*
X01894Y00871*
X01894Y00871*
X01894Y00871*
X01894Y00871*
X01894Y00871*
X01894Y00871*
X01894Y00872*
X01893Y00872*
X01893Y00872*
X01892Y00872*
X01892Y00872*
G37*
G36*
X01889Y0086D02*
X01889D01*
X01889*
X01889*
X01889Y0086*
X01888*
X01888Y0086*
X01888Y0086*
X01888Y0086*
X01887Y0086*
X01886Y0086*
X01886Y00859*
X01886Y00859*
X01885Y00859*
X01885*
X01885Y00859*
X01885Y00859*
X01885Y00859*
X01885Y00859*
X01885Y00859*
X01884Y00858*
X01884Y00858*
X01884Y00858*
X01884Y00857*
X01884Y00857*
X01884Y00857*
X01884Y00857*
X01884Y00857*
X01884Y00857*
X01884Y00857*
X01884Y00857*
X01884Y00857*
X01883Y00856*
X01883Y00856*
X01883Y00856*
X01883Y00856*
X01883Y00856*
Y00855*
X01883Y00855*
Y00851*
X01895*
Y00855*
X01895Y00855*
X01895Y00856*
X01895Y00856*
X01895Y00856*
X01895Y00857*
X01895Y00857*
Y00857*
X01895Y00857*
X01895Y00857*
X01894Y00857*
X01894Y00858*
X01894Y00858*
X01894Y00858*
X01894Y00858*
X01894Y00858*
X01894Y00858*
X01894Y00859*
X01894Y00859*
X01893Y00859*
X01893Y00859*
X01893Y00859*
X01892Y00859*
X01892Y00859*
X01892*
X01892Y0086*
X01892Y0086*
X01892Y0086*
X01892Y0086*
X01891Y0086*
X01891Y0086*
X01891Y0086*
X01891Y0086*
X01891Y0086*
X0189Y0086*
X0189Y0086*
X01889Y0086*
G37*
G36*
X01466Y0183D02*
X01466D01*
X01466*
X01466*
X01466Y0183*
X01466Y0183*
X01465Y0183*
X01465Y0183*
X01465Y0183*
X01465Y0183*
X01464Y0183*
X01464Y0183*
X01464Y01829*
X01464Y01829*
X01464Y01829*
X01464Y01829*
X01464Y01829*
X01464Y01828*
X01464Y01828*
Y01828*
X01464Y01828*
X01464Y01827*
X01464Y01827*
X01464Y01827*
X01464Y01827*
X01464Y01826*
X01464Y01826*
X01464Y01826*
X01464Y01826*
X01465Y01826*
X01465Y01826*
X01465Y01826*
X01465Y01825*
X01466Y01825*
X01466Y01825*
X01466*
X01466*
X01466*
X01466Y01825*
X01466Y01825*
X01467Y01825*
X01467Y01826*
X01467Y01826*
X01467Y01826*
X01468Y01826*
X01468Y01826*
X01468Y01826*
X01468Y01826*
X01468Y01827*
X01468Y01827*
X01468Y01827*
X01468Y01827*
X01468Y01828*
Y01828*
X01468Y01828*
X01468Y01828*
X01468Y01828*
X01468Y01829*
X01468Y01829*
X01468Y01829*
X01468Y0183*
X01468Y0183*
X01468Y0183*
X01467Y0183*
X01467Y0183*
X01467Y0183*
X01467Y0183*
X01466Y0183*
X01466Y0183*
G37*
G36*
X01459Y01831D02*
X01459D01*
X01459*
X01459Y01831*
X01459Y01831*
X01458Y01831*
X01458Y01831*
X01458Y01831*
X01458Y01831*
X01458Y0183*
X01457Y0183*
X01457Y0183*
X01457Y0183*
X01457Y0183*
X01457Y0183*
X01457Y0183*
X01456Y01829*
X01456Y01829*
X01456Y01829*
X01456Y01829*
X01456Y01829*
X01456Y01829*
X01456Y01828*
X01456Y01828*
X01456Y01828*
Y01828*
X01456Y01828*
Y01827*
X01456Y01827*
X01456Y01827*
X01456Y01827*
X01456Y01826*
X01457Y01826*
X01457Y01826*
X01457Y01826*
X01457Y01826*
X01457Y01826*
X01457Y01825*
X01457Y01825*
X01457Y01825*
X01458Y01825*
X01458Y01825*
X01459Y01825*
X01459Y01825*
X01459*
X01459*
X01459*
X01459*
X01459Y01825*
X01459*
X01459Y01825*
X0146Y01825*
X0146Y01825*
X01461Y01825*
X01461Y01825*
X01461Y01825*
X01461Y01826*
X01461*
X01461Y01826*
X01461Y01826*
X01462Y01826*
X01462Y01826*
X01462Y01827*
X01462Y01827*
X01462Y01827*
X01462Y01828*
Y01828*
X01462Y01828*
Y01828*
X01462Y01828*
X01462Y01829*
X01462Y01829*
X01462Y01829*
X01462Y0183*
X01461Y0183*
X01461Y0183*
X01461Y0183*
X01461Y0183*
X01461Y0183*
X01461Y0183*
X0146Y01831*
X0146Y01831*
X0146Y01831*
X01459Y01831*
X01459Y01831*
G37*
G36*
X0157Y01831D02*
X0157D01*
X0157*
X0157*
X01569Y01831*
X01569*
X01569Y01831*
X01569Y01831*
X01569Y01831*
X01568Y0183*
X01568Y0183*
X01568Y0183*
X01567Y0183*
Y0183*
X01567Y0183*
X01567Y0183*
X01567Y0183*
X01567Y01829*
X01567Y01829*
X01567Y01829*
X01567Y01828*
X01567Y01828*
X01566Y01828*
Y01828*
X01567Y01828*
Y01828*
X01567Y01827*
X01567Y01827*
X01567Y01827*
X01567Y01826*
X01567Y01826*
X01567Y01826*
X01567Y01826*
X01567Y01826*
X01567Y01826*
X01567Y01826*
X01568Y01826*
X01568Y01826*
X01568Y01825*
X01568Y01825*
X01568Y01825*
X01569Y01825*
X01569Y01825*
X0157Y01825*
X0157*
X0157*
X0157*
X0157*
X0157Y01825*
X0157*
X0157Y01825*
X01571Y01825*
X01571Y01825*
X01572Y01825*
X01572Y01825*
X01572Y01826*
X01572Y01826*
X01572*
X01572Y01826*
X01573Y01826*
X01573Y01826*
X01573Y01826*
X01573Y01827*
X01573Y01827*
X01573Y01827*
X01573Y01828*
X01573Y01828*
Y01828*
X01573Y01828*
X01573Y01828*
X01573Y01828*
X01573Y01829*
X01573Y01829*
X01573Y01829*
X01573Y01829*
X01573Y0183*
X01573Y0183*
X01572Y0183*
X01572*
X01572Y0183*
X01572Y0183*
X01572Y0183*
X01572Y0183*
X01572Y0183*
X01572Y0183*
X01572Y0183*
X01571Y01831*
X01571Y01831*
X0157Y01831*
X0157Y01831*
X0157Y01831*
G37*
G36*
X02346Y01146D02*
X02345D01*
X02345*
X02345*
X02345*
X02345Y01146*
X02345*
X02344Y01146*
X02344Y01146*
X02343Y01145*
X02342Y01145*
X02342Y01145*
X02341Y01145*
X02341Y01144*
X02341*
X02341Y01144*
X02341Y01144*
X02341Y01144*
X0234Y01143*
X0234Y01143*
X0234Y01142*
X0234Y01142*
X0234Y01141*
X0234Y01141*
Y01141*
X0234Y0114*
X0234Y0114*
X0234Y0114*
X0234Y0114*
X0234Y01139*
X0234Y01138*
X0234Y01138*
X02341Y01138*
X02341Y01138*
X02341Y01137*
X02341*
X02341Y01137*
X02341Y01137*
X02342Y01137*
X02342Y01137*
X02342Y01137*
X02342Y01137*
X02342Y01137*
X02343Y01136*
X02344Y01136*
X02345Y01136*
X02345Y01136*
X02346Y01136*
X02346*
X02346*
X02346*
X02346Y01136*
X02346*
X02346Y01136*
X02347Y01136*
X02348Y01136*
X02348Y01136*
X02349Y01137*
X02349Y01137*
X0235Y01137*
Y01137*
X0235Y01137*
X0235Y01137*
X0235Y01138*
X0235Y01138*
X02351Y01139*
X02351Y01139*
X02351Y0114*
X02351Y0114*
X02351Y01141*
Y01141*
X02351Y01141*
Y01141*
X02351Y01142*
X02351Y01142*
X02351Y01143*
X0235Y01143*
X0235Y01144*
X0235Y01144*
X0235Y01144*
X0235Y01144*
X0235Y01144*
X02349Y01144*
X02349Y01145*
X02349Y01145*
X02349Y01145*
X02349Y01145*
X02348Y01145*
X02347Y01145*
X02346Y01146*
X02346Y01146*
G37*
G36*
X00853Y01319D02*
X00853D01*
X00853*
X00853*
X00853Y01319*
X00853Y01319*
X00853Y01319*
X00852Y01319*
X00852Y01319*
X00852Y01319*
X00852Y01318*
X00852Y01318*
X00851Y01318*
X00851Y01318*
X00851Y01318*
X00851Y01318*
X00851Y01317*
X00851Y01317*
X00851Y01317*
X00851Y01317*
X00851Y01317*
X00851Y01316*
Y01311*
X00856*
Y01316*
X00856Y01316*
X00856Y01316*
X00856Y01317*
X00856Y01317*
X00856Y01317*
X00856Y01318*
X00856Y01318*
X00856Y01318*
X00855Y01318*
X00855Y01318*
X00855Y01318*
X00855Y01318*
X00855Y01319*
X00855Y01319*
X00855Y01319*
X00855Y01319*
X00854Y01319*
X00854Y01319*
X00854Y01319*
X00854Y01319*
X00854Y01319*
X00853Y01319*
G37*
G36*
X02141Y00169D02*
X02141D01*
X02141Y00169*
X0214Y00169*
X0214Y00169*
X02139Y00169*
X02139Y00169*
X02138Y00169*
X02138Y00168*
X02138Y00168*
X02138Y00168*
X02138Y00168*
X02137Y00168*
X02137Y00167*
X02137Y00167*
X02137Y00166*
X02137Y00166*
Y00166*
Y00165*
Y00165*
X02137Y00165*
X02137Y00165*
X02137Y00165*
X02137Y00164*
X02137Y00164*
X02137Y00163*
X02138Y00163*
X02138Y00163*
X02138Y00162*
X02138Y00162*
X02139Y00162*
X02139Y00162*
X0214Y00162*
X0214Y00162*
X02141Y00162*
X02141*
X02141Y00162*
X02141Y00162*
X02142Y00162*
X02142Y00162*
X02143Y00162*
X02143Y00162*
X02144Y00163*
X02144Y00163*
X02144Y00163*
X02144Y00163*
X02144Y00163*
X02145Y00164*
X02145Y00164*
X02145Y00165*
X02145Y00165*
Y00165*
Y00165*
Y00166*
X02145Y00166*
X02145Y00166*
X02145Y00166*
X02145Y00167*
X02144Y00167*
X02144Y00168*
X02144Y00168*
X02144Y00168*
X02144Y00168*
X02143Y00169*
X02143Y00169*
X02143Y00169*
X02142Y00169*
X02141Y00169*
X02141Y00169*
G37*
G36*
X02141Y00159D02*
X02141D01*
X0214Y00159*
X0214*
X0214Y00159*
X02139Y00159*
X02139Y00159*
X02138Y00158*
X02138Y00158*
X02137Y00158*
X02137Y00158*
X02137Y00157*
X02137Y00157*
X02137Y00157*
X02136Y00157*
X02136Y00156*
X02136Y00155*
X02136Y00155*
X02136Y00154*
X02136Y00154*
Y00154*
Y00154*
X02136Y00153*
X02136Y00153*
X02136Y00153*
X02136Y00152*
X02136Y00152*
X02136Y00151*
X02136Y00151*
X02136Y00151*
X02137Y00151*
X02137Y00151*
X02137Y0015*
X02137Y0015*
X02138Y0015*
X02138Y00149*
X02138Y00149*
X02138Y00149*
X02139Y00149*
X02139Y00149*
X02139Y00149*
X0214Y00149*
X0214Y00149*
X02141Y00149*
X02141*
X02141Y00149*
X02141*
X02142Y00149*
X02142Y00149*
X02143Y00149*
X02143Y00149*
X02144Y0015*
X02144Y0015*
X02145Y0015*
X02145Y0015*
X02145Y0015*
X02145Y0015*
X02145Y00151*
X02145Y00151*
X02145Y00152*
X02146Y00152*
X02146Y00153*
X02146Y00153*
Y00154*
Y00154*
Y00154*
Y00154*
X02146Y00154*
Y00154*
X02146Y00155*
X02146Y00155*
X02146Y00156*
X02145Y00156*
X02145Y00157*
X02145Y00157*
X02144Y00158*
Y00158*
X02144Y00158*
X02144Y00158*
X02144Y00158*
X02143Y00158*
X02143Y00159*
X02142Y00159*
X02142Y00159*
X02141Y00159*
G37*
G36*
X012Y00178D02*
Y00174D01*
X01207*
X012Y00178*
G37*
G36*
X012Y00166D02*
X012D01*
X012*
X01199*
X01199Y00166*
X01199Y00166*
X01199Y00166*
X01198Y00166*
X01198Y00165*
X01198Y00165*
X01198Y00165*
X01198Y00165*
X01197Y00165*
X01197Y00165*
X01197Y00165*
X01197Y00165*
X01197Y00164*
X01196Y00164*
X01196Y00164*
X01196Y00164*
X01196Y00164*
X01196Y00164*
X01196Y00163*
X01196Y00163*
X01196Y00163*
X01196Y00163*
Y00163*
X01196Y00162*
X01196Y00162*
X01196Y00162*
X01196Y00162*
X01196Y00161*
X01197Y00161*
X01197Y00161*
X01197Y00161*
X01197Y00161*
X01197Y00161*
X01197Y00161*
X01197Y0016*
X01197Y0016*
X01197Y0016*
X01197Y0016*
X01198Y0016*
X01198Y0016*
X01198Y0016*
X01199Y0016*
X01199Y0016*
X012*
X012*
X012*
X012*
X012Y0016*
X012*
X012Y0016*
X012Y0016*
X01201Y0016*
X01201Y0016*
X01202Y0016*
X01202Y0016*
X01202Y00161*
X01202*
X01202Y00161*
X01202Y00161*
X01202Y00161*
X01202Y00161*
X01203Y00162*
X01203Y00162*
X01203Y00162*
X01203Y00162*
Y00163*
X01203Y00163*
Y00163*
X01203Y00163*
X01203Y00163*
X01203Y00164*
X01203Y00164*
X01202Y00165*
X01202Y00165*
X01202Y00165*
X01202*
X01202Y00165*
X01202Y00165*
X01202Y00165*
X01202Y00165*
X01201Y00165*
X01201Y00165*
X01201Y00166*
X012Y00166*
X012Y00166*
X012Y00166*
G37*
G36*
X01521Y01003D02*
X01521D01*
X01521Y01003*
X01521Y01003*
X0152Y01003*
X0152Y01003*
X0152Y01003*
X0152Y01003*
X01519Y01003*
X01519Y01002*
X01519Y01002*
X01519Y01002*
X01519Y01002*
X01519Y01002*
X01519Y01002*
X01519Y01002*
X01519Y01002*
X01519Y01001*
X01519Y01001*
X01519Y01001*
X01518Y01*
X01518Y01*
X01518Y01*
X01518Y00999*
X01518Y00998*
X01518Y00998*
X01518Y00997*
Y00997*
Y00997*
Y00997*
Y00997*
X01518Y00997*
Y00996*
X01518Y00996*
X01518Y00996*
X01518Y00995*
X01518Y00994*
X01518Y00994*
X01519Y00994*
X01519Y00993*
X01519Y00993*
X01519Y00992*
X01519Y00992*
X01519Y00992*
X01519Y00992*
X01519Y00992*
X01519Y00992*
X01519Y00992*
X0152Y00992*
X0152Y00991*
X0152Y00991*
X0152Y00991*
X01521Y00991*
X01521Y00991*
X01521Y00991*
X01521*
X01521Y00991*
X01521Y00991*
X01522Y00991*
X01522Y00991*
X01522Y00991*
X01522Y00991*
X01523Y00992*
X01523Y00992*
X01523Y00992*
X01523Y00992*
X01523Y00992*
X01523Y00992*
X01523Y00992*
X01523Y00992*
X01523Y00992*
X01523Y00993*
X01524Y00993*
X01524Y00993*
X01524Y00993*
X01524Y00994*
X01524Y00994*
X01524Y00994*
X01524Y00995*
X01524Y00995*
X01524Y00996*
X01524Y00997*
Y00997*
Y00997*
Y00997*
Y00997*
Y00998*
X01524Y00998*
Y00998*
X01524Y00998*
X01524Y00999*
X01524Y00999*
X01524Y01*
X01524Y01*
X01524Y01001*
X01524Y01001*
X01524Y01002*
X01523Y01002*
X01523Y01002*
Y01002*
X01523Y01002*
X01523Y01002*
X01523Y01002*
X01523Y01003*
X01523Y01003*
X01522Y01003*
X01522Y01003*
X01522Y01003*
X01522Y01003*
X01521Y01003*
X01521Y01003*
G37*
G36*
X01344Y00994D02*
X01344D01*
X01344*
X01343*
X01343Y00994*
X01343Y00994*
X01343Y00994*
X01343Y00994*
X01342Y00994*
X01342Y00994*
X01342Y00994*
X01342Y00994*
X01342Y00994*
X01342Y00993*
X01341Y00993*
X01341Y00993*
X01341Y00993*
X01341Y00993*
X01341Y00992*
X01341Y00992*
X01341Y00992*
X01341Y00992*
Y00986*
X01346*
Y00991*
X01346Y00991*
X01346Y00992*
X01346Y00992*
X01346Y00992*
X01346Y00993*
X01346Y00993*
X01346Y00993*
X01346Y00993*
X01346Y00993*
X01346Y00993*
X01345Y00994*
X01345Y00994*
X01345Y00994*
X01345Y00994*
X01345Y00994*
X01345Y00994*
X01345Y00994*
X01345Y00994*
X01344Y00994*
X01344Y00994*
X01344Y00994*
X01344Y00994*
G37*
G36*
X01399D02*
X01399D01*
X01399*
X01398*
X01398Y00994*
X01398Y00994*
X01398Y00994*
X01398Y00994*
X01397Y00994*
X01397Y00994*
X01397Y00994*
X01397Y00994*
X01397Y00994*
X01397Y00993*
X01396Y00993*
X01396Y00993*
X01396Y00993*
X01396Y00993*
X01396Y00992*
X01396Y00992*
X01396Y00992*
X01396Y00992*
Y00986*
X01401*
Y00991*
X01401Y00991*
X01401Y00992*
X01401Y00992*
X01401Y00992*
X01401Y00993*
X01401Y00993*
X01401Y00993*
X01401Y00993*
X01401Y00993*
X01401Y00993*
X014Y00994*
X014Y00994*
X014Y00994*
X014Y00994*
X014Y00994*
X014Y00994*
X014Y00994*
X014Y00994*
X01399Y00994*
X01399Y00994*
X01399Y00994*
X01399Y00994*
G37*
G36*
X02085Y00483D02*
X02085D01*
X02085Y00482*
X02085*
X02085Y00482*
X02084Y00482*
X02084Y00482*
X02084Y00482*
X02083Y00482*
X02083Y00482*
X02083Y00482*
X02083Y00482*
X02083Y00482*
X02083Y00482*
X02083Y00481*
X02083Y00481*
X02083Y00481*
X02083Y00481*
X02082Y00481*
X02082Y0048*
X02082Y0048*
X02082Y00479*
Y00479*
Y00479*
Y00479*
Y00479*
X02082Y00479*
Y00479*
X02082Y00479*
X02082Y00478*
X02082Y00478*
X02083Y00477*
X02083Y00477*
X02083Y00477*
X02083Y00477*
Y00477*
X02083Y00477*
X02083Y00476*
X02083Y00476*
X02084Y00476*
X02084Y00476*
X02084Y00476*
X02085Y00476*
X02085Y00476*
X02085Y00476*
X02085*
X02085Y00476*
X02085Y00476*
X02086Y00476*
X02086Y00476*
X02086Y00476*
X02087Y00476*
X02087Y00476*
X02087Y00476*
X02087Y00476*
X02087Y00477*
Y00477*
X02087Y00477*
X02087Y00477*
X02087Y00477*
X02087Y00477*
X02088Y00477*
X02088Y00477*
X02088Y00477*
X02088Y00478*
X02088Y00478*
X02088Y00479*
X02088Y00479*
X02088Y00479*
Y00479*
Y00479*
Y00479*
X02088Y0048*
Y0048*
X02088Y0048*
X02088Y0048*
X02088Y0048*
X02088Y00481*
X02088Y00481*
X02087Y00481*
X02087Y00482*
X02087*
X02087Y00482*
X02087Y00482*
X02087Y00482*
X02087Y00482*
X02086Y00482*
X02086Y00482*
X02086Y00482*
X02085Y00482*
X02085Y00483*
G37*
G36*
X02103Y00481D02*
X02098D01*
X02098Y00481*
X02097Y00481*
X02097Y00481*
X02097Y00481*
X02096Y00481*
X02096Y00481*
X02096Y00481*
X02096Y00481*
X02096Y0048*
X02096Y0048*
X02095Y0048*
X02095Y0048*
X02095Y0048*
X02095Y0048*
X02095Y0048*
X02095Y0048*
X02095Y00479*
X02095Y00479*
X02095Y00479*
X02095Y00479*
X02095Y00479*
X02095Y00478*
Y00478*
Y00478*
Y00478*
X02095Y00478*
X02095Y00478*
X02095Y00478*
X02095Y00477*
X02095Y00477*
X02095Y00477*
X02095Y00477*
X02095Y00477*
X02095Y00476*
X02096Y00476*
X02096Y00476*
X02096Y00476*
X02096Y00476*
X02096Y00476*
X02097Y00476*
X02097Y00476*
X02097Y00476*
X02097Y00476*
X02103*
Y00481*
G37*
G36*
X01455Y00644D02*
X01454D01*
X01454*
X01454*
X01454*
X01454Y00644*
X01454*
X01454Y00644*
X01454Y00644*
X01453Y00644*
X01453Y00644*
X01452Y00644*
X01452Y00644*
X01452Y00643*
X01452*
X01452Y00643*
X01452Y00643*
X01452Y00643*
X01452Y00643*
X01451Y00642*
X01451Y00642*
X01451Y00642*
X01451Y00642*
Y00641*
X01451Y00641*
Y00641*
X01451Y00641*
X01451Y00641*
X01451Y0064*
X01451Y0064*
X01452Y00639*
X01452Y00639*
X01452Y00639*
X01452*
X01452Y00639*
X01452Y00639*
X01452Y00639*
X01452Y00639*
X01453Y00639*
X01453Y00639*
X01453Y00638*
X01454Y00638*
X01454Y00638*
X01454Y00638*
X01454*
X01454*
X01455*
X01455Y00638*
X01455Y00638*
X01455Y00638*
X01456Y00638*
X01456Y00639*
X01456Y00639*
X01456Y00639*
X01456Y00639*
X01457Y00639*
X01457Y00639*
X01457Y00639*
X01457Y00639*
X01457Y0064*
X01458Y0064*
X01458Y0064*
X01458Y0064*
X01458Y0064*
X01458Y0064*
X01458Y00641*
X01458Y00641*
X01458Y00641*
X01458Y00641*
Y00641*
X01458Y00642*
X01458Y00642*
X01458Y00642*
X01458Y00642*
X01458Y00643*
X01457Y00643*
X01457Y00643*
X01457Y00643*
X01457Y00643*
X01457Y00643*
X01457Y00643*
X01457Y00644*
X01457Y00644*
X01457Y00644*
X01457Y00644*
X01456Y00644*
X01456Y00644*
X01456Y00644*
X01455Y00644*
X01455Y00644*
G37*
G36*
X01465Y00302D02*
Y00297D01*
X01472*
X01465Y00302*
G37*
G36*
X01432Y00477D02*
X01432D01*
X01432*
X01431*
X01431*
X01431Y00477*
X01431*
X01431Y00477*
X01431Y00477*
X0143Y00477*
X0143Y00476*
X01429Y00476*
X01429Y00476*
X01429Y00476*
X01429*
X01429Y00476*
X01429Y00476*
X01429Y00476*
X01429Y00475*
X01428Y00475*
X01428Y00475*
X01428Y00474*
X01428Y00474*
X01428Y00474*
Y00474*
X01428Y00474*
X01428Y00474*
X01428Y00473*
X01428Y00473*
X01428Y00473*
X01428Y00472*
X01429Y00472*
X01429Y00472*
X01429Y00472*
X01429Y00472*
X01429*
X01429Y00472*
X01429Y00472*
X01429Y00472*
X01429Y00472*
X01429Y00471*
X0143Y00471*
X0143Y00471*
X0143Y00471*
X01431Y00471*
X01431Y00471*
X01431Y00471*
X01432Y00471*
X01432*
X01432*
X01432*
X01432Y00471*
X01432*
X01432Y00471*
X01433Y00471*
X01433Y00471*
X01433Y00471*
X01434Y00471*
X01434Y00472*
X01434Y00472*
Y00472*
X01434Y00472*
X01434Y00472*
X01434Y00472*
X01434Y00472*
X01435Y00473*
X01435Y00473*
X01435Y00473*
X01435Y00474*
X01435Y00474*
Y00474*
X01435Y00474*
Y00474*
X01435Y00474*
X01435Y00475*
X01435Y00475*
X01435Y00475*
X01434Y00476*
X01434Y00476*
X01434Y00476*
X01434Y00476*
X01434Y00476*
X01434Y00476*
X01434Y00476*
X01434Y00476*
X01434Y00476*
X01433Y00476*
X01433Y00477*
X01433Y00477*
X01432Y00477*
X01432Y00477*
G37*
G36*
X01373Y0048D02*
X01368D01*
Y00476*
X01368Y00476*
X01368Y00476*
X01368Y00475*
X01368Y00475*
X01368Y00475*
X01368Y00475*
X01368Y00475*
X01368Y00474*
X01369Y00474*
X01369Y00474*
X01369Y00474*
X01369Y00474*
X01369Y00474*
X01369Y00474*
X01369Y00473*
X01369Y00473*
X0137Y00473*
X0137Y00473*
X0137Y00473*
X0137Y00473*
X0137Y00473*
X01371*
X01371*
X01371Y00473*
X01371Y00473*
X01371Y00473*
X01371Y00473*
X01372Y00473*
X01372Y00474*
X01372Y00474*
X01372Y00474*
X01372Y00474*
X01372Y00474*
X01372Y00474*
X01372Y00474*
X01372Y00474*
X01373Y00475*
X01373Y00475*
X01373Y00475*
X01373Y00475*
X01373Y00475*
X01373Y00475*
X01373Y00475*
Y00476*
X01373Y00476*
X01373Y00476*
X01373Y00476*
Y0048*
G37*
G36*
X01366D02*
X01361D01*
Y00476*
X01361Y00475*
X01361Y00475*
X01361Y00475*
Y00475*
X01361Y00475*
X01361Y00474*
X01361Y00474*
X01361Y00474*
X01362Y00474*
X01362Y00474*
X01362Y00474*
X01362Y00474*
X01362Y00474*
X01362Y00473*
X01362Y00473*
X01362Y00473*
X01362Y00473*
X01362Y00473*
X01363Y00473*
X01363Y00473*
X01363Y00473*
X01363Y00473*
X01363Y00473*
X01363Y00473*
X01363Y00473*
X01364Y00473*
X01364Y00473*
X01364*
X01364*
X01364Y00473*
X01364Y00473*
X01365Y00473*
X01365Y00473*
X01365Y00473*
X01365Y00473*
X01365Y00473*
X01365Y00473*
X01366Y00473*
X01366Y00473*
X01366Y00473*
X01366Y00474*
X01366Y00474*
X01366Y00474*
X01366Y00474*
X01366Y00474*
X01366Y00474*
X01366Y00475*
X01366Y00475*
X01366Y00475*
X01366Y00476*
X01366Y00476*
Y0048*
G37*
G36*
X01514Y00435D02*
X01507D01*
X01514Y0043*
Y00435*
G37*
G36*
X01508Y00424D02*
X01508D01*
X01508*
X01508*
X01508Y00424*
X01508Y00424*
X01508Y00424*
X01507Y00424*
X01507Y00424*
X01507Y00424*
X01507Y00424*
X01507Y00424*
X01506Y00424*
X01506Y00423*
X01506Y00423*
X01506Y00423*
X01506Y00423*
X01506Y00423*
X01506Y00422*
X01506Y00422*
X01506Y00422*
X01506Y00422*
Y00416*
X01511*
Y00421*
X01511Y00421*
X01511Y00422*
X01511Y00422*
X01511Y00422*
X01511Y00423*
X01511Y00423*
X01511Y00423*
X01511Y00423*
X0151Y00423*
X0151Y00423*
X0151Y00424*
X0151Y00424*
X0151Y00424*
X0151Y00424*
X0151Y00424*
X0151Y00424*
X01509Y00424*
X01509Y00424*
X01509Y00424*
X01509Y00424*
X01509Y00424*
X01508Y00424*
G37*
G36*
X01561Y00508D02*
X01561D01*
X01561Y00508*
X01561Y00508*
X01561Y00508*
X0156Y00508*
X0156Y00508*
X0156Y00508*
X01559Y00508*
X01559Y00508*
X01559Y00508*
X01559Y00507*
X01559Y00507*
X01559Y00507*
X01559Y00507*
X01559Y00506*
X01559Y00506*
Y00506*
Y00506*
Y00506*
X01559Y00506*
X01559Y00506*
X01559Y00505*
X01559Y00505*
X01559Y00505*
X01559Y00505*
X01559Y00504*
X01559Y00504*
X0156Y00504*
X0156Y00504*
X0156Y00504*
X0156Y00504*
X0156Y00504*
X01561Y00504*
X01561Y00504*
X01561*
X01561Y00504*
X01562Y00504*
X01562Y00504*
X01562Y00504*
X01562Y00504*
X01563Y00504*
X01563Y00504*
X01563Y00504*
X01563Y00504*
X01563Y00505*
X01563Y00505*
X01563Y00505*
X01564Y00505*
X01564Y00506*
X01564Y00506*
Y00506*
Y00506*
Y00506*
X01564Y00506*
X01564Y00506*
X01564Y00507*
X01563Y00507*
X01563Y00507*
X01563Y00507*
X01563Y00508*
X01563Y00508*
X01563Y00508*
X01563Y00508*
X01562Y00508*
X01562Y00508*
X01562Y00508*
X01562Y00508*
X01561Y00508*
G37*
G36*
X01561Y00502D02*
X01561D01*
X01561Y00502*
X01561*
X01561Y00502*
X0156Y00502*
X0156Y00502*
X0156Y00502*
X01559Y00502*
X01559Y00501*
X01559Y00501*
X01559Y00501*
X01559Y00501*
X01559Y00501*
X01559Y00501*
X01558Y005*
X01558Y005*
X01558Y005*
X01558Y00499*
X01558Y00499*
Y00499*
Y00499*
X01558Y00499*
X01558Y00499*
X01558Y00498*
X01558Y00498*
X01558Y00498*
X01558Y00498*
X01559Y00498*
X01559Y00497*
X01559Y00497*
X01559Y00497*
X01559Y00497*
X01559Y00497*
X01559Y00497*
X0156Y00496*
X0156Y00496*
X0156Y00496*
X0156Y00496*
X0156Y00496*
X0156Y00496*
X01561Y00496*
X01561Y00496*
X01561Y00496*
X01561*
X01561Y00496*
X01562*
X01562Y00496*
X01562Y00496*
X01562Y00496*
X01563Y00496*
X01563Y00497*
X01563Y00497*
X01563Y00497*
X01563Y00497*
X01563Y00497*
X01564Y00497*
X01564Y00497*
X01564Y00497*
X01564Y00498*
X01564Y00498*
X01564Y00499*
X01564Y00499*
Y00499*
Y00499*
Y00499*
Y00499*
X01564Y00499*
Y00499*
X01564Y00499*
X01564Y005*
X01564Y005*
X01564Y00501*
X01564Y00501*
X01564Y00501*
X01563Y00501*
Y00501*
X01563Y00501*
X01563Y00501*
X01563Y00502*
X01563Y00502*
X01562Y00502*
X01562Y00502*
X01562Y00502*
X01561Y00502*
G37*
G36*
X01789Y00109D02*
X01789D01*
X01789*
X01789*
X01789*
X01789Y00109*
X01789*
X01789Y00109*
X01788Y00109*
X01788Y00109*
X01787Y00109*
X01787Y00109*
X01787Y00108*
X01787Y00108*
X01787*
X01787Y00108*
X01786Y00108*
X01786Y00108*
X01786Y00108*
X01786Y00107*
X01786Y00107*
X01786Y00107*
X01786Y00106*
X01786Y00106*
Y00106*
X01786Y00106*
X01786Y00106*
X01786Y00106*
X01786Y00105*
X01786Y00105*
X01786Y00105*
X01786Y00105*
X01786Y00104*
X01786Y00104*
X01787Y00104*
X01787*
X01787Y00104*
X01787Y00104*
X01787Y00104*
X01787Y00104*
X01787Y00104*
X01787Y00104*
X01787Y00104*
X01788Y00103*
X01788Y00103*
X01789Y00103*
X01789Y00103*
X01789Y00103*
X01789*
X01789*
X01789*
X0179Y00103*
X0179*
X0179Y00103*
X0179Y00103*
X0179Y00103*
X01791Y00104*
X01791Y00104*
X01791Y00104*
X01792Y00104*
Y00104*
X01792Y00104*
X01792Y00104*
X01792Y00104*
X01792Y00105*
X01792Y00105*
X01792Y00105*
X01792Y00106*
X01792Y00106*
X01793Y00106*
Y00106*
X01792Y00106*
Y00106*
X01792Y00107*
X01792Y00107*
X01792Y00107*
X01792Y00108*
X01792Y00108*
X01792Y00108*
X01792Y00108*
X01792Y00108*
X01792Y00108*
X01792Y00108*
X01791Y00108*
X01791Y00108*
X01791Y00109*
X01791Y00109*
X01791Y00109*
X0179Y00109*
X0179Y00109*
X01789Y00109*
G37*
G36*
X01794Y00095D02*
X01787D01*
X01794Y00091*
Y00095*
G37*
G36*
X01317Y01742D02*
X01312Y01735D01*
X01317*
Y01742*
G37*
G36*
X01614Y01764D02*
X01614D01*
X01614*
X01613*
X01613Y01764*
X01613Y01764*
X01613Y01764*
X01613Y01764*
X01612Y01764*
X01612Y01764*
X01612Y01764*
X01612Y01764*
X01612Y01764*
X01612Y01763*
X01611Y01763*
X01611Y01763*
X01611Y01763*
X01611Y01763*
X01611Y01762*
X01611Y01762*
X01611Y01762*
X01611Y01762*
Y01756*
X01616*
Y01761*
X01616Y01761*
X01616Y01762*
X01616Y01762*
X01616Y01762*
X01616Y01763*
X01616Y01763*
X01616Y01763*
X01616Y01763*
X01616Y01763*
X01616Y01763*
X01615Y01764*
X01615Y01764*
X01615Y01764*
X01615Y01764*
X01615Y01764*
X01615Y01764*
X01615Y01764*
X01615Y01764*
X01614Y01764*
X01614Y01764*
X01614Y01764*
X01614Y01764*
G37*
G36*
X0159Y01654D02*
X01589D01*
X01589*
X01589*
X01589*
X01589Y01654*
X01589*
X01589Y01654*
X01589Y01654*
X01588Y01654*
X01588Y01654*
X01587Y01654*
X01587Y01654*
X01587Y01653*
X01587*
X01587Y01653*
X01587Y01653*
X01587Y01653*
X01587Y01653*
X01586Y01652*
X01586Y01652*
X01586Y01652*
X01586Y01652*
Y01651*
X01586Y01651*
Y01651*
X01586Y01651*
X01586Y01651*
X01586Y0165*
X01586Y0165*
X01587Y01649*
X01587Y01649*
X01587Y01649*
X01587*
X01587Y01649*
X01587Y01649*
X01587Y01649*
X01587Y01649*
X01588Y01649*
X01588Y01649*
X01588Y01648*
X01589Y01648*
X01589Y01648*
X01589Y01648*
X01589*
X01589*
X0159*
X0159Y01648*
X0159Y01648*
X0159Y01648*
X01591Y01648*
X01591Y01649*
X01591Y01649*
X01591Y01649*
X01591Y01649*
X01592Y01649*
X01592Y01649*
X01592Y01649*
X01592Y01649*
X01592Y0165*
X01593Y0165*
X01593Y0165*
X01593Y0165*
X01593Y0165*
X01593Y0165*
X01593Y01651*
X01593Y01651*
X01593Y01651*
X01593Y01651*
Y01651*
X01593Y01652*
X01593Y01652*
X01593Y01652*
X01593Y01652*
X01593Y01653*
X01592Y01653*
X01592Y01653*
X01592Y01653*
X01592Y01653*
X01592Y01653*
X01592Y01653*
X01592Y01654*
X01592Y01654*
X01592Y01654*
X01592Y01654*
X01591Y01654*
X01591Y01654*
X01591Y01654*
X0159Y01654*
X0159Y01654*
G37*
G36*
X01869Y01857D02*
X01862D01*
X01869Y01852*
Y01857*
G37*
G36*
X01909Y01703D02*
X01904D01*
Y01698*
X01908*
X01909Y01698*
X01909Y01698*
X01909Y01698*
X0191Y01698*
X0191Y01698*
X0191Y01698*
X0191Y01698*
X0191Y01698*
X0191Y01699*
X01911Y01699*
X01911Y01699*
X01911Y01699*
X01911Y01699*
X01911Y01699*
X01911Y01699*
X01911Y01699*
X01912Y017*
X01912Y017*
X01912Y017*
X01912Y017*
X01912Y017*
X01912Y01701*
Y01701*
Y01701*
Y01701*
X01912Y01701*
X01912Y01701*
X01912Y01701*
X01912Y01702*
X01911Y01702*
X01911Y01702*
X01911Y01702*
X01911Y01702*
X01911Y01703*
X01911Y01703*
X0191Y01703*
X0191Y01703*
X0191Y01703*
X0191Y01703*
X0191Y01703*
X01909Y01703*
X01909Y01703*
X01909Y01703*
G37*
G36*
X01653Y01553D02*
X01648D01*
Y01548*
X01648Y01548*
X01648Y01547*
X01648Y01547*
X01648Y01547*
X01648Y01546*
X01648Y01546*
X01648Y01546*
X01648Y01546*
X01648Y01546*
X01648Y01546*
X01649Y01545*
X01649Y01545*
X01649Y01545*
X01649Y01545*
X01649Y01545*
X01649Y01545*
X01649Y01545*
X01649Y01545*
X0165Y01545*
X0165Y01545*
X0165Y01545*
X0165Y01545*
X0165*
X0165*
X01651*
X01651Y01545*
X01651Y01545*
X01651Y01545*
X01651Y01545*
X01652Y01545*
X01652Y01545*
X01652Y01545*
X01652Y01545*
X01652Y01545*
X01652Y01546*
X01653Y01546*
X01653Y01546*
X01653Y01546*
X01653Y01546*
X01653Y01547*
X01653Y01547*
X01653Y01547*
X01653Y01547*
Y01553*
G37*
G36*
X02145Y00927D02*
X02145D01*
X02145*
X02144*
X02144Y00927*
X02144Y00927*
X02144Y00927*
X02143Y00927*
X02143Y00927*
X02143Y00927*
X02143Y00927*
X02143Y00927*
X02142Y00927*
X02142Y00927*
X02142Y00927*
X02142Y00926*
X02142Y00926*
X02141Y00926*
X02141Y00926*
X02141Y00926*
X02141Y00926*
X02141Y00925*
X02141Y00925*
X02141Y00925*
X02141Y00925*
X02141Y00924*
Y00924*
X02141Y00924*
X02141Y00924*
X02141Y00924*
X02141Y00923*
X02141Y00923*
X02142Y00923*
X02142Y00922*
X02142Y00922*
X02142Y00922*
X02142Y00922*
X02142Y00922*
X02142Y00922*
X02142Y00922*
X02142Y00922*
X02142Y00922*
X02143Y00922*
X02143Y00922*
X02143Y00922*
X02144Y00922*
X02144Y00921*
X02145*
X02145*
X02145*
X02145*
X02145Y00922*
X02145*
X02145Y00922*
X02145Y00922*
X02146Y00922*
X02146Y00922*
X02147Y00922*
X02147Y00922*
X02147Y00922*
X02147*
X02147Y00922*
X02147Y00922*
X02147Y00923*
X02147Y00923*
X02148Y00923*
X02148Y00924*
X02148Y00924*
X02148Y00924*
Y00925*
X02148Y00925*
Y00925*
X02148Y00925*
X02148Y00925*
X02148Y00925*
X02148Y00926*
X02147Y00926*
X02147Y00926*
X02147Y00927*
X02147*
X02147Y00927*
X02147Y00927*
X02147Y00927*
X02147Y00927*
X02146Y00927*
X02146Y00927*
X02146Y00927*
X02145Y00927*
X02145Y00927*
X02145Y00927*
G37*
G36*
X02079Y02153D02*
X02072D01*
Y02142*
X02079Y02153*
G37*
G36*
X02089Y02014D02*
X02089D01*
X02089*
X02088*
X02088Y02014*
X02088Y02014*
X02088Y02014*
X02088Y02014*
X02087Y02014*
X02087Y02014*
X02087Y02014*
X02087Y02014*
X02087Y02014*
X02087Y02013*
X02086Y02013*
X02086Y02013*
X02086Y02013*
X02086Y02013*
X02086Y02012*
X02086Y02012*
X02086Y02012*
X02086Y02012*
Y02006*
X02091*
Y02011*
X02091Y02011*
X02091Y02012*
X02091Y02012*
X02091Y02012*
X02091Y02013*
X02091Y02013*
X02091Y02013*
X02091Y02013*
X02091Y02013*
X02091Y02013*
X0209Y02014*
X0209Y02014*
X0209Y02014*
X0209Y02014*
X0209Y02014*
X0209Y02014*
X0209Y02014*
X0209Y02014*
X02089Y02014*
X02089Y02014*
X02089Y02014*
X02089Y02014*
G37*
G36*
X02247Y01202D02*
X02242Y01195D01*
X02247*
Y01202*
G37*
G36*
X02222Y01203D02*
X02216D01*
Y01198*
X02221*
X02221Y01198*
X02222Y01198*
X02222Y01198*
X02222Y01198*
X02223Y01198*
X02223Y01198*
X02223Y01198*
X02223Y01198*
X02223Y01198*
X02223Y01198*
X02224Y01199*
X02224Y01199*
X02224Y01199*
X02224Y01199*
X02224Y01199*
X02224Y01199*
X02224Y01199*
X02224Y01199*
X02224Y012*
X02224Y012*
X02224Y012*
X02224Y012*
Y012*
Y012*
Y01201*
X02224Y01201*
X02224Y01201*
X02224Y01201*
X02224Y01201*
X02224Y01202*
X02224Y01202*
X02224Y01202*
X02224Y01202*
X02224Y01202*
X02223Y01202*
X02223Y01203*
X02223Y01203*
X02223Y01203*
X02223Y01203*
X02222Y01203*
X02222Y01203*
X02222Y01203*
X02222Y01203*
G37*
G36*
X02157Y01993D02*
X02156D01*
X02156Y01993*
X02156*
X02156Y01993*
X02155Y01993*
X02155Y01992*
X02154Y01992*
X02154Y01992*
X02153Y01992*
X02153Y01991*
X02153Y01991*
X02153Y01991*
X02153Y01991*
X02153Y01991*
X02153Y01991*
X02153Y01991*
X02152Y0199*
X02152Y0199*
X02152Y01989*
X02152Y01988*
X02152Y01988*
Y01987*
Y01987*
Y01987*
Y01987*
X02152Y01987*
Y01986*
X02152Y01986*
X02152Y01986*
X02152Y01985*
X02152Y01984*
X02153Y01984*
X02153Y01983*
X02153Y01983*
Y01983*
X02153Y01983*
X02153Y01983*
X02154Y01982*
X02154Y01982*
X02154Y01982*
X02155Y01982*
X02156Y01981*
X02156Y01981*
X02156Y01981*
X02157*
X02157Y01981*
X02157Y01981*
X02157Y01981*
X02158Y01982*
X02158Y01982*
X02159Y01982*
X02159Y01982*
X02159Y01982*
X0216Y01983*
X0216Y01983*
Y01983*
X0216Y01983*
X0216Y01983*
X0216Y01983*
X0216Y01983*
X02161Y01984*
X02161Y01984*
X02161Y01984*
X02161Y01985*
X02161Y01986*
X02161Y01986*
X02162Y01987*
X02162Y01987*
Y01987*
Y01987*
Y01988*
X02162Y01988*
Y01988*
X02161Y01988*
X02161Y01989*
X02161Y01989*
X02161Y0199*
X02161Y01991*
X0216Y01991*
X0216Y01991*
X0216*
X0216Y01991*
X0216Y01992*
X0216Y01992*
X02159Y01992*
X02159Y01992*
X02158Y01993*
X02157Y01993*
X02157Y01993*
X02157Y01993*
G37*
G36*
X02221Y01253D02*
X02216D01*
Y01248*
X0222*
X0222Y01248*
X02221Y01248*
X02221Y01248*
X02221Y01248*
X02222Y01248*
X02222Y01248*
X02222Y01248*
X02222Y01248*
X02222Y01249*
X02223Y01249*
X02223Y01249*
X02223Y01249*
X02223Y01249*
X02223Y01249*
X02223Y01249*
X02223Y01249*
X02223Y0125*
X02223Y0125*
X02224Y0125*
X02224Y0125*
X02224Y0125*
X02224Y01251*
Y01251*
Y01251*
Y01251*
X02224Y01251*
X02224Y01251*
X02224Y01251*
X02223Y01252*
X02223Y01252*
X02223Y01252*
X02223Y01252*
X02223Y01252*
X02223Y01253*
X02223Y01253*
X02222Y01253*
X02222Y01253*
X02222Y01253*
X02222Y01253*
X02222Y01253*
X02221Y01253*
X02221Y01253*
X02221Y01253*
G37*
G36*
X00833Y01764D02*
X00833D01*
X00833*
X00833*
X00833Y01764*
X00833Y01764*
X00833Y01764*
X00832Y01764*
X00832Y01764*
X00832Y01764*
X00832Y01764*
X00832Y01764*
X00831Y01764*
X00831Y01763*
X00831Y01763*
X00831Y01763*
X00831Y01763*
X00831Y01763*
X00831Y01762*
X00831Y01762*
X00831Y01762*
X00831Y01762*
Y01756*
X00836*
Y01761*
X00836Y01761*
X00836Y01762*
X00836Y01762*
X00836Y01762*
X00836Y01763*
X00836Y01763*
X00836Y01763*
X00836Y01763*
X00835Y01763*
X00835Y01763*
X00835Y01764*
X00835Y01764*
X00835Y01764*
X00835Y01764*
X00835Y01764*
X00835Y01764*
X00834Y01764*
X00834Y01764*
X00834Y01764*
X00834Y01764*
X00834Y01764*
X00833Y01764*
G37*
G36*
X00892Y01824D02*
X00892D01*
X00892*
X00892*
X00892*
X00891*
X00891Y01824*
X00891*
X00891Y01824*
X0089Y01823*
X0089Y01823*
X00889Y01823*
X00889Y01823*
X00888Y01823*
X00888Y01823*
X00887Y01823*
X00887Y01823*
X00887Y01823*
X00887*
X00887Y01823*
X00887Y01823*
X00887Y01823*
X00886Y01822*
X00886Y01822*
X00886Y01822*
X00886Y01821*
X00886Y01821*
X00886Y01821*
X00886Y01821*
X00886Y01821*
Y0182*
X00886Y0182*
X00886Y0182*
X00886Y0182*
X00886Y01819*
X00886Y01819*
X00886Y01819*
X00886Y01819*
X00887Y01819*
X00887Y01818*
X00887Y01818*
X00887Y01818*
X00887Y01818*
X00887Y01818*
X00887Y01818*
X00887Y01818*
X00888Y01818*
X00888Y01818*
X00888Y01818*
X00889Y01818*
X00889Y01818*
X00889Y01818*
X0089Y01818*
X00891Y01818*
X00891Y01818*
X00892Y01818*
X00892*
X00892*
X00892*
X00892*
X00892Y01818*
X00893*
X00893Y01818*
X00893Y01818*
X00894Y01818*
X00895Y01818*
X00895Y01818*
X00895Y01818*
X00896Y01818*
X00896Y01818*
X00897Y01818*
X00897Y01818*
X00897Y01818*
X00897Y01818*
X00897Y01819*
X00897Y01819*
X00897Y01819*
X00897Y01819*
X00898Y01819*
X00898Y0182*
X00898Y0182*
X00898Y0182*
X00898Y0182*
X00898Y01821*
Y01821*
X00898Y01821*
X00898Y01821*
X00898Y01821*
X00898Y01821*
X00898Y01822*
X00898Y01822*
X00897Y01822*
X00897Y01822*
X00897Y01822*
X00897Y01823*
X00897Y01823*
X00897Y01823*
X00897Y01823*
X00897Y01823*
X00897Y01823*
X00896Y01823*
X00896Y01823*
X00896Y01823*
X00896Y01823*
X00895Y01823*
X00895Y01823*
X00895Y01823*
X00894Y01823*
X00894Y01823*
X00893Y01824*
X00892Y01824*
G37*
G36*
X00888Y01799D02*
X00888D01*
X00888*
X00888*
X00888Y01799*
X00888Y01799*
X00888Y01799*
X00887Y01799*
X00887Y01799*
X00887Y01799*
X00887Y01799*
X00887Y01799*
X00886Y01799*
X00886Y01798*
X00886Y01798*
X00886Y01798*
X00886Y01798*
X00886Y01798*
X00886Y01797*
X00886Y01797*
X00886Y01797*
X00886Y01797*
Y01791*
X00891*
Y01796*
X00891Y01796*
X00891Y01797*
X00891Y01797*
X00891Y01797*
X00891Y01798*
X00891Y01798*
X00891Y01798*
X00891Y01798*
X0089Y01798*
X0089Y01798*
X0089Y01799*
X0089Y01799*
X0089Y01799*
X0089Y01799*
X0089Y01799*
X0089Y01799*
X00889Y01799*
X00889Y01799*
X00889Y01799*
X00889Y01799*
X00889Y01799*
X00888Y01799*
G37*
G36*
X00944Y01823D02*
X00944D01*
X00944*
X00944*
X00944*
X00944Y01823*
X00944*
X00944Y01823*
X00943Y01823*
X00943Y01823*
X00942Y01823*
X00942Y01823*
X00942Y01823*
X00942Y01823*
X00942*
X00942Y01823*
X00941Y01822*
X00941Y01822*
X00941Y01822*
X00941Y01822*
X00941Y01821*
X00941Y01821*
X00941Y01821*
X00941Y01821*
Y0182*
X00941Y0182*
X00941Y0182*
X00941Y0182*
X00941Y0182*
X00941Y0182*
X00941Y01819*
X00941Y01819*
X00941Y01819*
X00941Y01819*
X00942Y01818*
X00942*
X00942Y01818*
X00942Y01818*
X00942Y01818*
X00942Y01818*
X00942Y01818*
X00942Y01818*
X00942Y01818*
X00943Y01818*
X00943Y01818*
X00944Y01818*
X00944Y01818*
X00944Y01818*
X00944*
X00944*
X00944*
X00945Y01818*
X00945*
X00945Y01818*
X00945Y01818*
X00945Y01818*
X00946Y01818*
X00946Y01818*
X00946Y01818*
X00947Y01818*
Y01818*
X00947Y01818*
X00947Y01819*
X00947Y01819*
X00947Y01819*
X00947Y01819*
X00947Y0182*
X00947Y0182*
X00947Y0182*
X00948Y01821*
Y01821*
X00947Y01821*
Y01821*
X00947Y01821*
X00947Y01821*
X00947Y01822*
X00947Y01822*
X00947Y01822*
X00947Y01822*
X00947Y01823*
X00947Y01823*
X00947Y01823*
X00947Y01823*
X00946Y01823*
X00946Y01823*
X00946Y01823*
X00946Y01823*
X00946Y01823*
X00945Y01823*
X00945Y01823*
X00944Y01823*
G37*
G36*
X00943Y01799D02*
X00943D01*
X00943*
X00943*
X00943Y01799*
X00943Y01799*
X00943Y01799*
X00942Y01799*
X00942Y01799*
X00942Y01799*
X00942Y01799*
X00942Y01799*
X00941Y01799*
X00941Y01798*
X00941Y01798*
X00941Y01798*
X00941Y01798*
X00941Y01798*
X00941Y01797*
X00941Y01797*
X00941Y01797*
X00941Y01797*
Y01791*
X00946*
Y01796*
X00946Y01796*
X00946Y01797*
X00946Y01797*
X00946Y01797*
X00946Y01798*
X00946Y01798*
X00946Y01798*
X00946Y01798*
X00945Y01798*
X00945Y01798*
X00945Y01799*
X00945Y01799*
X00945Y01799*
X00945Y01799*
X00945Y01799*
X00945Y01799*
X00944Y01799*
X00944Y01799*
X00944Y01799*
X00944Y01799*
X00944Y01799*
X00943Y01799*
G37*
G36*
X01098Y02056D02*
X01093D01*
X01093Y02056*
X01092Y02056*
X01092Y02056*
X01092Y02056*
X01091Y02056*
X01091Y02056*
X01091Y02056*
X01091Y02056*
X01091Y02055*
X01091Y02055*
X0109Y02055*
X0109Y02055*
X0109Y02055*
X0109Y02055*
X0109Y02055*
X0109Y02055*
X0109Y02054*
X0109Y02054*
X0109Y02054*
X0109Y02054*
X0109Y02054*
X0109Y02053*
Y02053*
Y02053*
Y02053*
X0109Y02053*
X0109Y02053*
X0109Y02053*
X0109Y02052*
X0109Y02052*
X0109Y02052*
X0109Y02052*
X0109Y02052*
X0109Y02051*
X01091Y02051*
X01091Y02051*
X01091Y02051*
X01091Y02051*
X01091Y02051*
X01092Y02051*
X01092Y02051*
X01092Y02051*
X01092Y02051*
X01098*
Y02056*
G37*
G36*
X01068Y02063D02*
X01068D01*
X01068Y02063*
X01068*
X01068Y02063*
X01068Y02063*
X01067Y02063*
X01067Y02063*
X01067Y02062*
X01066Y02062*
X01066Y02062*
X01066Y02062*
X01066Y02062*
X01066Y02062*
X01066Y02062*
X01066Y02062*
X01066Y02061*
X01065Y02061*
X01065Y0206*
X01065Y0206*
Y0206*
Y0206*
Y0206*
Y0206*
X01065Y0206*
Y0206*
X01065Y0206*
X01065Y02059*
X01066Y02059*
X01066Y02058*
X01066Y02058*
X01066Y02058*
X01066Y02058*
Y02058*
X01066Y02058*
X01066Y02058*
X01067Y02057*
X01067Y02057*
X01067Y02057*
X01068Y02057*
X01068Y02057*
X01068Y02057*
X01069*
X01069Y02057*
X01069*
X01069Y02057*
X01069Y02057*
X0107Y02057*
X0107Y02057*
X0107Y02057*
X0107Y02058*
X01071Y02058*
X01071Y02058*
X01071Y02058*
X01071Y02058*
X01071Y02058*
X01071Y02059*
X01071Y02059*
X01071Y02059*
X01071Y0206*
X01071Y0206*
Y0206*
Y0206*
X01071Y0206*
X01071Y0206*
X01071Y02061*
X01071Y02061*
X01071Y02061*
X01071Y02061*
X01071Y02061*
X01071Y02062*
X01071Y02062*
X01071Y02062*
X01071Y02062*
X0107Y02062*
X0107Y02062*
X0107Y02063*
X0107Y02063*
X0107Y02063*
X0107Y02063*
X0107Y02063*
X01069Y02063*
X01069Y02063*
X01069Y02063*
X01068Y02063*
G37*
G36*
X01068Y02055D02*
X01068D01*
X01068Y02055*
X01068Y02055*
X01068Y02055*
X01068Y02055*
X01067Y02055*
X01067Y02055*
X01067Y02055*
X01067Y02055*
X01067Y02055*
X01066Y02054*
X01066Y02054*
X01066Y02054*
X01066Y02054*
X01066Y02053*
X01066Y02053*
Y02053*
Y02053*
Y02053*
X01066Y02053*
X01066Y02053*
X01066Y02052*
X01066Y02052*
X01066Y02052*
X01066Y02052*
X01067Y02051*
X01067Y02051*
X01067Y02051*
X01067Y02051*
X01067Y02051*
X01067Y02051*
X01068Y02051*
X01068Y02051*
X01068Y02051*
X01069*
X01069Y02051*
X01069Y02051*
X01069Y02051*
X01069Y02051*
X0107Y02051*
X0107Y02051*
X0107Y02051*
X0107Y02051*
X0107Y02051*
X0107Y02052*
X01071Y02052*
X01071Y02052*
X01071Y02052*
X01071Y02053*
X01071Y02053*
Y02053*
Y02053*
Y02053*
X01071Y02053*
X01071Y02053*
X01071Y02054*
X01071Y02054*
X01071Y02054*
X0107Y02054*
X0107Y02055*
X0107Y02055*
X0107Y02055*
X0107Y02055*
X0107Y02055*
X01069Y02055*
X01069Y02055*
X01069Y02055*
X01068Y02055*
G37*
G36*
X01182Y01738D02*
X01176D01*
Y01733*
X01181*
X01181Y01733*
X01182Y01733*
X01182Y01733*
X01182Y01733*
X01183Y01733*
X01183Y01733*
X01183Y01733*
X01183Y01733*
X01183Y01734*
X01183Y01734*
X01184Y01734*
X01184Y01734*
X01184Y01734*
X01184Y01734*
X01184Y01734*
X01184Y01734*
X01184Y01735*
X01184Y01735*
X01184Y01735*
X01184Y01735*
X01184Y01735*
X01184Y01736*
Y01736*
Y01736*
Y01736*
X01184Y01736*
X01184Y01736*
X01184Y01736*
X01184Y01737*
X01184Y01737*
X01184Y01737*
X01184Y01737*
X01184Y01737*
X01184Y01738*
X01183Y01738*
X01183Y01738*
X01183Y01738*
X01183Y01738*
X01183Y01738*
X01182Y01738*
X01182Y01738*
X01182Y01738*
X01182Y01738*
G37*
G36*
X01206Y01738D02*
X01205D01*
X01205Y01738*
X01205Y01738*
X01205Y01738*
X01204Y01738*
X01204Y01738*
X01204Y01738*
X01204Y01738*
X01204Y01737*
X01203Y01737*
X01203Y01737*
X01203Y01737*
X01203Y01737*
X01203Y01737*
X01203Y01737*
X01203Y01737*
X01203Y01736*
X01203Y01736*
X01203Y01736*
X01203Y01735*
X01203Y01735*
X01203Y01735*
X01203Y01734*
X01203Y01733*
X01203Y01733*
X01203Y01732*
Y01732*
Y01732*
Y01732*
Y01732*
X01203Y01732*
Y01731*
X01203Y01731*
X01203Y01731*
X01203Y0173*
X01203Y01729*
X01203Y01729*
X01203Y01729*
X01203Y01728*
X01203Y01728*
X01203Y01727*
X01203Y01727*
X01203Y01727*
X01203Y01727*
X01204Y01727*
X01204Y01727*
X01204Y01727*
X01204Y01727*
X01204Y01726*
X01205Y01726*
X01205Y01726*
X01205Y01726*
X01205Y01726*
X01206Y01726*
X01206*
X01206Y01726*
X01206Y01726*
X01206Y01726*
X01206Y01726*
X01207Y01726*
X01207Y01726*
X01207Y01727*
X01207Y01727*
X01207Y01727*
X01208Y01727*
X01208Y01727*
X01208Y01727*
X01208Y01727*
X01208Y01727*
X01208Y01727*
X01208Y01728*
X01208Y01728*
X01208Y01728*
X01208Y01728*
X01208Y01729*
X01208Y01729*
X01208Y01729*
X01208Y0173*
X01208Y0173*
X01209Y01731*
X01209Y01732*
Y01732*
Y01732*
Y01732*
Y01732*
Y01733*
X01209Y01733*
Y01733*
X01209Y01733*
X01208Y01734*
X01208Y01734*
X01208Y01735*
X01208Y01735*
X01208Y01736*
X01208Y01736*
X01208Y01737*
X01208Y01737*
X01208Y01737*
Y01737*
X01208Y01737*
X01208Y01737*
X01208Y01737*
X01207Y01738*
X01207Y01738*
X01207Y01738*
X01206Y01738*
X01206Y01738*
X01206Y01738*
X01206Y01738*
X01206Y01738*
G37*
G36*
X0109Y00082D02*
X01086Y00075D01*
X0109*
Y00082*
G37*
G36*
X01177Y00149D02*
X01177D01*
X01177*
X01177*
X01177*
X01176*
X01176Y00149*
X01176*
X01176Y00149*
X01175Y00149*
X01175Y00149*
X01174Y00149*
X01174Y00149*
X01173Y00149*
X01173Y00149*
X01172Y00149*
X01172Y00148*
X01172Y00148*
X01172*
X01172Y00148*
X01172Y00148*
X01172Y00148*
X01171Y00148*
X01171Y00148*
X01171Y00147*
X01171Y00147*
X01171Y00147*
X01171Y00147*
X01171Y00146*
X01171Y00146*
Y00146*
X01171Y00146*
X01171Y00146*
X01171Y00145*
X01171Y00145*
X01171Y00145*
X01171Y00145*
X01171Y00144*
X01172Y00144*
X01172Y00144*
X01172Y00144*
X01172Y00144*
X01172Y00144*
X01172Y00144*
X01172Y00144*
X01172Y00144*
X01173Y00144*
X01173Y00144*
X01173Y00144*
X01174Y00143*
X01174Y00143*
X01174Y00143*
X01175Y00143*
X01176Y00143*
X01176Y00143*
X01177Y00143*
X01177*
X01177*
X01177*
X01177*
X01177Y00143*
X01178*
X01178Y00143*
X01178Y00143*
X01179Y00143*
X0118Y00143*
X0118Y00143*
X0118Y00144*
X01181Y00144*
X01181Y00144*
X01182Y00144*
X01182Y00144*
X01182Y00144*
X01182Y00144*
X01182Y00144*
X01182Y00144*
X01182Y00144*
X01182Y00145*
X01183Y00145*
X01183Y00145*
X01183Y00145*
X01183Y00146*
X01183Y00146*
X01183Y00146*
Y00146*
X01183Y00146*
X01183Y00146*
X01183Y00147*
X01183Y00147*
X01183Y00147*
X01183Y00147*
X01182Y00148*
X01182Y00148*
X01182Y00148*
X01182Y00148*
X01182Y00148*
X01182Y00148*
X01182Y00148*
X01182Y00148*
X01182Y00148*
X01181Y00148*
X01181Y00149*
X01181Y00149*
X01181Y00149*
X0118Y00149*
X0118Y00149*
X0118Y00149*
X01179Y00149*
X01179Y00149*
X01178Y00149*
X01177Y00149*
G37*
G36*
X01179Y00135D02*
X01172D01*
X01179Y00131*
Y00135*
G37*
G36*
X0149Y00123D02*
Y00119D01*
X01497*
X0149Y00123*
G37*
G36*
X01274Y00317D02*
X01267D01*
X01274Y00312*
Y00317*
G37*
G36*
X01268Y00294D02*
X01268D01*
X01268*
X01268*
X01268Y00294*
X01268Y00294*
X01268Y00294*
X01267Y00294*
X01267Y00294*
X01267Y00294*
X01267Y00294*
X01267Y00294*
X01266Y00294*
X01266Y00293*
X01266Y00293*
X01266Y00293*
X01266Y00293*
X01266Y00293*
X01266Y00292*
X01266Y00292*
X01266Y00292*
X01266Y00292*
Y00286*
X01271*
Y00291*
X01271Y00291*
X01271Y00292*
X01271Y00292*
X01271Y00292*
X01271Y00293*
X01271Y00293*
X01271Y00293*
X01271Y00293*
X0127Y00293*
X0127Y00293*
X0127Y00294*
X0127Y00294*
X0127Y00294*
X0127Y00294*
X0127Y00294*
X0127Y00294*
X01269Y00294*
X01269Y00294*
X01269Y00294*
X01269Y00294*
X01269Y00294*
X01268Y00294*
G37*
G36*
X01618Y00103D02*
X01613D01*
Y00098*
X01613Y00098*
X01613Y00097*
X01613Y00097*
X01613Y00097*
X01613Y00096*
X01613Y00096*
X01613Y00096*
X01613Y00096*
X01614Y00096*
X01614Y00096*
X01614Y00095*
X01614Y00095*
X01614Y00095*
X01614Y00095*
X01614Y00095*
X01614Y00095*
X01615Y00095*
X01615Y00095*
X01615Y00095*
X01615Y00095*
X01615Y00095*
X01616Y00095*
X01616*
X01616*
X01616*
X01616Y00095*
X01616Y00095*
X01616Y00095*
X01617Y00095*
X01617Y00095*
X01617Y00095*
X01617Y00095*
X01617Y00095*
X01618Y00095*
X01618Y00096*
X01618Y00096*
X01618Y00096*
X01618Y00096*
X01618Y00096*
X01618Y00097*
X01618Y00097*
X01618Y00097*
X01618Y00097*
Y00103*
G37*
G36*
X01615Y00076D02*
X01615D01*
X01615*
X01615*
X01614Y00076*
X01614*
X01614Y00076*
X01614Y00076*
X01614Y00076*
X01613Y00076*
X01613Y00076*
X01613Y00076*
X01612Y00076*
Y00076*
X01612Y00076*
X01612Y00075*
X01612Y00075*
X01612Y00075*
X01612Y00075*
X01612Y00074*
X01612Y00074*
X01612Y00074*
X01611Y00073*
Y00073*
X01612Y00073*
Y00073*
X01612Y00073*
X01612Y00073*
X01612Y00072*
X01612Y00072*
X01612Y00072*
X01612Y00072*
X01612Y00071*
X01612Y00071*
X01612Y00071*
X01612Y00071*
X01613Y00071*
X01613Y00071*
X01613Y00071*
X01613Y00071*
X01613Y00071*
X01614Y00071*
X01614Y00071*
X01615Y00071*
X01615*
X01615*
X01615*
X01615*
X01615Y00071*
X01615*
X01615Y00071*
X01616Y00071*
X01616Y00071*
X01617Y00071*
X01617Y00071*
X01617Y00071*
X01617Y00071*
X01617*
X01617Y00071*
X01618Y00072*
X01618Y00072*
X01618Y00072*
X01618Y00072*
X01618Y00073*
X01618Y00073*
X01618Y00073*
X01618Y00073*
Y00074*
X01618Y00074*
X01618Y00074*
X01618Y00074*
X01618Y00074*
X01618Y00074*
X01618Y00075*
X01618Y00075*
X01618Y00075*
X01618Y00075*
X01617Y00076*
X01617*
X01617Y00076*
X01617Y00076*
X01617Y00076*
X01617Y00076*
X01617Y00076*
X01617Y00076*
X01617Y00076*
X01616Y00076*
X01616Y00076*
X01615Y00076*
X01615Y00076*
X01615Y00076*
G37*
G36*
X01575Y00961D02*
X01575D01*
X01575*
X01575*
X01574Y00961*
X01574*
X01574Y00961*
X01574Y00961*
X01574Y00961*
X01573Y0096*
X01573Y0096*
X01573Y0096*
X01572Y0096*
Y0096*
X01572Y0096*
X01572Y0096*
X01572Y0096*
X01572Y00959*
X01572Y00959*
X01572Y00959*
X01572Y00958*
X01572Y00958*
X01571Y00958*
Y00958*
X01572Y00958*
Y00958*
X01572Y00957*
X01572Y00957*
X01572Y00957*
X01572Y00956*
X01572Y00956*
X01572Y00956*
X01572Y00956*
X01572Y00956*
X01572Y00956*
X01572Y00956*
X01573Y00956*
X01573Y00956*
X01573Y00955*
X01573Y00955*
X01573Y00955*
X01574Y00955*
X01574Y00955*
X01575Y00955*
X01575*
X01575*
X01575*
X01575*
X01575Y00955*
X01575*
X01575Y00955*
X01576Y00955*
X01576Y00955*
X01577Y00955*
X01577Y00955*
X01577Y00956*
X01577Y00956*
X01577*
X01577Y00956*
X01578Y00956*
X01578Y00956*
X01578Y00956*
X01578Y00957*
X01578Y00957*
X01578Y00957*
X01578Y00958*
X01578Y00958*
Y00958*
X01578Y00958*
X01578Y00958*
X01578Y00958*
X01578Y00959*
X01578Y00959*
X01578Y00959*
X01578Y00959*
X01578Y0096*
X01578Y0096*
X01577Y0096*
X01577*
X01577Y0096*
X01577Y0096*
X01577Y0096*
X01577Y0096*
X01577Y0096*
X01577Y0096*
X01577Y0096*
X01576Y00961*
X01576Y00961*
X01575Y00961*
X01575Y00961*
X01575Y00961*
G37*
G36*
X00686Y00523D02*
X00686D01*
X00686Y00523*
X00686Y00523*
X00686Y00523*
X00685Y00523*
X00685Y00523*
X00685Y00523*
X00685Y00523*
X00684Y00523*
X00684Y00523*
X00684Y00522*
Y00522*
X00684Y00522*
X00684Y00522*
X00684Y00522*
X00684Y00522*
X00684Y00522*
X00684Y00522*
X00684Y00522*
X00683Y00521*
X00683Y00521*
X00683Y0052*
X00683Y0052*
X00683Y0052*
Y0052*
Y0052*
Y0052*
X00683Y00519*
Y00519*
X00683Y00519*
X00683Y00519*
X00683Y00519*
X00684Y00518*
X00684Y00518*
X00684Y00518*
X00684Y00517*
X00684*
X00684Y00517*
X00684Y00517*
X00684Y00517*
X00685Y00517*
X00685Y00517*
X00685Y00517*
X00686Y00517*
X00686Y00517*
X00686Y00516*
X00686*
X00686Y00517*
X00686*
X00687Y00517*
X00687Y00517*
X00687Y00517*
X00688Y00517*
X00688Y00517*
X00688Y00517*
X00688Y00517*
X00688Y00517*
X00688Y00517*
X00688Y00517*
X00688Y00518*
X00688Y00518*
X00689Y00518*
X00689Y00518*
X00689Y00518*
X00689Y00519*
X00689Y00519*
X00689Y0052*
Y0052*
Y0052*
Y0052*
Y0052*
X00689Y0052*
Y0052*
X00689Y0052*
X00689Y00521*
X00689Y00521*
X00689Y00522*
X00689Y00522*
X00688Y00522*
X00688Y00522*
Y00522*
X00688Y00522*
X00688Y00523*
X00688Y00523*
X00688Y00523*
X00687Y00523*
X00687Y00523*
X00687Y00523*
X00686Y00523*
X00686Y00523*
G37*
G36*
X0066Y00143D02*
X00656D01*
Y00132*
X0066*
X0066Y00132*
X00661Y00132*
X00661Y00132*
X00661Y00132*
X00662Y00132*
X00662Y00132*
X00662*
X00662Y00132*
X00662Y00132*
X00662Y00132*
X00663Y00132*
X00663Y00132*
X00663Y00132*
X00663Y00132*
X00663Y00133*
X00663Y00133*
X00664Y00133*
X00664Y00133*
X00664Y00133*
X00664Y00133*
X00664Y00134*
X00664Y00134*
X00664Y00134*
Y00135*
X00665Y00135*
X00665Y00135*
X00665Y00135*
X00665Y00135*
X00665Y00135*
X00665Y00135*
X00665Y00135*
X00665Y00136*
X00665Y00136*
X00665Y00136*
X00665Y00137*
X00665Y00137*
Y00137*
Y00137*
Y00138*
X00665Y00138*
Y00138*
X00665Y00138*
X00665Y00138*
X00665Y00139*
X00665Y00139*
X00665Y0014*
X00664Y0014*
X00664Y00141*
X00664Y00141*
Y00141*
X00664Y00141*
X00664Y00141*
X00664Y00141*
X00664Y00141*
X00664Y00142*
X00663Y00142*
X00663Y00142*
X00663Y00143*
X00662Y00143*
X00662Y00143*
X00662Y00143*
X00662Y00143*
X00662Y00143*
X00662Y00143*
X00662Y00143*
X00662Y00143*
X00662Y00143*
X00661Y00143*
X00661Y00143*
X00661Y00143*
X00661Y00143*
X00661Y00143*
X0066*
X0066Y00143*
G37*
G36*
X00686Y00143D02*
X00685D01*
X00685Y00143*
X00685Y00143*
X00685Y00143*
X00684Y00143*
X00684Y00143*
X00684Y00143*
X00684Y00143*
X00684Y00142*
X00684Y00142*
X00683Y00142*
X00683Y00142*
X00683Y00142*
X00683Y00142*
X00683Y00142*
X00683Y00142*
X00683Y00141*
X00683Y00141*
X00683Y00141*
X00683Y0014*
X00683Y0014*
X00683Y0014*
X00683Y00139*
X00683Y00138*
X00683Y00138*
X00683Y00137*
Y00137*
Y00137*
Y00137*
Y00137*
X00683Y00137*
Y00136*
X00683Y00136*
X00683Y00136*
X00683Y00135*
X00683Y00134*
X00683Y00134*
X00683Y00134*
X00683Y00133*
X00683Y00133*
X00683Y00132*
X00683Y00132*
X00683Y00132*
X00683Y00132*
X00684Y00132*
X00684Y00132*
X00684Y00132*
X00684Y00132*
X00684Y00131*
X00685Y00131*
X00685Y00131*
X00685Y00131*
X00685Y00131*
X00686Y00131*
X00686*
X00686Y00131*
X00686Y00131*
X00686Y00131*
X00686Y00131*
X00687Y00131*
X00687Y00131*
X00687Y00132*
X00687Y00132*
X00687Y00132*
X00688Y00132*
X00688Y00132*
X00688Y00132*
X00688Y00132*
X00688Y00132*
X00688Y00132*
X00688Y00133*
X00688Y00133*
X00688Y00133*
X00688Y00133*
X00688Y00134*
X00688Y00134*
X00688Y00134*
X00688Y00135*
X00689Y00135*
X00689Y00136*
X00689Y00137*
Y00137*
Y00137*
Y00137*
Y00137*
Y00138*
X00689Y00138*
Y00138*
X00689Y00138*
X00689Y00139*
X00688Y00139*
X00688Y0014*
X00688Y0014*
X00688Y00141*
X00688Y00141*
X00688Y00142*
X00688Y00142*
X00688Y00142*
Y00142*
X00688Y00142*
X00688Y00142*
X00688Y00142*
X00687Y00143*
X00687Y00143*
X00687Y00143*
X00686Y00143*
X00686Y00143*
X00686Y00143*
X00686Y00143*
X00686Y00143*
G37*
G36*
X00538Y00603D02*
X00535D01*
Y00591*
X00539*
X00539Y00591*
X00539Y00591*
X00539Y00591*
X0054Y00591*
X0054Y00591*
X00541Y00592*
X00541*
X00541Y00592*
X00541Y00592*
X00541Y00592*
X00541Y00592*
X00541Y00592*
X00541Y00592*
X00542Y00592*
X00542Y00592*
X00542Y00592*
X00542Y00592*
X00542Y00593*
X00542Y00593*
X00542Y00593*
X00543Y00593*
X00543Y00594*
X00543Y00594*
Y00594*
X00543Y00594*
X00543Y00594*
X00543Y00594*
X00543Y00595*
X00543Y00595*
X00543Y00595*
X00543Y00595*
X00543Y00595*
X00543Y00595*
X00543Y00596*
X00543Y00597*
X00543Y00597*
Y00597*
Y00597*
Y00597*
X00543Y00598*
Y00598*
X00543Y00598*
X00543Y00598*
X00543Y00598*
X00543Y00599*
X00543Y006*
X00543Y006*
X00543Y00601*
X00543Y00601*
Y00601*
X00543Y00601*
X00543Y00601*
X00542Y00601*
X00542Y00601*
X00542Y00601*
X00542Y00602*
X00541Y00602*
X00541Y00602*
X00541Y00602*
X00541Y00602*
X00541Y00602*
X00541Y00603*
X00541Y00603*
X0054Y00603*
X0054Y00603*
X0054Y00603*
X0054Y00603*
X0054Y00603*
X0054Y00603*
X0054Y00603*
X00539Y00603*
X00539Y00603*
X00539*
X00538Y00603*
G37*
G36*
X00567Y00523D02*
X00561D01*
Y00518*
X00566*
X00566Y00518*
X00567Y00518*
X00567Y00518*
X00567Y00518*
X00568Y00518*
X00568Y00518*
X00568Y00518*
X00568Y00518*
X00568Y00519*
X00568Y00519*
X00569Y00519*
X00569Y00519*
X00569Y00519*
X00569Y00519*
X00569Y00519*
X00569Y00519*
X00569Y0052*
X00569Y0052*
X00569Y0052*
X00569Y0052*
X00569Y0052*
X00569Y00521*
Y00521*
Y00521*
Y00521*
X00569Y00521*
X00569Y00521*
X00569Y00521*
X00569Y00522*
X00569Y00522*
X00569Y00522*
X00569Y00522*
X00569Y00522*
X00569Y00523*
X00568Y00523*
X00568Y00523*
X00568Y00523*
X00568Y00523*
X00568Y00523*
X00567Y00523*
X00567Y00523*
X00567Y00523*
X00567Y00523*
G37*
G36*
X00591Y00523D02*
X0059D01*
X0059Y00523*
X0059Y00523*
X0059Y00523*
X0059Y00523*
X00589Y00523*
X00589Y00523*
X00589Y00523*
X00589Y00523*
X00589Y00523*
X00589Y00522*
X00588Y00522*
X00588Y00522*
X00588Y00522*
X00588Y00521*
X00588Y00521*
Y00521*
Y00521*
Y00521*
X00588Y00521*
X00588Y00521*
X00588Y0052*
X00588Y0052*
X00588Y0052*
X00589Y0052*
X00589Y00519*
X00589Y00519*
X00589Y00519*
X00589Y00519*
X00589Y00519*
X0059Y00519*
X0059Y00519*
X0059Y00519*
X00591Y00519*
X00591*
X00591Y00519*
X00591Y00519*
X00591Y00519*
X00591Y00519*
X00592Y00519*
X00592Y00519*
X00592Y00519*
X00592Y00519*
X00592Y00519*
X00593Y0052*
X00593Y0052*
X00593Y0052*
X00593Y0052*
X00593Y00521*
X00593Y00521*
Y00521*
Y00521*
Y00521*
X00593Y00521*
X00593Y00521*
X00593Y00522*
X00593Y00522*
X00593Y00522*
X00593Y00522*
X00592Y00523*
X00592Y00523*
X00592Y00523*
X00592Y00523*
X00592Y00523*
X00592Y00523*
X00591Y00523*
X00591Y00523*
X00591Y00523*
G37*
G36*
X00591Y00517D02*
X0059D01*
X0059Y00517*
X0059*
X0059Y00517*
X0059Y00517*
X00589Y00517*
X00589Y00517*
X00589Y00517*
X00589Y00516*
X00588Y00516*
X00588Y00516*
X00588Y00516*
X00588Y00516*
X00588Y00516*
X00588Y00515*
X00588Y00515*
X00588Y00515*
X00588Y00514*
X00588Y00514*
Y00514*
Y00514*
X00588Y00514*
X00588Y00514*
X00588Y00513*
X00588Y00513*
X00588Y00513*
X00588Y00513*
X00588Y00513*
X00588Y00512*
X00588Y00512*
X00588Y00512*
X00588Y00512*
X00589Y00512*
X00589Y00512*
X00589Y00511*
X00589Y00511*
X00589Y00511*
X00589Y00511*
X00589Y00511*
X0059Y00511*
X0059Y00511*
X0059Y00511*
X00591Y00511*
X00591*
X00591Y00511*
X00591*
X00591Y00511*
X00591Y00511*
X00592Y00511*
X00592Y00511*
X00592Y00512*
X00593Y00512*
X00593Y00512*
X00593Y00512*
X00593Y00512*
X00593Y00512*
X00593Y00512*
X00593Y00512*
X00593Y00513*
X00594Y00513*
X00594Y00514*
X00594Y00514*
Y00514*
Y00514*
Y00514*
Y00514*
X00594Y00514*
Y00514*
X00594Y00514*
X00594Y00515*
X00593Y00515*
X00593Y00516*
X00593Y00516*
X00593Y00516*
X00593Y00516*
Y00516*
X00593Y00516*
X00593Y00516*
X00592Y00517*
X00592Y00517*
X00592Y00517*
X00591Y00517*
X00591Y00517*
X00591Y00517*
G37*
G36*
X00755Y00718D02*
Y00713D01*
X00762*
X00755Y00718*
G37*
G36*
X01878Y00951D02*
X01873D01*
X01873Y00951*
X01872Y00951*
X01872Y00951*
X01872Y00951*
X01871Y00951*
X01871Y00951*
X01871Y00951*
X01871Y00951*
X01871Y00951*
X01871Y00951*
X0187Y0095*
X0187Y0095*
X0187Y0095*
X0187Y0095*
X0187Y0095*
X0187Y0095*
X0187Y0095*
X0187Y0095*
X0187Y00949*
X0187Y00949*
X0187Y00949*
X0187Y00949*
Y00949*
Y00949*
Y00948*
X0187Y00948*
X0187Y00948*
X0187Y00948*
X0187Y00948*
X0187Y00947*
X0187Y00947*
X0187Y00947*
X0187Y00947*
X0187Y00947*
X01871Y00947*
X01871Y00946*
X01871Y00946*
X01871Y00946*
X01871Y00946*
X01872Y00946*
X01872Y00946*
X01872Y00946*
X01872Y00946*
X01878*
Y00951*
G37*
G36*
X00513Y01136D02*
X00508D01*
X00508Y01136*
X00507Y01136*
X00507Y01136*
X00507Y01136*
X00506Y01136*
X00506Y01136*
X00506Y01136*
X00506Y01136*
X00506Y01136*
X00506Y01136*
X00505Y01135*
X00505Y01135*
X00505Y01135*
X00505Y01135*
X00505Y01135*
X00505Y01135*
X00505Y01135*
X00505Y01135*
X00505Y01134*
X00505Y01134*
X00505Y01134*
X00505Y01134*
Y01134*
Y01134*
Y01133*
X00505Y01133*
X00505Y01133*
X00505Y01133*
X00505Y01133*
X00505Y01132*
X00505Y01132*
X00505Y01132*
X00505Y01132*
X00505Y01132*
X00506Y01132*
X00506Y01131*
X00506Y01131*
X00506Y01131*
X00506Y01131*
X00507Y01131*
X00507Y01131*
X00507Y01131*
X00507Y01131*
X00513*
Y01136*
G37*
G36*
X0061Y01074D02*
X0061D01*
X0061*
X00609*
X00609Y01074*
X00609Y01074*
X00609Y01074*
X00608Y01074*
X00608Y01074*
X00608Y01073*
X00608Y01073*
X00608Y01073*
X00607Y01073*
X00607Y01073*
X00607Y01073*
X00607Y01073*
X00607Y01073*
X00606Y01072*
X00606Y01072*
X00606Y01072*
X00606Y01072*
X00606Y01072*
X00606Y01072*
X00606Y01071*
X00606Y01071*
X00606Y01071*
Y01071*
X00606Y01071*
X00606Y0107*
X00606Y0107*
X00606Y0107*
X00606Y01069*
X00607Y01069*
X00607Y01069*
X00607Y01069*
X00607Y01069*
X00607Y01069*
X00607Y01069*
X00607Y01069*
X00607Y01069*
X00607Y01068*
X00607Y01068*
X00608Y01068*
X00608Y01068*
X00608Y01068*
X00609Y01068*
X00609Y01068*
X0061*
X0061*
X0061*
X0061*
X0061Y01068*
X0061*
X0061Y01068*
X0061Y01068*
X00611Y01068*
X00611Y01068*
X00612Y01068*
X00612Y01069*
X00612Y01069*
X00612*
X00612Y01069*
X00612Y01069*
X00612Y01069*
X00612Y01069*
X00613Y0107*
X00613Y0107*
X00613Y0107*
X00613Y01071*
Y01071*
X00613Y01071*
Y01071*
X00613Y01071*
X00613Y01072*
X00613Y01072*
X00613Y01072*
X00612Y01073*
X00612Y01073*
X00612Y01073*
X00612*
X00612Y01073*
X00612Y01073*
X00612Y01073*
X00612Y01073*
X00611Y01073*
X00611Y01074*
X00611Y01074*
X0061Y01074*
X0061Y01074*
X0061Y01074*
G37*
G36*
X00323Y01444D02*
X00323D01*
X00323*
X00323*
X00323Y01444*
X00323Y01444*
X00322Y01444*
X00322Y01443*
X00322Y01443*
X00322Y01443*
X00321Y01443*
X00321Y01443*
X00321Y01443*
X00321Y01443*
X00321Y01442*
X00321Y01442*
X00321Y01442*
X00321Y01442*
X00321Y01441*
Y01441*
X00321Y01441*
X00321Y01441*
X00321Y01441*
X00321Y0144*
X00321Y0144*
X00321Y0144*
X00321Y01439*
X00321Y01439*
X00321Y01439*
X00322Y01439*
X00322Y01439*
X00322Y01439*
X00322Y01439*
X00323Y01439*
X00323Y01439*
X00323*
X00323*
X00323*
X00323Y01439*
X00323Y01439*
X00324Y01439*
X00324Y01439*
X00324Y01439*
X00324Y01439*
X00325Y01439*
X00325Y01439*
X00325Y0144*
X00325Y0144*
X00325Y0144*
X00325Y0144*
X00325Y0144*
X00325Y01441*
X00325Y01441*
Y01441*
X00325Y01441*
X00325Y01442*
X00325Y01442*
X00325Y01442*
X00325Y01442*
X00325Y01443*
X00325Y01443*
X00325Y01443*
X00325Y01443*
X00324Y01443*
X00324Y01443*
X00324Y01443*
X00324Y01444*
X00323Y01444*
X00323Y01444*
G37*
G36*
X0033Y01444D02*
X0033D01*
X0033*
X0033*
X0033*
X0033Y01444*
X0033*
X0033Y01444*
X00329Y01444*
X00329Y01444*
X00328Y01444*
X00328Y01444*
X00328Y01444*
X00328Y01443*
X00328*
X00328Y01443*
X00328Y01443*
X00327Y01443*
X00327Y01443*
X00327Y01442*
X00327Y01442*
X00327Y01442*
X00327Y01441*
Y01441*
X00327Y01441*
Y01441*
X00327Y01441*
X00327Y0144*
X00327Y0144*
X00327Y0144*
X00327Y01439*
X00328Y01439*
X00328Y01439*
X00328Y01439*
X00328Y01439*
X00328Y01439*
X00328Y01439*
X00329Y01438*
X00329Y01438*
X00329Y01438*
X0033Y01438*
X0033Y01438*
X0033*
X0033*
X0033Y01438*
X0033Y01438*
X00331Y01438*
X00331Y01438*
X00331Y01438*
X00331Y01438*
X00331Y01439*
X00332Y01439*
X00332Y01439*
X00332Y01439*
X00332Y01439*
X00332Y01439*
X00332Y01439*
X00333Y0144*
X00333Y0144*
X00333Y0144*
X00333Y0144*
X00333Y0144*
X00333Y0144*
X00333Y01441*
X00333Y01441*
X00333Y01441*
Y01441*
X00333Y01441*
Y01442*
X00333Y01442*
X00333Y01442*
X00333Y01442*
X00333Y01443*
X00332Y01443*
X00332Y01443*
X00332Y01443*
X00332Y01443*
X00332Y01443*
X00332Y01444*
X00332Y01444*
X00332Y01444*
X00331Y01444*
X00331Y01444*
X0033Y01444*
X0033Y01444*
G37*
G36*
X00344Y01192D02*
X00337D01*
X00344Y01187*
Y01192*
G37*
G36*
X00339Y01169D02*
X00339D01*
X00339*
X00338*
X00338Y01169*
X00338Y01169*
X00338Y01169*
X00338Y01169*
X00337Y01169*
X00337Y01169*
X00337Y01169*
X00337Y01169*
X00337Y01169*
X00337Y01168*
X00336Y01168*
X00336Y01168*
X00336Y01168*
X00336Y01168*
X00336Y01167*
X00336Y01167*
X00336Y01167*
X00336Y01167*
Y01161*
X00341*
Y01166*
X00341Y01166*
X00341Y01167*
X00341Y01167*
X00341Y01167*
X00341Y01168*
X00341Y01168*
X00341Y01168*
X00341Y01168*
X00341Y01168*
X00341Y01168*
X0034Y01169*
X0034Y01169*
X0034Y01169*
X0034Y01169*
X0034Y01169*
X0034Y01169*
X0034Y01169*
X0034Y01169*
X00339Y01169*
X00339Y01169*
X00339Y01169*
X00339Y01169*
G37*
G36*
X00393D02*
X00393D01*
X00393*
X00393*
X00393Y01169*
X00393Y01169*
X00393Y01169*
X00392Y01169*
X00392Y01169*
X00392Y01169*
X00392Y01169*
X00392Y01169*
X00391Y01169*
X00391Y01168*
X00391Y01168*
X00391Y01168*
X00391Y01168*
X00391Y01168*
X00391Y01167*
X00391Y01167*
X00391Y01167*
X00391Y01167*
Y01161*
X00396*
Y01166*
X00396Y01166*
X00396Y01167*
X00396Y01167*
X00396Y01167*
X00396Y01168*
X00396Y01168*
X00396Y01168*
X00396Y01168*
X00395Y01168*
X00395Y01168*
X00395Y01169*
X00395Y01169*
X00395Y01169*
X00395Y01169*
X00395Y01169*
X00395Y01169*
X00394Y01169*
X00394Y01169*
X00394Y01169*
X00394Y01169*
X00394Y01169*
X00393Y01169*
G37*
G36*
X00905Y00949D02*
X00905D01*
X00905Y00949*
X00905Y00949*
X00905Y00949*
X00905Y00949*
X00904Y00949*
X00904Y00949*
X00904Y00949*
X00903Y00949*
X00903Y00949*
X00903Y00948*
Y00948*
X00903Y00948*
X00903Y00948*
X00903Y00948*
X00903Y00948*
X00903Y00948*
X00903Y00948*
X00903Y00948*
X00903Y00947*
X00902Y00947*
X00902Y00946*
X00902Y00946*
X00902Y00946*
Y00946*
Y00946*
Y00946*
X00902Y00946*
Y00945*
X00902Y00945*
X00902Y00945*
X00902Y00945*
X00903Y00944*
X00903Y00944*
X00903Y00944*
X00903Y00943*
X00903*
X00903Y00943*
X00903Y00943*
X00903Y00943*
X00904Y00943*
X00904Y00943*
X00904Y00943*
X00905Y00943*
X00905Y00943*
X00905Y00943*
X00905*
X00905Y00943*
X00906*
X00906Y00943*
X00906Y00943*
X00906Y00943*
X00907Y00943*
X00907Y00943*
X00907Y00943*
X00907Y00943*
X00907Y00943*
X00907Y00943*
X00907Y00944*
X00907Y00944*
X00908Y00944*
X00908Y00944*
X00908Y00944*
X00908Y00944*
X00908Y00945*
X00908Y00945*
X00908Y00946*
Y00946*
Y00946*
Y00946*
Y00946*
X00908Y00946*
Y00946*
X00908Y00946*
X00908Y00947*
X00908Y00947*
X00908Y00948*
X00908Y00948*
X00907Y00948*
X00907Y00948*
Y00948*
X00907Y00948*
X00907Y00949*
X00907Y00949*
X00907Y00949*
X00906Y00949*
X00906Y00949*
X00906Y00949*
X00905Y00949*
X00905Y00949*
G37*
G36*
X00881Y00949D02*
X00876D01*
Y00944*
X00881*
X00881Y00944*
X00881Y00944*
X00882Y00944*
X00882Y00944*
X00882Y00944*
X00883Y00944*
X00883Y00944*
X00883Y00945*
X00883Y00945*
X00883Y00945*
X00883Y00945*
X00883Y00945*
X00884Y00945*
X00884Y00945*
X00884Y00945*
X00884Y00945*
X00884Y00946*
X00884Y00946*
X00884Y00946*
X00884Y00946*
X00884Y00946*
X00884Y00947*
Y00947*
Y00947*
Y00947*
X00884Y00947*
X00884Y00947*
X00884Y00947*
X00884Y00948*
X00884Y00948*
X00884Y00948*
X00883Y00948*
X00883Y00949*
X00883Y00949*
X00883Y00949*
X00883Y00949*
X00883Y00949*
X00882Y00949*
X00882Y00949*
X00882Y00949*
X00882Y00949*
X00882Y00949*
X00881Y00949*
G37*
G36*
X00936Y00839D02*
X00936D01*
X00936Y00839*
X00936*
X00936Y00839*
X00935Y00839*
X00935Y00839*
X00935Y00839*
X00934Y00838*
X00934Y00838*
X00934Y00838*
Y00838*
X00934Y00838*
X00934Y00838*
X00934Y00838*
X00934Y00838*
X00933Y00837*
X00933Y00837*
X00933Y00837*
X00933Y00836*
X00933Y00836*
X00933Y00836*
Y00836*
Y00836*
Y00836*
X00933Y00835*
X00933Y00835*
X00933Y00835*
X00933Y00834*
X00933Y00834*
X00933Y00834*
X00933Y00834*
X00933Y00834*
X00934Y00834*
X00934Y00833*
X00934Y00833*
X00934Y00833*
X00934Y00833*
X00935Y00833*
X00935Y00832*
X00935Y00832*
X00935Y00832*
X00935Y00832*
X00935Y00832*
X00935Y00832*
X00936Y00832*
X00936Y00832*
X00936*
X00936Y00832*
X00936Y00832*
X00937Y00832*
X00937Y00832*
X00937Y00832*
X00938Y00833*
X00938Y00833*
X00938Y00833*
X00938Y00833*
X00938Y00833*
X00938Y00833*
X00938Y00833*
X00938Y00833*
X00938Y00833*
X00938Y00834*
X00938Y00834*
X00939Y00834*
X00939Y00834*
X00939Y00835*
X00939Y00835*
Y00836*
Y00836*
Y00836*
Y00836*
X00939Y00836*
Y00836*
X00939Y00836*
X00939Y00836*
X00939Y00837*
X00939Y00837*
X00938Y00838*
X00938Y00838*
X00938Y00838*
Y00838*
X00938Y00838*
X00938Y00838*
X00938Y00838*
X00937Y00838*
X00937Y00839*
X00937Y00839*
X00936Y00839*
X00936Y00839*
G37*
G36*
X00825Y01163D02*
X00824D01*
X00824Y01162*
X00824*
X00824Y01162*
X00824Y01162*
X00823Y01162*
X00823Y01162*
X00823Y01162*
X00823Y01162*
X00822Y01162*
X00822Y01162*
X00822Y01162*
X00822Y01162*
X00822Y01161*
X00822Y01161*
X00822Y01161*
X00822Y01161*
X00822Y01161*
X00822Y0116*
X00822Y0116*
X00822Y01159*
Y01159*
Y01159*
Y01159*
Y01159*
X00822Y01159*
Y01159*
X00822Y01159*
X00822Y01158*
X00822Y01158*
X00822Y01157*
X00822Y01157*
X00822Y01157*
X00822Y01157*
Y01157*
X00822Y01157*
X00823Y01156*
X00823Y01156*
X00823Y01156*
X00823Y01156*
X00824Y01156*
X00824Y01156*
X00824Y01156*
X00825Y01156*
X00825*
X00825Y01156*
X00825Y01156*
X00825Y01156*
X00825Y01156*
X00826Y01156*
X00826Y01156*
X00826Y01156*
X00826Y01156*
X00826Y01156*
X00827Y01157*
Y01157*
X00827Y01157*
X00827Y01157*
X00827Y01157*
X00827Y01157*
X00827Y01157*
X00827Y01157*
X00827Y01157*
X00827Y01158*
X00827Y01158*
X00828Y01159*
X00828Y01159*
X00828Y01159*
Y01159*
Y01159*
Y01159*
X00828Y0116*
Y0116*
X00828Y0116*
X00827Y0116*
X00827Y0116*
X00827Y01161*
X00827Y01161*
X00827Y01161*
X00827Y01162*
X00827*
X00827Y01162*
X00827Y01162*
X00826Y01162*
X00826Y01162*
X00826Y01162*
X00825Y01162*
X00825Y01162*
X00825Y01162*
X00825Y01163*
G37*
G36*
X00818Y01108D02*
X00818D01*
X00818Y01108*
X00817*
X00817Y01108*
X00817Y01108*
X00817Y01108*
X00816Y01108*
X00816Y01107*
X00816Y01107*
X00816Y01107*
X00816Y01107*
X00816Y01107*
X00815Y01107*
X00815Y01107*
X00815Y01107*
X00815Y01106*
X00815Y01106*
X00815Y01105*
X00815Y01105*
Y01105*
Y01105*
Y01105*
Y01105*
X00815Y01105*
Y01105*
X00815Y01105*
X00815Y01104*
X00815Y01104*
X00815Y01103*
X00815Y01103*
X00815Y01103*
X00816Y01103*
Y01103*
X00816Y01103*
X00816Y01103*
X00816Y01102*
X00816Y01102*
X00817Y01102*
X00817Y01102*
X00817Y01102*
X00818Y01102*
X00818*
X00818Y01102*
X00818*
X00818Y01102*
X00819Y01102*
X00819Y01102*
X00819Y01102*
X0082Y01102*
X0082Y01103*
X0082Y01103*
X0082Y01103*
X0082Y01103*
X0082Y01103*
X0082Y01103*
X00821Y01104*
X00821Y01104*
X00821Y01104*
X00821Y01105*
X00821Y01105*
Y01105*
Y01105*
X00821Y01105*
X00821Y01105*
X00821Y01106*
X00821Y01106*
X00821Y01106*
X00821Y01106*
X0082Y01106*
X0082Y01107*
X0082Y01107*
X0082Y01107*
X0082Y01107*
X0082Y01107*
X0082Y01107*
X00819Y01108*
X00819Y01108*
X00819Y01108*
X00819Y01108*
X00819Y01108*
X00819Y01108*
X00818Y01108*
X00818Y01108*
X00818Y01108*
G37*
G36*
X00818Y011D02*
X00818D01*
X00818Y011*
X00817Y011*
X00817Y011*
X00817Y011*
X00817Y011*
X00816Y011*
X00816Y011*
X00816Y011*
X00816Y011*
X00816Y01099*
X00816Y01099*
X00816Y01099*
X00815Y01099*
X00815Y01098*
X00815Y01098*
Y01098*
Y01098*
Y01098*
X00815Y01098*
X00815Y01098*
X00815Y01097*
X00816Y01097*
X00816Y01097*
X00816Y01097*
X00816Y01096*
X00816Y01096*
X00816Y01096*
X00816Y01096*
X00817Y01096*
X00817Y01096*
X00817Y01096*
X00817Y01096*
X00818Y01096*
X00818*
X00818Y01096*
X00818Y01096*
X00818Y01096*
X00819Y01096*
X00819Y01096*
X00819Y01096*
X0082Y01096*
X0082Y01096*
X0082Y01096*
X0082Y01097*
X0082Y01097*
X0082Y01097*
X0082Y01097*
X0082Y01098*
X0082Y01098*
Y01098*
Y01098*
Y01098*
X0082Y01098*
X0082Y01098*
X0082Y01099*
X0082Y01099*
X0082Y01099*
X0082Y01099*
X0082Y011*
X0082Y011*
X00819Y011*
X00819Y011*
X00819Y011*
X00819Y011*
X00819Y011*
X00818Y011*
X00818Y011*
G37*
G36*
X00998Y00986D02*
X00993D01*
X00993Y00986*
X00992Y00986*
X00992Y00986*
X00992Y00986*
X00991Y00986*
X00991Y00986*
X00991Y00986*
X00991Y00986*
X00991Y00985*
X00991Y00985*
X0099Y00985*
X0099Y00985*
X0099Y00985*
X0099Y00985*
X0099Y00985*
X0099Y00985*
X0099Y00984*
X0099Y00984*
X0099Y00984*
X0099Y00984*
X0099Y00984*
X0099Y00983*
Y00983*
Y00983*
Y00983*
X0099Y00983*
X0099Y00983*
X0099Y00983*
X0099Y00982*
X0099Y00982*
X0099Y00982*
X0099Y00982*
X0099Y00982*
X0099Y00981*
X00991Y00981*
X00991Y00981*
X00991Y00981*
X00991Y00981*
X00991Y00981*
X00992Y00981*
X00992Y00981*
X00992Y00981*
X00992Y00981*
X00998*
Y00986*
G37*
G36*
X00968Y00993D02*
X00968D01*
X00968Y00993*
X00968Y00993*
X00968Y00993*
X00967Y00993*
X00967Y00993*
X00967Y00992*
X00966Y00992*
X00966Y00992*
X00966Y00992*
X00966Y00992*
X00966Y00992*
X00966Y00992*
X00966Y00992*
X00966Y00992*
X00966Y00992*
X00966Y00991*
X00966Y00991*
X00966Y00991*
X00965Y0099*
X00965Y0099*
Y00989*
Y00989*
Y00989*
Y00989*
X00965Y00989*
Y00989*
X00965Y00989*
X00965Y00989*
X00966Y00988*
X00966Y00988*
X00966Y00987*
X00966Y00987*
X00966Y00987*
Y00987*
X00966Y00987*
X00966Y00987*
X00967Y00987*
X00967Y00987*
X00967Y00986*
X00967Y00986*
X00968Y00986*
X00968Y00986*
X00968*
X00969Y00986*
X00969*
X00969Y00986*
X00969Y00986*
X00969Y00986*
X0097Y00986*
X0097Y00987*
X0097Y00987*
X0097Y00987*
Y00987*
X0097Y00987*
X00971Y00987*
X00971Y00987*
X00971Y00987*
X00971Y00988*
X00971Y00988*
X00971Y00988*
X00971Y00989*
X00971Y00989*
X00971Y00989*
Y00989*
Y00989*
Y0099*
X00971Y0099*
X00971Y0099*
X00971Y0099*
X00971Y00991*
X00971Y00991*
X00971Y00991*
X00971Y00991*
X00971Y00991*
X00971Y00992*
X00971Y00992*
X0097Y00992*
X0097Y00992*
X0097Y00992*
X0097Y00993*
X0097Y00993*
X0097Y00993*
X0097Y00993*
X00969Y00993*
X00969Y00993*
X00969Y00993*
X00969Y00993*
X00968Y00993*
G37*
G36*
X00568Y01353D02*
X00568D01*
X00568Y01353*
X00568Y01353*
X00567Y01353*
X00567Y01353*
X00567Y01353*
X00567Y01353*
X00566Y01352*
X00566Y01352*
X00566Y01352*
X00566Y01352*
X00566Y01352*
X00566Y01352*
X00566Y01352*
X00566Y01352*
X00566Y01352*
X00566Y01351*
X00565Y01351*
X00565Y01351*
X00565Y01351*
X00565Y0135*
X00565Y0135*
X00565Y0135*
X00565Y01349*
X00565Y01349*
X00565Y01348*
X00565Y01347*
Y01347*
Y01347*
Y01347*
Y01347*
Y01346*
X00565Y01346*
Y01346*
X00565Y01346*
X00565Y01345*
X00565Y01345*
X00565Y01344*
X00565Y01344*
X00565Y01343*
X00565Y01343*
X00565Y01342*
X00566Y01342*
X00566Y01342*
Y01342*
X00566Y01342*
X00566Y01342*
X00566Y01342*
X00566Y01341*
X00566Y01341*
X00567Y01341*
X00567Y01341*
X00567Y01341*
X00567Y01341*
X00568Y01341*
X00568Y01341*
X00568*
X00568Y01341*
X00568Y01341*
X00569Y01341*
X00569Y01341*
X00569Y01341*
X00569Y01341*
X0057Y01341*
X0057Y01342*
X0057Y01342*
X0057Y01342*
X0057Y01342*
X0057Y01342*
X0057Y01342*
X0057Y01342*
X0057Y01342*
X0057Y01343*
X0057Y01343*
X0057Y01343*
X00571Y01344*
X00571Y01344*
X00571Y01344*
X00571Y01345*
X00571Y01346*
X00571Y01346*
X00571Y01347*
Y01347*
Y01347*
Y01347*
Y01347*
X00571Y01347*
Y01348*
X00571Y01348*
X00571Y01348*
X00571Y01349*
X00571Y0135*
X00571Y0135*
X0057Y0135*
X0057Y01351*
X0057Y01351*
X0057Y01352*
X0057Y01352*
X0057Y01352*
X0057Y01352*
X0057Y01352*
X0057Y01352*
X0057Y01352*
X00569Y01352*
X00569Y01353*
X00569Y01353*
X00569Y01353*
X00568Y01353*
X00568Y01353*
X00568Y01353*
G37*
G36*
X01768Y00941D02*
X01763D01*
X01763Y00941*
X01762Y00941*
X01762Y00941*
X01762Y00941*
X01761Y00941*
X01761Y00941*
X01761Y00941*
X01761Y00941*
X01761Y00941*
X01761Y00941*
X0176Y0094*
X0176Y0094*
X0176Y0094*
X0176Y0094*
X0176Y0094*
X0176Y0094*
X0176Y0094*
X0176Y0094*
X0176Y00939*
X0176Y00939*
X0176Y00939*
X0176Y00939*
Y00939*
Y00939*
Y00938*
X0176Y00938*
X0176Y00938*
X0176Y00938*
X0176Y00938*
X0176Y00937*
X0176Y00937*
X0176Y00937*
X0176Y00937*
X0176Y00937*
X01761Y00937*
X01761Y00936*
X01761Y00936*
X01761Y00936*
X01761Y00936*
X01762Y00936*
X01762Y00936*
X01762Y00936*
X01762Y00936*
X01768*
Y00941*
G37*
G36*
X01754Y00944D02*
X01749D01*
Y00937*
X01754Y00944*
G37*
G36*
X00778Y01749D02*
X00778D01*
X00778*
X00778*
X00778Y01749*
X00778Y01749*
X00778Y01749*
X00777Y01749*
X00777Y01749*
X00777Y01749*
X00777Y01749*
X00777Y01749*
X00776Y01749*
X00776Y01748*
X00776Y01748*
X00776Y01748*
X00776Y01748*
X00776Y01748*
X00776Y01747*
X00776Y01747*
X00776Y01747*
X00776Y01747*
Y01741*
X00781*
Y01746*
X00781Y01746*
X00781Y01747*
X00781Y01747*
X00781Y01747*
X00781Y01748*
X00781Y01748*
X00781Y01748*
X00781Y01748*
X0078Y01748*
X0078Y01748*
X0078Y01749*
X0078Y01749*
X0078Y01749*
X0078Y01749*
X0078Y01749*
X0078Y01749*
X00779Y01749*
X00779Y01749*
X00779Y01749*
X00779Y01749*
X00779Y01749*
X00778Y01749*
G37*
G36*
X00792Y01639D02*
X00792D01*
X00792*
X00792*
X00792*
X00791*
X00791Y01639*
X00791*
X00791Y01639*
X0079Y01639*
X0079Y01639*
X00789Y01639*
X00789Y01639*
X00788Y01639*
X00788Y01639*
X00787Y01639*
X00787Y01638*
X00787Y01638*
X00787*
X00787Y01638*
X00787Y01638*
X00787Y01638*
X00786Y01638*
X00786Y01638*
X00786Y01637*
X00786Y01637*
X00786Y01637*
X00786Y01637*
X00786Y01636*
X00786Y01636*
Y01636*
X00786Y01636*
X00786Y01636*
X00786Y01635*
X00786Y01635*
X00786Y01635*
X00786Y01635*
X00786Y01634*
X00787Y01634*
X00787Y01634*
X00787Y01634*
X00787Y01634*
X00787Y01634*
X00787Y01634*
X00787Y01634*
X00787Y01634*
X00788Y01634*
X00788Y01634*
X00788Y01634*
X00789Y01633*
X00789Y01633*
X00789Y01633*
X0079Y01633*
X00791Y01633*
X00791Y01633*
X00792Y01633*
X00792*
X00792*
X00792*
X00792*
X00792Y01633*
X00793*
X00793Y01633*
X00793Y01633*
X00794Y01633*
X00795Y01633*
X00795Y01633*
X00795Y01634*
X00796Y01634*
X00796Y01634*
X00797Y01634*
X00797Y01634*
X00797Y01634*
X00797Y01634*
X00797Y01634*
X00797Y01634*
X00797Y01634*
X00797Y01635*
X00798Y01635*
X00798Y01635*
X00798Y01635*
X00798Y01636*
X00798Y01636*
X00798Y01636*
Y01636*
X00798Y01636*
X00798Y01636*
X00798Y01637*
X00798Y01637*
X00798Y01637*
X00798Y01637*
X00797Y01638*
X00797Y01638*
X00797Y01638*
X00797Y01638*
X00797Y01638*
X00797Y01638*
X00797Y01638*
X00797Y01638*
X00797Y01638*
X00796Y01638*
X00796Y01639*
X00796Y01639*
X00796Y01639*
X00795Y01639*
X00795Y01639*
X00795Y01639*
X00794Y01639*
X00794Y01639*
X00793Y01639*
X00792Y01639*
G37*
G36*
X0196Y01163D02*
Y01159D01*
X01967*
X0196Y01163*
G37*
G36*
X01705Y00048D02*
Y00044D01*
X01712*
X01705Y00048*
G37*
G36*
X0175Y00282D02*
X01746Y00275D01*
X0175*
Y00282*
G37*
G36*
X01761Y00283D02*
X01761D01*
X01761Y00283*
X01761Y00283*
X01761Y00283*
X0176Y00283*
X0176Y00283*
X0176Y00283*
X01759Y00283*
X01759Y00283*
X01759Y00283*
X01759Y00282*
X01759Y00282*
X01759Y00282*
X01759Y00282*
X01759Y00281*
X01759Y00281*
Y00281*
Y00281*
Y00281*
X01759Y00281*
X01759Y00281*
X01759Y0028*
X01759Y0028*
X01759Y0028*
X01759Y0028*
X01759Y00279*
X01759Y00279*
X0176Y00279*
X0176Y00279*
X0176Y00279*
X0176Y00279*
X0176Y00279*
X01761Y00279*
X01761Y00279*
X01761*
X01761Y00279*
X01762Y00279*
X01762Y00279*
X01762Y00279*
X01762Y00279*
X01763Y00279*
X01763Y00279*
X01763Y00279*
X01763Y00279*
X01763Y0028*
X01763Y0028*
X01763Y0028*
X01764Y0028*
X01764Y00281*
X01764Y00281*
Y00281*
Y00281*
Y00281*
X01764Y00281*
X01764Y00281*
X01764Y00282*
X01763Y00282*
X01763Y00282*
X01763Y00282*
X01763Y00283*
X01763Y00283*
X01763Y00283*
X01763Y00283*
X01762Y00283*
X01762Y00283*
X01762Y00283*
X01762Y00283*
X01761Y00283*
G37*
G36*
X01761Y00277D02*
X01761D01*
X01761Y00277*
X01761*
X01761Y00277*
X0176Y00277*
X0176Y00277*
X0176Y00277*
X01759Y00277*
X01759Y00276*
X01759Y00276*
X01759Y00276*
X01759Y00276*
X01759Y00276*
X01759Y00276*
X01758Y00275*
X01758Y00275*
X01758Y00275*
X01758Y00274*
X01758Y00274*
Y00274*
Y00274*
X01758Y00274*
X01758Y00274*
X01758Y00273*
X01758Y00273*
X01758Y00273*
X01758Y00273*
X01759Y00273*
X01759Y00272*
X01759Y00272*
X01759Y00272*
X01759Y00272*
X01759Y00272*
X01759Y00272*
X0176Y00271*
X0176Y00271*
X0176Y00271*
X0176Y00271*
X0176Y00271*
X0176Y00271*
X01761Y00271*
X01761Y00271*
X01761Y00271*
X01761*
X01761Y00271*
X01762*
X01762Y00271*
X01762Y00271*
X01762Y00271*
X01763Y00271*
X01763Y00272*
X01763Y00272*
X01763Y00272*
X01763Y00272*
X01763Y00272*
X01764Y00272*
X01764Y00272*
X01764Y00272*
X01764Y00273*
X01764Y00273*
X01764Y00274*
X01764Y00274*
Y00274*
Y00274*
Y00274*
Y00274*
X01764Y00274*
Y00274*
X01764Y00274*
X01764Y00275*
X01764Y00275*
X01764Y00276*
X01764Y00276*
X01764Y00276*
X01763Y00276*
Y00276*
X01763Y00276*
X01763Y00276*
X01763Y00277*
X01763Y00277*
X01762Y00277*
X01762Y00277*
X01762Y00277*
X01761Y00277*
G37*
G36*
X01639Y00315D02*
X01632D01*
X01639Y0031*
Y00315*
G37*
G36*
X01634Y00304D02*
X01634D01*
X01634*
X01633*
X01633Y00304*
X01633Y00304*
X01633Y00304*
X01633Y00304*
X01632Y00304*
X01632Y00304*
X01632Y00304*
X01632Y00304*
X01632Y00304*
X01632Y00303*
X01631Y00303*
X01631Y00303*
X01631Y00303*
X01631Y00303*
X01631Y00302*
X01631Y00302*
X01631Y00302*
X01631Y00302*
Y00296*
X01636*
Y00301*
X01636Y00301*
X01636Y00302*
X01636Y00302*
X01636Y00302*
X01636Y00303*
X01636Y00303*
X01636Y00303*
X01636Y00303*
X01636Y00303*
X01636Y00303*
X01635Y00304*
X01635Y00304*
X01635Y00304*
X01635Y00304*
X01635Y00304*
X01635Y00304*
X01635Y00304*
X01635Y00304*
X01634Y00304*
X01634Y00304*
X01634Y00304*
X01634Y00304*
G37*
G36*
X01855Y00162D02*
X0185Y00155D01*
X01855*
Y00162*
G37*
G36*
X01842Y00163D02*
X01836D01*
Y00158*
X01841*
X01841Y00158*
X01842Y00158*
X01842Y00158*
X01842Y00158*
X01843Y00158*
X01843Y00158*
X01843Y00158*
X01843Y00158*
X01843Y00159*
X01843Y00159*
X01844Y00159*
X01844Y00159*
X01844Y00159*
X01844Y00159*
X01844Y00159*
X01844Y00159*
X01844Y0016*
X01844Y0016*
X01844Y0016*
X01844Y0016*
X01844Y0016*
X01844Y00161*
Y00161*
Y00161*
Y00161*
X01844Y00161*
X01844Y00161*
X01844Y00161*
X01844Y00162*
X01844Y00162*
X01844Y00162*
X01844Y00162*
X01844Y00162*
X01844Y00163*
X01843Y00163*
X01843Y00163*
X01843Y00163*
X01843Y00163*
X01843Y00163*
X01842Y00163*
X01842Y00163*
X01842Y00163*
X01842Y00163*
G37*
G36*
X01866Y00163D02*
X01865D01*
X01865Y00163*
X01865Y00163*
X01865Y00163*
X01864Y00163*
X01864Y00163*
X01864Y00163*
X01864Y00163*
X01864Y00162*
X01863Y00162*
X01863Y00162*
X01863Y00162*
X01863Y00162*
X01863Y00162*
X01863Y00162*
X01863Y00162*
X01863Y00161*
X01863Y00161*
X01863Y00161*
X01863Y0016*
X01863Y0016*
X01863Y0016*
X01863Y00159*
X01863Y00158*
X01863Y00158*
X01863Y00157*
Y00157*
Y00157*
Y00157*
Y00157*
X01863Y00157*
Y00156*
X01863Y00156*
X01863Y00156*
X01863Y00155*
X01863Y00154*
X01863Y00154*
X01863Y00154*
X01863Y00153*
X01863Y00153*
X01863Y00152*
X01863Y00152*
X01863Y00152*
X01863Y00152*
X01864Y00152*
X01864Y00152*
X01864Y00152*
X01864Y00152*
X01864Y00151*
X01865Y00151*
X01865Y00151*
X01865Y00151*
X01865Y00151*
X01866Y00151*
X01866*
X01866Y00151*
X01866Y00151*
X01866Y00151*
X01866Y00151*
X01867Y00151*
X01867Y00151*
X01867Y00152*
X01867Y00152*
X01867Y00152*
X01868Y00152*
X01868Y00152*
X01868Y00152*
X01868Y00152*
X01868Y00152*
X01868Y00152*
X01868Y00153*
X01868Y00153*
X01868Y00153*
X01868Y00153*
X01868Y00154*
X01868Y00154*
X01868Y00154*
X01868Y00155*
X01868Y00155*
X01869Y00156*
X01869Y00157*
Y00157*
Y00157*
Y00157*
Y00157*
Y00158*
X01869Y00158*
Y00158*
X01869Y00158*
X01868Y00159*
X01868Y00159*
X01868Y0016*
X01868Y0016*
X01868Y00161*
X01868Y00161*
X01868Y00162*
X01868Y00162*
X01868Y00162*
Y00162*
X01868Y00162*
X01868Y00162*
X01868Y00162*
X01867Y00163*
X01867Y00163*
X01867Y00163*
X01866Y00163*
X01866Y00163*
X01866Y00163*
X01866Y00163*
X01866Y00163*
G37*
G36*
X02076Y00308D02*
X02076D01*
X02075Y00308*
X02075*
X02075Y00308*
X02075Y00308*
X02075Y00308*
X02074Y00308*
X02074Y00307*
X02074Y00307*
X02074Y00307*
Y00307*
X02074Y00307*
X02073Y00307*
X02073Y00307*
X02073Y00307*
X02073Y00306*
X02073Y00306*
X02073Y00306*
X02073Y00305*
X02073Y00305*
X02073Y00305*
Y00305*
Y00305*
Y00304*
X02073Y00304*
X02073Y00304*
X02073Y00304*
X02073Y00303*
X02073Y00303*
X02073Y00303*
X02073Y00303*
X02073Y00303*
X02073Y00302*
X02073Y00302*
X02074Y00302*
X02074Y00302*
X02074Y00302*
X02074Y00301*
X02074Y00301*
X02074Y00301*
X02074Y00301*
X02075Y00301*
X02075Y00301*
X02075Y00301*
X02075Y00301*
X02076Y00301*
X02076*
X02076Y00301*
X02076Y00301*
X02076Y00301*
X02077Y00301*
X02077Y00301*
X02077Y00302*
X02078Y00302*
X02078Y00302*
X02078Y00302*
X02078Y00302*
X02078Y00302*
X02078Y00302*
X02078Y00302*
X02078Y00302*
X02078Y00302*
X02078Y00303*
X02078Y00303*
X02078Y00303*
X02079Y00304*
X02079Y00304*
Y00305*
Y00305*
Y00305*
Y00305*
X02079Y00305*
Y00305*
X02079Y00305*
X02079Y00305*
X02078Y00306*
X02078Y00306*
X02078Y00307*
X02078Y00307*
X02078Y00307*
Y00307*
X02078Y00307*
X02078Y00307*
X02077Y00307*
X02077Y00307*
X02077Y00308*
X02077Y00308*
X02076Y00308*
X02076Y00308*
G37*
G36*
X02052Y00313D02*
X02046D01*
Y00308*
X02051*
X02051Y00308*
X02052Y00308*
X02052Y00308*
X02052Y00308*
X02053Y00308*
X02053Y00308*
X02053Y00308*
X02053Y00308*
X02053Y00309*
X02053Y00309*
X02054Y00309*
X02054Y00309*
X02054Y00309*
X02054Y00309*
X02054Y00309*
X02054Y00309*
X02054Y0031*
X02054Y0031*
X02054Y0031*
X02054Y0031*
X02054Y0031*
X02054Y00311*
Y00311*
Y00311*
Y00311*
X02054Y00311*
X02054Y00311*
X02054Y00311*
X02054Y00312*
X02054Y00312*
X02054Y00312*
X02054Y00312*
X02054Y00312*
X02054Y00313*
X02053Y00313*
X02053Y00313*
X02053Y00313*
X02053Y00313*
X02053Y00313*
X02052Y00313*
X02052Y00313*
X02052Y00313*
X02052Y00313*
G37*
G36*
X02049Y00427D02*
X02043D01*
Y00407*
X02049*
X02049Y00408*
X0205Y00408*
X0205Y00408*
X02051Y00408*
X02052Y00408*
X02052Y00408*
X02052*
X02052Y00408*
X02052Y00408*
X02053Y00408*
X02053Y00408*
X02053Y00408*
X02054Y00409*
X02054Y00409*
X02054Y00409*
X02054Y00409*
X02055Y00409*
X02055Y0041*
X02055Y0041*
X02055Y00411*
X02056Y00411*
X02056Y00412*
X02056Y00412*
Y00412*
X02056Y00413*
X02056Y00413*
X02056Y00413*
X02056Y00413*
X02056Y00413*
X02057Y00413*
X02057Y00414*
X02057Y00414*
X02057Y00415*
X02057Y00415*
X02057Y00416*
X02057Y00417*
Y00417*
Y00417*
Y00418*
X02057Y00418*
Y00418*
X02057Y00419*
X02057Y00419*
X02057Y0042*
X02057Y00421*
X02056Y00422*
X02056Y00422*
X02056Y00423*
X02056Y00423*
Y00423*
X02056Y00423*
X02055Y00424*
X02055Y00424*
X02055Y00424*
X02055Y00425*
X02054Y00425*
X02054Y00425*
X02053Y00426*
X02053Y00426*
X02052Y00426*
X02052Y00426*
X02052Y00426*
X02052Y00426*
X02052Y00426*
X02052Y00426*
X02052Y00426*
X02051Y00426*
X02051Y00427*
X02051Y00427*
X0205Y00427*
X0205Y00427*
X0205Y00427*
X02049*
X02049Y00427*
G37*
G36*
X02133Y00291D02*
X02128D01*
X02128Y00291*
X02127Y00291*
X02127Y00291*
X02127Y00291*
X02126Y00291*
X02126Y00291*
X02126Y00291*
X02126Y00291*
X02126Y0029*
X02126Y0029*
X02125Y0029*
X02125Y0029*
X02125Y0029*
X02125Y0029*
X02125Y0029*
X02125Y0029*
X02125Y00289*
X02125Y00289*
X02125Y00289*
X02125Y00289*
X02125Y00289*
X02125Y00288*
Y00288*
Y00288*
Y00288*
X02125Y00288*
X02125Y00288*
X02125Y00288*
X02125Y00287*
X02125Y00287*
X02125Y00287*
X02125Y00287*
X02125Y00287*
X02125Y00286*
X02126Y00286*
X02126Y00286*
X02126Y00286*
X02126Y00286*
X02126Y00286*
X02127Y00286*
X02127Y00286*
X02127Y00286*
X02127Y00286*
X02133*
Y00291*
G37*
G36*
X02108Y00696D02*
X02103D01*
X02103Y00696*
X02102Y00696*
X02102Y00696*
X02102Y00696*
X02101Y00696*
X02101Y00696*
X02101Y00696*
X02101Y00696*
X02101Y00695*
X02101Y00695*
X021Y00695*
X021Y00695*
X021Y00695*
X021Y00695*
X021Y00695*
X021Y00695*
X021Y00694*
X021Y00694*
X021Y00694*
X021Y00694*
X021Y00694*
X021Y00693*
Y00693*
Y00693*
Y00693*
X021Y00693*
X021Y00693*
X021Y00693*
X021Y00692*
X021Y00692*
X021Y00692*
X021Y00692*
X021Y00692*
X021Y00691*
X02101Y00691*
X02101Y00691*
X02101Y00691*
X02101Y00691*
X02101Y00691*
X02102Y00691*
X02102Y00691*
X02102Y00691*
X02102Y00691*
X02108*
Y00696*
G37*
G36*
X02078Y00703D02*
X02078D01*
X02078Y00703*
X02078Y00703*
X02078Y00703*
X02078Y00703*
X02077Y00703*
X02077Y00703*
X02077Y00702*
X02077Y00702*
X02077Y00702*
X02076Y00702*
X02076Y00702*
X02076Y00702*
X02076Y00702*
X02076Y00702*
X02076Y00702*
X02076Y00701*
X02076Y00701*
X02076Y00701*
X02076Y00701*
X02076Y007*
X02076Y007*
X02076Y007*
X02076Y00699*
X02076Y00699*
X02075Y00698*
X02075Y00697*
Y00697*
Y00697*
Y00697*
Y00697*
Y00696*
X02075Y00696*
Y00696*
X02075Y00696*
X02076Y00695*
X02076Y00695*
X02076Y00694*
X02076Y00694*
X02076Y00693*
X02076Y00693*
X02076Y00692*
X02076Y00692*
X02076Y00692*
Y00692*
X02076Y00692*
X02076Y00692*
X02076Y00692*
X02077Y00691*
X02077Y00691*
X02077Y00691*
X02078Y00691*
X02078Y00691*
X02078Y00691*
X02078Y00691*
X02078Y00691*
X02079*
X02079Y00691*
X02079Y00691*
X02079Y00691*
X0208Y00691*
X0208Y00691*
X0208Y00691*
X0208Y00691*
X0208Y00692*
X02081Y00692*
X02081Y00692*
X02081Y00692*
X02081Y00692*
X02081Y00692*
X02081Y00692*
X02081Y00692*
X02081Y00693*
X02081Y00693*
X02081Y00693*
X02081Y00694*
X02081Y00694*
X02081Y00694*
X02081Y00695*
X02081Y00696*
X02081Y00696*
X02081Y00697*
Y00697*
Y00697*
Y00697*
Y00697*
X02081Y00697*
Y00698*
X02081Y00698*
X02081Y00698*
X02081Y00699*
X02081Y007*
X02081Y007*
X02081Y007*
X02081Y00701*
X02081Y00701*
X02081Y00702*
X02081Y00702*
X02081Y00702*
X02081Y00702*
X0208Y00702*
X0208Y00702*
X0208Y00702*
X0208Y00702*
X0208Y00703*
X02079Y00703*
X02079Y00703*
X02079Y00703*
X02079Y00703*
X02078Y00703*
G37*
G36*
X02166Y01418D02*
X02154D01*
Y01414*
X02154Y01414*
X02154Y01413*
X02154Y01413*
X02154Y01413*
X02154Y01412*
X02154Y01412*
Y01412*
X02154Y01412*
X02154Y01412*
X02155Y01412*
X02155Y01411*
X02155Y01411*
X02155Y01411*
X02155Y01411*
X02155Y01411*
X02155Y01411*
X02155Y0141*
X02155Y0141*
X02156Y0141*
X02156Y0141*
X02156Y0141*
X02157Y0141*
X02157Y0141*
X02157*
X02157Y01409*
X02157Y01409*
X02157Y01409*
X02157Y01409*
X02158Y01409*
X02158Y01409*
X02158Y01409*
X02158Y01409*
X02158Y01409*
X02159Y01409*
X02159Y01409*
X0216Y01409*
X0216*
X0216*
X0216*
X0216Y01409*
X02161*
X02161Y01409*
X02161Y01409*
X02161Y01409*
X02162Y01409*
X02163Y01409*
X02163Y0141*
X02163Y0141*
X02164Y0141*
X02164*
X02164Y0141*
X02164Y0141*
X02164Y0141*
X02164Y0141*
X02164Y0141*
X02165Y01411*
X02165Y01411*
X02165Y01411*
X02165Y01412*
X02165Y01412*
X02165Y01412*
X02165Y01412*
X02165Y01412*
X02165Y01412*
X02165Y01412*
X02165Y01412*
X02165Y01412*
X02166Y01413*
X02166Y01413*
X02166Y01413*
X02166Y01413*
X02166Y01413*
Y01414*
X02166Y01414*
Y01418*
G37*
G36*
X02064Y01428D02*
X02064D01*
X02064Y01428*
X02064Y01428*
X02064Y01428*
X02064Y01428*
X02063Y01428*
X02063Y01428*
X02063Y01428*
X02063Y01428*
X02063Y01428*
X02063Y01427*
X02062Y01427*
X02062Y01427*
X02062Y01427*
X02062Y01426*
X02062Y01426*
Y01426*
Y01426*
Y01426*
X02062Y01426*
X02062Y01426*
X02062Y01425*
X02062Y01425*
X02062Y01425*
X02062Y01425*
X02063Y01424*
X02063Y01424*
X02063Y01424*
X02063Y01424*
X02063Y01424*
X02063Y01424*
X02064Y01424*
X02064Y01424*
X02065Y01424*
X02065*
X02065Y01424*
X02065Y01424*
X02065Y01424*
X02065Y01424*
X02066Y01424*
X02066Y01424*
X02066Y01424*
X02066Y01424*
X02066Y01424*
X02066Y01425*
X02067Y01425*
X02067Y01425*
X02067Y01425*
X02067Y01426*
X02067Y01426*
Y01426*
Y01426*
Y01426*
X02067Y01426*
X02067Y01426*
X02067Y01427*
X02067Y01427*
X02067Y01427*
X02066Y01427*
X02066Y01428*
X02066Y01428*
X02066Y01428*
X02066Y01428*
X02066Y01428*
X02065Y01428*
X02065Y01428*
X02065Y01428*
X02064Y01428*
G37*
G36*
X02065Y01422D02*
X02064D01*
X02064Y01422*
X02064*
X02064Y01422*
X02064Y01422*
X02063Y01422*
X02063Y01422*
X02063Y01422*
X02062Y01421*
X02062Y01421*
X02062Y01421*
X02062Y01421*
X02062Y01421*
X02062Y01421*
X02062Y0142*
X02062Y0142*
X02061Y0142*
X02061Y01419*
X02061Y01419*
Y01419*
Y01419*
X02061Y01419*
X02061Y01419*
X02062Y01418*
X02062Y01418*
X02062Y01418*
X02062Y01418*
X02062Y01418*
X02062Y01417*
X02062Y01417*
X02062Y01417*
X02062Y01417*
X02062Y01417*
X02063Y01417*
X02063Y01416*
X02063Y01416*
X02063Y01416*
X02063Y01416*
X02063Y01416*
X02064Y01416*
X02064Y01416*
X02064Y01416*
X02064Y01416*
X02065*
X02065Y01416*
X02065*
X02065Y01416*
X02065Y01416*
X02066Y01416*
X02066Y01416*
X02066Y01417*
X02067Y01417*
X02067Y01417*
X02067Y01417*
X02067Y01417*
X02067Y01417*
X02067Y01417*
X02067Y01417*
X02067Y01418*
X02067Y01418*
X02068Y01419*
X02068Y01419*
Y01419*
Y01419*
Y01419*
Y01419*
X02068Y01419*
Y01419*
X02068Y01419*
X02067Y0142*
X02067Y0142*
X02067Y01421*
X02067Y01421*
X02067Y01421*
X02067Y01421*
Y01421*
X02067Y01421*
X02067Y01421*
X02066Y01422*
X02066Y01422*
X02066Y01422*
X02065Y01422*
X02065Y01422*
X02065Y01422*
G37*
%LNrelia-3*%
%LPD*%
G54D128*
X00667Y01345D02*
Y01374D01*
Y01345D02*
X00732D01*
Y01374*
X00667D02*
X00732D01*
X00642Y01387D02*
Y01432D01*
X00557D02*
X00642D01*
X00557Y01387D02*
Y01432D01*
Y01387D02*
X00642D01*
X01776Y00123D02*
Y00226D01*
X01653Y00123D02*
X01776D01*
X01653D02*
Y00226D01*
X01776*
X02251Y01419D02*
X02479D01*
Y0176*
X02251D02*
X02479D01*
X02251Y01419D02*
Y0176D01*
X01519Y02051D02*
X0186D01*
X01519D02*
Y02279D01*
X0186*
Y02051D02*
Y02279D01*
X00692Y02D02*
X00757D01*
X00692D02*
Y02029D01*
X00757*
Y02D02*
Y02029D01*
X00679Y0208D02*
X00744D01*
X00679D02*
Y02109D01*
X00744*
Y0208D02*
Y02109D01*
X00677Y02162D02*
X00747D01*
Y02127D02*
Y02162D01*
X00677Y02127D02*
X00747D01*
X00677D02*
Y02162D01*
X00679Y01865D02*
X00744D01*
X00679D02*
Y01894D01*
X00744*
Y01865D02*
Y01894D01*
X00682Y0176D02*
X00747D01*
X00682D02*
Y01789D01*
X00747*
Y0176D02*
Y01789D01*
X00679Y01815D02*
X00744D01*
X00679D02*
Y01844D01*
X00744*
Y01815D02*
Y01844D01*
X01768Y0079D02*
Y00909D01*
X01831*
Y0079D02*
Y00909D01*
X01768Y0079D02*
X01831D01*
X01859Y00781D02*
X0192D01*
Y00918*
X01859D02*
X0192D01*
X01859Y00781D02*
Y00918D01*
X01182Y00496D02*
Y00669D01*
X00867D02*
X01182D01*
X00867Y00496D02*
Y00669D01*
Y00496D02*
X01182D01*
X01439Y01891D02*
X0147D01*
X01439Y01828D02*
Y01891D01*
Y01828D02*
X0147D01*
Y01891*
X01544D02*
X01575D01*
X01544Y01828D02*
Y01891D01*
Y01828D02*
X01575D01*
Y01891*
X0143Y01733D02*
Y01816D01*
Y01733D02*
X01579D01*
Y01816*
X0143D02*
X01579D01*
X02253Y00895D02*
X02473D01*
Y01334*
X02253D02*
X02473D01*
X02253Y00895D02*
Y01334D01*
X00174Y00226D02*
X00477D01*
Y01037*
X00174D02*
X00477D01*
X00174Y00226D02*
Y01037D01*
X00849Y01276D02*
Y01343D01*
X0088*
Y01276D02*
Y01343D01*
X00849Y01276D02*
X0088D01*
X01969Y00036D02*
Y00256D01*
Y00036D02*
X0226D01*
Y00256*
X01969D02*
X0226D01*
X01178Y00226D02*
X01211D01*
X01178Y00163D02*
Y00226D01*
Y00163D02*
X01211D01*
Y00226*
X01447Y01012D02*
X01532D01*
Y00967D02*
Y01012D01*
X01447Y00967D02*
X01532D01*
X01447D02*
Y01012D01*
X01339Y00951D02*
X0137D01*
Y01018*
X01339D02*
X0137D01*
X01339Y00951D02*
Y01018D01*
X01394Y00951D02*
Y01018D01*
X01425*
Y00951D02*
Y01018D01*
X01394Y00951D02*
X01425D01*
X02075Y00475D02*
X02134D01*
X02075D02*
Y00504D01*
X02134*
Y00475D02*
Y00504D01*
X02171Y00409D02*
X02494D01*
Y008*
X02171D02*
X02494D01*
X02171Y00409D02*
Y008D01*
X00902Y01697D02*
X01567D01*
X00902Y01032D02*
Y01697D01*
Y01032D02*
X01567D01*
Y01697*
X0138Y00547D02*
Y00622D01*
X01419*
Y00547D02*
Y00622D01*
X0138Y00547D02*
X01419D01*
X01444Y00578D02*
Y00641D01*
X01475*
Y00578D02*
Y00641D01*
X01444Y00578D02*
X01475D01*
X01498Y00544D02*
Y00625D01*
X01541*
Y00544D02*
Y00625D01*
X01498Y00544D02*
X01541D01*
X01481Y00289D02*
Y0037D01*
X01438Y00289D02*
X01481D01*
X01438D02*
Y0037D01*
X01481*
X01391Y00402D02*
Y00507D01*
X01478*
Y00402D02*
Y00507D01*
X01391Y00402D02*
X01478D01*
X01279Y00518D02*
Y00581D01*
X0131*
Y00518D02*
Y00581D01*
X01279Y00518D02*
X0131D01*
X01309Y00382D02*
Y00457D01*
X0127Y00382D02*
X01309D01*
X0127D02*
Y00457D01*
X01309*
X01374Y00467D02*
Y00522D01*
X01345Y00467D02*
X01374D01*
X01345D02*
Y00522D01*
X01374*
X01505Y00382D02*
Y00447D01*
X01534*
Y00382D02*
Y00447D01*
X01505Y00382D02*
X01534D01*
X01498Y0051D02*
X01561D01*
Y00479D02*
Y0051D01*
X01498Y00479D02*
X01561D01*
X01498D02*
Y0051D01*
X01783Y00043D02*
Y00106D01*
X01816*
Y00043D02*
Y00106D01*
X01783Y00043D02*
X01816D01*
X01253Y01714D02*
Y01745D01*
Y01714D02*
X01316D01*
Y01745*
X01253D02*
X01316D01*
X0161Y01722D02*
X01639D01*
Y01787*
X0161D02*
X01639D01*
X0161Y01722D02*
Y01787D01*
X01579Y01588D02*
Y01651D01*
X0161*
Y01588D02*
Y01651D01*
X01579Y01588D02*
X0161D01*
X01354Y01728D02*
X01385D01*
Y01791*
X01354D02*
X01385D01*
X01354Y01728D02*
Y01791D01*
X01858Y01793D02*
X01891D01*
Y01856*
X01858D02*
X01891D01*
X01858Y01793D02*
Y01856D01*
X01339Y01853D02*
X0137D01*
Y01916*
X01339D02*
X0137D01*
X01339Y01853D02*
Y01916D01*
X0191Y01732D02*
Y01767D01*
Y01732D02*
X01979D01*
Y01767*
X0191D02*
X01979D01*
X01244Y02059D02*
Y0209D01*
Y02059D02*
X01307D01*
Y0209*
X01244D02*
X01307D01*
X01919Y01793D02*
X0195D01*
Y01856*
X01919D02*
X0195D01*
X01919Y01793D02*
Y01856D01*
X01369Y02083D02*
X014D01*
Y02146*
X01369D02*
X014D01*
X01369Y02083D02*
Y02146D01*
X01869Y01675D02*
Y01704D01*
Y01675D02*
X01934D01*
Y01704*
X01869D02*
X01934D01*
X01625Y01587D02*
X01654D01*
X01625Y01522D02*
Y01587D01*
Y01522D02*
X01654D01*
Y01587*
X02124Y00976D02*
X02155D01*
X02124Y00913D02*
Y00976D01*
Y00913D02*
X02155D01*
Y00976*
X01954Y02053D02*
X02245D01*
X01954D02*
Y02273D01*
X02245*
Y02053D02*
Y02273D01*
X02085Y01972D02*
X02114D01*
Y02037*
X02085D02*
X02114D01*
X02085Y01972D02*
Y02037D01*
X02186Y01175D02*
Y01204D01*
Y01175D02*
X02243D01*
Y01204*
X02186D02*
X02243D01*
X02178Y01989D02*
X02241D01*
X02178D02*
Y0202D01*
X02241*
Y01989D02*
Y0202D01*
X02185Y01225D02*
Y01254D01*
Y01225D02*
X02243D01*
Y01254*
X02185D02*
X02243D01*
X00829Y01721D02*
X0086D01*
Y01788*
X00829D02*
X0086D01*
X00829Y01721D02*
Y01788D01*
X00834Y01573D02*
X00865D01*
Y01636*
X00834D02*
X00865D01*
X00834Y01573D02*
Y01636D01*
X00884Y01756D02*
X00915D01*
Y01823*
X00884D02*
X00915D01*
X00884Y01756D02*
Y01823D01*
X00939Y01756D02*
X0097D01*
Y01823*
X00939D02*
X0097D01*
X00939Y01756D02*
Y01823D01*
X01049Y01743D02*
X0108D01*
Y01806*
X01049D02*
X0108D01*
X01049Y01743D02*
Y01806D01*
X01132Y0205D02*
Y02079D01*
X01067D02*
X01132D01*
X01067Y0205D02*
Y02079D01*
Y0205D02*
X01132D01*
X01142Y0171D02*
Y01739D01*
Y0171D02*
X01207D01*
Y01739*
X01142D02*
X01207D01*
X01124Y01822D02*
Y01857D01*
X01055D02*
X01124D01*
X01055Y01822D02*
Y01857D01*
Y01822D02*
X01124D01*
X01035Y00088D02*
X01104D01*
Y00051D02*
Y00088D01*
X01035Y00051D02*
X01104D01*
X01035D02*
Y00088D01*
X0117Y00087D02*
Y00142D01*
X01199*
Y00087D02*
Y00142D01*
X0117Y00087D02*
X01199D01*
X01542Y00031D02*
Y00248D01*
X01427Y00031D02*
X01542D01*
X01427D02*
Y00248D01*
X01542*
X01258Y00244D02*
Y00325D01*
X01301*
Y00244D02*
Y00325D01*
X01258Y00244D02*
X01301D01*
X01622Y00072D02*
Y00137D01*
X01587Y00072D02*
X01622D01*
X01587D02*
Y00137D01*
X01622*
X01549Y01021D02*
X0158D01*
X01549Y00958D02*
Y01021D01*
Y00958D02*
X0158D01*
Y01021*
X00623Y00494D02*
Y00525D01*
Y00494D02*
X00686D01*
Y00525*
X00623D02*
X00686D01*
X00512Y00211D02*
X00797D01*
Y00048D02*
Y00211D01*
X00512Y00048D02*
X00797D01*
X00512D02*
Y00211D01*
X00514Y00578D02*
Y00601D01*
Y00578D02*
X00551D01*
Y00601*
X00514D02*
X00551D01*
X00519Y00488D02*
Y00531D01*
Y00488D02*
X006D01*
Y00531*
X00519D02*
X006D01*
X00733Y00777D02*
X00765D01*
X00733Y00714D02*
Y00777D01*
Y00714D02*
X00765D01*
Y00777*
X0192Y00938D02*
Y00981D01*
X01839D02*
X0192D01*
X01839Y00938D02*
Y00981D01*
Y00938D02*
X0192D01*
X00547Y0113D02*
Y01159D01*
X00482D02*
X00547D01*
X00482Y0113D02*
Y01159D01*
Y0113D02*
X00547D01*
X00587Y01138D02*
X00622D01*
X00587Y01068D02*
Y01138D01*
Y01068D02*
X00622D01*
Y01138*
X00639Y01136D02*
X0067D01*
X00639Y01073D02*
Y01136D01*
Y01073D02*
X0067D01*
Y01136*
X00317Y01375D02*
X00352D01*
Y01444*
X00317D02*
X00352D01*
X00317Y01375D02*
Y01444D01*
X00335Y01127D02*
X00364D01*
Y01192*
X00335D02*
X00364D01*
X00335Y01127D02*
Y01192D01*
X00379Y01388D02*
X0041D01*
Y01451*
X00379D02*
X0041D01*
X00379Y01388D02*
Y01451D01*
X0039Y01127D02*
X00419D01*
Y01192*
X0039D02*
X00419D01*
X0039Y01127D02*
Y01192D01*
X00787Y0078D02*
X00821D01*
X00787Y00711D02*
Y0078D01*
Y00711D02*
X00821D01*
Y0078*
X00842Y00921D02*
Y0095D01*
Y00921D02*
X00907D01*
Y0095*
X00842D02*
X00907D01*
X00868Y00755D02*
Y00786D01*
Y00755D02*
X00931D01*
Y00786*
X00868D02*
X00931D01*
X00862Y00808D02*
Y00853D01*
Y00808D02*
X00947D01*
Y00853*
X00862D02*
X00947D01*
X00887Y01147D02*
Y01192D01*
X00802D02*
X00887D01*
X00802Y01147D02*
Y01192D01*
Y01147D02*
X00887D01*
X00881Y01094D02*
Y01125D01*
X00818D02*
X00881D01*
X00818Y01094D02*
Y01125D01*
Y01094D02*
X00881D01*
X00966Y00979D02*
X01033D01*
X00966D02*
Y0101D01*
X01033*
Y00979D02*
Y0101D01*
X00631Y01339D02*
Y0137D01*
X00568D02*
X00631D01*
X00568Y01339D02*
Y0137D01*
Y01339D02*
X00631D01*
X01729Y00928D02*
X0181D01*
X01729D02*
Y00971D01*
X0181*
Y00928D02*
Y00971D01*
X00774Y01706D02*
X00805D01*
Y01773*
X00774D02*
X00805D01*
X00774Y01706D02*
Y01773D01*
X00783Y01573D02*
Y01636D01*
X00816*
Y01573D02*
Y01636D01*
X00783Y01573D02*
X00816D01*
X01921Y01143D02*
Y01206D01*
X01888Y01143D02*
X01921D01*
X01888D02*
Y01206D01*
X01921*
X01939Y01211D02*
X0197D01*
X01939Y01148D02*
Y01211D01*
Y01148D02*
X0197D01*
Y01211*
X02003Y01458D02*
Y01491D01*
Y01458D02*
X02066D01*
Y01491*
X02003D02*
X02066D01*
X01716Y00033D02*
Y00096D01*
X01683Y00033D02*
X01716D01*
X01683D02*
Y00096D01*
X01716*
X01698Y00286D02*
X01761D01*
Y00253D02*
Y00286D01*
X01698Y00253D02*
X01761D01*
X01698D02*
Y00286D01*
X01627Y00262D02*
Y00327D01*
X01662*
Y00262D02*
Y00327D01*
X01627Y00262D02*
X01662D01*
X01749Y00353D02*
X0178D01*
Y00416*
X01749D02*
X0178D01*
X01749Y00353D02*
Y00416D01*
X01803Y00353D02*
X01836D01*
Y00416*
X01803D02*
X01836D01*
X01803Y00353D02*
Y00416D01*
X01805Y00164D02*
X01864D01*
Y00135D02*
Y00164D01*
X01805Y00135D02*
X01864D01*
X01805D02*
Y00164D01*
X02004Y00278D02*
Y00321D01*
Y00278D02*
X02085D01*
Y00321*
X02004D02*
X02085D01*
X01932Y00346D02*
Y00463D01*
Y00346D02*
X02147D01*
Y00463*
X01932D02*
X02147D01*
X02175Y00278D02*
Y00321D01*
X02094D02*
X02175D01*
X02094Y00278D02*
Y00321D01*
Y00278D02*
X02175D01*
X02139Y0069D02*
Y00719D01*
X0208D02*
X02139D01*
X0208Y0069D02*
Y00719D01*
Y0069D02*
X02139D01*
X02083Y0151D02*
X02236D01*
X02083Y01329D02*
Y0151D01*
Y01329D02*
X02236D01*
Y0151*
X02013Y01399D02*
Y0143D01*
Y01399D02*
X02076D01*
Y0143*
X02013D02*
X02076D01*
X01099Y01743D02*
X0113D01*
Y01806*
X01099D02*
X0113D01*
X01099Y01743D02*
Y01806D01*
X01163Y01924D02*
X01226D01*
X01163D02*
Y01955D01*
X01226*
Y01924D02*
Y01955D01*
M02*