%FSTAX23Y23*%
%MOIN*%
%SFA1B1*%

%IPPOS*%
%AMD104*
4,1,8,-0.035400,0.000000,-0.035400,0.000000,-0.015700,-0.019700,0.015700,-0.019700,0.035400,0.000000,0.035400,0.000000,0.015700,0.019700,-0.015700,0.019700,-0.035400,0.000000,0.0*
1,1,0.039370,-0.015700,0.000000*
1,1,0.039370,-0.015700,0.000000*
1,1,0.039370,0.015700,0.000000*
1,1,0.039370,0.015700,0.000000*
%
%AMD105*
4,1,8,-0.041300,0.000000,-0.041300,0.000000,-0.021700,-0.019700,0.021700,-0.019700,0.041300,0.000000,0.041300,0.000000,0.021700,0.019700,-0.021700,0.019700,-0.041300,0.000000,0.0*
1,1,0.039370,-0.021700,0.000000*
1,1,0.039370,-0.021700,0.000000*
1,1,0.039370,0.021700,0.000000*
1,1,0.039370,0.021700,0.000000*
%
%ADD33R,0.039370X0.039370*%
%ADD95C,0.009843*%
%ADD96C,0.007874*%
%ADD97C,0.019685*%
%ADD102C,0.010000*%
%ADD103C,0.011811*%
G04~CAMADD=104~8~0.0~0.0~393.7~708.7~196.9~0.0~15~0.0~0.0~0.0~0.0~0~0.0~0.0~0.0~0.0~0~0.0~0.0~0.0~90.0~708.0~394.0*
%ADD104D104*%
G04~CAMADD=105~8~0.0~0.0~393.7~826.8~196.9~0.0~15~0.0~0.0~0.0~0.0~0~0.0~0.0~0.0~0.0~0~0.0~0.0~0.0~90.0~827.0~393.0*
%ADD105D105*%
%ADD106C,0.157480*%
%ADD107C,0.019685*%
%ADD108C,0.025591*%
%ADD109C,0.019685*%
%ADD110C,0.015748*%
%LNrelia-1*%
%LPD*%
G54D33*
X02425Y015D03*
Y01135D03*
Y0165D03*
Y0155D03*
Y016D03*
Y01195D03*
Y0108D03*
Y01025D03*
Y0097D03*
Y0125D03*
G54D95*
X01259Y01424D02*
X0126Y01425D01*
X01225Y01424D02*
X01259D01*
X00685Y01395D02*
X009D01*
X00667Y01962D02*
X00924D01*
X00545Y0184D02*
X00667Y01962D01*
X00595Y02095D02*
X00855D01*
X01157Y01792*
X00885Y0204D02*
X01005Y01919D01*
X0057Y0204D02*
X00885D01*
X02345Y01235D02*
X02347D01*
X0234Y0108D02*
X02425D01*
X02355Y0104D02*
X02357D01*
X02372Y01025*
X02425*
X00645Y01615D02*
Y01707D01*
Y01615D02*
X00787Y01472D01*
X00602Y0175D02*
X00645Y01707D01*
X006Y0175D02*
X00602D01*
X01145Y01204D02*
X01159Y0119D01*
X01145Y01204D02*
Y01207D01*
X01159Y01118D02*
X01165Y01112D01*
X01159Y01118D02*
Y0119D01*
X01165Y01109D02*
Y01112D01*
X01005Y01654D02*
X01055Y01605D01*
X01005Y01654D02*
Y01919D01*
X01838Y00521D02*
D01*
X02005Y00355D01*
X01825Y00535D02*
X01838Y00521D01*
X02005Y00355D02*
X0207D01*
X00787Y01472D02*
X01177D01*
X01225Y01424*
X01294Y01025D02*
Y01027D01*
X01297Y01031*
X0126Y0116D02*
X01297Y01122D01*
Y01031D02*
Y01122D01*
X0126Y0116D02*
Y01215D01*
X00475Y01585D02*
X0062D01*
X0102Y01445D02*
X0107Y01395D01*
X0062Y01585D02*
X0076Y01445D01*
X0102*
X01064Y01215D02*
Y01217D01*
X0107Y01223*
Y01395*
X01157Y01622D02*
Y01792D01*
X01186Y01596D02*
X01215Y01568D01*
X01157Y01622D02*
X01183Y01596D01*
X01186*
X01275Y01095D02*
Y01097D01*
X0123Y01143D02*
Y01255D01*
Y01143D02*
X01275Y01097D01*
X00924Y01962D02*
X00975Y01912D01*
Y0155D02*
Y01912D01*
X00692Y00844D02*
X00886Y01038D01*
X00692Y00842D02*
Y00844D01*
X00905Y00964D02*
D01*
X00982Y01042D02*
D01*
X00905Y00964D02*
X00982Y01042D01*
X00886Y01038D02*
X0104Y01192D01*
X00886Y01038D02*
D01*
X0104Y01192D02*
Y01385D01*
X009Y01395D02*
X00975Y0132D01*
X01315Y0093D02*
X01405Y0102D01*
X0119Y0093D02*
X01315D01*
X01405Y0102D02*
Y01105D01*
X0097Y0119D02*
X0099D01*
X00887Y01107D02*
X0097Y0119D01*
X0046Y0111D02*
Y01185D01*
Y0111D02*
X00487Y01082D01*
X00398Y01146D02*
X00522Y01022D01*
X00487Y01082D02*
X00685D01*
X00522Y01022D02*
X00689D01*
X00324Y01146D02*
X00398D01*
X00774Y01107D02*
X00887D01*
X00892Y01137D02*
X0098Y01225D01*
X01007Y01295D02*
Y01327D01*
X0099Y01345D02*
X01007Y01327D01*
X0074Y01137D02*
X00892D01*
X01785Y00585D02*
X0181D01*
X01995Y004D02*
X02105D01*
X0181Y00585D02*
X01995Y004D01*
X02105D02*
X0221Y00295D01*
X01755Y0057D02*
X0196Y00365D01*
X01695Y0057D02*
X01755D01*
X0196Y00275D02*
Y00365D01*
X00305Y01165D02*
X00324Y01146D01*
X00435Y0121D02*
X0046Y01185D01*
X00689Y01022D02*
X00774Y01107D01*
X00685Y01082D02*
X0074Y01137D01*
X0063Y01105D02*
X00755Y0123D01*
X0054Y01105D02*
X0063D01*
X00755Y0123D02*
X00942D01*
X01007Y01295*
X00665Y01165D02*
X0087Y0137D01*
X00625Y01165D02*
X00665D01*
G54D96*
X012Y0192D02*
Y0208D01*
Y0192D02*
X01235Y01885D01*
X01593Y01677D02*
X01715Y01799D01*
Y0199*
X0124Y02015D02*
X01333Y01921D01*
X01495Y02D02*
X01655Y0216D01*
X01495Y0169D02*
Y02D01*
X01503Y01543D02*
X01503D01*
X0126Y01365D02*
X01324D01*
X01503Y01543*
X0178Y0119D02*
X01781D01*
X01495Y01505D02*
X01777Y01192D01*
X0178Y0119*
X00928Y01569D02*
Y01701D01*
X00805Y01825D02*
X00928Y01701D01*
X0052Y00625D02*
X0126Y01365D01*
X01001Y01496D02*
X01393D01*
X00928Y01569D02*
X01001Y01496D01*
X01436Y01546D02*
X01482Y01593D01*
X01018Y01546D02*
X01436D01*
X01393Y01496D02*
X01395Y01495D01*
X01Y01525D02*
X0144D01*
X00975Y0155D02*
X01Y01525D01*
X01333Y01716D02*
Y01921D01*
Y01716D02*
X01335Y01715D01*
X01Y01565D02*
X01018Y01546D01*
X0144Y01581D02*
X01505Y01646D01*
X01438Y01581D02*
X0144D01*
X0139Y01586D02*
X01391D01*
X01495Y0169*
X0136Y01105D02*
Y01207D01*
X012Y01087D02*
Y01207D01*
X01312Y01189D02*
X0132Y01181D01*
X0131Y0121D02*
X01312Y01207D01*
Y01189D02*
Y01207D01*
X0132Y01105D02*
Y01181D01*
X01511Y01646D02*
X01577Y01712D01*
X01505Y01646D02*
X01511D01*
X01482Y01593D02*
Y01595D01*
X01605Y01717*
X01595Y0121D02*
X01815Y0099D01*
X01595Y0121D02*
Y01285D01*
X0099Y00877D02*
X012Y01087D01*
X0099Y0069D02*
Y00877D01*
X01235Y01645D02*
Y01885D01*
X0121Y0162D02*
X01235Y01645D01*
X01593Y01642D02*
Y01677D01*
X01559Y01609D02*
X01593Y01642D01*
X01559Y0149D02*
Y01609D01*
Y0149D02*
X01579Y0147D01*
Y01467D02*
Y0147D01*
Y01467D02*
X01581Y01465D01*
X01605Y01717D02*
Y0172D01*
X01581Y01514D02*
X01846Y0125D01*
X0233*
X01605Y0113D02*
X0164Y01095D01*
Y00915D02*
Y01095D01*
X01595Y0087D02*
X0164Y00915D01*
X01205Y0087D02*
X01595D01*
X0104Y00705D02*
X01205Y0087D01*
X01577Y01712D02*
Y02012D01*
X01715Y0215*
X01706Y01452D02*
X01733D01*
X021Y01819*
Y0193*
X01781Y0119D02*
X02355D01*
X0233Y0125D02*
X02345Y01235D01*
G54D97*
X02385Y01505D02*
X0242D01*
X02425Y015*
X0237Y01135D02*
X02425D01*
X0236Y01125D02*
X0237Y01135D01*
X02335Y0098D02*
X02345Y0097D01*
X02425*
X0242Y01645D02*
X02425Y0165D01*
X0237Y01645D02*
X0242D01*
X00425Y00955D02*
Y00968D01*
X00328Y01065D02*
X00425Y00968D01*
X003Y01065D02*
X00328D01*
G54D102*
X00195Y00699D02*
X0022Y00675D01*
X00195Y00699D02*
Y01455D01*
X00221Y00763D02*
Y01436D01*
X00195Y01455D02*
X00625Y01885D01*
X0094*
X0064Y01855D02*
X00895D01*
X00221Y01436D02*
X0064Y01855D01*
X00221Y00763D02*
X0024Y00745D01*
G54D103*
X02347Y01235D02*
X02362Y0125D01*
X02425*
X02355Y0119D02*
X02357D01*
X02362Y01195*
X02425*
G54D104*
X02385Y00775D03*
Y00435D03*
G54D105*
X0222Y00775D03*
Y00435D03*
G54D106*
X00155Y02255D03*
X00118Y00118D03*
X02384D03*
Y02244D03*
G54D107*
X01085Y00185D03*
X0107Y00215D03*
X01055Y00185D03*
X0107Y00155D03*
G54D108*
X0224Y00718D03*
Y00491D03*
G54D109*
X00585Y01315D03*
X0077Y02065D03*
X00742Y02165D03*
X0124Y02015D03*
X01715Y0199D03*
X0178Y02135D03*
X0158Y02125D03*
X01503Y01543D03*
X01495Y01505D03*
X0126Y01425D03*
X0226Y00845D03*
X0234Y0092D03*
X02345Y0131D03*
X02075Y01475D03*
X01976D03*
X01955Y01135D03*
X01905D03*
X0031Y0143D03*
X00415Y01445D03*
X0041Y01385D03*
X0039Y0135D03*
X00325Y0137D03*
X00295Y01355D03*
X00248Y01359D03*
X00345Y01355D03*
X0065Y0141D03*
X0055Y01407D03*
X0056Y01355D03*
X00645D03*
X00685Y01395D03*
X00718Y01331D03*
X00625Y01315D03*
X0064Y0122D03*
X0067Y01265D03*
X00585Y01261D03*
X017Y00115D03*
X01765Y00294D03*
X01775Y0022D03*
X0173Y00233D03*
X0176Y00115D03*
X01375Y00275D03*
X0142Y0031D03*
X0057Y00595D03*
X0162Y002D03*
X0123Y00255D03*
X0124Y00345D03*
X0127Y0011D03*
X0135D03*
X0144Y0016D03*
X01535Y00195D03*
X0166Y00095D03*
X0227Y0218D03*
X02345Y0213D03*
X02395Y0178D03*
X0219Y0193D03*
X0215Y02215D03*
X02055Y0226D03*
X02025Y02215D03*
X0205Y02145D03*
X01995Y01775D03*
X0197Y0185D03*
X02395Y017D03*
X02385Y01505D03*
X0235Y01445D03*
X0236Y01125D03*
X0229Y01485D03*
X02065Y01395D03*
X0216Y0133D03*
X01785Y0226D03*
X0184Y0186D03*
X01595Y0222D03*
X01755D03*
X01465Y02235D03*
X01535Y019D03*
X01755Y01775D03*
X01615Y0166D03*
X0145Y01895D03*
X0169Y0159D03*
X01845Y0134D03*
X018Y01425D03*
X01504Y0158D03*
X0145Y01095D03*
X0213Y00875D03*
X0215Y0074D03*
X0184Y00775D03*
X01765D03*
X0206Y006D03*
X02065Y00495D03*
X0205Y00695D03*
X02165Y00445D03*
X022Y00225D03*
X02175Y0011D03*
X01925Y00095D03*
X0186Y0025D03*
X01815Y00445D03*
X0176Y00425D03*
X01875Y00135D03*
X0177Y00045D03*
X0157Y00945D03*
Y0046D03*
X01565Y00625D03*
X01625Y0034D03*
X01515Y00945D03*
X0144Y00655D03*
X01435Y0039D03*
X01545Y00285D03*
X01485Y00275D03*
X0167Y0023D03*
X0165Y0014D03*
X0152Y00125D03*
X01565Y0006D03*
X01645Y00045D03*
X01385Y02185D03*
X01315Y021D03*
X0122Y02225D03*
X0131Y0203D03*
X01355Y01824D03*
X014Y01784D03*
X013Y01765D03*
X0124Y0194D03*
X0113Y02105D03*
X01123Y01793D03*
X01035Y018D03*
X01032Y01852D03*
X01295Y0163D03*
X01118Y01633D03*
X00845Y0165D03*
X0077Y01635D03*
X00952Y01605D03*
X00455Y02165D03*
X00605Y01995D03*
X00595Y0168D03*
X00275Y02155D03*
X00105Y01565D03*
X00084Y02095D03*
X0026Y0117D03*
X0137Y00625D03*
X0126Y0059D03*
X014Y00455D03*
X01215Y0041D03*
X01105Y0053D03*
X0097Y0057D03*
X00968Y01153D03*
X0091Y0087D03*
X00925Y00745D03*
X0094Y0053D03*
Y0035D03*
X0134Y00325D03*
X0132Y00265D03*
X0118Y0024D03*
X01425Y0008D03*
X0111Y0007D03*
X0101Y0025D03*
X01025Y00115D03*
X0092Y0012D03*
X00855Y00125D03*
X00785Y0116D03*
X008Y0108D03*
X00835Y00715D03*
X007Y01065D03*
X00625Y01045D03*
X00774Y0084D03*
X00565Y0085D03*
X00775Y00705D03*
X0036Y00995D03*
X00705Y0053D03*
X00845Y0035D03*
X00695Y00095D03*
Y0018D03*
X00225Y00465D03*
X00175Y0042D03*
X0024Y0041D03*
X0036Y0022D03*
X00185Y0035D03*
X01131Y01745D03*
X00805Y01825D03*
X0154Y01619D03*
X0197Y01385D03*
X01395Y01495D03*
X02195Y0101D03*
X02335Y0098D03*
X0237Y01645D03*
X02405Y01555D03*
X02422Y01584D03*
X0234Y0108D03*
X02355Y0104D03*
X02165Y02265D03*
X01585Y0227D03*
X00425Y00955D03*
X003Y01065D03*
X0016Y0023D03*
X00175Y0029D03*
X0057Y0204D03*
X00745Y01935D03*
X00545Y0184D03*
X006Y0175D03*
X0058Y0194D03*
X01165Y01109D03*
X01055Y01605D03*
X01145Y01207D03*
X01965Y01805D03*
X019Y01765D03*
X0187Y01735D03*
X01905Y01655D03*
X0183Y018D03*
X01665Y01785D03*
X01625Y01515D03*
X0159Y01575D03*
X01895Y01415D03*
X0174Y009D03*
X01825Y00535D03*
X0207Y00355D03*
X0156Y0057D03*
X01489Y01059D03*
X01545Y01045D03*
X0146Y0056D03*
X01035Y0224D03*
X01262Y01759D03*
X0141Y01744D03*
X01185Y01765D03*
X01375Y0171D03*
X01268Y01629D03*
X00927Y01112D03*
X01425Y0056D03*
X0142Y00525D03*
X0115Y007D03*
X0089Y01585D03*
X0085Y01565D03*
X0081Y0156D03*
X00875Y01085D03*
X00595Y02095D03*
X01294Y01025D03*
X0126Y01215D03*
X00475Y01585D03*
X01064Y01215D03*
X01275Y01095D03*
X01215Y01568D03*
X0123Y01255D03*
X0144Y01525D03*
X01335Y01715D03*
X0094Y01885D03*
X01Y01565D03*
X01438Y01581D03*
X0139Y01586D03*
X00692Y00842D03*
X00905Y00964D03*
X00982Y01042D03*
X012Y01207D03*
X0136D03*
X0131Y0121D03*
X0104Y01385D03*
X0132Y01105D03*
X0121Y0162D03*
X01605Y0172D03*
X01581Y01514D03*
X01581Y01465D03*
X00491Y0111D03*
X012Y0208D03*
X00725Y00774D03*
X00755Y00804D03*
X01595Y01285D03*
X01815Y0099D03*
X0119Y0093D03*
X01405Y01105D03*
X01605Y0113D03*
X0104Y00705D03*
X0099Y0069D03*
X0098Y01225D03*
X0099Y0119D03*
X01385Y02065D03*
X01465Y0204D03*
X01715Y0215D03*
X01655Y0216D03*
X0136Y01105D03*
X02145Y02145D03*
X02225Y01965D03*
X02265Y0193D03*
X01706Y01452D03*
X021Y0193D03*
X0108Y01715D03*
X00975Y0132D03*
X0099Y01345D03*
X0229Y018D03*
X02245Y0177D03*
X02355Y0119D03*
X02345Y01235D03*
X02165Y0113D03*
X021Y00945D03*
X01785Y00585D03*
X01695Y0057D03*
X0052Y00625D03*
X00305Y01165D03*
X01065Y01735D03*
X00435Y0121D03*
X0031Y0112D03*
X0038Y01095D03*
X00895Y01855D03*
X0024Y00745D03*
X0022Y00675D03*
X0202Y0122D03*
X0087Y0137D03*
X0058Y0113D03*
X0069Y0112D03*
X0054Y01105D03*
X00625Y01165D03*
X008Y0079D03*
X00925Y0091D03*
X01125Y01865D03*
X0111Y01715D03*
X01315Y00485D03*
X0124Y0053D03*
X01235Y0047D03*
X00855Y00855D03*
X0083Y00815D03*
X00855Y0076D03*
X0204Y01315D03*
X0196Y00275D03*
X0221Y00295D03*
X0184Y0009D03*
X005Y0008D03*
X0049Y00165D03*
X0051Y00285D03*
Y0039D03*
X00425Y0031D03*
X0036Y00315D03*
G54D110*
X01701Y00159D03*
X01728Y0019D03*
Y00159D03*
X01701Y0019D03*
M02*